<?xml version="1.0" encoding="UTF-8" standalone="no"?>
<svg
   xmlns:dc="http://purl.org/dc/elements/1.1/"
   xmlns:cc="http://creativecommons.org/ns#"
   xmlns:rdf="http://www.w3.org/1999/02/22-rdf-syntax-ns#"
   xmlns:svg="http://www.w3.org/2000/svg"
   xmlns="http://www.w3.org/2000/svg"
   xmlns:sodipodi="http://sodipodi.sourceforge.net/DTD/sodipodi-0.dtd"
   xmlns:inkscape="http://www.inkscape.org/namespaces/inkscape"
   width="32"
   height="32"
   version="1.1"
   viewBox="0 0 8.4666667 8.4666671"
   id="svg371"
   sodipodi:docname="AlpineLinux.svg"
   inkscape:version="1.0.2 (e86c870879, 2021-01-15)">
  <metadata
     id="metadata375">
    <rdf:RDF>
      <cc:Work
         rdf:about="">
        <dc:format>image/svg+xml</dc:format>
        <dc:type
           rdf:resource="http://purl.org/dc/dcmitype/StillImage" />
        <dc:title></dc:title>
      </cc:Work>
    </rdf:RDF>
  </metadata>
  <sodipodi:namedview
     inkscape:snap-bbox-edge-midpoints="true"
     inkscape:bbox-nodes="true"
     inkscape:snap-bbox="true"
     pagecolor="#808080"
     bordercolor="#666666"
     borderopacity="1"
     objecttolerance="10"
     gridtolerance="10"
     guidetolerance="10"
     inkscape:pageopacity="0"
     inkscape:pageshadow="2"
     inkscape:window-width="1920"
     inkscape:window-height="1016"
     id="namedview373"
     showgrid="false"
     inkscape:zoom="5.6568542"
     inkscape:cx="15.605234"
     inkscape:cy="16.319436"
     inkscape:window-x="1920"
     inkscape:window-y="27"
     inkscape:window-maximized="1"
     inkscape:current-layer="svg371"
     inkscape:document-rotation="0"
     showguides="false">
    <inkscape:grid
       id="grid1162"
       type="xygrid" />
  </sodipodi:namedview>
  <defs
     id="defs37">
    <style
       id="current-color-scheme"
       type="text/css">.ColorScheme-Text { color:#565656; } .ColorScheme-Highlight { color:#5294e2; }</style>
    <style
       type="text/css"
       id="style13">.ColorScheme-Text { color:#565656; } .ColorScheme-Highlight { color:#5294e2; }</style>
    <style
       type="text/css"
       id="style15">.ColorScheme-Text { color:#565656; } .ColorScheme-Highlight { color:#5294e2; }</style>
    <style
       type="text/css"
       id="style17">.ColorScheme-Text { color:#565656; } .ColorScheme-Highlight { color:#5294e2; }</style>
    <style
       type="text/css"
       id="style19">.ColorScheme-Text { color:#565656; } .ColorScheme-Highlight { color:#5294e2; }</style>
    <style
       type="text/css"
       id="style21">.ColorScheme-Text { color:#565656; } .ColorScheme-Highlight { color:#5294e2; }</style>
    <style
       type="text/css"
       id="style23">.ColorScheme-Text { color:#565656; } .ColorScheme-Highlight { color:#5294e2; }</style>
    <style
       type="text/css"
       id="style25">.ColorScheme-Text { color:#565656; } .ColorScheme-Highlight { color:#5294e2; }</style>
    <style
       type="text/css"
       id="style27">.ColorScheme-Text { color:#565656; } .ColorScheme-Highlight { color:#5294e2; }</style>
    <style
       type="text/css"
       id="style29" />
    <style
       type="text/css"
       id="style31" />
    <style
       type="text/css"
       id="style33">.ColorScheme-Text { color:#565656; } .ColorScheme-Highlight { color:#5294e2; }</style>
    <style
       type="text/css"
       id="style35">.ColorScheme-Text { color:#565656; } .ColorScheme-Highlight { color:#5294e2; }</style>
  </defs>
  <path
     id="circle1179"
     style="stroke-width:3.77983;paint-order:stroke markers fill;fill:#ffffff"
     d="M 16 0 A 16.000001 16.000001 0 0 0 0 16 A 16.000001 16.000001 0 0 0 16 32 A 16.000001 16.000001 0 0 0 32 16 A 16.000001 16.000001 0 0 0 16 0 z M 12.896484 10.039062 L 17.212891 14.484375 L 17.240234 14.513672 L 17.240234 14.509766 L 19.771484 17.042969 L 23.634766 20.822266 C 23.31348 21.045276 23.015908 21.223808 22.732422 21.375 A 5.9343256 5.9343256 0 0 1 21.9375 21.722656 A 4.0822113 4.0822113 0 0 1 21.257812 21.904297 A 2.7970707 2.7970707 0 0 1 20.138672 21.904297 A 2.0789039 2.0789039 0 0 1 19.527344 21.669922 L 19.439453 21.605469 L 17.738281 19.855469 L 12.867188 14.986328 L 11.109375 16.671875 L 6.1914062 21.59375 C 6.1838472 21.59375 6.1564328 21.616498 6.1035156 21.654297 A 2.2905741 2.2905741 0 0 1 4.9472656 21.941406 A 4.2825421 4.2825421 0 0 1 3.6933594 21.710938 C 3.4476707 21.624001 3.1819244 21.510694 2.8984375 21.363281 C 2.6187304 21.215868 2.3175053 21.035511 2 20.8125 L 12.896484 10.039062 z M 20.457031 11.294922 L 27.789062 18.65625 L 30 20.826172 C 29.682495 21.049181 29.38127 21.227714 29.101562 21.378906 C 28.818075 21.526319 28.552329 21.639626 28.306641 21.726562 C 28.060952 21.80972 27.834719 21.870281 27.623047 21.904297 A 2.7970707 2.7970707 0 0 1 26.507812 21.904297 C 26.352841 21.874061 26.229008 21.832467 26.126953 21.787109 A 1.4590126 1.4590126 0 0 1 25.808594 21.605469 L 23.835938 19.654297 L 20.453125 16.267578 L 19.916016 16.804688 L 17.421875 14.333984 L 20.457031 11.294922 z M 10.896484 17.894531 L 10.900391 21.945312 A 4.3770379 4.3770379 0 0 1 9.6542969 21.703125 C 9.4086083 21.616188 9.1508015 21.503008 8.8710938 21.359375 C 8.5951667 21.211962 8.2961491 21.035638 7.9824219 20.816406 L 10.896484 17.894531 z "
     transform="scale(0.26458334)" />
</svg>
