<?xml version="1.0" encoding="UTF-8" standalone="no"?>
<svg
   width="31.999746"
   height="31.999746"
   version="1.1"
   viewBox="0 0 8.4665995 8.4666"
   id="svg371"
   sodipodi:docname="cancel.svg"
   xmlns:inkscape="http://www.inkscape.org/namespaces/inkscape"
   xmlns:sodipodi="http://sodipodi.sourceforge.net/DTD/sodipodi-0.dtd"
   xmlns="http://www.w3.org/2000/svg"
   xmlns:svg="http://www.w3.org/2000/svg">
  <sodipodi:namedview
     inkscape:snap-bbox-edge-midpoints="true"
     inkscape:bbox-nodes="true"
     inkscape:snap-bbox="true"
     pagecolor="#808080"
     bordercolor="#666666"
     borderopacity="1"
     objecttolerance="10"
     gridtolerance="10"
     guidetolerance="10"
     inkscape:pageopacity="0"
     inkscape:pageshadow="2"
     inkscape:window-width="1920"
     inkscape:window-height="1016"
     id="namedview373"
     showgrid="false"
     inkscape:zoom="8"
     inkscape:cx="32.666341"
     inkscape:cy="24.750884"
     inkscape:window-x="1920"
     inkscape:window-y="27"
     inkscape:window-maximized="1"
     inkscape:current-layer="svg371"
     inkscape:document-rotation="0"
     inkscape:showpageshadow="2"
     inkscape:pagecheckerboard="0"
     inkscape:deskcolor="#d1d1d1">
    <inkscape:grid
       id="grid1162"
       type="xygrid"
       originx="0"
       originy="0"
       spacingy="1"
       spacingx="1"
       units="px"
       visible="false" />
  </sodipodi:namedview>
  <defs
     id="defs37">
    <style
       id="current-color-scheme"
       type="text/css">.ColorScheme-Text { color:#565656; } .ColorScheme-Highlight { color:#5294e2; }</style>
    <style
       type="text/css"
       id="style13">.ColorScheme-Text { color:#565656; } .ColorScheme-Highlight { color:#5294e2; }</style>
    <style
       type="text/css"
       id="style15">.ColorScheme-Text { color:#565656; } .ColorScheme-Highlight { color:#5294e2; }</style>
    <style
       type="text/css"
       id="style17">.ColorScheme-Text { color:#565656; } .ColorScheme-Highlight { color:#5294e2; }</style>
    <style
       type="text/css"
       id="style19">.ColorScheme-Text { color:#565656; } .ColorScheme-Highlight { color:#5294e2; }</style>
    <style
       type="text/css"
       id="style21">.ColorScheme-Text { color:#565656; } .ColorScheme-Highlight { color:#5294e2; }</style>
    <style
       type="text/css"
       id="style23">.ColorScheme-Text { color:#565656; } .ColorScheme-Highlight { color:#5294e2; }</style>
    <style
       type="text/css"
       id="style25">.ColorScheme-Text { color:#565656; } .ColorScheme-Highlight { color:#5294e2; }</style>
    <style
       type="text/css"
       id="style27">.ColorScheme-Text { color:#565656; } .ColorScheme-Highlight { color:#5294e2; }</style>
    <style
       type="text/css"
       id="style29" />
    <style
       type="text/css"
       id="style31" />
    <style
       type="text/css"
       id="style33">.ColorScheme-Text { color:#565656; } .ColorScheme-Highlight { color:#5294e2; }</style>
    <style
       type="text/css"
       id="style35">.ColorScheme-Text { color:#565656; } .ColorScheme-Highlight { color:#5294e2; }</style>
  </defs>
  <path
     id="path279"
     style="fill:#ffffff;stroke-width:1.08703"
     d="M 16 0 C 7.1630868 1.1842379e-15 0 7.1630868 0 16 C 1.1842379e-15 24.836913 7.1630868 32 16 32 C 24.836913 32 32 24.836913 32 16 C 32 7.1630868 24.836913 0 16 0 z M 13.828125 9.9550781 C 14.495836 9.955125 15.037101 10.49639 15.037109 11.164062 C 15.037109 11.474777 14.879464 11.802285 14.658203 12.033203 L 13.109375 13.582031 L 19.267578 13.582031 C 21.6012 13.591595 23.49055 15.480962 23.5 17.814453 C 23.5 20.136942 21.588989 22.044922 19.267578 22.044922 L 18.664062 22.044922 C 17.995828 22.045439 17.453686 21.504171 17.453125 20.835938 C 17.452606 20.16694 17.995065 19.624482 18.664062 19.625 C 18.85899 19.6257 19.068756 19.628753 19.267578 19.626953 C 20.283196 19.626953 21.082031 18.830013 21.082031 17.814453 C 21.082031 16.798893 20.283196 16 19.267578 16 L 13.109375 16 L 14.658203 17.548828 C 14.879465 17.779747 15.037109 18.107254 15.037109 18.417969 C 15.037101 19.085642 14.495836 19.626907 13.828125 19.626953 C 13.453313 19.626953 13.159317 19.516829 12.919922 19.287109 L 8.5 14.791016 L 12.919922 10.294922 C 13.159317 10.06521 13.453313 9.955077 13.828125 9.9550781 z "
     transform="scale(0.26458334)" />
</svg>
