<?xml version="1.0" encoding="UTF-8" standalone="no"?>
<svg
   width="32"
   height="32"
   version="1.1"
   viewBox="0 0 8.4666667 8.4666671"
   id="svg371"
   sodipodi:docname="centos.svg"
   inkscape:version="1.4.3 (0d15f75042, 2025-12-25)"
   xmlns:inkscape="http://www.inkscape.org/namespaces/inkscape"
   xmlns:sodipodi="http://sodipodi.sourceforge.net/DTD/sodipodi-0.dtd"
   xmlns="http://www.w3.org/2000/svg"
   xmlns:svg="http://www.w3.org/2000/svg">
  <sodipodi:namedview
     inkscape:snap-bbox-edge-midpoints="true"
     inkscape:bbox-nodes="true"
     inkscape:snap-bbox="true"
     pagecolor="#808080"
     bordercolor="#666666"
     borderopacity="1"
     objecttolerance="10"
     gridtolerance="10"
     guidetolerance="10"
     inkscape:pageopacity="0"
     inkscape:pageshadow="2"
     inkscape:window-width="1920"
     inkscape:window-height="1011"
     id="namedview373"
     showgrid="false"
     inkscape:zoom="16"
     inkscape:cx="17.34375"
     inkscape:cy="11.34375"
     inkscape:window-x="0"
     inkscape:window-y="0"
     inkscape:window-maximized="1"
     inkscape:current-layer="svg371"
     inkscape:document-rotation="0"
     inkscape:showpageshadow="2"
     inkscape:pagecheckerboard="0"
     inkscape:deskcolor="#d1d1d1">
    <inkscape:grid
       id="grid1162"
       type="xygrid"
       originx="0"
       originy="0"
       spacingy="1"
       spacingx="1"
       units="px"
       visible="false" />
  </sodipodi:namedview>
  <defs
     id="defs37">
    <style
       id="current-color-scheme"
       type="text/css">.ColorScheme-Text { color:#565656; } .ColorScheme-Highlight { color:#5294e2; }</style>
    <style
       type="text/css"
       id="style13">.ColorScheme-Text { color:#565656; } .ColorScheme-Highlight { color:#5294e2; }</style>
    <style
       type="text/css"
       id="style15">.ColorScheme-Text { color:#565656; } .ColorScheme-Highlight { color:#5294e2; }</style>
    <style
       type="text/css"
       id="style17">.ColorScheme-Text { color:#565656; } .ColorScheme-Highlight { color:#5294e2; }</style>
    <style
       type="text/css"
       id="style19">.ColorScheme-Text { color:#565656; } .ColorScheme-Highlight { color:#5294e2; }</style>
    <style
       type="text/css"
       id="style21">.ColorScheme-Text { color:#565656; } .ColorScheme-Highlight { color:#5294e2; }</style>
    <style
       type="text/css"
       id="style23">.ColorScheme-Text { color:#565656; } .ColorScheme-Highlight { color:#5294e2; }</style>
    <style
       type="text/css"
       id="style25">.ColorScheme-Text { color:#565656; } .ColorScheme-Highlight { color:#5294e2; }</style>
    <style
       type="text/css"
       id="style27">.ColorScheme-Text { color:#565656; } .ColorScheme-Highlight { color:#5294e2; }</style>
    <style
       type="text/css"
       id="style29" />
    <style
       type="text/css"
       id="style31" />
    <style
       type="text/css"
       id="style33">.ColorScheme-Text { color:#565656; } .ColorScheme-Highlight { color:#5294e2; }</style>
    <style
       type="text/css"
       id="style35">.ColorScheme-Text { color:#565656; } .ColorScheme-Highlight { color:#5294e2; }</style>
  </defs>
  <path
     id="circle1"
     style="display:inline;fill:#ffffff;fill-opacity:1;stroke-width:2.7287;stroke-linecap:round;stroke-linejoin:round;paint-order:markers fill stroke"
     d="M 4.2333334,0 A 4.2333336,4.2333336 0 0 0 0,4.2333334 4.2333336,4.2333336 0 0 0 4.2333334,8.4666669 4.2333336,4.2333336 0 0 0 8.4666669,4.2333334 4.2333336,4.2333336 0 0 0 4.2333334,0 Z m 0,1.2397176 0.8769491,0.8769491 H 6.3500002 V 3.3563844 L 7.2269493,4.2333334 6.3500002,5.1102825 V 6.3500002 H 5.1102825 L 4.2333334,7.2269493 3.3563844,6.3500002 H 2.1166667 V 5.1102825 L 1.2397176,4.2333334 2.1166667,3.3563844 V 2.1166667 H 3.3563844 Z M 3.9687501,2.1166667 V 3.1750001 L 4.2333334,3.4395834 4.4979168,3.1750001 V 2.1166667 Z M 2.9238526,2.5497152 2.5497152,2.9238526 3.29799,3.6721274 H 3.6721274 V 3.29799 Z m 2.6189617,0 L 4.7945395,3.29799 V 3.6721274 H 5.1686769 L 5.9169517,2.9238526 Z M 4.0142254,3.7041668 V 4.0142254 H 3.7041668 l 0.219108,0.219108 -0.219108,0.2191081 h 0.3100586 v 0.3100586 l 0.219108,-0.219108 0.2191081,0.219108 V 4.4524415 H 4.7625001 L 4.5433921,4.2333334 4.7625001,4.0142254 H 4.4524415 V 3.7041668 L 4.2333334,3.9232748 Z M 2.1166667,3.9687501 V 4.4979168 H 3.1750001 L 3.4395834,4.2333334 3.1750001,3.9687501 Z m 3.1750001,0 -0.2645833,0.2645833 0.2645833,0.2645834 H 6.3500002 V 3.9687501 Z M 3.29799,4.7945395 2.5497152,5.5428143 2.9238526,5.9169517 3.6721274,5.1686769 V 4.7945395 Z m 1.4965495,0 V 5.1686769 L 5.5428143,5.9169517 5.9169517,5.5428143 5.1686769,4.7945395 Z M 4.2333334,5.0270835 3.9687501,5.2916668 V 6.3500002 H 4.4979168 V 5.2916668 Z" />
</svg>
