<?xml version="1.0" encoding="UTF-8" standalone="no"?>
<svg
   xmlns:dc="http://purl.org/dc/elements/1.1/"
   xmlns:cc="http://creativecommons.org/ns#"
   xmlns:rdf="http://www.w3.org/1999/02/22-rdf-syntax-ns#"
   xmlns:svg="http://www.w3.org/2000/svg"
   xmlns="http://www.w3.org/2000/svg"
   xmlns:sodipodi="http://sodipodi.sourceforge.net/DTD/sodipodi-0.dtd"
   xmlns:inkscape="http://www.inkscape.org/namespaces/inkscape"
   width="32"
   height="32"
   version="1.1"
   viewBox="0 0 8.4666667 8.4666672"
   id="svg371"
   sodipodi:docname="chakra.svg"
   inkscape:version="1.0.2 (e86c870879, 2021-01-15)">
  <metadata
     id="metadata375">
    <rdf:RDF>
      <cc:Work
         rdf:about="">
        <dc:format>image/svg+xml</dc:format>
        <dc:type
           rdf:resource="http://purl.org/dc/dcmitype/StillImage" />
        <dc:title></dc:title>
      </cc:Work>
    </rdf:RDF>
  </metadata>
  <sodipodi:namedview
     inkscape:snap-bbox-edge-midpoints="true"
     inkscape:bbox-nodes="true"
     inkscape:snap-bbox="true"
     pagecolor="#808080"
     bordercolor="#666666"
     borderopacity="1"
     objecttolerance="10"
     gridtolerance="10"
     guidetolerance="10"
     inkscape:pageopacity="0"
     inkscape:pageshadow="2"
     inkscape:window-width="1920"
     inkscape:window-height="1016"
     id="namedview373"
     showgrid="false"
     inkscape:zoom="11.313708"
     inkscape:cx="16.726291"
     inkscape:cy="18.637379"
     inkscape:window-x="1920"
     inkscape:window-y="27"
     inkscape:window-maximized="1"
     inkscape:current-layer="svg371"
     inkscape:document-rotation="0">
    <inkscape:grid
       id="grid1162"
       type="xygrid" />
  </sodipodi:namedview>
  <defs
     id="defs37">
    <style
       id="current-color-scheme"
       type="text/css">.ColorScheme-Text { color:#565656; } .ColorScheme-Highlight { color:#5294e2; }</style>
    <style
       type="text/css"
       id="style13">.ColorScheme-Text { color:#565656; } .ColorScheme-Highlight { color:#5294e2; }</style>
    <style
       type="text/css"
       id="style15">.ColorScheme-Text { color:#565656; } .ColorScheme-Highlight { color:#5294e2; }</style>
    <style
       type="text/css"
       id="style17">.ColorScheme-Text { color:#565656; } .ColorScheme-Highlight { color:#5294e2; }</style>
    <style
       type="text/css"
       id="style19">.ColorScheme-Text { color:#565656; } .ColorScheme-Highlight { color:#5294e2; }</style>
    <style
       type="text/css"
       id="style21">.ColorScheme-Text { color:#565656; } .ColorScheme-Highlight { color:#5294e2; }</style>
    <style
       type="text/css"
       id="style23">.ColorScheme-Text { color:#565656; } .ColorScheme-Highlight { color:#5294e2; }</style>
    <style
       type="text/css"
       id="style25">.ColorScheme-Text { color:#565656; } .ColorScheme-Highlight { color:#5294e2; }</style>
    <style
       type="text/css"
       id="style27">.ColorScheme-Text { color:#565656; } .ColorScheme-Highlight { color:#5294e2; }</style>
    <style
       type="text/css"
       id="style29" />
    <style
       type="text/css"
       id="style31" />
    <style
       type="text/css"
       id="style33">.ColorScheme-Text { color:#565656; } .ColorScheme-Highlight { color:#5294e2; }</style>
    <style
       type="text/css"
       id="style35">.ColorScheme-Text { color:#565656; } .ColorScheme-Highlight { color:#5294e2; }</style>
  </defs>
  <path
     id="circle49"
     style="fill:#ffffff;stroke-width:3.63957;paint-order:stroke markers fill"
     d="M 16 0 A 15.999865 15.999865 0 0 0 0 16 A 15.999865 15.999865 0 0 0 16 32 A 15.999865 15.999865 0 0 0 32 16 A 15.999865 15.999865 0 0 0 16 0 z M 16.443359 6.7714844 A 0.94290207 0.94290207 0 0 1 16.679688 6.7988281 C 19.676369 7.4684901 20.197226 5.5844374 21.205078 8.6035156 C 22.21965 11.65171 21.081448 17.88396 16.109375 16.546875 C 22.071383 17.207578 14.329109 6.8386745 16.443359 6.7714844 z M 10.517578 8.2167969 L 10.519531 8.2167969 C 13.818568 8.2212764 19.568993 11.199678 16.724609 15.378906 C 19.295753 9.9051471 5.8397837 14.285566 7.3515625 11.839844 C 8.9350106 9.2776586 7.2498962 8.2123174 10.517578 8.2167969 z M 12.818359 12.896484 L 12.818359 12.898438 C 13.841889 12.900677 14.863037 13.3473 15.765625 14.449219 C 11.201173 10.384213 11.332655 24.161804 9.4042969 22.011719 C 7.3863524 19.758608 5.8210791 20.983636 6.8378906 17.966797 C 7.572503 15.776397 10.204662 12.894245 12.818359 12.896484 z M 24.148438 13.384766 C 24.347768 13.402683 24.471171 13.544154 24.498047 13.855469 C 24.769047 16.831994 26.776199 16.732296 24.128906 18.595703 C 21.456977 20.474788 14.999358 21.347178 14.775391 16.34375 C 15.87283 21.593542 22.524675 13.263537 24.148438 13.386719 L 24.148438 13.384766 z M 14.560547 15.046875 C 9.1696553 18.005482 22.705238 22.142169 20.001953 23.259766 C 17.173247 24.424395 17.89086 26.249033 15.248047 24.378906 C 12.581077 22.493441 9.7309652 16.806115 14.560547 15.046875 z "
     transform="scale(0.26458334)" />
</svg>
