<?xml version="1.0" encoding="UTF-8" standalone="no"?>
<svg
   xmlns:dc="http://purl.org/dc/elements/1.1/"
   xmlns:cc="http://creativecommons.org/ns#"
   xmlns:rdf="http://www.w3.org/1999/02/22-rdf-syntax-ns#"
   xmlns:svg="http://www.w3.org/2000/svg"
   xmlns="http://www.w3.org/2000/svg"
   xmlns:sodipodi="http://sodipodi.sourceforge.net/DTD/sodipodi-0.dtd"
   xmlns:inkscape="http://www.inkscape.org/namespaces/inkscape"
   width="32"
   height="32"
   version="1.1"
   viewBox="0 0 8.4666667 8.4666672"
   id="svg371"
   sodipodi:docname="debian.svg"
   inkscape:version="1.0.2 (e86c870879, 2021-01-15)">
  <metadata
     id="metadata375">
    <rdf:RDF>
      <cc:Work
         rdf:about="">
        <dc:format>image/svg+xml</dc:format>
        <dc:type
           rdf:resource="http://purl.org/dc/dcmitype/StillImage" />
        <dc:title></dc:title>
      </cc:Work>
    </rdf:RDF>
  </metadata>
  <sodipodi:namedview
     inkscape:snap-bbox-edge-midpoints="true"
     inkscape:bbox-nodes="true"
     inkscape:snap-bbox="true"
     pagecolor="#808080"
     bordercolor="#666666"
     borderopacity="1"
     objecttolerance="10"
     gridtolerance="10"
     guidetolerance="10"
     inkscape:pageopacity="0"
     inkscape:pageshadow="2"
     inkscape:window-width="1920"
     inkscape:window-height="1016"
     id="namedview373"
     showgrid="false"
     inkscape:zoom="11.313708"
     inkscape:cx="12.415793"
     inkscape:cy="12.783064"
     inkscape:window-x="1920"
     inkscape:window-y="27"
     inkscape:window-maximized="1"
     inkscape:current-layer="svg371"
     inkscape:document-rotation="0">
    <inkscape:grid
       id="grid1162"
       type="xygrid" />
  </sodipodi:namedview>
  <defs
     id="defs37">
    <style
       id="current-color-scheme"
       type="text/css">.ColorScheme-Text { color:#565656; } .ColorScheme-Highlight { color:#5294e2; }</style>
    <style
       type="text/css"
       id="style13">.ColorScheme-Text { color:#565656; } .ColorScheme-Highlight { color:#5294e2; }</style>
    <style
       type="text/css"
       id="style15">.ColorScheme-Text { color:#565656; } .ColorScheme-Highlight { color:#5294e2; }</style>
    <style
       type="text/css"
       id="style17">.ColorScheme-Text { color:#565656; } .ColorScheme-Highlight { color:#5294e2; }</style>
    <style
       type="text/css"
       id="style19">.ColorScheme-Text { color:#565656; } .ColorScheme-Highlight { color:#5294e2; }</style>
    <style
       type="text/css"
       id="style21">.ColorScheme-Text { color:#565656; } .ColorScheme-Highlight { color:#5294e2; }</style>
    <style
       type="text/css"
       id="style23">.ColorScheme-Text { color:#565656; } .ColorScheme-Highlight { color:#5294e2; }</style>
    <style
       type="text/css"
       id="style25">.ColorScheme-Text { color:#565656; } .ColorScheme-Highlight { color:#5294e2; }</style>
    <style
       type="text/css"
       id="style27">.ColorScheme-Text { color:#565656; } .ColorScheme-Highlight { color:#5294e2; }</style>
    <style
       type="text/css"
       id="style29" />
    <style
       type="text/css"
       id="style31" />
    <style
       type="text/css"
       id="style33">.ColorScheme-Text { color:#565656; } .ColorScheme-Highlight { color:#5294e2; }</style>
    <style
       type="text/css"
       id="style35">.ColorScheme-Text { color:#565656; } .ColorScheme-Highlight { color:#5294e2; }</style>
  </defs>
  <path
     id="circle56"
     style="fill:#ffffff;fill-opacity:1;stroke-width:3.63957;paint-order:stroke markers fill"
     d="M 16 0 A 15.999865 15.999865 0 0 0 0 16 A 15.999865 15.999865 0 0 0 16 32 A 15.999865 15.999865 0 0 0 32 16 A 15.999865 15.999865 0 0 0 16 0 z M 15.767578 6.4941406 C 15.613039 6.579248 15.465604 6.6433557 15.322266 6.7441406 C 15.900101 6.6075334 15.871904 6.8029968 16.460938 6.7246094 C 16.254887 6.7559643 16.002653 6.8358174 16.042969 6.8671875 C 16.703672 6.9433374 16.804872 6.6633765 17.414062 6.8671875 L 17.373047 6.6894531 C 18.224122 6.9940486 18.40176 6.939486 19.322266 7.4277344 C 19.644778 7.4456493 19.678053 7.2306434 20.164062 7.4277344 C 20.25141 7.5800323 20.145862 7.6064954 20.746094 7.9648438 C 20.813282 7.9379675 20.626049 7.7691467 20.480469 7.6347656 C 21.685413 8.2797911 22.997821 9.6538213 23.396484 11.123047 C 23.022459 10.435467 23.358418 11.475627 23.228516 11.421875 A 8.0068287 8.0068287 0 0 1 23.617188 12.816406 C 23.505204 12.422224 23.262856 11.473045 22.841797 10.859375 C 22.805962 11.255797 22.296213 10.585798 22.576172 11.457031 C 22.788941 11.766106 22.618819 11.142688 22.880859 11.691406 C 22.885338 11.953448 22.984449 12.212305 23.044922 12.552734 C 22.953094 12.537057 22.842579 12.176559 22.775391 12.277344 C 22.867218 12.705122 23.017941 12.925384 23.076172 12.958984 C 23.044817 13.030656 22.969618 12.892438 22.962891 13.183594 C 22.998724 13.853256 23.150985 13.570192 23.222656 13.601562 C 23.148748 13.930794 22.856373 14.320082 23.001953 14.886719 C 22.959399 14.714264 22.879116 14.540448 22.816406 14.376953 C 22.758175 14.860722 22.923186 14.956174 22.699219 15.542969 C 22.860476 15.014407 22.841749 14.536891 22.689453 14.767578 C 22.756643 15.517868 22.096297 16.093264 22.167969 16.570312 L 21.976562 16.306641 C 21.454716 17.059172 21.965198 16.719899 21.611328 17.291016 C 21.741215 17.067048 21.540723 17.198682 21.710938 16.943359 C 21.598954 16.950078 21.209623 17.423452 20.853516 17.701172 C 19.45372 18.821008 17.783059 18.967993 16.166016 18.363281 C 16.173338 18.32591 16.158681 18.282672 16.052734 18.210938 C 14.682055 17.160531 13.870145 16.270629 14.152344 14.201172 C 14.360634 14.044395 14.417195 13.181262 14.896484 12.878906 C 15.187642 12.23388 16.06577 11.636485 17.001953 11.623047 C 17.958293 11.571534 18.764828 12.13326 19.167969 12.664062 C 18.433356 11.976483 17.223609 11.768938 16.193359 12.277344 C 15.140713 12.752154 14.517835 13.911022 14.607422 15.064453 C 14.645496 15.008461 14.681301 15.045683 14.699219 14.902344 C 14.667863 17.146496 17.118257 18.789616 18.880859 17.960938 L 18.902344 18.007812 C 19.619039 17.812961 19.528289 17.652305 19.994141 17.332031 C 19.958307 17.405944 19.679967 17.599609 19.845703 17.599609 C 20.07191 17.539138 20.783425 16.881913 21.132812 16.568359 C 21.294085 16.22345 21.04947 16.382049 21.273438 15.945312 L 21.544922 15.810547 C 21.697005 15.372196 21.865284 15.124684 21.845703 14.613281 L 21.6875 14.949219 C 21.922666 14.237003 21.786713 13.464584 21.820312 12.794922 L 21.753906 12.775391 C 21.697914 11.091157 20.242369 9.300024 18.943359 8.6953125 C 17.828002 8.1779481 16.107297 8.0910521 15.314453 8.4785156 C 15.421957 8.3822095 15.858703 8.3414875 15.726562 8.2675781 C 14.483544 8.3907601 14.762694 8.6992352 13.808594 8.9433594 C 13.548792 9.1964422 14.570491 8.7433203 14.019531 9.0703125 C 13.508886 9.2114117 13.270681 8.9797733 12.513672 9.7636719 C 12.580864 9.8756555 12.995587 9.4405036 12.648438 9.875 C 11.936221 9.7876529 10.399259 11.503389 10.072266 12.072266 L 10.242188 12.101562 C 9.9622285 12.80482 9.5922417 13.252769 9.5429688 13.673828 C 9.4712991 14.708557 9.1096416 16.595706 9.6113281 17.175781 L 9.5644531 17.658203 C 9.6316418 17.797061 9.6844239 17.936504 9.7695312 18.066406 L 9.6582031 18.074219 C 10.186766 19.738295 10.225624 18.104958 10.919922 19.833984 C 10.819137 19.800388 10.718418 19.76407 10.568359 19.5625 C 10.552682 19.717037 10.787019 20.171523 11.0625 20.525391 L 10.943359 20.660156 C 11.100136 20.940115 11.238199 20.999397 11.345703 21.095703 C 10.772347 20.782149 11.879971 22.128325 11.978516 22.300781 L 12.064453 22.144531 C 12.053255 22.368498 12.229649 22.65937 12.556641 23.0625 L 12.828125 23.050781 C 12.940109 23.274748 13.353245 23.677394 13.599609 23.695312 L 13.433594 23.912109 C 14.060702 24.109201 13.737363 24.174311 14.507812 24.445312 L 14.351562 24.171875 C 14.745745 24.510066 14.86477 24.81051 15.417969 25.070312 C 16.186177 25.336833 16.290043 25.233049 17.076172 25.457031 C 16.40875 25.436875 15.624266 25.44623 15.095703 25.255859 C 11.49431 24.281602 8.1995203 20.056762 8.4414062 15.705078 C 8.3831751 14.824887 8.5283923 13.723107 8.3828125 13.505859 C 8.5888621 12.833958 8.8273508 12.017226 9.3066406 11.042969 C 9.2708031 10.980259 9.3847828 11.234938 9.6289062 10.818359 C 9.7767228 10.493607 9.8980921 10.135819 10.083984 9.8222656 L 10.181641 9.7988281 C 10.275707 9.2411494 11.481504 8.3870617 11.839844 7.9570312 L 11.863281 8.1191406 C 12.644927 7.3867676 14.040333 6.8943089 14.824219 6.5449219 C 14.618169 6.7733679 15.286049 6.523243 15.767578 6.4941406 z M 14.388672 17.212891 C 14.556647 17.248725 15.128577 18.145437 15.558594 18.291016 C 15.305511 18.087206 15.109435 17.829021 14.925781 17.5625 A 3.7178561 3.7178561 0 0 0 16.140625 18.492188 C 16.126068 18.436196 16.157897 18.403028 16.166016 18.365234 C 16.108479 18.41904 16.456563 18.692578 16.714844 18.826172 C 17.330754 19.052378 18.027452 19.063412 18.576172 19.041016 C 17.389146 19.538223 15.127764 18.538776 14.388672 17.212891 z "
     transform="scale(0.26458334)" />
</svg>
