<?xml version="1.0" encoding="UTF-8" standalone="no"?>
<svg
   width="32"
   height="32"
   version="1.1"
   viewBox="0 0 8.4666667 8.4666671"
   id="svg371"
   sodipodi:docname="devuan.svg"
   xmlns:inkscape="http://www.inkscape.org/namespaces/inkscape"
   xmlns:sodipodi="http://sodipodi.sourceforge.net/DTD/sodipodi-0.dtd"
   xmlns="http://www.w3.org/2000/svg"
   xmlns:svg="http://www.w3.org/2000/svg">
  <sodipodi:namedview
     inkscape:snap-bbox-edge-midpoints="true"
     inkscape:bbox-nodes="true"
     inkscape:snap-bbox="true"
     pagecolor="#808080"
     bordercolor="#666666"
     borderopacity="1"
     objecttolerance="10"
     gridtolerance="10"
     guidetolerance="10"
     inkscape:pageopacity="0"
     inkscape:pageshadow="2"
     inkscape:window-width="1920"
     inkscape:window-height="1016"
     id="namedview373"
     showgrid="false"
     inkscape:zoom="8"
     inkscape:cx="8.5343367"
     inkscape:cy="23.747615"
     inkscape:window-x="1920"
     inkscape:window-y="27"
     inkscape:window-maximized="1"
     inkscape:current-layer="svg371"
     inkscape:document-rotation="0"
     inkscape:showpageshadow="2"
     inkscape:pagecheckerboard="0"
     inkscape:deskcolor="#d1d1d1">
    <inkscape:grid
       id="grid1162"
       type="xygrid"
       originx="0"
       originy="0"
       spacingy="1"
       spacingx="1"
       units="px"
       visible="false" />
  </sodipodi:namedview>
  <defs
     id="defs37">
    <style
       id="current-color-scheme"
       type="text/css">.ColorScheme-Text { color:#565656; } .ColorScheme-Highlight { color:#5294e2; }</style>
    <style
       type="text/css"
       id="style13">.ColorScheme-Text { color:#565656; } .ColorScheme-Highlight { color:#5294e2; }</style>
    <style
       type="text/css"
       id="style15">.ColorScheme-Text { color:#565656; } .ColorScheme-Highlight { color:#5294e2; }</style>
    <style
       type="text/css"
       id="style17">.ColorScheme-Text { color:#565656; } .ColorScheme-Highlight { color:#5294e2; }</style>
    <style
       type="text/css"
       id="style19">.ColorScheme-Text { color:#565656; } .ColorScheme-Highlight { color:#5294e2; }</style>
    <style
       type="text/css"
       id="style21">.ColorScheme-Text { color:#565656; } .ColorScheme-Highlight { color:#5294e2; }</style>
    <style
       type="text/css"
       id="style23">.ColorScheme-Text { color:#565656; } .ColorScheme-Highlight { color:#5294e2; }</style>
    <style
       type="text/css"
       id="style25">.ColorScheme-Text { color:#565656; } .ColorScheme-Highlight { color:#5294e2; }</style>
    <style
       type="text/css"
       id="style27">.ColorScheme-Text { color:#565656; } .ColorScheme-Highlight { color:#5294e2; }</style>
    <style
       type="text/css"
       id="style29" />
    <style
       type="text/css"
       id="style31" />
    <style
       type="text/css"
       id="style33">.ColorScheme-Text { color:#565656; } .ColorScheme-Highlight { color:#5294e2; }</style>
    <style
       type="text/css"
       id="style35">.ColorScheme-Text { color:#565656; } .ColorScheme-Highlight { color:#5294e2; }</style>
  </defs>
  <path
     id="rect337"
     style="fill:#ffffff;stroke-width:2.00001;paint-order:stroke fill markers"
     d="M 16 0 C 7.1359658 -2.3684758e-15 9.9032276e-17 7.1359658 0 16 C 4.7369516e-15 24.864034 7.1359658 32 16 32 C 24.864034 32 32 24.864034 32 16 C 32 7.1359658 24.864034 9.9032276e-17 16 0 z M 7.3886719 7.3457031 C 13.990372 8.422037 14.037944 8.5428749 16.451172 9.2460938 C 18.8644 9.9493126 20.61361 10.60629 22.021484 11.482422 C 23.429245 12.358516 24.19505 13.096166 24.605469 14.011719 C 25.015888 14.927271 24.976665 15.825969 24.585938 16.685547 C 24.195134 17.545125 23.496138 18.259261 22.064453 19.191406 C 20.63273 20.123476 18.627095 21.349242 16.443359 22.271484 C 14.259511 23.193689 10.311996 24.684167 8.9804688 24.71875 C 7.6492058 24.752766 7.2977366 24.014159 7.1894531 23.591797 C 7.0811697 23.169435 6.8859943 22.15203 7.9199219 21.490234 C 8.9538494 20.828477 11.80367 20.408409 13.753906 19.699219 C 15.704256 18.98999 18.232993 18.122554 19.589844 17.248047 C 20.94677 16.373578 21.586213 15.795791 21.710938 14.726562 C 21.8357 13.657334 21.450446 12.770433 20.208984 11.943359 C 18.967523 11.116285 17.841379 10.588539 15.699219 9.8203125 C 13.556983 9.0520102 12.087758 8.453785 7.3886719 7.3457031 z "
     transform="scale(0.26458334)" />
</svg>
