<?xml version="1.0" encoding="UTF-8" standalone="no"?>
<svg
   width="32"
   height="32"
   version="1.1"
   viewBox="0 0 8.4666666 8.4666671"
   id="svg371"
   sodipodi:docname="edit.svg"
   xmlns:inkscape="http://www.inkscape.org/namespaces/inkscape"
   xmlns:sodipodi="http://sodipodi.sourceforge.net/DTD/sodipodi-0.dtd"
   xmlns="http://www.w3.org/2000/svg"
   xmlns:svg="http://www.w3.org/2000/svg">
  <sodipodi:namedview
     inkscape:snap-bbox-edge-midpoints="true"
     inkscape:bbox-nodes="true"
     inkscape:snap-bbox="true"
     pagecolor="#808080"
     bordercolor="#666666"
     borderopacity="1"
     objecttolerance="10"
     gridtolerance="10"
     guidetolerance="10"
     inkscape:pageopacity="0"
     inkscape:pageshadow="2"
     inkscape:window-width="1920"
     inkscape:window-height="1016"
     id="namedview373"
     showgrid="false"
     inkscape:zoom="8"
     inkscape:cx="12.17975"
     inkscape:cy="16.015058"
     inkscape:window-x="1920"
     inkscape:window-y="27"
     inkscape:window-maximized="1"
     inkscape:current-layer="svg371"
     inkscape:document-rotation="0"
     inkscape:showpageshadow="2"
     inkscape:pagecheckerboard="0"
     inkscape:deskcolor="#d1d1d1">
    <inkscape:grid
       id="grid1162"
       type="xygrid"
       originx="0"
       originy="0"
       spacingy="1"
       spacingx="1"
       units="px"
       visible="false" />
  </sodipodi:namedview>
  <defs
     id="defs37">
    <style
       id="current-color-scheme"
       type="text/css">.ColorScheme-Text { color:#565656; } .ColorScheme-Highlight { color:#5294e2; }</style>
    <style
       type="text/css"
       id="style13">.ColorScheme-Text { color:#565656; } .ColorScheme-Highlight { color:#5294e2; }</style>
    <style
       type="text/css"
       id="style15">.ColorScheme-Text { color:#565656; } .ColorScheme-Highlight { color:#5294e2; }</style>
    <style
       type="text/css"
       id="style17">.ColorScheme-Text { color:#565656; } .ColorScheme-Highlight { color:#5294e2; }</style>
    <style
       type="text/css"
       id="style19">.ColorScheme-Text { color:#565656; } .ColorScheme-Highlight { color:#5294e2; }</style>
    <style
       type="text/css"
       id="style21">.ColorScheme-Text { color:#565656; } .ColorScheme-Highlight { color:#5294e2; }</style>
    <style
       type="text/css"
       id="style23">.ColorScheme-Text { color:#565656; } .ColorScheme-Highlight { color:#5294e2; }</style>
    <style
       type="text/css"
       id="style25">.ColorScheme-Text { color:#565656; } .ColorScheme-Highlight { color:#5294e2; }</style>
    <style
       type="text/css"
       id="style27">.ColorScheme-Text { color:#565656; } .ColorScheme-Highlight { color:#5294e2; }</style>
    <style
       type="text/css"
       id="style29" />
    <style
       type="text/css"
       id="style31" />
    <style
       type="text/css"
       id="style33">.ColorScheme-Text { color:#565656; } .ColorScheme-Highlight { color:#5294e2; }</style>
    <style
       type="text/css"
       id="style35">.ColorScheme-Text { color:#565656; } .ColorScheme-Highlight { color:#5294e2; }</style>
  </defs>
  <path
     id="path272"
     style="fill:#ffffff;stroke-width:1.08703"
     d="M 16 0 C 7.1630868 -1.1842379e-15 0 7.1630868 0 16 C -1.1842379e-15 24.836913 7.1630868 32 16 32 C 24.836913 32 32 24.836913 32 16 C 32 7.1630868 24.836913 0 16 0 z M 16 7.5 A 2.2666667 2.2666667 0 0 1 18.267578 9.7675781 L 21.666016 9.7675781 C 22.293882 9.7675781 22.800781 10.272524 22.800781 10.900391 L 22.800781 23.367188 C 22.800781 23.995054 22.293882 24.5 21.666016 24.5 L 10.333984 24.5 C 9.7061176 24.5 9.1992188 23.995054 9.1992188 23.367188 L 9.1992188 10.900391 C 9.1992187 10.272524 9.7061176 9.7675781 10.333984 9.7675781 L 13.732422 9.7675781 A 2.2666667 2.2666667 0 0 1 16 7.5 z M 16 8.6328125 A 1.1333333 1.1333333 0 0 0 14.867188 9.7675781 A 1.1333333 1.1333333 0 0 0 16 10.900391 A 1.1333333 1.1333333 0 0 0 17.132812 9.7675781 A 1.1333333 1.1333333 0 0 0 16 8.6328125 z M 11.466797 12.033203 L 11.466797 22.232422 L 20.533203 22.232422 L 20.533203 12.033203 L 19.400391 12.033203 L 19.400391 13.166016 L 12.599609 13.166016 L 12.599609 12.033203 L 11.466797 12.033203 z "
     transform="scale(0.26458334)" />
</svg>
