<?xml version="1.0" encoding="UTF-8" standalone="no"?>
<svg
   width="32"
   height="32"
   version="1.1"
   viewBox="0 0 8.4666666 8.4666671"
   id="svg371"
   sodipodi:docname="efi.svg"
   xmlns:inkscape="http://www.inkscape.org/namespaces/inkscape"
   xmlns:sodipodi="http://sodipodi.sourceforge.net/DTD/sodipodi-0.dtd"
   xmlns="http://www.w3.org/2000/svg"
   xmlns:svg="http://www.w3.org/2000/svg">
  <sodipodi:namedview
     inkscape:snap-bbox-edge-midpoints="true"
     inkscape:bbox-nodes="true"
     inkscape:snap-bbox="true"
     pagecolor="#808080"
     bordercolor="#666666"
     borderopacity="1"
     objecttolerance="10"
     gridtolerance="10"
     guidetolerance="10"
     inkscape:pageopacity="0"
     inkscape:pageshadow="2"
     inkscape:window-width="1920"
     inkscape:window-height="1016"
     id="namedview373"
     showgrid="false"
     inkscape:zoom="16"
     inkscape:cx="13.459008"
     inkscape:cy="17.412712"
     inkscape:window-x="1920"
     inkscape:window-y="27"
     inkscape:window-maximized="1"
     inkscape:current-layer="svg371"
     inkscape:document-rotation="0"
     inkscape:showpageshadow="2"
     inkscape:pagecheckerboard="0"
     inkscape:deskcolor="#d1d1d1">
    <inkscape:grid
       id="grid1162"
       type="xygrid"
       originx="0"
       originy="0"
       spacingy="1"
       spacingx="1"
       units="px"
       visible="false" />
  </sodipodi:namedview>
  <defs
     id="defs37">
    <style
       id="current-color-scheme"
       type="text/css">.ColorScheme-Text { color:#565656; } .ColorScheme-Highlight { color:#5294e2; }</style>
    <style
       type="text/css"
       id="style13">.ColorScheme-Text { color:#565656; } .ColorScheme-Highlight { color:#5294e2; }</style>
    <style
       type="text/css"
       id="style15">.ColorScheme-Text { color:#565656; } .ColorScheme-Highlight { color:#5294e2; }</style>
    <style
       type="text/css"
       id="style17">.ColorScheme-Text { color:#565656; } .ColorScheme-Highlight { color:#5294e2; }</style>
    <style
       type="text/css"
       id="style19">.ColorScheme-Text { color:#565656; } .ColorScheme-Highlight { color:#5294e2; }</style>
    <style
       type="text/css"
       id="style21">.ColorScheme-Text { color:#565656; } .ColorScheme-Highlight { color:#5294e2; }</style>
    <style
       type="text/css"
       id="style23">.ColorScheme-Text { color:#565656; } .ColorScheme-Highlight { color:#5294e2; }</style>
    <style
       type="text/css"
       id="style25">.ColorScheme-Text { color:#565656; } .ColorScheme-Highlight { color:#5294e2; }</style>
    <style
       type="text/css"
       id="style27">.ColorScheme-Text { color:#565656; } .ColorScheme-Highlight { color:#5294e2; }</style>
    <style
       type="text/css"
       id="style29" />
    <style
       type="text/css"
       id="style31" />
    <style
       type="text/css"
       id="style33">.ColorScheme-Text { color:#565656; } .ColorScheme-Highlight { color:#5294e2; }</style>
    <style
       type="text/css"
       id="style35">.ColorScheme-Text { color:#565656; } .ColorScheme-Highlight { color:#5294e2; }</style>
  </defs>
  <path
     id="path279"
     style="fill:#ffffff;stroke-width:1.08703"
     d="M 16 0 C 7.1630868 -1.1842379e-15 0 7.1630868 0 16 C -1.1842379e-15 24.836913 7.1630868 32 16 32 C 24.836913 32 32 24.836913 32 16 C 32 7.1630868 24.836913 0 16 0 z M 14 8 L 18 8 L 18.171875 10.113281 A 6.2857155 6.2857155 0 0 1 20.023438 11.166016 L 21.931641 10.263672 L 23.931641 13.736328 L 22.193359 14.9375 A 6.2857155 6.2857155 0 0 1 22.285156 16 A 6.2857155 6.2857155 0 0 1 22.193359 17.0625 L 23.931641 18.263672 L 21.931641 21.736328 L 20.011719 20.833984 A 6.2857155 6.2857155 0 0 1 18.171875 21.896484 L 18 24 L 14 24 L 13.828125 21.884766 A 6.2857155 6.2857155 0 0 1 11.976562 20.833984 L 10.068359 21.736328 L 8.0683594 18.263672 L 9.8046875 17.0625 A 6.2857155 6.2857155 0 0 1 9.7148438 16 A 6.2857155 6.2857155 0 0 1 9.8046875 14.9375 L 8.0683594 13.736328 L 10.068359 10.263672 L 11.988281 11.166016 A 6.2857155 6.2857155 0 0 1 13.828125 10.103516 L 14 8 z M 15.96875 13.714844 A 2.2857147 2.2857147 0 0 0 13.714844 16 A 2.2857147 2.2857147 0 0 0 16 18.285156 A 2.2857147 2.2857147 0 0 0 18.285156 16 A 2.2857147 2.2857147 0 0 0 16 13.714844 A 2.2857147 2.2857147 0 0 0 15.96875 13.714844 z "
     transform="scale(0.26458334)" />
</svg>
