<?xml version="1.0" encoding="UTF-8" standalone="no"?>
<svg
   xmlns:dc="http://purl.org/dc/elements/1.1/"
   xmlns:cc="http://creativecommons.org/ns#"
   xmlns:rdf="http://www.w3.org/1999/02/22-rdf-syntax-ns#"
   xmlns:svg="http://www.w3.org/2000/svg"
   xmlns="http://www.w3.org/2000/svg"
   xmlns:sodipodi="http://sodipodi.sourceforge.net/DTD/sodipodi-0.dtd"
   xmlns:inkscape="http://www.inkscape.org/namespaces/inkscape"
   width="32"
   height="32"
   version="1.1"
   viewBox="0 0 8.4666667 8.4666672"
   id="svg371"
   sodipodi:docname="elementary.svg"
   inkscape:version="1.0.2 (e86c870879, 2021-01-15)">
  <metadata
     id="metadata375">
    <rdf:RDF>
      <cc:Work
         rdf:about="">
        <dc:format>image/svg+xml</dc:format>
        <dc:type
           rdf:resource="http://purl.org/dc/dcmitype/StillImage" />
        <dc:title></dc:title>
      </cc:Work>
    </rdf:RDF>
  </metadata>
  <sodipodi:namedview
     inkscape:snap-bbox-edge-midpoints="true"
     inkscape:bbox-nodes="true"
     inkscape:snap-bbox="true"
     pagecolor="#808080"
     bordercolor="#666666"
     borderopacity="1"
     objecttolerance="10"
     gridtolerance="10"
     guidetolerance="10"
     inkscape:pageopacity="0"
     inkscape:pageshadow="2"
     inkscape:window-width="1920"
     inkscape:window-height="1016"
     id="namedview373"
     showgrid="false"
     inkscape:zoom="16"
     inkscape:cx="21.972725"
     inkscape:cy="12.871993"
     inkscape:window-x="1920"
     inkscape:window-y="27"
     inkscape:window-maximized="1"
     inkscape:current-layer="svg371"
     inkscape:document-rotation="0">
    <inkscape:grid
       id="grid1162"
       type="xygrid" />
  </sodipodi:namedview>
  <defs
     id="defs37">
    <style
       id="current-color-scheme"
       type="text/css">.ColorScheme-Text { color:#565656; } .ColorScheme-Highlight { color:#5294e2; }</style>
    <style
       type="text/css"
       id="style13">.ColorScheme-Text { color:#565656; } .ColorScheme-Highlight { color:#5294e2; }</style>
    <style
       type="text/css"
       id="style15">.ColorScheme-Text { color:#565656; } .ColorScheme-Highlight { color:#5294e2; }</style>
    <style
       type="text/css"
       id="style17">.ColorScheme-Text { color:#565656; } .ColorScheme-Highlight { color:#5294e2; }</style>
    <style
       type="text/css"
       id="style19">.ColorScheme-Text { color:#565656; } .ColorScheme-Highlight { color:#5294e2; }</style>
    <style
       type="text/css"
       id="style21">.ColorScheme-Text { color:#565656; } .ColorScheme-Highlight { color:#5294e2; }</style>
    <style
       type="text/css"
       id="style23">.ColorScheme-Text { color:#565656; } .ColorScheme-Highlight { color:#5294e2; }</style>
    <style
       type="text/css"
       id="style25">.ColorScheme-Text { color:#565656; } .ColorScheme-Highlight { color:#5294e2; }</style>
    <style
       type="text/css"
       id="style27">.ColorScheme-Text { color:#565656; } .ColorScheme-Highlight { color:#5294e2; }</style>
    <style
       type="text/css"
       id="style29" />
    <style
       type="text/css"
       id="style31" />
    <style
       type="text/css"
       id="style33">.ColorScheme-Text { color:#565656; } .ColorScheme-Highlight { color:#5294e2; }</style>
    <style
       type="text/css"
       id="style35">.ColorScheme-Text { color:#565656; } .ColorScheme-Highlight { color:#5294e2; }</style>
  </defs>
  <path
     id="path869"
     style="fill:#ffffff;stroke-width:1.07892;stroke-linecap:round;paint-order:stroke markers fill"
     d="M 16 0 A 16 16 0 0 0 0 16 A 16 16 0 0 0 16 32 A 16 16 0 0 0 32 16 A 16 16 0 0 0 16 0 z M 16.457031 5.8671875 C 16.977767 5.8743792 17.495015 5.945505 17.998047 6.0800781 L 18.001953 6.0800781 C 18.925038 6.3282181 19.760505 6.8236832 20.421875 7.5136719 L 20.425781 7.515625 L 20.425781 7.5195312 C 21.085859 8.2398253 21.535685 9.1258122 21.726562 10.083984 C 21.912939 11.028238 21.896775 12.000309 21.677734 12.9375 L 21.677734 12.941406 C 21.262991 14.803118 20.189947 16.430474 18.980469 17.84375 C 17.27027 19.838009 15.204735 21.482077 12.931641 22.792969 C 13.690926 23.131954 14.477163 23.428454 15.310547 23.474609 C 16.665928 23.552507 18.037302 23.238574 19.292969 22.673828 C 20.546572 22.10859 21.69189 21.298871 22.748047 20.386719 C 24.94805 18.477684 26.739594 16.141852 28.011719 13.521484 L 28.384766 12.753906 L 28.933594 15.433594 L 28.882812 15.523438 C 27.684708 17.780216 26.122535 19.823532 24.257812 21.570312 C 22.690369 23.032631 20.881129 24.299286 18.832031 25.007812 C 16.777272 25.719941 14.472546 25.838944 12.417969 25.050781 C 11.764742 24.798817 11.151807 24.43858 10.582031 24.021484 C 9.273657 24.593418 7.9133992 25.051903 6.5175781 25.369141 L 6.328125 25.412109 L 4.9335938 23.457031 L 5.4082031 23.396484 C 6.6334341 23.232746 7.8312616 22.916415 9.0058594 22.533203 C 8.8746913 22.37177 8.7371979 22.216341 8.6191406 22.046875 C 7.6789529 20.703725 7.1376259 19.10323 7.0039062 17.478516 C 6.7429617 14.226683 8.1576573 10.980672 10.443359 8.6816406 C 11.737649 7.377373 13.358213 6.3154538 15.201172 5.9765625 C 15.529785 5.9136145 15.862823 5.8791942 16.197266 5.8691406 C 16.284191 5.8663619 16.370053 5.8663753 16.457031 5.8671875 z M 16.236328 7.3125 C 15.41162 7.3094681 14.577464 7.5559478 13.84375 7.9628906 L 13.839844 7.9628906 C 12.363007 8.7754735 11.283957 10.21222 10.488281 11.755859 C 9.7998508 13.088124 9.29247 14.524468 9.1542969 15.994141 C 9.0132536 17.461011 9.2552682 18.980272 9.96875 20.248047 L 9.96875 20.25 C 10.280089 20.798602 10.695568 21.277283 11.15625 21.707031 C 13.902258 20.478372 16.317973 18.611529 18.160156 16.230469 C 19.105569 14.98581 19.872702 13.574187 20.048828 12.066406 C 20.135209 11.313627 20.072286 10.540265 19.820312 9.8359375 C 19.571631 9.1384023 19.128096 8.4977047 18.541016 8.0566406 C 17.893604 7.5673415 17.063242 7.3125 16.236328 7.3125 z "
     transform="scale(0.26458334)" />
</svg>
