<?xml version="1.0" encoding="UTF-8" standalone="no"?>
<svg
   xmlns:dc="http://purl.org/dc/elements/1.1/"
   xmlns:cc="http://creativecommons.org/ns#"
   xmlns:rdf="http://www.w3.org/1999/02/22-rdf-syntax-ns#"
   xmlns:svg="http://www.w3.org/2000/svg"
   xmlns="http://www.w3.org/2000/svg"
   xmlns:sodipodi="http://sodipodi.sourceforge.net/DTD/sodipodi-0.dtd"
   xmlns:inkscape="http://www.inkscape.org/namespaces/inkscape"
   width="32"
   height="32"
   version="1.1"
   viewBox="0 0 8.4666667 8.4666671"
   id="svg371"
   sodipodi:docname="endeavouros.svg"
   inkscape:version="1.0.2 (e86c870879, 2021-01-15)">
  <metadata
     id="metadata375">
    <rdf:RDF>
      <cc:Work
         rdf:about="">
        <dc:format>image/svg+xml</dc:format>
        <dc:type
           rdf:resource="http://purl.org/dc/dcmitype/StillImage" />
        <dc:title></dc:title>
      </cc:Work>
    </rdf:RDF>
  </metadata>
  <sodipodi:namedview
     inkscape:snap-bbox-edge-midpoints="true"
     inkscape:bbox-nodes="true"
     inkscape:snap-bbox="true"
     pagecolor="#808080"
     bordercolor="#666666"
     borderopacity="1"
     objecttolerance="10"
     gridtolerance="10"
     guidetolerance="10"
     inkscape:pageopacity="0"
     inkscape:pageshadow="2"
     inkscape:window-width="1920"
     inkscape:window-height="1016"
     id="namedview373"
     showgrid="false"
     inkscape:zoom="16"
     inkscape:cx="16.031342"
     inkscape:cy="14.106138"
     inkscape:window-x="1920"
     inkscape:window-y="27"
     inkscape:window-maximized="1"
     inkscape:current-layer="svg371"
     inkscape:document-rotation="0">
    <inkscape:grid
       id="grid1162"
       type="xygrid" />
  </sodipodi:namedview>
  <defs
     id="defs37">
    <style
       id="current-color-scheme"
       type="text/css">.ColorScheme-Text { color:#565656; } .ColorScheme-Highlight { color:#5294e2; }</style>
    <style
       type="text/css"
       id="style13">.ColorScheme-Text { color:#565656; } .ColorScheme-Highlight { color:#5294e2; }</style>
    <style
       type="text/css"
       id="style15">.ColorScheme-Text { color:#565656; } .ColorScheme-Highlight { color:#5294e2; }</style>
    <style
       type="text/css"
       id="style17">.ColorScheme-Text { color:#565656; } .ColorScheme-Highlight { color:#5294e2; }</style>
    <style
       type="text/css"
       id="style19">.ColorScheme-Text { color:#565656; } .ColorScheme-Highlight { color:#5294e2; }</style>
    <style
       type="text/css"
       id="style21">.ColorScheme-Text { color:#565656; } .ColorScheme-Highlight { color:#5294e2; }</style>
    <style
       type="text/css"
       id="style23">.ColorScheme-Text { color:#565656; } .ColorScheme-Highlight { color:#5294e2; }</style>
    <style
       type="text/css"
       id="style25">.ColorScheme-Text { color:#565656; } .ColorScheme-Highlight { color:#5294e2; }</style>
    <style
       type="text/css"
       id="style27">.ColorScheme-Text { color:#565656; } .ColorScheme-Highlight { color:#5294e2; }</style>
    <style
       type="text/css"
       id="style29" />
    <style
       type="text/css"
       id="style31" />
    <style
       type="text/css"
       id="style33">.ColorScheme-Text { color:#565656; } .ColorScheme-Highlight { color:#5294e2; }</style>
    <style
       type="text/css"
       id="style35">.ColorScheme-Text { color:#565656; } .ColorScheme-Highlight { color:#5294e2; }</style>
  </defs>
  <g
     id="g883">
    <g
       id="g877">
      <path
         d="M 4.7979291,0.63315437 1.1006364,6.4244722 c 0,0 1.2460556,0.066451 3.1529016,0 C 6.1507587,6.3583529 7.1747153,6.2782611 7.5440147,5.7125108 7.8251999,5.2817569 7.8566411,4.5995982 6.7303829,2.9126128 5.9601323,1.7589156 4.7979738,0.63319914 4.7979738,0.63319914 Z"
         id="path859"
         inkscape:connector-curvature="0"
         style="fill:#ffffff;stroke-width:1.00001;opacity:0.4" />
      <path
         d="M 4.7961383,0.63852665 0.72784495,5.4216466 c 0,0 0.93450815,0.2297232 2.63881915,0.3457107 C 5.0525304,5.8820913 6.2901694,6.0426598 6.7239362,5.4624267 7.096468,4.964103 7.1205,4.4343514 6.3088828,2.8961781 5.7520907,1.8409727 4.7961383,0.63838787 4.7961383,0.63838787 Z"
         id="path861"
         inkscape:connector-curvature="0"
         style="fill:#ffffff;stroke-width:1.00001;opacity:0.25" />
    </g>
    <path
       id="circle360"
       style="fill:#ffffff;fill-rule:evenodd;stroke-width:0.999987;paint-order:stroke fill markers"
       d="M 16 0 A 15.999874 15.999874 0 0 0 0 16 A 15.999874 15.999874 0 0 0 16 32 A 15.999874 15.999874 0 0 0 32 16 A 15.999874 15.999874 0 0 0 16 0 z M 18.134766 2.3925781 C 18.134766 2.3925781 22.526317 6.6473828 25.4375 11.007812 C 29.694224 17.38382 29.576419 19.961798 28.513672 21.589844 C 27.117895 23.728113 23.24677 24.03135 16.076172 24.28125 C 8.869195 24.532403 4.1601562 24.28125 4.1601562 24.28125 L 6.1835938 21.111328 L 6.1914062 21.099609 C 4.0153896 20.776189 2.75 20.492188 2.75 20.492188 L 18.099609 2.4453125 L 18.101562 2.4433594 L 18.105469 2.4394531 L 18.134766 2.3925781 z "
       transform="scale(0.26458334)" />
  </g>
</svg>
