<?xml version="1.0" encoding="UTF-8" standalone="no"?>
<svg
   width="32"
   height="32"
   version="1.1"
   viewBox="0 0 8.4666667 8.4666672"
   id="svg371"
   sodipodi:docname="fedora.svg"
   xmlns:inkscape="http://www.inkscape.org/namespaces/inkscape"
   xmlns:sodipodi="http://sodipodi.sourceforge.net/DTD/sodipodi-0.dtd"
   xmlns="http://www.w3.org/2000/svg"
   xmlns:svg="http://www.w3.org/2000/svg">
  <sodipodi:namedview
     inkscape:snap-bbox-edge-midpoints="true"
     inkscape:bbox-nodes="true"
     inkscape:snap-bbox="true"
     pagecolor="#808080"
     bordercolor="#666666"
     borderopacity="1"
     objecttolerance="10"
     gridtolerance="10"
     guidetolerance="10"
     inkscape:pageopacity="0"
     inkscape:pageshadow="2"
     inkscape:window-width="1920"
     inkscape:window-height="1016"
     id="namedview373"
     showgrid="false"
     inkscape:zoom="15.999999"
     inkscape:cx="17.588684"
     inkscape:cy="15.037672"
     inkscape:window-x="1920"
     inkscape:window-y="27"
     inkscape:window-maximized="1"
     inkscape:current-layer="svg371"
     inkscape:document-rotation="0"
     inkscape:showpageshadow="2"
     inkscape:pagecheckerboard="0"
     inkscape:deskcolor="#d1d1d1">
    <inkscape:grid
       id="grid1162"
       type="xygrid"
       originx="0"
       originy="0"
       spacingy="1"
       spacingx="1"
       units="px"
       visible="false" />
  </sodipodi:namedview>
  <defs
     id="defs37">
    <style
       id="current-color-scheme"
       type="text/css">.ColorScheme-Text { color:#565656; } .ColorScheme-Highlight { color:#5294e2; }</style>
    <style
       type="text/css"
       id="style13">.ColorScheme-Text { color:#565656; } .ColorScheme-Highlight { color:#5294e2; }</style>
    <style
       type="text/css"
       id="style15">.ColorScheme-Text { color:#565656; } .ColorScheme-Highlight { color:#5294e2; }</style>
    <style
       type="text/css"
       id="style17">.ColorScheme-Text { color:#565656; } .ColorScheme-Highlight { color:#5294e2; }</style>
    <style
       type="text/css"
       id="style19">.ColorScheme-Text { color:#565656; } .ColorScheme-Highlight { color:#5294e2; }</style>
    <style
       type="text/css"
       id="style21">.ColorScheme-Text { color:#565656; } .ColorScheme-Highlight { color:#5294e2; }</style>
    <style
       type="text/css"
       id="style23">.ColorScheme-Text { color:#565656; } .ColorScheme-Highlight { color:#5294e2; }</style>
    <style
       type="text/css"
       id="style25">.ColorScheme-Text { color:#565656; } .ColorScheme-Highlight { color:#5294e2; }</style>
    <style
       type="text/css"
       id="style27">.ColorScheme-Text { color:#565656; } .ColorScheme-Highlight { color:#5294e2; }</style>
    <style
       type="text/css"
       id="style29" />
    <style
       type="text/css"
       id="style31" />
    <style
       type="text/css"
       id="style33">.ColorScheme-Text { color:#565656; } .ColorScheme-Highlight { color:#5294e2; }</style>
    <style
       type="text/css"
       id="style35">.ColorScheme-Text { color:#565656; } .ColorScheme-Highlight { color:#5294e2; }</style>
  </defs>
  <g
     id="g859">
    <path
       id="circle77"
       style="fill:#ffffff;stroke-width:3.63957;paint-order:stroke markers fill"
       d="M 16 0 A 15.999865 15.999865 0 0 0 0 16 A 15.999865 15.999865 0 0 0 16 32 A 15.999865 15.999865 0 0 0 32 16 A 15.999865 15.999865 0 0 0 16 0 z M 16.591797 5.4199219 C 22.104807 5.4199219 26.574219 9.8892915 26.574219 15.402344 C 26.574219 20.913929 22.106872 25.382659 16.595703 25.384766 L 8.8789062 25.384766 C 7.6270912 25.384766 6.6123332 24.37212 6.609375 23.121094 L 6.609375 15.396484 C 6.6132838 9.8867191 11.081265 5.4199219 16.591797 5.4199219 z M 19.521484 7.7851562 C 19.360091 7.7851562 19.202362 7.792304 19.044922 7.8085938 C 19.188036 7.7940426 19.331806 7.7902137 19.478516 7.7890625 C 19.200654 7.7917082 18.930745 7.8232781 18.666016 7.8730469 C 16.48848 8.2762975 14.837891 10.178592 14.837891 12.472656 L 14.837891 14.953125 L 12.363281 14.953125 C 9.7899511 14.953125 7.6816406 17.063965 7.6816406 19.636719 C 7.6816406 21.971602 9.4255671 23.904863 11.669922 24.246094 C 11.671212 24.246334 11.672546 24.245856 11.673828 24.246094 C 11.860011 24.280676 12.052846 24.301878 12.263672 24.306641 C 12.263672 24.306641 12.265625 24.306641 12.265625 24.306641 C 12.299244 24.307359 12.329492 24.318359 12.363281 24.318359 C 12.635226 24.318359 12.902274 24.287515 13.162109 24.242188 C 13.237556 24.229239 13.310985 24.207444 13.384766 24.189453 C 13.503586 24.162618 13.625 24.143101 13.740234 24.107422 C 15.656828 23.519831 17.050781 21.739677 17.050781 19.630859 L 17.050781 17.148438 L 19.521484 17.148438 C 22.094239 17.148438 24.205078 15.03955 24.205078 12.466797 C 24.205078 10.130705 22.460894 8.1971598 20.214844 7.8574219 C 20.014325 7.8195926 19.8087 7.7939338 19.576172 7.7910156 C 19.557244 7.7907889 19.540458 7.7851562 19.521484 7.7851562 z M 19.521484 9.9980469 C 19.768139 9.9980484 19.918728 10.013536 20.050781 10.029297 C 20.050781 10.029297 20.052734 10.029297 20.052734 10.029297 C 21.181485 10.268929 22.015625 11.261137 22.015625 12.466797 C 22.015625 13.854647 20.909335 14.958984 19.521484 14.958984 L 17.369141 14.958984 C 17.190913 14.943125 17.048828 14.799198 17.048828 14.617188 L 17.048828 12.466797 C 17.051223 11.102751 18.157439 9.9980469 19.521484 9.9980469 z M 12.363281 17.142578 L 14.509766 17.142578 C 14.691081 17.155183 14.837891 17.302103 14.837891 17.486328 L 14.837891 19.634766 C 14.835496 20.998813 13.727327 22.103516 12.363281 22.103516 C 12.112893 22.103516 11.965622 22.084725 11.832031 22.068359 C 10.70576 21.826918 9.8730469 20.840642 9.8730469 19.636719 C 9.8730469 18.248868 10.976005 17.142577 12.363281 17.142578 z "
       transform="scale(0.26458334)" />
    <path
       id="in"
       style="color:#000000;font-style:normal;font-variant:normal;font-weight:normal;font-stretch:normal;font-size:medium;line-height:normal;font-family:sans-serif;font-variant-ligatures:normal;font-variant-position:normal;font-variant-caps:normal;font-variant-numeric:normal;font-variant-alternates:normal;font-variant-east-asian:normal;font-feature-settings:normal;font-variation-settings:normal;text-indent:0;text-align:start;text-decoration:none;text-decoration-line:none;text-decoration-style:solid;text-decoration-color:#000000;letter-spacing:normal;word-spacing:normal;text-transform:none;writing-mode:lr-tb;direction:ltr;text-orientation:mixed;dominant-baseline:auto;baseline-shift:baseline;text-anchor:start;white-space:normal;shape-padding:0;shape-margin:0;inline-size:0;clip-rule:nonzero;display:inline;overflow:visible;visibility:visible;opacity:0.35;isolation:auto;mix-blend-mode:normal;color-interpolation:sRGB;color-interpolation-filters:linearRGB;solid-color:#000000;solid-opacity:1;vector-effect:none;fill:#000000;fill-opacity:1;fill-rule:nonzero;stroke:none;stroke-width:0.211287;stroke-linecap:butt;stroke-linejoin:miter;stroke-miterlimit:4;stroke-dasharray:none;stroke-dashoffset:0;stroke-opacity:1;color-rendering:auto;image-rendering:auto;shape-rendering:auto;text-rendering:auto;enable-background:accumulate;stop-color:#000000"
       d="m 5.1652972,2.0596707 c -0.085402,0 -0.1689819,0.00887 -0.249665,0.025586 0.080692,-0.016516 0.1640962,-0.025173 0.249665,-0.025173 0.1038557,0 0.1774633,0.01201 0.2736,0.037141 0.1401817,0.036686 0.2549827,0.1514677 0.2550299,0.2851548 0,0.1615912 -0.1172468,0.2789647 -0.2925827,0.2789647 -0.038903,0 -0.066053,-0.00379 -0.096564,-0.00743 0.2989094,0.063211 0.5199636,0.3254091 0.5199636,0.64459 0,0.3672019 -0.2922439,0.6594461 -0.6594462,0.6594461 H 4.5954007 c 0.00273,2.324e-4 0.00505,0.00165 0.00784,0.00165 h 0.4300017 c 0.1601434,0 0.2896942,0.1274618 0.2896942,0.2880436 8.21e-5,0.1615799 -0.1307105,0.2888687 -0.2925829,0.2888687 H 4.5112161 v 8.24e-4 h 0.6540813 c 0.680708,0 1.2388343,-0.5581265 1.2388343,-1.2388342 0,-0.6807076 -0.5581263,-1.2388342 -1.2388343,-1.2388342 z M 3.2715565,3.9558876 c -0.6808603,0 -1.2388344,0.558539 -1.2388344,1.239247 0,0.6807077 0.5581263,1.2388342 1.2388344,1.2388342 0.1276324,0 0.2511331,-0.019751 0.3672758,-0.056123 -0.1160861,0.03598 -0.2393766,0.055298 -0.3672758,0.055298 -0.1038557,0 -0.1778759,-0.011598 -0.2740127,-0.036728 C 2.8573621,6.3597302 2.7429737,6.2445354 2.7429265,6.1108485 c 0,-0.1615911 0.1172468,-0.2789648 0.2925828,-0.2789646 0.038229,-2e-7 0.065033,0.00336 0.094914,0.00701 -0.2979929,-0.06388 -0.518313,-0.325222 -0.518313,-0.6437599 0,-0.3672024 0.292396,-0.6598587 0.6594462,-0.6598587 h 0.5678333 c -0.00217,-1.505e-4 -0.00399,-0.00124 -0.00619,-0.00124 H 3.40361 C 3.2434667,4.534033 3.1139159,4.4061588 3.1139159,4.245577 3.1138338,4.0839971 3.2446268,3.9567082 3.4064985,3.9567084 h 0.5191386 v -8.24e-4 z" />
  </g>
</svg>
