<?xml version="1.0" encoding="UTF-8" standalone="no"?>
<svg
   xmlns:dc="http://purl.org/dc/elements/1.1/"
   xmlns:cc="http://creativecommons.org/ns#"
   xmlns:rdf="http://www.w3.org/1999/02/22-rdf-syntax-ns#"
   xmlns:svg="http://www.w3.org/2000/svg"
   xmlns="http://www.w3.org/2000/svg"
   xmlns:sodipodi="http://sodipodi.sourceforge.net/DTD/sodipodi-0.dtd"
   xmlns:inkscape="http://www.inkscape.org/namespaces/inkscape"
   width="32"
   height="32"
   version="1.1"
   viewBox="0 0 8.4666667 8.4666672"
   id="svg371"
   sodipodi:docname="freebsd.svg"
   inkscape:version="1.0.2 (e86c870879, 2021-01-15)">
  <metadata
     id="metadata375">
    <rdf:RDF>
      <cc:Work
         rdf:about="">
        <dc:format>image/svg+xml</dc:format>
        <dc:type
           rdf:resource="http://purl.org/dc/dcmitype/StillImage" />
        <dc:title></dc:title>
      </cc:Work>
    </rdf:RDF>
  </metadata>
  <sodipodi:namedview
     inkscape:snap-bbox-edge-midpoints="true"
     inkscape:bbox-nodes="true"
     inkscape:snap-bbox="true"
     pagecolor="#808080"
     bordercolor="#666666"
     borderopacity="1"
     objecttolerance="10"
     gridtolerance="10"
     guidetolerance="10"
     inkscape:pageopacity="0"
     inkscape:pageshadow="2"
     inkscape:window-width="1920"
     inkscape:window-height="1016"
     id="namedview373"
     showgrid="false"
     inkscape:zoom="16"
     inkscape:cx="18.332385"
     inkscape:cy="13.002264"
     inkscape:window-x="1920"
     inkscape:window-y="27"
     inkscape:window-maximized="1"
     inkscape:current-layer="svg371"
     inkscape:document-rotation="0">
    <inkscape:grid
       id="grid1162"
       type="xygrid" />
  </sodipodi:namedview>
  <defs
     id="defs37">
    <style
       id="current-color-scheme"
       type="text/css">.ColorScheme-Text { color:#565656; } .ColorScheme-Highlight { color:#5294e2; }</style>
    <style
       type="text/css"
       id="style13">.ColorScheme-Text { color:#565656; } .ColorScheme-Highlight { color:#5294e2; }</style>
    <style
       type="text/css"
       id="style15">.ColorScheme-Text { color:#565656; } .ColorScheme-Highlight { color:#5294e2; }</style>
    <style
       type="text/css"
       id="style17">.ColorScheme-Text { color:#565656; } .ColorScheme-Highlight { color:#5294e2; }</style>
    <style
       type="text/css"
       id="style19">.ColorScheme-Text { color:#565656; } .ColorScheme-Highlight { color:#5294e2; }</style>
    <style
       type="text/css"
       id="style21">.ColorScheme-Text { color:#565656; } .ColorScheme-Highlight { color:#5294e2; }</style>
    <style
       type="text/css"
       id="style23">.ColorScheme-Text { color:#565656; } .ColorScheme-Highlight { color:#5294e2; }</style>
    <style
       type="text/css"
       id="style25">.ColorScheme-Text { color:#565656; } .ColorScheme-Highlight { color:#5294e2; }</style>
    <style
       type="text/css"
       id="style27">.ColorScheme-Text { color:#565656; } .ColorScheme-Highlight { color:#5294e2; }</style>
    <style
       type="text/css"
       id="style29" />
    <style
       type="text/css"
       id="style31" />
    <style
       type="text/css"
       id="style33">.ColorScheme-Text { color:#565656; } .ColorScheme-Highlight { color:#5294e2; }</style>
    <style
       type="text/css"
       id="style35">.ColorScheme-Text { color:#565656; } .ColorScheme-Highlight { color:#5294e2; }</style>
  </defs>
  <path
     id="path1020"
     style="fill:#ffffff;stroke-width:3.63964"
     d="M 16.142578 0 A 16.000166 16.000166 0 0 0 15.806641 0.001953125 A 16.000166 16.000166 0 0 0 15.806641 32 A 16.000166 16.000166 0 1 0 16.142578 0 z M 6.9199219 6 C 7.9686764 6.0201889 9.5918907 6.780025 10.826172 7.4804688 C 9.3935458 8.3599912 8.2020075 9.588997 7.3632812 11.048828 C 6.4203043 9.4031161 5.3450767 7.0084427 6.0976562 6.2558594 C 6.2835353 6.0688465 6.570337 5.9932704 6.9199219 6 z M 25.365234 6.1152344 C 25.598467 6.1358216 25.78952 6.2069216 25.923828 6.3417969 C 26.998302 7.4162636 24.014955 12.149107 23.511719 12.652344 C 23.008486 13.15558 21.724861 12.694176 20.650391 11.615234 C 19.571388 10.54076 19.105513 9.257139 19.613281 8.7539062 C 20.053613 8.3135776 23.732603 5.9711241 25.365234 6.1152344 z M 16.257812 6.4511719 C 17.885383 6.4511719 19.418509 6.8500182 20.769531 7.5527344 C 20.438573 7.7340534 20.139303 7.9148872 19.880859 8.078125 C 18.702112 7.8650428 18.389029 8.8227428 19.205078 10.287109 C 20.193413 12.241099 23.23983 14.385178 24.160156 13.464844 C 24.404994 13.220032 24.432835 12.793546 24.283203 12.28125 C 24.432782 12.031903 24.6005 11.747054 24.777344 11.429688 C 25.575266 12.848711 26.033203 14.485652 26.033203 16.226562 C 26.033203 21.626105 21.657359 26 16.257812 26 C 10.858266 26 6.484375 21.621573 6.484375 16.226562 C 6.484375 10.827012 10.858266 6.4511719 16.257812 6.4511719 z "
     transform="scale(0.26458334)" />
</svg>
