<?xml version="1.0" encoding="UTF-8" standalone="no"?>
<svg
   width="32"
   height="32"
   version="1.1"
   viewBox="0 0 8.4666667 8.4666672"
   id="svg371"
   sodipodi:docname="gentoo.svg"
   xmlns:inkscape="http://www.inkscape.org/namespaces/inkscape"
   xmlns:sodipodi="http://sodipodi.sourceforge.net/DTD/sodipodi-0.dtd"
   xmlns="http://www.w3.org/2000/svg"
   xmlns:svg="http://www.w3.org/2000/svg">
  <sodipodi:namedview
     inkscape:snap-bbox-edge-midpoints="true"
     inkscape:bbox-nodes="true"
     inkscape:snap-bbox="true"
     pagecolor="#808080"
     bordercolor="#666666"
     borderopacity="1"
     objecttolerance="10"
     gridtolerance="10"
     guidetolerance="10"
     inkscape:pageopacity="0"
     inkscape:pageshadow="2"
     inkscape:window-width="1920"
     inkscape:window-height="1016"
     id="namedview373"
     showgrid="false"
     inkscape:zoom="15.999999"
     inkscape:cx="23.230642"
     inkscape:cy="18.610742"
     inkscape:window-x="1920"
     inkscape:window-y="27"
     inkscape:window-maximized="1"
     inkscape:current-layer="svg371"
     inkscape:document-rotation="0"
     inkscape:showpageshadow="2"
     inkscape:pagecheckerboard="0"
     inkscape:deskcolor="#d1d1d1">
    <inkscape:grid
       id="grid1162"
       type="xygrid"
       originx="0"
       originy="0"
       spacingy="1"
       spacingx="1"
       units="px"
       visible="false" />
  </sodipodi:namedview>
  <defs
     id="defs37">
    <style
       id="current-color-scheme"
       type="text/css">.ColorScheme-Text { color:#565656; } .ColorScheme-Highlight { color:#5294e2; }</style>
    <style
       type="text/css"
       id="style13">.ColorScheme-Text { color:#565656; } .ColorScheme-Highlight { color:#5294e2; }</style>
    <style
       type="text/css"
       id="style15">.ColorScheme-Text { color:#565656; } .ColorScheme-Highlight { color:#5294e2; }</style>
    <style
       type="text/css"
       id="style17">.ColorScheme-Text { color:#565656; } .ColorScheme-Highlight { color:#5294e2; }</style>
    <style
       type="text/css"
       id="style19">.ColorScheme-Text { color:#565656; } .ColorScheme-Highlight { color:#5294e2; }</style>
    <style
       type="text/css"
       id="style21">.ColorScheme-Text { color:#565656; } .ColorScheme-Highlight { color:#5294e2; }</style>
    <style
       type="text/css"
       id="style23">.ColorScheme-Text { color:#565656; } .ColorScheme-Highlight { color:#5294e2; }</style>
    <style
       type="text/css"
       id="style25">.ColorScheme-Text { color:#565656; } .ColorScheme-Highlight { color:#5294e2; }</style>
    <style
       type="text/css"
       id="style27">.ColorScheme-Text { color:#565656; } .ColorScheme-Highlight { color:#5294e2; }</style>
    <style
       type="text/css"
       id="style29" />
    <style
       type="text/css"
       id="style31" />
    <style
       type="text/css"
       id="style33">.ColorScheme-Text { color:#565656; } .ColorScheme-Highlight { color:#5294e2; }</style>
    <style
       type="text/css"
       id="style35">.ColorScheme-Text { color:#565656; } .ColorScheme-Highlight { color:#5294e2; }</style>
  </defs>
  <path
     id="circle84"
     style="fill:#ffffff;fill-opacity:1;stroke-width:3.63957;paint-order:stroke markers fill"
     d="M 16 0 A 15.999865 15.999865 0 0 0 0 16 A 15.999865 15.999865 0 0 0 16 32 A 15.999865 15.999865 0 0 0 32 16 A 15.999865 15.999865 0 0 0 16 0 z M 14.494141 6.5058594 C 15.604768 6.4572951 16.710036 6.6898557 17.707031 7.1816406 C 20.829826 8.7170544 26.114148 13.004943 26.503906 15.175781 C 26.983428 17.854487 17.531917 25.120063 11.787109 26.253906 C 9.5619417 26.690908 7.6637931 26.788272 6.796875 24.435547 C 6.0457037 22.394628 7.5270212 20.941073 9.671875 18.980469 C 10.564777 18.165519 11.270188 17.556648 12.337891 16.654297 C 12.399307 16.59288 7.1751181 14.782881 7.0097656 12.720703 C 6.8373273 10.604195 10.199708 6.7090071 14.494141 6.5058594 z M 15.800781 10.224609 C 15.655803 10.213647 15.516866 10.214161 15.382812 10.226562 C 14.485186 10.311601 13.848617 10.980735 13.775391 12.298828 C 13.692714 13.727943 15.685488 14.756109 17.240234 14.332031 C 20.341769 13.219447 18.763837 11.38698 17.240234 10.652344 C 16.717603 10.39723 16.235717 10.257495 15.800781 10.224609 z "
     transform="scale(0.26458334)" />
</svg>
