<?xml version="1.0" encoding="UTF-8" standalone="no"?>
<svg
   xmlns:dc="http://purl.org/dc/elements/1.1/"
   xmlns:cc="http://creativecommons.org/ns#"
   xmlns:rdf="http://www.w3.org/1999/02/22-rdf-syntax-ns#"
   xmlns:svg="http://www.w3.org/2000/svg"
   xmlns="http://www.w3.org/2000/svg"
   xmlns:sodipodi="http://sodipodi.sourceforge.net/DTD/sodipodi-0.dtd"
   xmlns:inkscape="http://www.inkscape.org/namespaces/inkscape"
   width="32"
   height="32"
   version="1.1"
   viewBox="0 0 8.4666666 8.4666671"
   id="svg371"
   sodipodi:docname="gnu-linux.svg"
   inkscape:version="1.0.2 (e86c870879, 2021-01-15)">
  <metadata
     id="metadata375">
    <rdf:RDF>
      <cc:Work
         rdf:about="">
        <dc:format>image/svg+xml</dc:format>
        <dc:type
           rdf:resource="http://purl.org/dc/dcmitype/StillImage" />
        <dc:title></dc:title>
      </cc:Work>
    </rdf:RDF>
  </metadata>
  <sodipodi:namedview
     inkscape:snap-bbox-edge-midpoints="true"
     inkscape:bbox-nodes="true"
     inkscape:snap-bbox="true"
     pagecolor="#808080"
     bordercolor="#666666"
     borderopacity="1"
     objecttolerance="10"
     gridtolerance="10"
     guidetolerance="10"
     inkscape:pageopacity="0"
     inkscape:pageshadow="2"
     inkscape:window-width="1920"
     inkscape:window-height="1016"
     id="namedview373"
     showgrid="false"
     inkscape:zoom="5.6568543"
     inkscape:cx="16.89902"
     inkscape:cy="26.031652"
     inkscape:window-x="1920"
     inkscape:window-y="27"
     inkscape:window-maximized="1"
     inkscape:current-layer="svg371"
     inkscape:document-rotation="0">
    <inkscape:grid
       id="grid1162"
       type="xygrid" />
  </sodipodi:namedview>
  <defs
     id="defs37">
    <style
       id="current-color-scheme"
       type="text/css">.ColorScheme-Text { color:#565656; } .ColorScheme-Highlight { color:#5294e2; }</style>
    <style
       type="text/css"
       id="style13">.ColorScheme-Text { color:#565656; } .ColorScheme-Highlight { color:#5294e2; }</style>
    <style
       type="text/css"
       id="style15">.ColorScheme-Text { color:#565656; } .ColorScheme-Highlight { color:#5294e2; }</style>
    <style
       type="text/css"
       id="style17">.ColorScheme-Text { color:#565656; } .ColorScheme-Highlight { color:#5294e2; }</style>
    <style
       type="text/css"
       id="style19">.ColorScheme-Text { color:#565656; } .ColorScheme-Highlight { color:#5294e2; }</style>
    <style
       type="text/css"
       id="style21">.ColorScheme-Text { color:#565656; } .ColorScheme-Highlight { color:#5294e2; }</style>
    <style
       type="text/css"
       id="style23">.ColorScheme-Text { color:#565656; } .ColorScheme-Highlight { color:#5294e2; }</style>
    <style
       type="text/css"
       id="style25">.ColorScheme-Text { color:#565656; } .ColorScheme-Highlight { color:#5294e2; }</style>
    <style
       type="text/css"
       id="style27">.ColorScheme-Text { color:#565656; } .ColorScheme-Highlight { color:#5294e2; }</style>
    <style
       type="text/css"
       id="style29" />
    <style
       type="text/css"
       id="style31" />
    <style
       type="text/css"
       id="style33">.ColorScheme-Text { color:#565656; } .ColorScheme-Highlight { color:#5294e2; }</style>
    <style
       type="text/css"
       id="style35">.ColorScheme-Text { color:#565656; } .ColorScheme-Highlight { color:#5294e2; }</style>
  </defs>
  <path
     inkscape:connector-curvature="0"
     id="path956"
     d=""
     style="fill:#ffbb00;fill-opacity:1;stroke-width:0.000149717" />
  <path
     inkscape:connector-curvature="0"
     id="path958"
     d=""
     style="fill:#ffbb00;fill-opacity:1" />
  <path
     inkscape:connector-curvature="0"
     id="path960"
     d=""
     style="fill:#ffbb00;fill-opacity:1" />
  <path
     inkscape:connector-curvature="0"
     id="path962"
     d=""
     style="fill:#ffbb00;fill-opacity:1" />
  <path
     inkscape:connector-curvature="0"
     id="path964"
     d=""
     style="fill:#ffbb00;fill-opacity:1" />
  <path
     inkscape:connector-curvature="0"
     id="path966"
     d=""
     style="fill:#ffbb00;fill-opacity:1;stroke-width:0.000149717" />
  <path
     inkscape:connector-curvature="0"
     id="path968"
     d=""
     style="fill:#ffbb00;fill-opacity:1;stroke-width:0.000149717" />
  <g
     id="g986">
    <path
       id="circle91"
       style="fill:#ffffff;fill-opacity:1;fill-rule:evenodd;stroke-width:0.999999;paint-order:stroke fill markers"
       d="M 16,0 C 7.1634326,-2.7614403e-5 -2.7614403e-5,7.1634326 0,16 -2.7614403e-5,24.836567 7.1634326,32.000028 16,32 24.836567,32.000028 32.000028,24.836567 32,16 32.000028,7.1634326 24.836567,-2.7614403e-5 16,0 Z m 0.414062,3.9472656 h 0.01367 0.002 c 1.88241,0.00264 3.177679,1.1817156 3.654296,2.4550782 0.470284,1.2564397 0.42963,2.574203 0.416016,3.5097656 0.0074,0.3090356 0.01565,0.5091656 0.02344,0.6328126 0.0902,0.605238 0.481078,1.13278 1.066406,1.871094 0.636311,0.753901 1.488623,1.864023 2.007812,3.238281 0.346136,0.914704 0.441736,1.983225 0.259766,3.076172 0.419208,0.46317 0.606315,0.995392 0.671875,1.28125 0.07421,0.322972 0.222801,0.519222 0.04492,0.318359 0.04742,0.05358 0.08929,0.111823 0.125,0.173828 0.438392,0.515772 0.79024,1.058803 0.75,1.763672 -0.04708,0.815227 -0.650822,1.324773 -1.064453,1.574219 -0.792523,0.477734 -1.486897,0.724468 -1.748047,1.041015 -0.0026,0.0033 -0.0052,0.0065 -0.0078,0.0098 -6.52e-4,6.5e-4 -0.0013,0.0013 -0.002,0.002 -0.07414,0.08707 -0.161859,0.1616 -0.259765,0.220703 -0.673784,0.696769 -1.480615,1.188786 -2.38086,1.259766 -0.910286,0.07182 -1.81188,-0.423499 -2.373047,-1.226562 -0.02895,-0.0023 -0.04016,-0.0034 -0.06836,-0.0059 l 0.0098,0.01563 c 0,-3.8e-5 -0.0096,-0.01302 -0.01172,-0.01563 -0.592902,-0.05224 -1.293178,-0.121167 -1.439453,-0.109375 -0.0091,7.69e-4 -0.01822,0.0014 -0.02734,0.002 -0.543458,0.02987 -0.966661,0.133308 -1.455078,0.199219 -0.363016,0.402702 -0.804223,0.722067 -1.3125,0.837891 -0.97441,0.222501 -1.991643,-0.0062 -2.947266,-0.50586 -0.002,-0.0013 -0.0039,-0.0026 -0.0059,-0.0039 C 9.9725653,25.359502 9.1922566,25.355585 8.2832031,25.166016 7.8190968,25.068914 7.118969,24.829641 6.7578125,24.126953 V 24.125 C 6.5243257,23.147869 6.6220901,22.377446 6.708984,21.71875 6.684746,21.560487 6.65039,21.350549 6.65039,21.087891 c 0,-0.277098 0.048781,-0.635708 0.234375,-0.986329 v -0.002 c 0.00113,-0.0022 8.128e-4,-0.0038 0.00195,-0.0059 0.044,-0.08162 0.0985,-0.157137 0.1621093,-0.224609 0.3533875,-0.485581 0.851311,-0.742937 1.1484375,-0.84961 h 0.00195 c 0.2142271,-0.07669 0.2992945,-0.121074 0.3066406,-0.115234 0.051066,-0.06318 0.1998261,-0.25642 0.3691406,-0.464844 -0.010284,-0.685694 0.040036,-1.369045 0.25,-2 0.5656248,-1.699535 1.653845,-3.16498 2.447266,-4.115234 0.0051,-0.0061 0.0097,-0.0155 0.01563,-0.02344 0.517145,-0.743178 0.621798,-1.187501 0.679687,-1.988281 9.7e-5,-0.0155 3.19e-4,-0.03792 0,-0.05273 -5e-6,-0.002 -5e-6,-0.0039 0,-0.0059 -0.0018,-0.08397 -0.0059,-0.204465 -0.01172,-0.347656 -0.0033,-0.053764 7.6e-5,-0.00581 0,-0.013672 -5.2e-5,-8.73e-4 5.4e-5,-0.00302 0,-0.00391 -10e-5,-0.00246 1.02e-4,-0.00338 0,-0.00586 6.03e-4,0.010734 -8.4e-4,-0.025097 0,-0.00586 -0.04517,-0.742408 -0.205163,-1.9872582 0.171875,-3.2460937 0.37885,-1.2648779 1.588009,-2.5078933 3.503907,-2.6621094 h 0.002 c 0.159344,-0.012775 0.318376,-0.021336 0.480468,-0.021484 z"
       transform="scale(0.26458334)"
       sodipodi:nodetypes="cccccccsscccccccccccccccccccccccccccccscccccccccccccccccccscccc" />
    <path
       id="path970"
       style="fill:#ffffff;fill-opacity:1;stroke:none;stroke-width:0.0236785"
       d="M 16.425781 5.0097656 C 16.295297 5.0095215 16.15942 5.0159657 16.017578 5.0273438 C 12.852436 5.2821141 13.222716 8.2616105 13.316406 9.8300781 C 13.316557 9.8335381 13.316195 9.8364337 13.316406 9.8398438 C 13.322906 9.9982891 13.327848 10.125813 13.330078 10.230469 C 13.330092 10.232469 13.330073 10.234328 13.330078 10.236328 C 13.331278 10.292128 13.330229 10.331218 13.330078 10.376953 C 13.264288 11.300331 13.075229 12.030949 12.441406 12.933594 C 12.439406 12.936294 12.437547 12.938706 12.435547 12.941406 C 11.686272 13.83286 10.632189 15.274914 10.132812 16.775391 C 9.9111414 17.44153 9.8017452 18.118678 9.875 18.765625 C 9.87178 18.839385 9.8651798 18.890879 9.8554688 18.921875 C 9.8353237 18.941305 9.815988 18.960279 9.796875 18.980469 C 9.5769216 19.215627 9.4135652 19.499845 9.2324219 19.691406 C 9.0631104 19.860495 8.8218414 19.924601 8.5566406 20.019531 C 8.2914425 20.114741 8.000861 20.254675 7.8242188 20.59375 L 7.8222656 20.595703 C 7.7391536 20.750796 7.7128906 20.918116 7.7128906 21.087891 C 7.7128906 21.244881 7.7363216 21.405417 7.7597656 21.558594 C 7.8085446 21.877302 7.8585668 22.17868 7.7929688 22.382812 C 7.5831743 22.956548 7.5553684 23.352671 7.703125 23.640625 C 7.8513543 23.929029 8.1559492 24.05497 8.5 24.126953 C 9.1881012 24.270447 10.119245 24.235723 10.853516 24.625 C 11.639645 25.036058 12.436495 25.182284 13.072266 25.037109 C 13.52093 24.934869 13.887374 24.670618 14.083984 24.267578 C 14.101444 24.251858 14.122521 24.240472 14.150391 24.232422 C 14.63488 24.217492 15.171638 24.021101 16.017578 23.974609 C 16.608336 23.926949 17.345497 24.181438 18.193359 24.136719 L 18.205078 24.138672 C 18.227228 24.230792 18.258794 24.318007 18.302734 24.402344 C 18.303192 24.403108 18.303987 24.40555 18.304688 24.40625 C 18.634977 25.066881 19.24808 25.368026 19.902344 25.316406 C 20.557271 25.264766 21.253307 24.87885 21.816406 24.208984 L 21.804688 24.197266 L 21.818359 24.207031 C 22.354975 23.556386 23.245154 23.287766 23.835938 22.931641 C 24.131199 22.75358 24.369965 22.530977 24.388672 22.207031 C 24.407152 21.883345 24.216418 21.520328 23.779297 21.035156 L 23.779297 21.033203 C 23.635569 20.870903 23.567762 20.570372 23.494141 20.25 C 23.42072 19.929867 23.338995 19.58509 23.076172 19.361328 L 23.074219 19.359375 C 23.022129 19.313915 22.967842 19.276125 22.914062 19.244141 C 22.874532 19.220741 22.834982 19.202797 22.794922 19.185547 C 22.791322 19.181947 22.78457 19.177348 22.78125 19.173828 C 22.77875 19.171128 22.775838 19.168616 22.773438 19.166016 C 22.767437 19.158316 22.764439 19.150288 22.761719 19.142578 C 22.761108 19.140378 22.760815 19.136966 22.759766 19.134766 C 23.112307 18.06142 22.968974 16.995051 22.603516 16.029297 C 22.151406 14.832594 21.361389 13.789369 20.757812 13.076172 C 20.173885 12.33956 19.603002 11.634652 19.466797 10.685547 C 19.455757 10.534343 19.44589 10.284881 19.4375 9.9375 C 19.46335 8.0703363 19.48471 5.0140512 16.427734 5.0097656 L 16.425781 5.0097656 z M 16.853516 7.8183594 L 16.861328 7.8183594 C 17.043168 7.8183594 17.199541 7.8744464 17.359375 7.9902344 C 17.521565 8.1081556 17.638187 8.2529835 17.732422 8.4589844 C 17.824782 8.6597797 17.868618 8.857081 17.873047 9.0898438 C 17.873047 9.0959638 17.873227 9.1012609 17.875 9.1074219 C 17.877 9.3463379 17.8368 9.5501539 17.746094 9.7578125 C 17.708954 9.8429855 17.660364 9.9086918 17.613281 9.9765625 C 17.8194 10.079744 18.003653 10.17483 18.111328 10.361328 C 18.240359 10.584817 18.251189 10.806825 18.125 11.025391 C 18.019566 11.208008 17.884489 11.357807 17.701172 11.505859 C 17.884445 11.694119 18.024859 11.927813 18.091797 12.222656 C 18.36647 13.432449 18.892353 14.105256 19.349609 14.955078 C 19.592777 15.405917 20.076286 16.36325 20.285156 17.517578 C 20.385184 18.005223 19.90329 17.921912 19.753906 18.435547 C 19.747206 18.471797 19.740448 18.509467 19.736328 18.546875 C 19.678098 18.567205 19.621215 18.59303 19.5625 18.625 C 19.197613 18.824843 18.997531 19.186153 18.886719 19.630859 C 18.776156 20.075068 18.745174 20.611279 18.714844 21.214844 L 18.714844 21.216797 C 18.696024 21.520142 18.569815 21.930474 18.443359 22.365234 C 17.169926 23.273756 15.403096 23.666913 13.902344 22.642578 C 13.800777 22.481801 13.684506 22.321296 13.564453 22.164062 C 13.487733 22.06369 13.408205 21.965671 13.330078 21.867188 C 13.483973 21.867424 13.614855 21.840769 13.720703 21.792969 C 13.852367 21.733059 13.944287 21.638773 13.990234 21.515625 C 14.081644 21.269607 13.990174 20.922006 13.697266 20.525391 C 13.404356 20.129012 12.908514 19.681425 12.179688 19.234375 C 11.96063 19.085831 11.831286 18.733552 11.824219 18.400391 C 11.847389 17.580142 12.042188 16.743512 12.371094 15.960938 C 12.850113 14.875273 13.816546 13.88858 13.871094 12.386719 C 13.879694 12.149671 13.977561 11.937627 14.126953 11.75 L 14.121094 11.744141 C 13.743784 11.530762 13.507558 11.277421 13.419922 10.992188 C 13.336542 10.716589 13.443862 10.392137 13.677734 10.216797 C 13.817203 10.112202 13.896345 10.053054 13.978516 9.9921875 C 13.916113 9.9173925 13.854347 9.8447717 13.806641 9.7363281 C 13.729921 9.5620518 13.688103 9.3876475 13.675781 9.1816406 L 13.675781 9.1796875 C 13.664311 8.9736828 13.683584 8.7985037 13.740234 8.6152344 C 13.797074 8.4319609 13.87232 8.2983753 13.982422 8.1894531 C 14.092289 8.0803004 14.204326 8.0244569 14.337891 8.0175781 C 14.348251 8.0170868 14.358751 8.0175781 14.369141 8.0175781 C 14.49015 8.0178125 14.597212 8.0572161 14.708984 8.1464844 C 14.830234 8.2433314 14.923284 8.3665043 15 8.5410156 C 15.07694 8.715527 15.115593 8.8897019 15.126953 9.0957031 L 15.126953 9.0976562 C 15.130153 9.1497843 15.127499 9.1972451 15.126953 9.2460938 C 15.244199 9.2145857 15.36343 9.1840398 15.501953 9.1835938 C 15.61492 9.1831174 15.741502 9.2166036 15.865234 9.2441406 C 15.862934 9.2110376 15.858122 9.1791913 15.857422 9.1445312 L 15.857422 9.1269531 C 15.854722 8.8887488 15.892762 8.6859399 15.984375 8.4785156 C 16.075995 8.2708544 16.190034 8.1195171 16.349609 7.9980469 C 16.509451 7.876811 16.667676 7.8202484 16.853516 7.8183594 z M 16.84375 8.5976562 C 16.76418 8.5978908 16.696535 8.6258829 16.625 8.6855469 C 16.54994 8.7482909 16.491697 8.8296456 16.445312 8.9414062 C 16.399132 9.0531709 16.377517 9.1632696 16.373047 9.2949219 C 16.373554 9.3091559 16.372109 9.3222426 16.375 9.3378906 C 16.3799 9.3811016 16.392641 9.4107545 16.400391 9.4492188 C 16.490441 9.4952888 16.572929 9.5209478 16.667969 9.5820312 L 16.675781 9.5820312 C 16.799748 9.6626503 16.943381 9.7143039 17.123047 9.7773438 C 17.202637 9.6729425 17.264739 9.5260125 17.287109 9.3378906 C 17.288109 9.3294206 17.288562 9.322025 17.289062 9.3125 C 17.291763 9.1870046 17.276824 9.0786209 17.240234 8.96875 C 17.201884 8.8534366 17.150614 8.7700727 17.080078 8.7011719 C 17.009278 8.6322709 16.942193 8.6005104 16.857422 8.5976562 C 16.853422 8.5974193 16.84782 8.5976562 16.84375 8.5976562 z M 14.359375 8.7480469 C 14.354075 8.7480469 14.34938 8.74956 14.34375 8.75 C 14.28266 8.7552 14.23165 8.7833119 14.183594 8.8417969 C 14.135774 8.9000469 14.104744 8.9722271 14.082031 9.0683594 C 14.059141 9.1642574 14.05305 9.260929 14.0625 9.3691406 L 14.0625 9.3808594 C 14.07286 9.4857488 14.093519 9.5720744 14.130859 9.6601562 C 14.158109 9.7245913 14.194139 9.763548 14.230469 9.8046875 C 14.326009 9.7129105 14.486585 9.5436816 14.724609 9.4023438 C 14.723936 9.3705047 14.729263 9.3369089 14.726562 9.3105469 C 14.725852 9.3062769 14.724609 9.3030971 14.724609 9.2988281 C 14.714249 9.1948836 14.69284 9.1076171 14.65625 9.0195312 C 14.61718 8.9279002 14.57317 8.8622272 14.515625 8.8125 C 14.463535 8.76749 14.413861 8.7475649 14.359375 8.7480469 z M 15.501953 9.4453125 C 15.354909 9.4457861 15.223142 9.4729471 15.105469 9.5136719 C 14.763313 9.6313524 14.536839 9.876988 14.394531 10.011719 C 14.366676 10.038251 14.329351 10.063022 14.242188 10.126953 C 14.154363 10.191118 14.023424 10.287615 13.833984 10.429688 C 13.665648 10.555893 13.611679 10.719604 13.669922 10.912109 C 13.72793 11.104616 13.912388 11.327499 14.251953 11.519531 L 14.253906 11.519531 C 14.46463 11.643367 14.608162 11.810521 14.773438 11.943359 C 14.856058 12.00966 14.944177 12.068532 15.048828 12.113281 C 15.153483 12.158038 15.274776 12.188267 15.427734 12.197266 C 15.786706 12.218091 16.049967 12.110108 16.283203 11.976562 C 16.516903 11.843251 16.716259 11.681066 16.943359 11.607422 L 16.943359 11.605469 C 17.40886 11.460082 17.741776 11.168847 17.845703 10.890625 C 17.897793 10.751395 17.896195 10.618042 17.833984 10.496094 C 17.771709 10.374151 17.644158 10.258714 17.427734 10.169922 L 17.425781 10.169922 C 16.975651 9.9771781 16.780526 9.9622099 16.529297 9.7988281 C 16.120366 9.5359964 15.78278 9.4441288 15.501953 9.4453125 z M 19.730469 18.839844 C 19.762369 19.361481 20.020066 19.894712 20.476562 20.009766 C 20.97621 20.141445 21.697922 19.712998 22.001953 19.363281 C 22.062773 19.360981 22.122111 19.356869 22.179688 19.355469 C 22.446535 19.349069 22.669697 19.364569 22.898438 19.564453 L 22.898438 19.566406 C 23.074131 19.715342 23.159971 19.995623 23.232422 20.310547 C 23.304902 20.625734 23.3627 20.970244 23.580078 21.214844 C 23.997796 21.67821 24.132692 21.991324 24.121094 22.191406 C 24.109614 22.391227 23.962646 22.538206 23.695312 22.699219 C 23.161102 23.021484 22.215819 23.302779 21.611328 24.035156 C 21.086114 24.660032 20.444623 25.004316 19.880859 25.048828 C 19.317095 25.093348 18.831906 24.858834 18.544922 24.283203 L 18.542969 24.283203 L 18.542969 24.28125 C 18.364889 23.942645 18.437997 23.407275 18.587891 22.84375 C 18.73779 22.280438 18.953546 21.702441 18.982422 21.232422 L 18.982422 21.230469 C 19.012632 20.628111 19.047331 20.103352 19.148438 19.697266 C 19.249767 19.291178 19.409132 19.015949 19.691406 18.861328 C 19.704586 18.854228 19.717359 18.846224 19.730469 18.839844 z M 10.552734 18.878906 C 10.555534 18.879166 10.557547 18.879166 10.560547 18.878906 C 10.602707 18.879171 10.647947 18.883205 10.695312 18.890625 C 11.014962 18.938925 11.293984 19.161214 11.5625 19.525391 L 12.337891 20.939453 C 12.544149 21.370165 12.980456 21.844847 13.349609 22.328125 C 13.71876 22.811191 14.003967 23.296689 13.966797 23.667969 L 13.966797 23.669922 L 13.966797 23.671875 C 13.918497 24.305038 13.562066 24.650131 13.013672 24.775391 C 12.465746 24.90065 11.722579 24.776791 10.980469 24.388672 L 10.980469 24.384766 C 10.159342 23.949686 9.181459 23.994223 8.5546875 23.863281 C 8.241421 23.797926 8.0371257 23.700375 7.9433594 23.517578 C 7.8495931 23.334544 7.8475011 23.014599 8.046875 22.470703 L 8.0488281 22.46875 L 8.0488281 22.466797 C 8.1475789 22.162616 8.0732168 21.830134 8.0253906 21.517578 C 7.977572 21.205281 7.9557246 20.920632 8.0625 20.722656 L 8.0625 20.720703 C 8.199136 20.457398 8.3978587 20.362472 8.6464844 20.273438 C 8.8953451 20.184167 9.1910693 20.114354 9.4238281 19.880859 L 9.4257812 19.878906 C 9.6410401 19.651923 9.8049507 19.366043 9.9941406 19.164062 C 10.153747 18.993579 10.31194 18.880531 10.552734 18.878906 z "
       transform="scale(0.26458334)" />
  </g>
</svg>
