<?xml version="1.0" encoding="UTF-8" standalone="no"?>
<svg
   xmlns:dc="http://purl.org/dc/elements/1.1/"
   xmlns:cc="http://creativecommons.org/ns#"
   xmlns:rdf="http://www.w3.org/1999/02/22-rdf-syntax-ns#"
   xmlns:svg="http://www.w3.org/2000/svg"
   xmlns="http://www.w3.org/2000/svg"
   xmlns:sodipodi="http://sodipodi.sourceforge.net/DTD/sodipodi-0.dtd"
   xmlns:inkscape="http://www.inkscape.org/namespaces/inkscape"
   width="32"
   height="32"
   version="1.1"
   viewBox="0 0 8.4666666 8.4666671"
   id="svg371"
   sodipodi:docname="help.svg"
   inkscape:version="1.0.2 (e86c870879, 2021-01-15)">
  <metadata
     id="metadata375">
    <rdf:RDF>
      <cc:Work
         rdf:about="">
        <dc:format>image/svg+xml</dc:format>
        <dc:type
           rdf:resource="http://purl.org/dc/dcmitype/StillImage" />
        <dc:title></dc:title>
      </cc:Work>
    </rdf:RDF>
  </metadata>
  <sodipodi:namedview
     inkscape:snap-bbox-edge-midpoints="true"
     inkscape:bbox-nodes="true"
     inkscape:snap-bbox="true"
     pagecolor="#808080"
     bordercolor="#666666"
     borderopacity="1"
     objecttolerance="10"
     gridtolerance="10"
     guidetolerance="10"
     inkscape:pageopacity="0"
     inkscape:pageshadow="2"
     inkscape:window-width="1920"
     inkscape:window-height="1016"
     id="namedview373"
     showgrid="false"
     inkscape:zoom="16"
     inkscape:cx="17.681132"
     inkscape:cy="16.011219"
     inkscape:window-x="1920"
     inkscape:window-y="27"
     inkscape:window-maximized="1"
     inkscape:current-layer="svg371"
     inkscape:document-rotation="0">
    <inkscape:grid
       id="grid1162"
       type="xygrid" />
  </sodipodi:namedview>
  <defs
     id="defs37">
    <style
       id="current-color-scheme"
       type="text/css">.ColorScheme-Text { color:#565656; } .ColorScheme-Highlight { color:#5294e2; }</style>
    <style
       type="text/css"
       id="style13">.ColorScheme-Text { color:#565656; } .ColorScheme-Highlight { color:#5294e2; }</style>
    <style
       type="text/css"
       id="style15">.ColorScheme-Text { color:#565656; } .ColorScheme-Highlight { color:#5294e2; }</style>
    <style
       type="text/css"
       id="style17">.ColorScheme-Text { color:#565656; } .ColorScheme-Highlight { color:#5294e2; }</style>
    <style
       type="text/css"
       id="style19">.ColorScheme-Text { color:#565656; } .ColorScheme-Highlight { color:#5294e2; }</style>
    <style
       type="text/css"
       id="style21">.ColorScheme-Text { color:#565656; } .ColorScheme-Highlight { color:#5294e2; }</style>
    <style
       type="text/css"
       id="style23">.ColorScheme-Text { color:#565656; } .ColorScheme-Highlight { color:#5294e2; }</style>
    <style
       type="text/css"
       id="style25">.ColorScheme-Text { color:#565656; } .ColorScheme-Highlight { color:#5294e2; }</style>
    <style
       type="text/css"
       id="style27">.ColorScheme-Text { color:#565656; } .ColorScheme-Highlight { color:#5294e2; }</style>
    <style
       type="text/css"
       id="style29" />
    <style
       type="text/css"
       id="style31" />
    <style
       type="text/css"
       id="style33">.ColorScheme-Text { color:#565656; } .ColorScheme-Highlight { color:#5294e2; }</style>
    <style
       type="text/css"
       id="style35">.ColorScheme-Text { color:#565656; } .ColorScheme-Highlight { color:#5294e2; }</style>
  </defs>
  <path
     id="path296"
     style="fill:#ffffff;stroke-width:1.08703"
     d="M 16 0 C 7.1630868 -1.1842379e-15 0 7.1630868 0 16 C -1.1842379e-15 24.836913 7.1630868 32 16 32 C 24.836913 32 32 24.836913 32 16 C 32 7.1630868 24.836913 0 16 0 z M 16 8 C 18.498841 8 20.523438 10.024444 20.523438 12.523438 C 20.523438 13.518495 20.117175 14.421881 19.472656 15.066406 L 18.453125 16.107422 C 17.638982 16.932855 17.130859 17.610515 17.130859 19.306641 L 14.869141 19.306641 L 14.869141 18.742188 C 14.869141 17.498353 15.379217 16.366448 16.193359 15.541016 L 17.595703 14.117188 C 18.014059 13.710111 18.261719 13.145353 18.261719 12.523438 C 18.261719 11.279603 17.243865 10.261719 16 10.261719 C 14.756137 10.261719 13.738281 11.279603 13.738281 12.523438 L 11.476562 12.523438 C 11.476563 10.024573 13.501032 8 16 8 z M 15.980469 21.173828 A 1.4134415 1.4134551 0 0 1 16 21.173828 A 1.4134415 1.4134551 0 0 1 17.414062 22.585938 A 1.4134415 1.4134551 0 0 1 16 24 A 1.4134415 1.4134551 0 0 1 14.587891 22.585938 A 1.4134415 1.4134551 0 0 1 15.980469 21.173828 z "
     transform="scale(0.26458334)" />
</svg>
