<?xml version="1.0" encoding="UTF-8" standalone="no"?>
<svg
   xmlns:dc="http://purl.org/dc/elements/1.1/"
   xmlns:cc="http://creativecommons.org/ns#"
   xmlns:rdf="http://www.w3.org/1999/02/22-rdf-syntax-ns#"
   xmlns:svg="http://www.w3.org/2000/svg"
   xmlns="http://www.w3.org/2000/svg"
   xmlns:sodipodi="http://sodipodi.sourceforge.net/DTD/sodipodi-0.dtd"
   xmlns:inkscape="http://www.inkscape.org/namespaces/inkscape"
   width="32"
   height="32"
   version="1.1"
   viewBox="0 0 8.4666666 8.4666671"
   id="svg371"
   sodipodi:docname="kbd.svg"
   inkscape:version="1.0.2 (e86c870879, 2021-01-15)">
  <metadata
     id="metadata375">
    <rdf:RDF>
      <cc:Work
         rdf:about="">
        <dc:format>image/svg+xml</dc:format>
        <dc:type
           rdf:resource="http://purl.org/dc/dcmitype/StillImage" />
        <dc:title></dc:title>
      </cc:Work>
    </rdf:RDF>
  </metadata>
  <sodipodi:namedview
     inkscape:snap-bbox-edge-midpoints="true"
     inkscape:bbox-nodes="true"
     inkscape:snap-bbox="true"
     pagecolor="#808080"
     bordercolor="#666666"
     borderopacity="1"
     objecttolerance="10"
     gridtolerance="10"
     guidetolerance="10"
     inkscape:pageopacity="0"
     inkscape:pageshadow="2"
     inkscape:window-width="1920"
     inkscape:window-height="1016"
     id="namedview373"
     showgrid="false"
     inkscape:zoom="16"
     inkscape:cx="12.638396"
     inkscape:cy="18.271501"
     inkscape:window-x="1920"
     inkscape:window-y="27"
     inkscape:window-maximized="1"
     inkscape:current-layer="svg371"
     inkscape:document-rotation="0">
    <inkscape:grid
       id="grid1162"
       type="xygrid" />
  </sodipodi:namedview>
  <defs
     id="defs37">
    <style
       id="current-color-scheme"
       type="text/css">.ColorScheme-Text { color:#565656; } .ColorScheme-Highlight { color:#5294e2; }</style>
    <style
       type="text/css"
       id="style13">.ColorScheme-Text { color:#565656; } .ColorScheme-Highlight { color:#5294e2; }</style>
    <style
       type="text/css"
       id="style15">.ColorScheme-Text { color:#565656; } .ColorScheme-Highlight { color:#5294e2; }</style>
    <style
       type="text/css"
       id="style17">.ColorScheme-Text { color:#565656; } .ColorScheme-Highlight { color:#5294e2; }</style>
    <style
       type="text/css"
       id="style19">.ColorScheme-Text { color:#565656; } .ColorScheme-Highlight { color:#5294e2; }</style>
    <style
       type="text/css"
       id="style21">.ColorScheme-Text { color:#565656; } .ColorScheme-Highlight { color:#5294e2; }</style>
    <style
       type="text/css"
       id="style23">.ColorScheme-Text { color:#565656; } .ColorScheme-Highlight { color:#5294e2; }</style>
    <style
       type="text/css"
       id="style25">.ColorScheme-Text { color:#565656; } .ColorScheme-Highlight { color:#5294e2; }</style>
    <style
       type="text/css"
       id="style27">.ColorScheme-Text { color:#565656; } .ColorScheme-Highlight { color:#5294e2; }</style>
    <style
       type="text/css"
       id="style29" />
    <style
       type="text/css"
       id="style31" />
    <style
       type="text/css"
       id="style33">.ColorScheme-Text { color:#565656; } .ColorScheme-Highlight { color:#5294e2; }</style>
    <style
       type="text/css"
       id="style35">.ColorScheme-Text { color:#565656; } .ColorScheme-Highlight { color:#5294e2; }</style>
  </defs>
  <path
     id="path301"
     style="fill:#ffffff;stroke-width:1.08703"
     d="M 16 0 C 7.1630868 -1.1842379e-15 0 7.1630868 0 16 C -1.1842379e-15 24.836913 7.1630868 32 16 32 C 24.836913 32 32 24.836913 32 16 C 32 7.1630868 24.836913 0 16 0 z M 9.7675781 10 L 22.232422 10 C 22.232422 10 24.5 9.9999874 24.5 12 L 24.5 20 C 24.5 22.000013 22.232422 22 22.232422 22 L 9.7675781 22 C 9.7675781 22 7.5 22.000013 7.5 20 L 7.5 12 C 7.5 9.9999874 9.7675781 10 9.7675781 10 z M 10.050781 12 C 9.8937918 12 9.7675781 12.111669 9.7675781 12.25 L 9.7675781 13.75 C 9.7675781 13.888331 9.893791 14 10.050781 14 L 11.75 14 C 11.90699 14 12.033203 13.888331 12.033203 13.75 L 12.033203 12.25 C 12.033203 12.111669 11.906945 12 11.75 12 L 10.050781 12 z M 13.449219 12 C 13.292233 12 13.166016 12.111669 13.166016 12.25 L 13.166016 13.75 C 13.166016 13.888331 13.292274 14 13.449219 14 L 15.150391 14 C 15.307381 14 15.433594 13.888331 15.433594 13.75 L 15.433594 12.25 C 15.433594 12.111669 15.307336 12 15.150391 12 L 13.449219 12 z M 16.849609 12 C 16.69262 12 16.566406 12.111669 16.566406 12.25 L 16.566406 13.75 C 16.566406 13.888331 16.692661 14 16.849609 14 L 18.550781 14 C 18.707771 14 18.833984 13.888331 18.833984 13.75 L 18.833984 12.25 C 18.833984 12.111669 18.707726 12 18.550781 12 L 16.849609 12 z M 20.25 12 C 20.093011 12 19.966797 12.111669 19.966797 12.25 L 19.966797 13.75 C 19.966797 13.888331 20.09301 14 20.25 14 L 21.949219 14 C 22.106209 14 22.234375 13.888331 22.234375 13.75 L 22.234375 12.25 C 22.234375 12.111669 22.106209 12 21.949219 12 L 20.25 12 z M 10.050781 15 C 9.893791 15 9.7675781 15.111669 9.7675781 15.25 L 9.7675781 16.75 C 9.7675781 16.888331 9.893791 17 10.050781 17 L 11.75 17 C 11.906986 17 12.033203 16.888331 12.033203 16.75 L 12.033203 15.25 C 12.033203 15.111669 11.906945 15 11.75 15 L 10.050781 15 z M 13.451172 15 C 13.294182 15 13.166016 15.111669 13.166016 15.25 L 13.166016 16.75 C 13.166016 16.888331 13.294227 17 13.451172 17 L 15.150391 17 C 15.307381 17 15.433594 16.888331 15.433594 16.75 L 15.433594 15.25 C 15.433594 15.111669 15.307336 15 15.150391 15 L 13.451172 15 z M 16.849609 15 C 16.692623 15 16.566406 15.111669 16.566406 15.25 L 16.566406 16.75 C 16.566406 16.888331 16.692664 17 16.849609 17 L 18.550781 17 C 18.707771 17 18.833984 16.888331 18.833984 16.75 L 18.833984 15.25 C 18.833984 15.111669 18.707726 15 18.550781 15 L 16.849609 15 z M 20.25 15 C 20.09301 15 19.966797 15.111669 19.966797 15.25 L 19.966797 16.75 C 19.966797 16.888331 20.09301 17 20.25 17 L 21.951172 17 C 22.108162 17 22.234375 16.888331 22.234375 16.75 L 22.234375 15.25 C 22.234375 15.111669 22.108162 15 21.951172 15 L 20.25 15 z M 12.316406 18 C 12.159416 18 12.033203 18.111669 12.033203 18.25 L 12.033203 19.75 C 12.033203 19.888331 12.159461 20 12.316406 20 L 19.683594 20 C 19.84058 20 19.966797 19.888331 19.966797 19.75 L 19.966797 18.25 C 19.966797 18.111669 19.840584 18 19.683594 18 L 12.316406 18 z "
     transform="scale(0.26458334)" />
</svg>
