<?xml version="1.0" encoding="UTF-8" standalone="no"?>
<svg
   width="32"
   height="32"
   version="1.1"
   viewBox="0 0 8.4666667 8.4666672"
   id="svg371"
   sodipodi:docname="kubuntu.svg"
   xmlns:inkscape="http://www.inkscape.org/namespaces/inkscape"
   xmlns:sodipodi="http://sodipodi.sourceforge.net/DTD/sodipodi-0.dtd"
   xmlns="http://www.w3.org/2000/svg"
   xmlns:svg="http://www.w3.org/2000/svg">
  <sodipodi:namedview
     inkscape:snap-bbox-edge-midpoints="true"
     inkscape:bbox-nodes="true"
     inkscape:snap-bbox="true"
     pagecolor="#808080"
     bordercolor="#666666"
     borderopacity="1"
     objecttolerance="10"
     gridtolerance="10"
     guidetolerance="10"
     inkscape:pageopacity="0"
     inkscape:pageshadow="2"
     inkscape:window-width="1920"
     inkscape:window-height="1016"
     id="namedview373"
     showgrid="false"
     inkscape:zoom="11.313708"
     inkscape:cx="19.863871"
     inkscape:cy="21.069549"
     inkscape:window-x="1920"
     inkscape:window-y="27"
     inkscape:window-maximized="1"
     inkscape:current-layer="svg371"
     inkscape:document-rotation="0"
     inkscape:showpageshadow="2"
     inkscape:pagecheckerboard="0"
     inkscape:deskcolor="#d1d1d1">
    <inkscape:grid
       id="grid1162"
       type="xygrid"
       originx="0"
       originy="0"
       spacingy="1"
       spacingx="1"
       units="px"
       visible="false" />
  </sodipodi:namedview>
  <defs
     id="defs37">
    <style
       id="current-color-scheme"
       type="text/css">.ColorScheme-Text { color:#565656; } .ColorScheme-Highlight { color:#5294e2; }</style>
    <style
       type="text/css"
       id="style13">.ColorScheme-Text { color:#565656; } .ColorScheme-Highlight { color:#5294e2; }</style>
    <style
       type="text/css"
       id="style15">.ColorScheme-Text { color:#565656; } .ColorScheme-Highlight { color:#5294e2; }</style>
    <style
       type="text/css"
       id="style17">.ColorScheme-Text { color:#565656; } .ColorScheme-Highlight { color:#5294e2; }</style>
    <style
       type="text/css"
       id="style19">.ColorScheme-Text { color:#565656; } .ColorScheme-Highlight { color:#5294e2; }</style>
    <style
       type="text/css"
       id="style21">.ColorScheme-Text { color:#565656; } .ColorScheme-Highlight { color:#5294e2; }</style>
    <style
       type="text/css"
       id="style23">.ColorScheme-Text { color:#565656; } .ColorScheme-Highlight { color:#5294e2; }</style>
    <style
       type="text/css"
       id="style25">.ColorScheme-Text { color:#565656; } .ColorScheme-Highlight { color:#5294e2; }</style>
    <style
       type="text/css"
       id="style27">.ColorScheme-Text { color:#565656; } .ColorScheme-Highlight { color:#5294e2; }</style>
    <style
       type="text/css"
       id="style29" />
    <style
       type="text/css"
       id="style31" />
    <style
       type="text/css"
       id="style33">.ColorScheme-Text { color:#565656; } .ColorScheme-Highlight { color:#5294e2; }</style>
    <style
       type="text/css"
       id="style35">.ColorScheme-Text { color:#565656; } .ColorScheme-Highlight { color:#5294e2; }</style>
  </defs>
  <path
     id="path130"
     style="fill:#ffffff;stroke-width:3.63957"
     d="M 16.142578,0 C 16.030595,-5.2459757e-4 15.91861,1.2647998e-4 15.806641,0.00195313 7.0651708,0.13370696 0.04791014,7.2575425 0.04791014,16 c 0,8.742458 7.01726066,15.866293 15.75873086,15.998047 8.836023,0.09277 16.074219,-6.995039 16.166985,-15.831055 C 32.066392,7.3309754 24.978601,0.0927665 16.142578,0 Z m -0.929687,5.609375 c 0.06142,0.00624 0.112962,0.04436 0.140625,0.099609 l 1.283203,2.6992187 c 0.623356,0.018369 1.254151,0.1257378 1.865234,0.3222657 L 20.5625,6.6699219 c 0.05665,-0.058094 0.146209,-0.068678 0.214844,-0.025391 l 1.638672,0.9980469 c 0.07135,0.043103 0.102396,0.1305374 0.07422,0.2089844 l -0.99414,2.8066405 c 0.374645,0.417624 0.693229,0.875033 0.951172,1.363281 h 3.0625 c 0.08294,0 0.153449,0.05799 0.171875,0.134766 l 0.453125,1.867188 c 0.01997,0.07972 -0.01822,0.162598 -0.0918,0.199218 L 22.205078,15.0625 c -0.58482,-3.853438 -4.5035,-6.2477726 -8.199219,-5.009766 l -0.03125,-0.01758 -0.822265,-3.7949216 c 0,-0.079839 0.05797,-0.1514929 0.134765,-0.1699219 l 1.865235,-0.453125 c 0.02162,-0.00624 0.03893,-0.00781 0.06055,-0.00781 z M 9.1328125,8.3554688 c 0.040259,-0.00321 0.080362,0.00785 0.1132813,0.03125 l 2.9179682,2.6562502 c -3.07203,2.367184 -3.2734112,6.929969 -0.421874,9.558593 v 0.04297 l -2.6210942,2.896485 c -0.06914,0.04098 -0.1571621,0.03058 -0.2148438,-0.02539 L 7.5488281,22.162109 c -0.059839,-0.05936 -0.068869,-0.152946 -0.021484,-0.222656 L 9.1660156,19.441406 C 8.8525268,18.890271 8.6178224,18.297922 8.46875,17.681641 L 5.6386719,16.986328 c -0.07735,-0.01922 -0.1319483,-0.08827 -0.1328125,-0.167969 v -1.919921 c 0,-0.08291 0.058829,-0.153454 0.1386718,-0.171876 L 8.5625,14.119141 C 8.7252313,13.58176 8.9510199,13.068598 9.2304688,12.595703 L 7.6425781,9.9804688 C 7.600473,9.9115704 7.6109628,9.8228102 7.6679688,9.765625 L 9.0253906,8.4082031 c 0.028171,-0.0301 0.066379,-0.048856 0.1074219,-0.052734 z m 12.9960935,8.9980472 3.806641,0.853515 c 0.06756,0.03685 0.105456,0.122453 0.08398,0.199219 l -0.498047,1.851562 c -0.02109,0.0817 -0.09747,0.136724 -0.18164,0.13086 l -2.984375,-0.173828 c -0.320781,0.546621 -0.716553,1.04561 -1.175781,1.482422 l 0.8125,2.798828 c 0.02231,0.07645 -0.0098,0.158317 -0.07813,0.199218 l -1.666015,0.957032 c -0.0711,0.04119 -0.161284,0.02738 -0.216797,-0.0332 l -1.984375,-2.226563 c -0.546595,0.128972 -1.102678,0.189736 -1.652344,0.183594 l -1.472656,2.68164 c -0.03869,0.07218 -0.122267,0.107886 -0.201172,0.08594 l -1.853515,-0.5 c -0.07941,-0.02158 -0.133057,-0.09555 -0.128907,-0.177734 l 1,-3.792969 0.01953,-0.0098 c 3.581522,1.369957 7.543548,-0.763583 8.371094,-4.507812 z"
     transform="scale(0.26458334)"
     sodipodi:nodetypes="ccscscccccccccccscccccccccccccccccccccccscccccccccccccccccccccccccccc" />
</svg>
