<?xml version="1.0" encoding="UTF-8" standalone="no"?>
<svg
   width="32"
   height="32"
   version="1.1"
   viewBox="0 0 8.4666667 8.4666672"
   id="svg371"
   sodipodi:docname="lubuntu.svg"
   xmlns:inkscape="http://www.inkscape.org/namespaces/inkscape"
   xmlns:sodipodi="http://sodipodi.sourceforge.net/DTD/sodipodi-0.dtd"
   xmlns="http://www.w3.org/2000/svg"
   xmlns:svg="http://www.w3.org/2000/svg">
  <sodipodi:namedview
     inkscape:snap-bbox-edge-midpoints="true"
     inkscape:bbox-nodes="true"
     inkscape:snap-bbox="true"
     pagecolor="#808080"
     bordercolor="#666666"
     borderopacity="1"
     objecttolerance="10"
     gridtolerance="10"
     guidetolerance="10"
     inkscape:pageopacity="0"
     inkscape:pageshadow="2"
     inkscape:window-width="1920"
     inkscape:window-height="1016"
     id="namedview373"
     showgrid="false"
     inkscape:zoom="15.999999"
     inkscape:cx="24.795127"
     inkscape:cy="14.202429"
     inkscape:window-x="1920"
     inkscape:window-y="27"
     inkscape:window-maximized="1"
     inkscape:current-layer="svg371"
     inkscape:document-rotation="0"
     inkscape:showpageshadow="2"
     inkscape:pagecheckerboard="0"
     inkscape:deskcolor="#d1d1d1">
    <inkscape:grid
       id="grid1162"
       type="xygrid"
       originx="0"
       originy="0"
       spacingy="1"
       spacingx="1"
       units="px"
       visible="false" />
  </sodipodi:namedview>
  <defs
     id="defs37">
    <style
       id="current-color-scheme"
       type="text/css">.ColorScheme-Text { color:#565656; } .ColorScheme-Highlight { color:#5294e2; }</style>
    <style
       type="text/css"
       id="style13">.ColorScheme-Text { color:#565656; } .ColorScheme-Highlight { color:#5294e2; }</style>
    <style
       type="text/css"
       id="style15">.ColorScheme-Text { color:#565656; } .ColorScheme-Highlight { color:#5294e2; }</style>
    <style
       type="text/css"
       id="style17">.ColorScheme-Text { color:#565656; } .ColorScheme-Highlight { color:#5294e2; }</style>
    <style
       type="text/css"
       id="style19">.ColorScheme-Text { color:#565656; } .ColorScheme-Highlight { color:#5294e2; }</style>
    <style
       type="text/css"
       id="style21">.ColorScheme-Text { color:#565656; } .ColorScheme-Highlight { color:#5294e2; }</style>
    <style
       type="text/css"
       id="style23">.ColorScheme-Text { color:#565656; } .ColorScheme-Highlight { color:#5294e2; }</style>
    <style
       type="text/css"
       id="style25">.ColorScheme-Text { color:#565656; } .ColorScheme-Highlight { color:#5294e2; }</style>
    <style
       type="text/css"
       id="style27">.ColorScheme-Text { color:#565656; } .ColorScheme-Highlight { color:#5294e2; }</style>
    <style
       type="text/css"
       id="style29" />
    <style
       type="text/css"
       id="style31" />
    <style
       type="text/css"
       id="style33">.ColorScheme-Text { color:#565656; } .ColorScheme-Highlight { color:#5294e2; }</style>
    <style
       type="text/css"
       id="style35">.ColorScheme-Text { color:#565656; } .ColorScheme-Highlight { color:#5294e2; }</style>
  </defs>
  <path
     id="path926"
     style="fill:#ffffff;stroke-width:3.59463;stroke-linecap:round;stroke-linejoin:round;paint-order:stroke markers fill"
     d="M 16 0 A 16 16 0 0 0 0 16 A 16 16 0 0 0 16 32 A 16 16 0 0 0 32 16 A 16 16 0 0 0 16 0 z M 17.4375 8.5644531 C 17.602263 8.5575231 17.767523 8.5637927 17.931641 8.5820312 C 18.943546 8.6944918 19.83648 9.3439401 20.349609 10.220703 L 25.992188 11 L 26.019531 11 A 0.15118318 0.15118318 0 0 1 25.992188 11.300781 L 25.974609 11.300781 L 19.535156 11.300781 A 0.15001496 0.150015 0 0 1 19.419922 11.238281 C 19.041762 10.754615 18.460136 10.427444 17.851562 10.34375 C 17.416355 10.28391 16.968654 10.34505 16.566406 10.521484 C 16.164159 10.697947 15.807087 10.992915 15.556641 11.353516 C 15.306239 11.714142 15.157304 12.147729 15.132812 12.585938 C 15.108094 13.02412 15.207612 13.465175 15.416016 13.851562 A 0.15001496 0.150015 0 0 1 15.175781 14.029297 C 15.164891 14.017417 15.169083 13.996395 15.158203 13.984375 L 15.150391 13.994141 C 15.144291 13.983251 15.146525 13.969944 15.140625 13.958984 C 14.723134 13.482987 14.431057 12.892836 14.34375 12.265625 C 14.25272 11.611862 14.36386 10.932743 14.662109 10.34375 C 14.960319 9.7547741 15.436589 9.2671395 16.017578 8.953125 C 16.453316 8.7176198 16.943212 8.585236 17.4375 8.5644531 z M 7.4023438 9.6621094 A 0.15007392 0.14995611 0 0 1 7.4941406 9.6914062 L 16.167969 15.923828 A 0.15007392 0.14995611 0 0 1 16.007812 16.175781 L 9.0214844 12.259766 C 8.8644087 12.831052 8.8499471 13.442175 8.9980469 14.015625 C 9.1407834 14.5683 9.4267349 15.084484 9.8183594 15.5 C 10.100871 15.799752 10.439792 16.045925 10.810547 16.226562 L 15.640625 17.583984 A 0.15031304 0.15019504 0 0 1 15.574219 17.876953 L 9.78125 16.927734 C 9.862236 17.406679 10.04993 17.86875 10.337891 18.259766 C 10.916745 19.045795 11.892489 19.535816 12.869141 19.529297 A 0.15007392 0.14995611 0 0 1 12.908203 19.824219 C 11.841503 20.110714 10.66546 19.936849 9.7265625 19.355469 C 9.0942976 18.963958 8.5757535 18.396738 8.2421875 17.732422 C 7.9086298 17.068106 7.7642631 16.312763 7.828125 15.572266 A 0.15007392 0.14995611 0 0 1 7.9746094 15.435547 A 0.15007392 0.14995611 0 0 1 8.0175781 15.441406 L 8.4707031 15.568359 C 8.283803 15.411765 8.0981791 15.25237 7.9375 15.068359 C 7.3125854 14.352693 6.9089142 13.450264 6.7910156 12.507812 C 6.6731174 11.565372 6.8420998 10.591493 7.2714844 9.7441406 A 0.15007392 0.14995611 0 0 1 7.4023438 9.6621094 z M 19.074219 12.798828 A 0.15001496 0.150015 0 0 1 19.224609 12.957031 C 19.218109 13.045431 19.214194 13.134699 19.214844 13.222656 C 19.220444 14.32018 19.739545 15.361205 20.261719 16.376953 C 20.784736 17.394331 21.336551 18.476229 21.367188 19.664062 C 21.392586 20.653647 21.034241 21.629107 20.4375 22.410156 C 19.841417 23.190348 19.016392 23.778184 18.117188 24.154297 C 16.903365 24.662012 15.544317 24.755538 14.255859 24.490234 L 13.289062 26.785156 A 0.15001496 0.150015 0 0 1 13.005859 26.722656 L 13.005859 23.400391 A 0.15001496 0.150015 0 0 1 13.183594 23.25 C 14.369038 23.511606 15.637698 23.407534 16.761719 22.949219 C 17.44417 22.670948 18.075784 22.264584 18.568359 21.726562 C 19.060413 21.189126 19.411086 20.518038 19.517578 19.804688 C 19.660335 18.848197 19.370065 17.857096 19.074219 16.890625 C 18.777919 15.922511 18.474855 14.894426 18.640625 13.851562 C 18.690745 13.536337 18.790577 13.229487 18.923828 12.939453 C 18.924028 12.936553 18.923624 12.934541 18.923828 12.931641 C 18.931528 12.914621 18.933226 12.893813 18.941406 12.876953 A 0.15001496 0.150015 0 0 1 19.074219 12.798828 z "
     transform="scale(0.26458334)" />
  <g
     style="fill:#ffffff;fill-opacity:1"
     transform="matrix(-0.02885528,0,0,0.0288555,30.259629,5.9111644)"
     id="g898" />
  <g
     style="fill:#ffffff;fill-opacity:1"
     transform="matrix(0.01499372,0.0246541,0.02465391,-0.01499384,8.7135589,-9.7682363)"
     id="g900" />
  <g
     style="fill:#ffffff;fill-opacity:1"
     transform="matrix(0.0144051,-0.0250026,-0.02500241,-0.01440521,5.9599396,16.386349)"
     id="g902" />
  <g
     transform="matrix(0.01582535,0,0,0.01582535,1.9784813,-5.2075363)"
     id="g924"
     style="fill:#ffffff">
    <g
       id="g920"
       style="font-style:normal;font-variant:normal;font-weight:normal;font-stretch:normal;font-size:21.2227px;line-height:125%;font-family:FontAwesome;-inkscape-font-specification:FontAwesome;text-align:start;letter-spacing:0px;word-spacing:0px;writing-mode:lr-tb;text-anchor:start;fill:#ffffff;fill-opacity:1;stroke:none"
       transform="matrix(1.0005173,0,0,0.99948297,0.16863416,0)" />
    <g
       id="g922"
       style="font-style:normal;font-variant:normal;font-weight:normal;font-stretch:normal;font-size:20.9884px;line-height:125%;font-family:FontAwesome;-inkscape-font-specification:FontAwesome;text-align:end;letter-spacing:0px;word-spacing:0px;writing-mode:lr-tb;text-anchor:end;fill:#ffffff;fill-opacity:1;stroke:none"
       transform="matrix(1.0005173,0,0,0.99948297,9,0)" />
  </g>
</svg>
