<?xml version="1.0" encoding="UTF-8" standalone="no"?>
<svg
   xmlns:dc="http://purl.org/dc/elements/1.1/"
   xmlns:cc="http://creativecommons.org/ns#"
   xmlns:rdf="http://www.w3.org/1999/02/22-rdf-syntax-ns#"
   xmlns:svg="http://www.w3.org/2000/svg"
   xmlns="http://www.w3.org/2000/svg"
   xmlns:sodipodi="http://sodipodi.sourceforge.net/DTD/sodipodi-0.dtd"
   xmlns:inkscape="http://www.inkscape.org/namespaces/inkscape"
   width="32"
   height="32"
   version="1.1"
   viewBox="0 0 8.4666667 8.4666672"
   id="svg371"
   sodipodi:docname="mageia.svg"
   inkscape:version="1.0.2 (e86c870879, 2021-01-15)">
  <metadata
     id="metadata375">
    <rdf:RDF>
      <cc:Work
         rdf:about="">
        <dc:format>image/svg+xml</dc:format>
        <dc:type
           rdf:resource="http://purl.org/dc/dcmitype/StillImage" />
        <dc:title></dc:title>
      </cc:Work>
    </rdf:RDF>
  </metadata>
  <sodipodi:namedview
     inkscape:snap-bbox-edge-midpoints="true"
     inkscape:bbox-nodes="true"
     inkscape:snap-bbox="true"
     pagecolor="#808080"
     bordercolor="#666666"
     borderopacity="1"
     objecttolerance="10"
     gridtolerance="10"
     guidetolerance="10"
     inkscape:pageopacity="0"
     inkscape:pageshadow="2"
     inkscape:window-width="1920"
     inkscape:window-height="1016"
     id="namedview373"
     showgrid="false"
     inkscape:zoom="16"
     inkscape:cx="17.869851"
     inkscape:cy="14.441196"
     inkscape:window-x="1920"
     inkscape:window-y="27"
     inkscape:window-maximized="1"
     inkscape:current-layer="svg371"
     inkscape:document-rotation="0">
    <inkscape:grid
       id="grid1162"
       type="xygrid" />
  </sodipodi:namedview>
  <defs
     id="defs37">
    <style
       id="current-color-scheme"
       type="text/css">.ColorScheme-Text { color:#565656; } .ColorScheme-Highlight { color:#5294e2; }</style>
    <style
       type="text/css"
       id="style13">.ColorScheme-Text { color:#565656; } .ColorScheme-Highlight { color:#5294e2; }</style>
    <style
       type="text/css"
       id="style15">.ColorScheme-Text { color:#565656; } .ColorScheme-Highlight { color:#5294e2; }</style>
    <style
       type="text/css"
       id="style17">.ColorScheme-Text { color:#565656; } .ColorScheme-Highlight { color:#5294e2; }</style>
    <style
       type="text/css"
       id="style19">.ColorScheme-Text { color:#565656; } .ColorScheme-Highlight { color:#5294e2; }</style>
    <style
       type="text/css"
       id="style21">.ColorScheme-Text { color:#565656; } .ColorScheme-Highlight { color:#5294e2; }</style>
    <style
       type="text/css"
       id="style23">.ColorScheme-Text { color:#565656; } .ColorScheme-Highlight { color:#5294e2; }</style>
    <style
       type="text/css"
       id="style25">.ColorScheme-Text { color:#565656; } .ColorScheme-Highlight { color:#5294e2; }</style>
    <style
       type="text/css"
       id="style27">.ColorScheme-Text { color:#565656; } .ColorScheme-Highlight { color:#5294e2; }</style>
    <style
       type="text/css"
       id="style29" />
    <style
       type="text/css"
       id="style31" />
    <style
       type="text/css"
       id="style33">.ColorScheme-Text { color:#565656; } .ColorScheme-Highlight { color:#5294e2; }</style>
    <style
       type="text/css"
       id="style35">.ColorScheme-Text { color:#565656; } .ColorScheme-Highlight { color:#5294e2; }</style>
  </defs>
  <path
     id="path151"
     style="fill:#ffffff;stroke-width:3.63957"
     d="M 16.142578 0 A 15.999864 15.999864 0 0 0 15.806641 0.001953125 A 15.999864 15.999864 0 0 0 15.806641 31.998047 A 15.999864 15.999864 0 1 0 16.142578 0 z M 15.208984 5.3359375 L 15.212891 5.3359375 A 0.79172426 0.79172426 0 0 1 15.212891 6.9179688 A 0.79172505 0.79172505 0 1 1 15.208984 5.3359375 z M 17.660156 6.9140625 A 0.79172426 0.79172426 0 0 1 17.660156 8.4980469 A 0.79172426 0.79172426 0 0 1 17.660156 6.9140625 z M 15.603516 7.7050781 A 1.1870264 1.1870264 0 0 1 15.603516 10.074219 A 1.1870264 1.1870264 0 0 1 15.603516 7.7050781 z M 17.978516 10.074219 A 1.1870264 1.1870264 0 0 1 17.978516 12.445312 A 1.1870264 1.1870264 0 0 1 17.978516 10.074219 z M 14.027344 10.865234 A 1.1870264 1.1870264 0 0 1 14.027344 13.234375 A 1.1870264 1.1870264 0 0 1 14.027344 10.865234 z M 12.193359 13.591797 A 1.052646 1.052646 0 0 1 12.857422 13.828125 C 13.76001 14.571696 14.846569 14.960938 16 14.960938 A 4.8981636 4.8981636 0 0 0 19.144531 13.828125 A 1.0481667 1.0481667 0 0 1 20.46875 13.828125 C 22.148504 15.205524 23.111328 17.25296 23.111328 19.443359 C 23.111328 23.425497 19.919427 26.664062 16 26.664062 C 12.080573 26.664062 8.8867188 23.425497 8.8867188 19.443359 A 7.2408606 7.2408606 0 0 1 11.529297 13.828125 A 1.0414477 1.0414477 0 0 1 12.193359 13.591797 z M 12.648438 16.207031 A 4.7391468 4.7391468 0 1 0 19.353516 16.207031 C 18.394936 16.83862 17.211663 17.183594 16 17.183594 C 14.788338 17.183594 13.611497 16.838619 12.648438 16.207031 z "
     transform="scale(0.26458334)" />
</svg>
