<?xml version="1.0" encoding="UTF-8" standalone="no"?>
<svg
   width="32"
   height="32"
   viewBox="0 0 32 32.000001"
   id="svg12241"
   version="1.1"
   sodipodi:docname="nixos.svg"
   xmlns:inkscape="http://www.inkscape.org/namespaces/inkscape"
   xmlns:sodipodi="http://sodipodi.sourceforge.net/DTD/sodipodi-0.dtd"
   xmlns="http://www.w3.org/2000/svg"
   xmlns:svg="http://www.w3.org/2000/svg">
  <defs
     id="defs12243" />
  <sodipodi:namedview
     id="base"
     pagecolor="#808080"
     bordercolor="#666666"
     borderopacity="1.0"
     inkscape:pageopacity="0"
     inkscape:pageshadow="2"
     inkscape:zoom="8"
     inkscape:cx="22.1875"
     inkscape:cy="20.4375"
     inkscape:document-units="px"
     inkscape:current-layer="g15854"
     showgrid="true"
     units="px"
     inkscape:window-width="1920"
     inkscape:window-height="1016"
     inkscape:window-x="1920"
     inkscape:window-y="27"
     inkscape:window-maximized="1"
     inkscape:snap-bbox="true"
     inkscape:bbox-nodes="true"
     inkscape:snap-center="true"
     showguides="false"
     inkscape:snap-global="true"
     inkscape:document-rotation="0"
     inkscape:showpageshadow="2"
     inkscape:pagecheckerboard="0"
     inkscape:deskcolor="#808080" />
  <g
     id="g15854">
    <path
       id="circle8653"
       style="display:inline;overflow:visible;fill:#ffffff;fill-rule:evenodd;stroke-width:13.3333;marker:none;enable-background:accumulate"
       d="M 16 0 A 16 16 0 0 0 0 16 A 16 16 0 0 0 16 32 A 16 16 0 0 0 32 16 A 16 16 0 0 0 16 0 z M 11.029297 4.8691406 L 13.398438 9.0019531 L 16.810547 9.0097656 L 18.257812 11.501953 L 5.7539062 11.501953 L 7.1679688 9 L 10.521484 9.0097656 L 8.8554688 6.1074219 L 9.5703125 4.8710938 L 11.029297 4.8691406 z M 17.632812 4.8691406 L 19.300781 7.7792969 L 20.982422 4.8847656 L 22.410156 4.8847656 L 23.140625 6.1484375 L 20.746094 10.265625 L 22.447266 13.224609 L 21.011719 15.724609 L 14.759766 4.8964844 L 17.632812 4.8691406 z M 24.998047 9.3554688 L 26.458984 11.830078 L 24.773438 14.730469 L 28.119141 14.738281 L 28.833984 15.974609 L 28.105469 17.240234 L 23.341797 17.224609 L 21.628906 20.175781 L 18.746094 20.183594 L 24.998047 9.3554688 z M 13.253906 11.814453 L 7.0019531 22.642578 L 5.5410156 20.167969 L 7.2265625 17.267578 L 3.8808594 17.259766 L 3.1660156 16.023438 L 3.8945312 14.757812 L 8.6582031 14.773438 L 10.371094 11.822266 L 13.253906 11.814453 z M 10.998047 16.275391 L 17.248047 27.103516 L 14.375 27.130859 L 12.707031 24.220703 L 11.025391 27.115234 L 9.5976562 27.115234 L 8.8671875 25.851562 L 11.261719 21.734375 L 9.5625 18.775391 L 10.998047 16.275391 z M 13.732422 20.470703 L 26.238281 20.470703 L 24.824219 22.972656 L 21.470703 22.962891 L 23.136719 25.865234 L 22.421875 27.101562 L 20.962891 27.103516 L 18.59375 22.970703 L 15.181641 22.962891 L 13.732422 20.470703 z " />
  </g>
</svg>
