<?xml version="1.0" encoding="UTF-8" standalone="no"?>
<svg
   width="32"
   height="32"
   version="1.1"
   viewBox="0 0 8.4666667 8.4666672"
   id="svg371"
   sodipodi:docname="opensuse.svg"
   xmlns:inkscape="http://www.inkscape.org/namespaces/inkscape"
   xmlns:sodipodi="http://sodipodi.sourceforge.net/DTD/sodipodi-0.dtd"
   xmlns="http://www.w3.org/2000/svg"
   xmlns:svg="http://www.w3.org/2000/svg">
  <sodipodi:namedview
     inkscape:snap-bbox-edge-midpoints="true"
     inkscape:bbox-nodes="true"
     inkscape:snap-bbox="true"
     pagecolor="#808080"
     bordercolor="#666666"
     borderopacity="1"
     objecttolerance="10"
     gridtolerance="10"
     guidetolerance="10"
     inkscape:pageopacity="0"
     inkscape:pageshadow="2"
     inkscape:window-width="1920"
     inkscape:window-height="1016"
     id="namedview373"
     showgrid="false"
     inkscape:zoom="11.313708"
     inkscape:cx="14.158903"
     inkscape:cy="15.313741"
     inkscape:window-x="1920"
     inkscape:window-y="27"
     inkscape:window-maximized="1"
     inkscape:current-layer="svg371"
     inkscape:document-rotation="0"
     inkscape:showpageshadow="2"
     inkscape:pagecheckerboard="0"
     inkscape:deskcolor="#d1d1d1">
    <inkscape:grid
       id="grid1162"
       type="xygrid"
       originx="0"
       originy="0"
       spacingy="1"
       spacingx="1"
       units="px"
       visible="false" />
  </sodipodi:namedview>
  <defs
     id="defs37">
    <style
       id="current-color-scheme"
       type="text/css">.ColorScheme-Text { color:#565656; } .ColorScheme-Highlight { color:#5294e2; }</style>
    <style
       type="text/css"
       id="style13">.ColorScheme-Text { color:#565656; } .ColorScheme-Highlight { color:#5294e2; }</style>
    <style
       type="text/css"
       id="style15">.ColorScheme-Text { color:#565656; } .ColorScheme-Highlight { color:#5294e2; }</style>
    <style
       type="text/css"
       id="style17">.ColorScheme-Text { color:#565656; } .ColorScheme-Highlight { color:#5294e2; }</style>
    <style
       type="text/css"
       id="style19">.ColorScheme-Text { color:#565656; } .ColorScheme-Highlight { color:#5294e2; }</style>
    <style
       type="text/css"
       id="style21">.ColorScheme-Text { color:#565656; } .ColorScheme-Highlight { color:#5294e2; }</style>
    <style
       type="text/css"
       id="style23">.ColorScheme-Text { color:#565656; } .ColorScheme-Highlight { color:#5294e2; }</style>
    <style
       type="text/css"
       id="style25">.ColorScheme-Text { color:#565656; } .ColorScheme-Highlight { color:#5294e2; }</style>
    <style
       type="text/css"
       id="style27">.ColorScheme-Text { color:#565656; } .ColorScheme-Highlight { color:#5294e2; }</style>
    <style
       type="text/css"
       id="style29" />
    <style
       type="text/css"
       id="style31" />
    <style
       type="text/css"
       id="style33">.ColorScheme-Text { color:#565656; } .ColorScheme-Highlight { color:#5294e2; }</style>
    <style
       type="text/css"
       id="style35">.ColorScheme-Text { color:#565656; } .ColorScheme-Highlight { color:#5294e2; }</style>
  </defs>
  <path
     id="path167"
     style="fill:#ffffff;stroke-width:3.7796"
     d="M 16.142578 0 A 15.999864 15.999864 0 0 0 15.806641 0.001953125 A 15.999864 15.999864 0 0 0 15.806641 31.998047 A 15.999864 15.999864 0 1 0 16.142578 0 z M 16 4 A 12 12 0 0 1 16 28 A 12 12 0 1 1 16 4 z M 16.257812 6.6660156 A 9.3341205 9.3341205 0 0 0 16 6.6679688 L 16 6.6699219 A 9.3539626 9.3539626 0 0 0 8.3320312 10.666016 A 43.141609 43.141609 0 0 1 10.791016 11.332031 L 10.832031 9.7519531 C 12.130248 9.9135215 13.388522 10.186869 14.664062 10.458984 C 17.339862 11.068409 18.804108 11.497687 20.125 12.126953 C 21.31267 12.69386 21.819091 13.339525 22.539062 15.25 C 22.828184 16.015324 23.332031 17.70493 23.332031 17.875 C 23.332031 17.968539 22.348797 18.611387 21.830078 18.875 C 20.364623 19.620483 18.94477 19.70041 17.125 19.125 A 21.046416 21.046416 0 0 1 12.748047 17 L 12.041016 16.542969 L 12.791016 18.416016 L 13.791016 18.875 C 15.905578 19.892597 17.660466 20.527294 18.746094 20.583984 C 19.794871 20.637841 21.000249 20.317949 22.375 19.666016 C 22.740657 19.493106 23.047172 19.375 23.083984 19.375 C 23.180359 19.375 23.109645 19.85628 22.914062 20.375 C 22.715645 20.922065 22.517428 21.128505 21.582031 21.582031 C 19.796275 22.455068 18.185746 22.858723 15.748047 23.042969 C 14.679428 23.122335 13.788251 23.059229 12.164062 22.875 C 11.052925 22.747422 10.202624 22.758334 9.6640625 22.832031 A 9.263257 9.263257 0 0 0 16 25.332031 A 9.3341205 9.3341205 0 1 0 16.257812 6.6660156 z M 18.208984 13.416016 L 18.205078 13.419922 A 2.0607063 2.0607063 0 0 0 16.873047 13.957031 C 16.272125 14.501262 16.111218 15.498848 16.457031 16.25 A 1.9473249 1.9473249 0 0 0 17.916016 17.376953 A 1.916145 1.916145 0 0 0 20 16.333984 C 20.252274 15.809595 20.291617 15.455028 20.164062 14.958984 A 1.9841739 1.9841739 0 0 0 18.208984 13.416016 z M 18.664062 14.458984 C 19.004205 14.458982 19.407968 14.629016 19.458984 14.835938 C 19.527016 15.110889 19.436181 15.322047 19.164062 15.460938 C 18.75022 15.673532 18.227812 15.626819 17.916016 15.332031 C 17.530519 14.969211 17.966767 14.458984 18.664062 14.458984 z "
     transform="scale(0.26458334)" />
</svg>
