<?xml version="1.0" encoding="UTF-8" standalone="no"?>
<svg
   xmlns:dc="http://purl.org/dc/elements/1.1/"
   xmlns:cc="http://creativecommons.org/ns#"
   xmlns:rdf="http://www.w3.org/1999/02/22-rdf-syntax-ns#"
   xmlns:svg="http://www.w3.org/2000/svg"
   xmlns="http://www.w3.org/2000/svg"
   xmlns:sodipodi="http://sodipodi.sourceforge.net/DTD/sodipodi-0.dtd"
   xmlns:inkscape="http://www.inkscape.org/namespaces/inkscape"
   width="32"
   height="32"
   version="1.1"
   viewBox="0 0 8.4666667 8.4666672"
   id="svg371"
   sodipodi:docname="peppermint.svg"
   inkscape:version="1.0.2 (e86c870879, 2021-01-15)">
  <metadata
     id="metadata375">
    <rdf:RDF>
      <cc:Work
         rdf:about="">
        <dc:format>image/svg+xml</dc:format>
        <dc:type
           rdf:resource="http://purl.org/dc/dcmitype/StillImage" />
        <dc:title></dc:title>
      </cc:Work>
    </rdf:RDF>
  </metadata>
  <sodipodi:namedview
     inkscape:snap-bbox-edge-midpoints="true"
     inkscape:bbox-nodes="true"
     inkscape:snap-bbox="true"
     pagecolor="#808080"
     bordercolor="#666666"
     borderopacity="1"
     objecttolerance="10"
     gridtolerance="10"
     guidetolerance="10"
     inkscape:pageopacity="0"
     inkscape:pageshadow="2"
     inkscape:window-width="1920"
     inkscape:window-height="1016"
     id="namedview373"
     showgrid="false"
     inkscape:zoom="11.313709"
     inkscape:cx="12.763033"
     inkscape:cy="15.898982"
     inkscape:window-x="1920"
     inkscape:window-y="27"
     inkscape:window-maximized="1"
     inkscape:current-layer="svg371"
     inkscape:document-rotation="0"
     showguides="false">
    <inkscape:grid
       id="grid1162"
       type="xygrid" />
  </sodipodi:namedview>
  <defs
     id="defs37">
    <style
       id="current-color-scheme"
       type="text/css">.ColorScheme-Text { color:#565656; } .ColorScheme-Highlight { color:#5294e2; }</style>
    <style
       type="text/css"
       id="style13">.ColorScheme-Text { color:#565656; } .ColorScheme-Highlight { color:#5294e2; }</style>
    <style
       type="text/css"
       id="style15">.ColorScheme-Text { color:#565656; } .ColorScheme-Highlight { color:#5294e2; }</style>
    <style
       type="text/css"
       id="style17">.ColorScheme-Text { color:#565656; } .ColorScheme-Highlight { color:#5294e2; }</style>
    <style
       type="text/css"
       id="style19">.ColorScheme-Text { color:#565656; } .ColorScheme-Highlight { color:#5294e2; }</style>
    <style
       type="text/css"
       id="style21">.ColorScheme-Text { color:#565656; } .ColorScheme-Highlight { color:#5294e2; }</style>
    <style
       type="text/css"
       id="style23">.ColorScheme-Text { color:#565656; } .ColorScheme-Highlight { color:#5294e2; }</style>
    <style
       type="text/css"
       id="style25">.ColorScheme-Text { color:#565656; } .ColorScheme-Highlight { color:#5294e2; }</style>
    <style
       type="text/css"
       id="style27">.ColorScheme-Text { color:#565656; } .ColorScheme-Highlight { color:#5294e2; }</style>
    <style
       type="text/css"
       id="style29" />
    <style
       type="text/css"
       id="style31" />
    <style
       type="text/css"
       id="style33">.ColorScheme-Text { color:#565656; } .ColorScheme-Highlight { color:#5294e2; }</style>
    <style
       type="text/css"
       id="style35">.ColorScheme-Text { color:#565656; } .ColorScheme-Highlight { color:#5294e2; }</style>
  </defs>
  <path
     id="path1189"
     style="fill:#ffffff;stroke:none;stroke-width:4.23394;stroke-linecap:round;stroke-linejoin:round;stroke-miterlimit:4;stroke-dasharray:none;paint-order:markers fill stroke"
     d="M 16 0 A 16 16 0 0 0 0 16 A 16 16 0 0 0 16 32 A 16 16 0 0 0 32 16 A 16 16 0 0 0 16 0 z M 15.998047 5.0644531 C 18.38791 5.0644531 20.774649 5.8513516 22.751953 7.4101562 L 22.582031 7.4785156 C 19.635055 8.7214204 17.633511 11.563328 16.166016 14.556641 C 15.120012 11.489672 14.609632 8.2332454 15.738281 5.609375 L 15.974609 5.0664062 C 15.982451 5.0663895 15.990205 5.0644531 15.998047 5.0644531 z M 14.734375 5.1464844 L 14.667969 5.3066406 C 13.453443 8.2580543 14.028177 11.679968 15.095703 14.830078 C 12.197041 13.400059 9.5389574 11.462103 8.4882812 8.8144531 L 8.2734375 8.2617188 C 10.085679 6.4521856 12.374867 5.4200321 14.734375 5.1464844 z M 23.677734 8.2207031 C 23.694304 8.2370667 23.712025 8.2510872 23.728516 8.2675781 C 25.526691 10.065753 26.559539 12.334458 26.84375 14.675781 L 26.685547 14.609375 C 25.274128 14.025043 23.744992 13.82127 22.189453 13.892578 C 20.481925 13.970855 18.779979 14.494491 17.126953 15.058594 C 18.550979 12.160366 20.48736 9.5110024 23.126953 8.4453125 L 23.677734 8.2207031 z M 7.453125 9.1855469 L 7.5214844 9.3535156 C 8.7546829 12.325945 11.613248 14.344582 14.623047 15.820312 C 11.530705 16.874567 8.2442892 17.382391 5.609375 16.21875 L 5.0664062 15.976562 C 5.0711288 13.570255 5.8680674 11.168201 7.453125 9.1855469 z M 23.205078 15.03125 C 24.324669 15.052827 25.398889 15.246764 26.382812 15.671875 L 26.929688 15.904297 C 26.95032 18.319173 26.170677 20.736103 24.599609 22.736328 L 24.529297 22.574219 C 23.299324 19.593497 20.443017 17.57017 17.427734 16.091797 C 19.346082 15.438573 21.339093 14.995288 23.205078 15.03125 z M 14.912109 16.875 C 13.471611 19.799254 11.5082 22.473147 8.828125 23.511719 L 8.2695312 23.730469 C 8.2688744 23.729812 8.2682348 23.729172 8.2675781 23.728516 C 6.4414384 21.902376 5.4033922 19.592869 5.1386719 17.212891 L 5.3007812 17.28125 C 8.272624 18.53629 11.731671 17.955735 14.912109 16.875 z M 16.949219 17.074219 C 19.857749 18.507102 22.514367 20.455159 23.5625 23.113281 L 23.785156 23.666016 C 23.765241 23.686237 23.74862 23.708411 23.728516 23.728516 C 21.920426 25.536605 19.638244 26.572224 17.283203 26.849609 L 17.347656 26.693359 C 18.611795 23.720037 18.031323 20.259271 16.949219 17.074219 z M 15.886719 17.361328 C 16.941549 20.457299 17.448457 23.74764 16.277344 26.382812 L 16.035156 26.931641 C 13.613771 26.939819 11.193931 26.144768 9.1972656 24.552734 L 9.3671875 24.486328 C 12.366418 23.265756 14.402625 20.388556 15.886719 17.361328 z "
     transform="scale(0.26458334)" />
</svg>
