<?xml version="1.0" encoding="UTF-8" standalone="no"?>
<svg
   width="32"
   height="32"
   version="1.1"
   viewBox="0 0 8.4666666 8.4666671"
   id="svg371"
   sodipodi:docname="puppy.svg"
   xmlns:inkscape="http://www.inkscape.org/namespaces/inkscape"
   xmlns:sodipodi="http://sodipodi.sourceforge.net/DTD/sodipodi-0.dtd"
   xmlns="http://www.w3.org/2000/svg"
   xmlns:svg="http://www.w3.org/2000/svg">
  <sodipodi:namedview
     inkscape:snap-bbox-edge-midpoints="true"
     inkscape:bbox-nodes="true"
     inkscape:snap-bbox="true"
     pagecolor="#808080"
     bordercolor="#666666"
     borderopacity="1"
     objecttolerance="10"
     gridtolerance="10"
     guidetolerance="10"
     inkscape:pageopacity="0"
     inkscape:pageshadow="2"
     inkscape:window-width="1920"
     inkscape:window-height="1016"
     id="namedview373"
     showgrid="false"
     inkscape:zoom="15.999999"
     inkscape:cx="16.722049"
     inkscape:cy="18.357891"
     inkscape:window-x="1920"
     inkscape:window-y="27"
     inkscape:window-maximized="1"
     inkscape:current-layer="svg371"
     inkscape:document-rotation="0"
     inkscape:showpageshadow="2"
     inkscape:pagecheckerboard="0"
     inkscape:deskcolor="#d1d1d1">
    <inkscape:grid
       id="grid1162"
       type="xygrid"
       originx="0"
       originy="0"
       spacingy="1"
       spacingx="1"
       units="px"
       visible="false" />
  </sodipodi:namedview>
  <defs
     id="defs37">
    <style
       id="current-color-scheme"
       type="text/css">.ColorScheme-Text { color:#565656; } .ColorScheme-Highlight { color:#5294e2; }</style>
    <style
       type="text/css"
       id="style13">.ColorScheme-Text { color:#565656; } .ColorScheme-Highlight { color:#5294e2; }</style>
    <style
       type="text/css"
       id="style15">.ColorScheme-Text { color:#565656; } .ColorScheme-Highlight { color:#5294e2; }</style>
    <style
       type="text/css"
       id="style17">.ColorScheme-Text { color:#565656; } .ColorScheme-Highlight { color:#5294e2; }</style>
    <style
       type="text/css"
       id="style19">.ColorScheme-Text { color:#565656; } .ColorScheme-Highlight { color:#5294e2; }</style>
    <style
       type="text/css"
       id="style21">.ColorScheme-Text { color:#565656; } .ColorScheme-Highlight { color:#5294e2; }</style>
    <style
       type="text/css"
       id="style23">.ColorScheme-Text { color:#565656; } .ColorScheme-Highlight { color:#5294e2; }</style>
    <style
       type="text/css"
       id="style25">.ColorScheme-Text { color:#565656; } .ColorScheme-Highlight { color:#5294e2; }</style>
    <style
       type="text/css"
       id="style27">.ColorScheme-Text { color:#565656; } .ColorScheme-Highlight { color:#5294e2; }</style>
    <style
       type="text/css"
       id="style29" />
    <style
       type="text/css"
       id="style31" />
    <style
       type="text/css"
       id="style33">.ColorScheme-Text { color:#565656; } .ColorScheme-Highlight { color:#5294e2; }</style>
    <style
       type="text/css"
       id="style35">.ColorScheme-Text { color:#565656; } .ColorScheme-Highlight { color:#5294e2; }</style>
  </defs>
  <path
     id="path945"
     style="fill:#ffffff;stroke-width:1.08704"
     d="M 16 0 C 7.1630173 3.5527137e-15 0 7.1630173 0 16 C 1.1842379e-15 24.836983 7.1630173 32 16 32 C 24.836983 32 32 24.836983 32 16 C 32 7.1630173 24.836983 0 16 0 z M 21.310547 4.40625 C 21.88241 4.40625 22.479821 4.4231358 23.060547 4.4882812 L 23.068359 4.4882812 C 24.462131 4.5889832 25.748512 4.8061401 26.470703 5.2988281 C 26.471903 5.2991179 26.478342 5.3007053 26.478516 5.3007812 C 26.480027 5.301424 26.4996 5.3128546 26.515625 5.3222656 C 26.524242 5.3273158 26.532574 5.3266713 26.537109 5.3300781 C 26.557897 5.3456498 26.562614 5.3533656 26.568359 5.359375 L 26.574219 5.3671875 C 27.017492 5.7714356 27.277975 6.4354277 27.402344 7.1816406 C 27.508492 7.8088302 27.50447 8.5111766 27.378906 9.1679688 C 27.254825 9.8360864 27.010386 10.470423 26.597656 10.939453 C 27.457169 12.584417 27.992188 14.435139 27.992188 16.423828 C 27.992188 19.730779 26.642754 22.728389 24.478516 24.892578 C 22.313774 27.057275 19.310449 28.398438 16.003906 28.398438 C 12.697364 28.398436 9.7105149 27.056572 7.5371094 24.892578 C 5.3631902 22.728077 4.015625 19.730307 4.015625 16.423828 C 4.015625 15.626063 4.0991468 14.845842 4.2519531 14.091797 C 4.2454901 14.075953 4.2416573 14.069249 4.2363281 14.041016 C 4.2356452 14.036858 4.2370122 14.021773 4.2363281 14.017578 C 4.0938324 13.143604 3.9191361 11.100168 4.0683594 9.4121094 C 4.1715416 8.2959242 4.3870046 7.3074449 5.0195312 6.8359375 C 5.1710429 6.6845342 5.4104483 6.5104793 5.7792969 6.3105469 C 6.1628766 6.1026294 6.6643023 5.8868069 7.2480469 5.7207031 C 7.9938108 5.5130272 8.8852893 5.3803973 9.8613281 5.4550781 L 9.8691406 5.4550781 C 10.181446 5.4744369 10.481167 5.569397 10.769531 5.6835938 C 12.356523 4.9088868 14.131684 4.4589844 16.011719 4.4589844 C 16.795244 4.4589844 17.569367 4.5395897 18.314453 4.6875 C 18.328093 4.682511 18.350682 4.6689198 18.359375 4.6660156 L 18.365234 4.6660156 C 18.935596 4.5001019 20.049169 4.40625 21.310547 4.40625 z M 21.126953 5.4550781 C 20.566125 5.4550781 20.047708 5.4852765 19.613281 5.5214844 C 19.220453 5.5762875 18.797261 5.6350948 18.521484 5.75 L 18.447266 5.7792969 L 18.373047 5.765625 C 17.610735 5.5952326 16.820581 5.5 16.003906 5.5 C 14.530634 5.5 13.152843 5.8651213 11.869141 6.3925781 C 12.341529 6.7627337 12.811431 7.1539116 13.169922 7.6542969 C 13.502667 8.1201301 13.783108 8.6281429 13.966797 9.1308594 C 14.148697 9.6478315 14.251745 10.162663 14.210938 10.652344 C 14.160478 11.237638 13.909584 11.777515 13.398438 12.142578 C 12.969426 12.446014 12.48918 12.524949 12.017578 12.482422 C 11.545976 12.439895 11.069611 12.292889 10.578125 12.136719 C 9.968426 11.944187 9.3247854 11.745208 8.6660156 11.744141 C 8.0072455 11.743073 7.3373756 11.923386 6.6074219 12.527344 L 6.5703125 12.556641 L 6.5332031 12.572266 C 6.2620912 12.672678 5.9930466 12.496178 5.8984375 12.261719 C 5.8038321 12.02726 5.8965062 11.703628 6.171875 11.507812 C 7.0327312 10.856892 7.8952489 10.647832 8.6953125 10.666016 C 9.4981862 10.684263 10.240329 10.918522 10.896484 11.125 C 11.318149 11.257915 11.703121 11.372713 12.025391 11.412109 C 12.347648 11.451484 12.588776 11.420557 12.785156 11.279297 C 13.021449 11.114611 13.138563 10.87863 13.162109 10.556641 C 13.185932 10.247021 13.11756 9.8758865 12.970703 9.4785156 C 12.823844 9.0811414 12.594528 8.6563556 12.3125 8.2597656 C 11.624703 7.3074517 10.626745 6.5384191 9.78125 6.4746094 C 9.6187538 6.4656141 9.4602968 6.4589844 9.3164062 6.4589844 C 8.6526691 6.4589844 8.0491248 6.5533461 7.5292969 6.703125 C 7.0104766 6.8494547 6.5853346 7.0335667 6.2753906 7.1972656 C 6.1204187 7.2791151 5.9954771 7.355663 5.90625 7.4179688 C 5.8248768 7.4747902 5.7775572 7.5188357 5.7734375 7.5214844 L 5.7578125 7.5292969 C 5.7251612 7.5743375 5.6855258 7.6244008 5.640625 7.6542969 C 5.5446855 7.7190538 5.4033927 7.9323036 5.3066406 8.2597656 C 5.2098885 8.5872277 5.1478061 9.0151771 5.1074219 9.4863281 C 5.0086874 10.635179 5.0694083 11.999738 5.1601562 12.970703 L 5.1601562 12.984375 L 5.1601562 13.007812 C 5.1875013 13.344613 5.2238255 13.777113 5.2929688 14.166016 L 5.3007812 14.210938 L 5.2929688 14.253906 C 5.1496262 14.952706 5.078125 15.672465 5.078125 16.417969 C 5.078125 19.433483 6.3009113 22.16538 8.2832031 24.138672 C 10.266305 26.11276 12.986762 27.335938 16.011719 27.335938 C 19.036677 27.335937 21.774657 26.112024 23.748047 24.138672 C 25.730348 22.165381 26.951172 19.433483 26.951172 16.417969 C 26.951172 14.642146 26.476792 12.989608 25.726562 11.507812 C 25.59676 11.557319 25.477489 11.624511 25.333984 11.648438 L 25.328125 11.648438 C 24.723804 11.746573 24.231099 11.541254 23.851562 11.175781 C 23.472027 10.810311 23.179276 10.301867 22.839844 9.7285156 C 22.325263 8.8647719 21.717198 7.8378128 20.654297 6.9609375 L 20.640625 6.9472656 L 20.632812 6.9394531 C 20.535845 6.834425 20.476378 6.6796336 20.5 6.5410156 C 20.523618 6.4023977 20.618497 6.2891005 20.728516 6.2226562 C 20.948555 6.0897635 21.249623 6.1218383 21.517578 6.3183594 L 21.533203 6.3261719 L 21.541016 6.3339844 C 22.609731 7.2891878 23.242878 8.3430686 23.748047 9.1972656 L 23.740234 9.1972656 C 24.024897 9.6747537 24.270671 10.075834 24.5 10.320312 C 24.729329 10.564792 24.904069 10.656971 25.171875 10.615234 C 25.433962 10.568837 25.628035 10.447989 25.806641 10.246094 C 26.064262 9.9572511 26.258332 9.4877902 26.353516 8.96875 C 26.449225 8.4378957 26.461086 7.8457941 26.375 7.3378906 C 26.2896 6.7913335 26.086704 6.340052 25.888672 6.1484375 C 25.466638 5.861467 24.269961 5.6113313 22.994141 5.5214844 C 22.452084 5.4762888 21.899006 5.4550781 21.363281 5.4550781 L 21.126953 5.4550781 z M 22.556641 11.152344 C 23.639375 11.152344 24.511719 12.02471 24.511719 13.107422 C 24.511719 14.190133 23.630199 15.060547 22.556641 15.060547 C 21.483082 15.060547 20.601562 14.190133 20.601562 13.107422 C 20.601562 12.02471 21.473907 11.152344 22.556641 11.152344 z M 10.353516 12.583984 C 12.463928 12.583984 14.179688 14.29002 14.179688 16.400391 C 14.179687 18.510761 12.463928 20.216797 10.353516 20.216797 C 8.2430996 20.216797 6.5273438 18.510761 6.5273438 16.400391 C 6.5273438 14.299195 8.2430996 12.583984 10.353516 12.583984 z M 11.408203 14.583984 C 10.435575 14.583984 9.65625 15.363331 9.65625 16.335938 C 9.65625 17.299368 10.444752 18.089844 11.408203 18.089844 C 12.371651 18.089844 13.160156 17.299368 13.160156 16.335938 C 13.160156 15.372507 12.380827 14.583984 11.408203 14.583984 z M 21.134766 16.107422 C 21.354983 16.107425 21.53831 16.290733 21.556641 16.529297 C 21.556641 16.602699 21.538652 16.666236 21.501953 16.730469 L 19.703125 20.216797 C 19.776534 20.308554 19.849649 20.39144 19.941406 20.464844 C 20.363489 20.831862 20.931329 21.052734 21.564453 21.052734 C 22.225105 21.052734 22.822069 20.814497 23.244141 20.419922 C 23.666226 20.03455 23.923828 19.501886 23.923828 18.923828 L 23.923828 18.822266 L 23.923828 18.804688 L 23.923828 18.794922 C 23.923828 18.593065 24.089147 18.427734 24.291016 18.427734 C 24.49288 18.427734 24.658203 18.593061 24.658203 18.794922 L 24.658203 18.804688 L 24.658203 18.923828 C 24.658203 19.712924 24.309116 20.428181 23.740234 20.951172 C 23.180516 21.465003 22.408619 21.777344 21.564453 21.777344 C 20.775342 21.777344 20.060309 21.502337 19.509766 21.052734 C 19.37213 21.584915 19.079515 22.062668 18.675781 22.429688 C 18.116063 22.934346 17.344165 23.253906 16.5 23.253906 C 15.976984 23.253906 15.46328 23.125875 15.013672 22.896484 C 14.564062 22.667097 14.178978 22.336724 13.894531 21.923828 C 13.848644 21.859599 13.820312 21.785704 13.820312 21.703125 C 13.820313 21.501268 13.985632 21.337891 14.1875 21.337891 C 14.315962 21.337891 14.426009 21.401021 14.490234 21.501953 C 14.490234 21.501953 14.5 21.502534 14.5 21.511719 C 14.711042 21.823688 15.004246 22.071755 15.34375 22.246094 C 15.692427 22.429605 16.087094 22.521484 16.5 22.521484 C 17.160651 22.521484 17.757604 22.281266 18.179688 21.886719 C 18.601769 21.501346 18.859375 20.970636 18.859375 20.392578 L 18.859375 20.373047 L 15.5 18.484375 C 15.353188 18.420146 15.251953 18.272583 15.251953 18.107422 C 15.251953 17.923912 15.363546 17.777713 15.519531 17.722656 C 15.528716 17.722656 15.537691 17.712891 15.546875 17.712891 L 20.996094 16.134766 C 21.041973 16.116435 21.088909 16.107422 21.134766 16.107422 z "
     transform="scale(0.26458334)" />
</svg>
