<?xml version="1.0" encoding="UTF-8" standalone="no"?>
<svg
   width="32"
   height="32"
   version="1.1"
   viewBox="0 0 8.4666666 8.4666671"
   id="svg371"
   sodipodi:docname="recovery.svg"
   xmlns:inkscape="http://www.inkscape.org/namespaces/inkscape"
   xmlns:sodipodi="http://sodipodi.sourceforge.net/DTD/sodipodi-0.dtd"
   xmlns="http://www.w3.org/2000/svg"
   xmlns:svg="http://www.w3.org/2000/svg">
  <sodipodi:namedview
     inkscape:snap-bbox-edge-midpoints="true"
     inkscape:bbox-nodes="true"
     inkscape:snap-bbox="true"
     pagecolor="#ffffff"
     bordercolor="#666666"
     borderopacity="1"
     objecttolerance="10"
     gridtolerance="10"
     guidetolerance="10"
     inkscape:pageopacity="0"
     inkscape:pageshadow="2"
     inkscape:window-width="1920"
     inkscape:window-height="1016"
     id="namedview373"
     showgrid="false"
     inkscape:zoom="16"
     inkscape:cx="17.42629"
     inkscape:cy="16.674717"
     inkscape:window-x="1920"
     inkscape:window-y="27"
     inkscape:window-maximized="1"
     inkscape:current-layer="svg371"
     inkscape:document-rotation="0"
     inkscape:showpageshadow="2"
     inkscape:pagecheckerboard="0"
     inkscape:deskcolor="#d1d1d1">
    <inkscape:grid
       id="grid1162"
       type="xygrid"
       originx="0"
       originy="0"
       spacingy="1"
       spacingx="1"
       units="px"
       visible="false" />
  </sodipodi:namedview>
  <defs
     id="defs37">
    <style
       id="current-color-scheme"
       type="text/css">.ColorScheme-Text { color:#565656; } .ColorScheme-Highlight { color:#5294e2; }</style>
    <style
       type="text/css"
       id="style13">.ColorScheme-Text { color:#565656; } .ColorScheme-Highlight { color:#5294e2; }</style>
    <style
       type="text/css"
       id="style15">.ColorScheme-Text { color:#565656; } .ColorScheme-Highlight { color:#5294e2; }</style>
    <style
       type="text/css"
       id="style17">.ColorScheme-Text { color:#565656; } .ColorScheme-Highlight { color:#5294e2; }</style>
    <style
       type="text/css"
       id="style19">.ColorScheme-Text { color:#565656; } .ColorScheme-Highlight { color:#5294e2; }</style>
    <style
       type="text/css"
       id="style21">.ColorScheme-Text { color:#565656; } .ColorScheme-Highlight { color:#5294e2; }</style>
    <style
       type="text/css"
       id="style23">.ColorScheme-Text { color:#565656; } .ColorScheme-Highlight { color:#5294e2; }</style>
    <style
       type="text/css"
       id="style25">.ColorScheme-Text { color:#565656; } .ColorScheme-Highlight { color:#5294e2; }</style>
    <style
       type="text/css"
       id="style27">.ColorScheme-Text { color:#565656; } .ColorScheme-Highlight { color:#5294e2; }</style>
    <style
       type="text/css"
       id="style29" />
    <style
       type="text/css"
       id="style31" />
    <style
       type="text/css"
       id="style33">.ColorScheme-Text { color:#565656; } .ColorScheme-Highlight { color:#5294e2; }</style>
    <style
       type="text/css"
       id="style35">.ColorScheme-Text { color:#565656; } .ColorScheme-Highlight { color:#5294e2; }</style>
  </defs>
  <g
     id="g870">
    <path
       d="M 4.2333,8.4666 C 1.8952,8.4666 0,6.5714 0,4.2333 0,1.8952 1.8952,0 4.2333,0 c 2.3381,0 4.2333,1.8952 4.2333,4.2333 0,2.3381 -1.8952,4.2333 -4.2333,4.2333 z"
       id="path316"
       inkscape:connector-curvature="0"
       style="fill:#4de255;fill-opacity:1;stroke-width:0.28761" />
    <g
       id="g864">
      <path
         d="m 4.2333448,2.1167124 c -0.1948348,0 -0.3527796,0.1579448 -0.3527796,0.3527797 0,0.1948349 0.1579448,0.3527797 0.3527796,0.3527797 0.7793268,0 1.411096,0.6317691 1.411096,1.4110959 0.3108845,0 0.446786,0 0.7055593,0 0,-1.1690217 -0.9476793,-2.116701 -2.116701,-2.116701 z M 2.1166667,4.2333677 c 0,1.1690217 0.9476793,2.116701 2.116701,2.116701 0.1948394,0 0.352786,-0.1579518 0.3527797,-0.3527911 0,-0.1948349 -0.1579448,-0.3527797 -0.3527797,-0.3527797 -0.7793268,0 -1.4110959,-0.6317691 -1.4110959,-1.4110959 -0.2991969,0 -0.4778393,-3.43e-5 -0.7056051,-3.43e-5 z"
         id="path318"
         inkscape:connector-curvature="0"
         style="color:#dfdfdf;fill:#ffffff;stroke-width:0.35278"
         sodipodi:nodetypes="csscccccscscc" />
      <path
         id="path862"
         style="color:#000000;font-style:normal;font-variant:normal;font-weight:normal;font-stretch:normal;font-size:medium;line-height:normal;font-family:sans-serif;font-variant-ligatures:normal;font-variant-position:normal;font-variant-caps:normal;font-variant-numeric:normal;font-variant-alternates:normal;font-variant-east-asian:normal;font-feature-settings:normal;font-variation-settings:normal;text-indent:0;text-align:start;text-decoration:none;text-decoration-line:none;text-decoration-style:solid;text-decoration-color:#000000;letter-spacing:normal;word-spacing:normal;text-transform:none;writing-mode:lr-tb;direction:ltr;text-orientation:mixed;dominant-baseline:auto;baseline-shift:baseline;text-anchor:start;white-space:normal;shape-padding:0;shape-margin:0;inline-size:0;clip-rule:nonzero;display:inline;overflow:visible;visibility:visible;isolation:auto;mix-blend-mode:normal;color-interpolation:sRGB;color-interpolation-filters:linearRGB;solid-color:#000000;solid-opacity:1;vector-effect:none;fill:#ffffff;fill-opacity:1;fill-rule:nonzero;stroke:none;stroke-width:3.04551;stroke-linecap:round;stroke-linejoin:round;stroke-miterlimit:4;stroke-dasharray:none;stroke-dashoffset:0;stroke-opacity:1;paint-order:stroke markers fill;color-rendering:auto;image-rendering:auto;shape-rendering:auto;text-rendering:auto;enable-background:accumulate;stop-color:#000000"
         d="m 9.2910156,11.480469 a 0.84808318,0.7026024 0 0 0 -0.6894531,0.353515 l -1.1621094,1.664063 -1.1640625,1.667969 a 0.84808318,0.7026024 0 0 0 0.089844,0.802734 0.84808318,0.7026024 0 0 0 0.6425781,0.248047 h 2.3261719 2.3261714 a 0.84808318,0.7026024 0 0 0 0.732422,-1.050781 L 11.228516,13.5 10.066406,11.832031 a 0.84808318,0.7026024 0 0 0 -0.6933591,-0.351562 0.84808318,0.7026024 0 0 0 -0.082031,0 z m 11.0468754,4.302734 a 0.84808318,0.7026024 0 0 0 -0.732422,1.050781 L 20.771484,18.5 l 1.16211,1.667969 a 0.84808318,0.7026024 0 0 0 0.693359,0.351562 0.84808318,0.7026024 0 0 0 0.769531,-0.353515 l 1.164063,-1.664063 1.162109,-1.667969 a 0.84808318,0.7026024 0 0 0 -0.08984,-0.804687 0.84808318,0.7026024 0 0 0 -0.640624,-0.246094 h -2.328126 z"
         transform="scale(0.26458334)" />
    </g>
  </g>
</svg>
