<?xml version="1.0" encoding="UTF-8" standalone="no"?>
<svg
   width="32"
   height="32"
   version="1.1"
   viewBox="0 0 8.4666667 8.4666671"
   id="svg371"
   sodipodi:docname="red.svg"
   xmlns:inkscape="http://www.inkscape.org/namespaces/inkscape"
   xmlns:sodipodi="http://sodipodi.sourceforge.net/DTD/sodipodi-0.dtd"
   xmlns="http://www.w3.org/2000/svg"
   xmlns:svg="http://www.w3.org/2000/svg">
  <sodipodi:namedview
     inkscape:snap-bbox-edge-midpoints="true"
     inkscape:bbox-nodes="true"
     inkscape:snap-bbox="true"
     pagecolor="#808080"
     bordercolor="#666666"
     borderopacity="1"
     objecttolerance="10"
     gridtolerance="10"
     guidetolerance="10"
     inkscape:pageopacity="0"
     inkscape:pageshadow="2"
     inkscape:window-width="1920"
     inkscape:window-height="1016"
     id="namedview373"
     showgrid="false"
     inkscape:zoom="11.313708"
     inkscape:cx="21.627994"
     inkscape:cy="22.559736"
     inkscape:window-x="1920"
     inkscape:window-y="27"
     inkscape:window-maximized="1"
     inkscape:current-layer="svg371"
     inkscape:document-rotation="0"
     inkscape:showpageshadow="2"
     inkscape:pagecheckerboard="0"
     inkscape:deskcolor="#d1d1d1">
    <inkscape:grid
       id="grid1162"
       type="xygrid"
       originx="0"
       originy="0"
       spacingy="1"
       spacingx="1"
       units="px"
       visible="false" />
  </sodipodi:namedview>
  <defs
     id="defs37">
    <style
       id="current-color-scheme"
       type="text/css">.ColorScheme-Text { color:#565656; } .ColorScheme-Highlight { color:#5294e2; }</style>
    <style
       type="text/css"
       id="style13">.ColorScheme-Text { color:#565656; } .ColorScheme-Highlight { color:#5294e2; }</style>
    <style
       type="text/css"
       id="style15">.ColorScheme-Text { color:#565656; } .ColorScheme-Highlight { color:#5294e2; }</style>
    <style
       type="text/css"
       id="style17">.ColorScheme-Text { color:#565656; } .ColorScheme-Highlight { color:#5294e2; }</style>
    <style
       type="text/css"
       id="style19">.ColorScheme-Text { color:#565656; } .ColorScheme-Highlight { color:#5294e2; }</style>
    <style
       type="text/css"
       id="style21">.ColorScheme-Text { color:#565656; } .ColorScheme-Highlight { color:#5294e2; }</style>
    <style
       type="text/css"
       id="style23">.ColorScheme-Text { color:#565656; } .ColorScheme-Highlight { color:#5294e2; }</style>
    <style
       type="text/css"
       id="style25">.ColorScheme-Text { color:#565656; } .ColorScheme-Highlight { color:#5294e2; }</style>
    <style
       type="text/css"
       id="style27">.ColorScheme-Text { color:#565656; } .ColorScheme-Highlight { color:#5294e2; }</style>
    <style
       type="text/css"
       id="style29" />
    <style
       type="text/css"
       id="style31" />
    <style
       type="text/css"
       id="style33">.ColorScheme-Text { color:#565656; } .ColorScheme-Highlight { color:#5294e2; }</style>
    <style
       type="text/css"
       id="style35">.ColorScheme-Text { color:#565656; } .ColorScheme-Highlight { color:#5294e2; }</style>
  </defs>
  <path
     id="path873"
     style="fill:#ffffff;stroke-width:12.3865;stroke-linecap:round;stroke-linejoin:round;paint-order:markers fill stroke"
     d="M 16 0 A 16.000001 16.000001 0 0 0 0 16 A 16.000001 16.000001 0 0 0 16 32 A 16.000001 16.000001 0 0 0 32 16 A 16.000001 16.000001 0 0 0 16 0 z M 16.207031 7.8046875 C 16.91844 7.8046875 19.326719 8.7381614 20.429688 9.3027344 C 21.852505 10.014142 22.024923 10.38097 22.220703 11.191406 L 23.068359 14.875 A 1.5935558 1.5935529 0 0 1 23.101562 15.263672 C 23.101562 16.956254 21.041958 17.251953 19.619141 17.251953 L 19.619141 17.246094 C 14.083811 17.246094 9.9511719 13.805328 9.9511719 12.755859 A 0.7318974 0.73189612 0 0 1 9.9746094 12.535156 C 10.099817 12.143597 11.056641 9.4433594 11.056641 9.4433594 C 11.400393 8.4872277 11.844391 8.0214844 12.527344 8.0214844 C 13.239891 8.0214844 13.804099 8.6582031 14.564453 8.6582031 C 15.354401 8.6582031 15.546844 7.8046875 16.207031 7.8046875 z M 9.5585938 13.570312 A 2.1000789 2.1000751 0 0 0 9.3867188 14.40625 C 9.3867187 16.466486 14.050569 19.585446 19.373047 19.582031 C 21.728095 19.582031 23.519531 18.697068 23.519531 17.103516 C 23.519531 16.980584 23.519183 16.884539 23.322266 15.951172 L 23.324219 15.951172 C 25.581377 16.932345 26.833984 18.575581 26.833984 20.023438 C 26.833984 21.863991 25.532921 24.195312 20.378906 24.195312 C 13.657516 24.195313 5.1660156 19.77853 5.1660156 16.195312 C 5.1660156 14.007592 7.6486027 13.665927 9.5585938 13.570312 z "
     transform="scale(0.26458334)" />
</svg>
