<?xml version="1.0" encoding="UTF-8" standalone="no"?>
<svg
   xmlns:dc="http://purl.org/dc/elements/1.1/"
   xmlns:cc="http://creativecommons.org/ns#"
   xmlns:rdf="http://www.w3.org/1999/02/22-rdf-syntax-ns#"
   xmlns:svg="http://www.w3.org/2000/svg"
   xmlns="http://www.w3.org/2000/svg"
   xmlns:sodipodi="http://sodipodi.sourceforge.net/DTD/sodipodi-0.dtd"
   xmlns:inkscape="http://www.inkscape.org/namespaces/inkscape"
   version="1.1"
   id="svg2"
   width="32"
   height="32"
   viewBox="0 0 32 32"
   sodipodi:docname="regolith.svg"
   inkscape:version="1.0.2 (e86c870879, 2021-01-15)">
  <metadata
     id="metadata8">
    <rdf:RDF>
      <cc:Work
         rdf:about="">
        <dc:format>image/svg+xml</dc:format>
        <dc:type
           rdf:resource="http://purl.org/dc/dcmitype/StillImage" />
        <dc:title></dc:title>
      </cc:Work>
    </rdf:RDF>
  </metadata>
  <defs
     id="defs6" />
  <sodipodi:namedview
     pagecolor="#808080"
     bordercolor="#666666"
     borderopacity="1"
     objecttolerance="10"
     gridtolerance="10"
     guidetolerance="10"
     inkscape:pageopacity="0"
     inkscape:pageshadow="2"
     inkscape:window-width="1920"
     inkscape:window-height="1016"
     id="namedview4"
     showgrid="false"
     inkscape:zoom="16"
     inkscape:cx="19.030465"
     inkscape:cy="17.590206"
     inkscape:window-x="1920"
     inkscape:window-y="27"
     inkscape:window-maximized="1"
     inkscape:current-layer="svg2"
     inkscape:document-rotation="0" />
  <path
     id="path838"
     style="fill:#ffffff;fill-opacity:1;stroke-width:13.6405;paint-order:stroke fill markers"
     d="M 16 0 A 16 16 0 0 0 0 16 A 16 16 0 0 0 16 32 A 16 16 0 0 0 32 16 A 16 16 0 0 0 16 0 z M 16.878906 5 A 11.000111 11 0 0 1 20.671875 5.6757812 A 8.300084 8.3000002 0 0 0 20.587891 5.6738281 A 8.300084 8.3000002 0 0 0 12.287109 13.974609 A 8.300084 8.3000002 0 0 0 13.652344 18.535156 C 13.677604 18.524886 13.701272 18.516179 13.726562 18.505859 C 15.520929 17.773955 17.405333 16.910823 19.236328 15.978516 A 2.5000253 2.5 0 0 1 19.179688 15.449219 A 2.5000253 2.5 0 0 1 21.679688 12.949219 A 2.5000253 2.5 0 0 1 23.414062 13.650391 C 25.017219 12.66898 26.468894 11.663287 27.617188 10.681641 A 0.85000861 0.85000002 0 0 1 28.126953 10.478516 A 0.85000861 0.85000002 0 0 1 28.814453 10.775391 A 0.85000861 0.85000002 0 0 1 28.720703 11.974609 C 27.443259 13.066663 25.87641 14.154315 24.164062 15.197266 A 2.5000253 2.5 0 0 1 24.179688 15.449219 A 2.5000253 2.5 0 0 1 21.679688 17.949219 A 2.5000253 2.5 0 0 1 20.154297 17.429688 C 18.233994 18.409886 16.2569 19.31008 14.369141 20.080078 C 11.827661 21.116722 9.4564997 21.913581 7.578125 22.345703 C 6.6389376 22.561764 5.8264188 22.689466 5.1347656 22.697266 C 4.4550933 22.704961 3.8024843 22.660069 3.3125 22.076172 C 3.1242124 21.86183 2.950071 21.476681 2.984375 21.103516 C 3.0196495 20.719797 3.1866112 20.398361 3.4335938 20.060547 C 3.8747169 19.457194 4.6620115 18.731505 6.0136719 17.707031 A 11.000111 11 0 0 1 5.8789062 16 A 11.000111 11 0 0 1 16.878906 5 z M 27.615234 18.388672 A 11.000111 11 0 0 1 16.878906 27 A 11.000111 11 0 0 1 8.6269531 23.271484 C 10.310451 22.812821 12.273041 22.134275 14.369141 21.279297 C 14.816307 21.096902 15.273328 20.899297 15.728516 20.703125 A 8.300084 8.3000002 0 0 0 20.587891 22.275391 A 8.300084 8.3000002 0 0 0 27.615234 18.388672 z M 6.4570312 19.509766 C 5.5817546 20.215249 5.1107846 20.700103 4.8847656 20.996094 C 4.9719936 21.018704 4.8936559 21.000547 5.1152344 20.998047 C 5.5514128 20.993108 6.2017299 20.897552 6.953125 20.736328 A 11.000111 11 0 0 1 6.4570312 19.509766 z " />
</svg>
