<?xml version="1.0" encoding="UTF-8" standalone="no"?>
<svg
   width="32"
   height="32"
   version="1.1"
   viewBox="0 0 8.4666667 8.4666672"
   id="svg371"
   sodipodi:docname="sparky.svg"
   xmlns:inkscape="http://www.inkscape.org/namespaces/inkscape"
   xmlns:sodipodi="http://sodipodi.sourceforge.net/DTD/sodipodi-0.dtd"
   xmlns="http://www.w3.org/2000/svg"
   xmlns:svg="http://www.w3.org/2000/svg">
  <sodipodi:namedview
     inkscape:snap-bbox-edge-midpoints="true"
     inkscape:bbox-nodes="true"
     inkscape:snap-bbox="true"
     pagecolor="#808080"
     bordercolor="#666666"
     borderopacity="1"
     objecttolerance="10"
     gridtolerance="10"
     guidetolerance="10"
     inkscape:pageopacity="0"
     inkscape:pageshadow="2"
     inkscape:window-width="1920"
     inkscape:window-height="1016"
     id="namedview373"
     showgrid="false"
     inkscape:zoom="16"
     inkscape:cx="14.0625"
     inkscape:cy="17.90625"
     inkscape:window-x="1920"
     inkscape:window-y="27"
     inkscape:window-maximized="1"
     inkscape:current-layer="svg371"
     inkscape:document-rotation="0"
     showguides="false"
     inkscape:pagecheckerboard="0"
     inkscape:showpageshadow="2"
     inkscape:deskcolor="#d1d1d1">
    <inkscape:grid
       id="grid1162"
       type="xygrid"
       originx="0"
       originy="0"
       spacingy="1"
       spacingx="1"
       units="px"
       visible="false" />
  </sodipodi:namedview>
  <defs
     id="defs37">
    <style
       id="current-color-scheme"
       type="text/css">.ColorScheme-Text { color:#565656; } .ColorScheme-Highlight { color:#5294e2; }</style>
    <style
       type="text/css"
       id="style13">.ColorScheme-Text { color:#565656; } .ColorScheme-Highlight { color:#5294e2; }</style>
    <style
       type="text/css"
       id="style15">.ColorScheme-Text { color:#565656; } .ColorScheme-Highlight { color:#5294e2; }</style>
    <style
       type="text/css"
       id="style17">.ColorScheme-Text { color:#565656; } .ColorScheme-Highlight { color:#5294e2; }</style>
    <style
       type="text/css"
       id="style19">.ColorScheme-Text { color:#565656; } .ColorScheme-Highlight { color:#5294e2; }</style>
    <style
       type="text/css"
       id="style21">.ColorScheme-Text { color:#565656; } .ColorScheme-Highlight { color:#5294e2; }</style>
    <style
       type="text/css"
       id="style23">.ColorScheme-Text { color:#565656; } .ColorScheme-Highlight { color:#5294e2; }</style>
    <style
       type="text/css"
       id="style25">.ColorScheme-Text { color:#565656; } .ColorScheme-Highlight { color:#5294e2; }</style>
    <style
       type="text/css"
       id="style27">.ColorScheme-Text { color:#565656; } .ColorScheme-Highlight { color:#5294e2; }</style>
    <style
       type="text/css"
       id="style29" />
    <style
       type="text/css"
       id="style31" />
    <style
       type="text/css"
       id="style33">.ColorScheme-Text { color:#565656; } .ColorScheme-Highlight { color:#5294e2; }</style>
    <style
       type="text/css"
       id="style35">.ColorScheme-Text { color:#565656; } .ColorScheme-Highlight { color:#5294e2; }</style>
  </defs>
  <path
     id="path1189"
     style="fill:#ffffff;fill-opacity:1;stroke:none;stroke-width:4.23394;stroke-linecap:round;stroke-linejoin:round;stroke-miterlimit:4;stroke-dasharray:none;paint-order:markers fill stroke"
     d="M 16 0 A 16 16 0 0 0 0 16 A 16 16 0 0 0 16 32 A 16 16 0 0 0 32 16 A 16 16 0 0 0 16 0 z M 14.427734 3.1777344 C 11.719219 8.5096173 14.547792 12.736408 15.798828 15.685547 C 9.8929558 14.201165 7.8278355 7.0818408 14.427734 3.1777344 z M 21.285156 5.4667969 C 22.08763 5.4614352 22.954382 5.568364 23.882812 5.8066406 C 18.197394 7.6616414 17.208552 12.651122 16.007812 15.621094 C 13.272156 11.048608 15.667838 5.5043283 21.285156 5.4667969 z M 5.40625 7.8007812 C 7.3411689 13.731143 12.544653 14.763155 15.642578 16.015625 C 10.191744 19.276787 3.4179127 15.548227 5.40625 7.8007812 z M 22.078125 10.619141 C 24.127525 10.595351 26.294102 11.743225 27.886719 14.435547 C 22.915164 11.910073 18.972491 14.5464 16.222656 15.712891 C 17.001194 12.615342 19.443183 10.649727 22.078125 10.619141 z M 20.029297 14.921875 C 23.755291 14.888237 26.907476 18.07403 25.560547 23.322266 C 23.830906 18.021066 19.179417 17.098109 16.410156 15.978516 C 17.590226 15.272496 18.838515 14.932625 20.029297 14.921875 z M 16.25 16.197266 C 22.698999 17.818156 24.954897 25.594279 17.748047 29.857422 C 20.705647 24.035199 17.616086 19.417617 16.25 16.197266 z M 15.769531 16.226562 C 14.221199 22.386874 6.7949614 24.540489 2.7226562 17.65625 C 8.2842498 20.481455 12.693337 17.531496 15.769531 16.226562 z M 16.044922 16.373047 C 19.45891 22.07932 15.555823 29.171359 7.4453125 27.089844 C 13.653585 25.064249 14.733757 19.616148 16.044922 16.373047 z "
     transform="scale(0.26458334)" />
</svg>
