<?xml version="1.0" encoding="UTF-8" standalone="no"?>
<svg
   xmlns:dc="http://purl.org/dc/elements/1.1/"
   xmlns:cc="http://creativecommons.org/ns#"
   xmlns:rdf="http://www.w3.org/1999/02/22-rdf-syntax-ns#"
   xmlns:svg="http://www.w3.org/2000/svg"
   xmlns="http://www.w3.org/2000/svg"
   xmlns:sodipodi="http://sodipodi.sourceforge.net/DTD/sodipodi-0.dtd"
   xmlns:inkscape="http://www.inkscape.org/namespaces/inkscape"
   sodipodi:docname="steamos.svg"
   inkscape:version="1.0.2 (e86c870879, 2021-01-15)"
   id="svg8"
   version="1.1"
   viewBox="0 0 8.4666662 8.4666669"
   height="32"
   width="32">
  <defs
     id="defs2" />
  <sodipodi:namedview
     inkscape:window-maximized="1"
     inkscape:window-y="27"
     inkscape:window-x="1920"
     inkscape:window-height="1016"
     inkscape:window-width="1920"
     units="px"
     showgrid="false"
     inkscape:document-rotation="0"
     inkscape:current-layer="svg8"
     inkscape:document-units="px"
     inkscape:cy="15.272054"
     inkscape:cx="15.999805"
     inkscape:zoom="16.000001"
     inkscape:pageshadow="2"
     inkscape:pageopacity="0"
     borderopacity="1.0"
     bordercolor="#666666"
     pagecolor="#808080"
     id="base" />
  <metadata
     id="metadata5">
    <rdf:RDF>
      <cc:Work
         rdf:about="">
        <dc:format>image/svg+xml</dc:format>
        <dc:type
           rdf:resource="http://purl.org/dc/dcmitype/StillImage" />
        <dc:title></dc:title>
      </cc:Work>
    </rdf:RDF>
  </metadata>
  <path
     id="path838"
     style="fill:#ffffff;fill-opacity:1;stroke-width:2.36285;paint-order:stroke fill markers"
     d="M 15.990234 0 C 9.9852563 -0.029904675 4.116256 3.6119287 1.5761719 9.0820312 C 0.70755271 10.831161 0.21233802 12.733768 0.060546875 14.664062 L 8.4707031 18.214844 C 9.3114655 17.651842 10.344778 17.381924 11.353516 17.462891 L 14.646484 12.671875 C 14.997157 12.216291 15.231481 11.756318 15.255859 11.162109 C 15.526142 8.1799634 18.286688 5.7126231 21.28125 5.7773438 C 21.734348 5.7772927 22.189104 5.8289642 22.630859 5.9296875 C 25.564394 6.5319382 27.707365 9.5503916 27.308594 12.517578 C 27.038312 15.499725 24.275812 17.967063 21.28125 17.902344 L 15.564453 21.962891 C 15.634866 24.180908 13.85804 26.256061 11.654297 26.527344 C 9.3082919 26.928965 6.8852226 25.177503 6.5117188 22.833984 C 4.5486623 21.999709 2.5822423 21.170584 0.6171875 20.337891 C 1.2949876 22.778753 2.527706 25.062745 4.2929688 26.908203 C 8.6171962 31.67165 15.937262 33.322372 21.888672 30.876953 C 27.881907 28.594512 32.081023 22.416777 31.998047 16.005859 C 31.99844 14.39408 31.753812 12.782717 31.273438 11.244141 C 29.443446 5.0992331 23.5926 0.44989003 17.191406 0.0546875 C 16.790805 0.019514885 16.390566 0.001993645 15.990234 0 z M 21.28125 7.7148438 C 19.262479 7.6846752 17.436892 9.2792074 17.193359 11.28125 C 16.822945 13.524586 18.638302 15.803687 20.908203 15.947266 C 23.166806 16.215523 25.363868 14.300827 25.404297 12.027344 C 25.569832 9.7596521 23.554805 7.6521792 21.28125 7.7148438 z M 21.257812 8.7148438 C 22.348273 8.6978933 23.41318 9.2979042 23.964844 10.238281 C 24.977742 11.814402 24.168015 14.149112 22.396484 14.759766 C 20.668809 15.484145 18.508467 14.283598 18.212891 12.433594 C 17.794004 10.595909 19.37308 8.6673438 21.257812 8.7148438 z M 0.0546875 14.728516 C 0.032192261 15.030119 0.023127503 15.332298 0.017578125 15.634766 C 0.024501009 15.332536 0.030490733 15.029875 0.0546875 14.728516 z M 0.17382812 18.238281 C 0.18627551 18.326204 0.19707527 18.414242 0.2109375 18.501953 C 0.19704608 18.414244 0.18625905 18.326209 0.17382812 18.238281 z M 10.980469 18.574219 C 10.585199 18.576435 10.189514 18.647266 9.8183594 18.783203 C 10.918499 19.355653 12.35419 19.539895 13.089844 20.636719 C 14.027147 21.949544 13.280387 24.001077 11.71875 24.40625 C 10.343667 24.830003 9.1047102 23.812548 7.8574219 23.402344 C 8.2800834 24.374204 9.1777008 25.120537 10.210938 25.357422 C 12.149425 25.878655 14.284779 24.353828 14.421875 22.351562 C 14.678175 20.394494 12.954031 18.500642 10.980469 18.574219 z M 0.390625 19.445312 C 0.41528996 19.558335 0.44171284 19.670732 0.46875 19.783203 C 0.44141099 19.671001 0.41551418 19.558082 0.390625 19.445312 z "
     transform="scale(0.26458333)" />
</svg>
