<?xml version="1.0" encoding="UTF-8" standalone="no"?>
<svg
   width="31.999746"
   height="31.999746"
   version="1.1"
   viewBox="0 0 8.4665995 8.4666"
   id="svg371"
   sodipodi:docname="submenu.svg"
   xmlns:inkscape="http://www.inkscape.org/namespaces/inkscape"
   xmlns:sodipodi="http://sodipodi.sourceforge.net/DTD/sodipodi-0.dtd"
   xmlns="http://www.w3.org/2000/svg"
   xmlns:svg="http://www.w3.org/2000/svg">
  <sodipodi:namedview
     inkscape:snap-bbox-edge-midpoints="true"
     inkscape:bbox-nodes="true"
     inkscape:snap-bbox="true"
     pagecolor="#808080"
     bordercolor="#666666"
     borderopacity="1"
     objecttolerance="10"
     gridtolerance="10"
     guidetolerance="10"
     inkscape:pageopacity="0"
     inkscape:pageshadow="2"
     inkscape:window-width="1920"
     inkscape:window-height="1016"
     id="namedview373"
     showgrid="false"
     inkscape:zoom="16"
     inkscape:cx="21.684718"
     inkscape:cy="18.708221"
     inkscape:window-x="1920"
     inkscape:window-y="27"
     inkscape:window-maximized="1"
     inkscape:current-layer="svg371"
     inkscape:document-rotation="0"
     inkscape:showpageshadow="2"
     inkscape:pagecheckerboard="0"
     inkscape:deskcolor="#d1d1d1">
    <inkscape:grid
       id="grid1162"
       type="xygrid"
       originx="0"
       originy="0"
       spacingy="1"
       spacingx="1"
       units="px"
       visible="false" />
  </sodipodi:namedview>
  <defs
     id="defs37">
    <style
       id="current-color-scheme"
       type="text/css">.ColorScheme-Text { color:#565656; } .ColorScheme-Highlight { color:#5294e2; }</style>
    <style
       type="text/css"
       id="style13">.ColorScheme-Text { color:#565656; } .ColorScheme-Highlight { color:#5294e2; }</style>
    <style
       type="text/css"
       id="style15">.ColorScheme-Text { color:#565656; } .ColorScheme-Highlight { color:#5294e2; }</style>
    <style
       type="text/css"
       id="style17">.ColorScheme-Text { color:#565656; } .ColorScheme-Highlight { color:#5294e2; }</style>
    <style
       type="text/css"
       id="style19">.ColorScheme-Text { color:#565656; } .ColorScheme-Highlight { color:#5294e2; }</style>
    <style
       type="text/css"
       id="style21">.ColorScheme-Text { color:#565656; } .ColorScheme-Highlight { color:#5294e2; }</style>
    <style
       type="text/css"
       id="style23">.ColorScheme-Text { color:#565656; } .ColorScheme-Highlight { color:#5294e2; }</style>
    <style
       type="text/css"
       id="style25">.ColorScheme-Text { color:#565656; } .ColorScheme-Highlight { color:#5294e2; }</style>
    <style
       type="text/css"
       id="style27">.ColorScheme-Text { color:#565656; } .ColorScheme-Highlight { color:#5294e2; }</style>
    <style
       type="text/css"
       id="style29" />
    <style
       type="text/css"
       id="style31" />
    <style
       type="text/css"
       id="style33">.ColorScheme-Text { color:#565656; } .ColorScheme-Highlight { color:#5294e2; }</style>
    <style
       type="text/css"
       id="style35">.ColorScheme-Text { color:#565656; } .ColorScheme-Highlight { color:#5294e2; }</style>
  </defs>
  <path
     id="path279"
     style="fill:#ffffff;stroke-width:1.08703"
     d="M 16 0 C 7.1630868 1.1842379e-15 0 7.1630868 0 16 C 1.1842379e-15 24.836913 7.1630868 32 16 32 C 24.836913 32 32 24.836913 32 16 C 32 7.1630868 24.836913 0 16 0 z M 12.732422 9.9550781 L 13.335938 9.9550781 C 14.004172 9.9545607 14.546314 10.495829 14.546875 11.164062 C 14.547394 11.83306 14.004935 12.375517 13.335938 12.375 C 13.14101 12.3743 12.931244 12.371247 12.732422 12.373047 C 11.716804 12.373047 10.917969 13.169987 10.917969 14.185547 C 10.917969 15.201107 11.716804 16 12.732422 16 L 18.890625 16 L 17.341797 14.451172 C 17.120535 14.220253 16.962891 13.892746 16.962891 13.582031 C 16.962899 12.914358 17.504164 12.373093 18.171875 12.373047 C 18.546687 12.373047 18.840683 12.483171 19.080078 12.712891 L 23.5 17.208984 L 19.080078 21.705078 C 18.840683 21.93479 18.546687 22.044923 18.171875 22.044922 C 17.504164 22.044875 16.962899 21.50361 16.962891 20.835938 C 16.962891 20.525223 17.120536 20.197715 17.341797 19.966797 L 18.890625 18.417969 L 12.732422 18.417969 C 10.3988 18.408405 8.5094488 16.519038 8.5 14.185547 C 8.5 11.863058 10.411011 9.9550781 12.732422 9.9550781 z "
     transform="scale(0.26458334)" />
</svg>
