<?xml version="1.0" encoding="UTF-8" standalone="no"?>
<svg
   xmlns:dc="http://purl.org/dc/elements/1.1/"
   xmlns:cc="http://creativecommons.org/ns#"
   xmlns:rdf="http://www.w3.org/1999/02/22-rdf-syntax-ns#"
   xmlns:svg="http://www.w3.org/2000/svg"
   xmlns="http://www.w3.org/2000/svg"
   xmlns:sodipodi="http://sodipodi.sourceforge.net/DTD/sodipodi-0.dtd"
   xmlns:inkscape="http://www.inkscape.org/namespaces/inkscape"
   width="31.999998"
   height="31.999998"
   version="1.1"
   viewBox="0 0 8.4666662 8.4666666"
   id="svg371"
   sodipodi:docname="SystemRescueCD.svg"
   inkscape:version="1.0.2 (e86c870879, 2021-01-15)">
  <metadata
     id="metadata375">
    <rdf:RDF>
      <cc:Work
         rdf:about="">
        <dc:format>image/svg+xml</dc:format>
        <dc:type
           rdf:resource="http://purl.org/dc/dcmitype/StillImage" />
        <dc:title></dc:title>
      </cc:Work>
    </rdf:RDF>
  </metadata>
  <sodipodi:namedview
     inkscape:snap-bbox-edge-midpoints="true"
     inkscape:bbox-nodes="true"
     inkscape:snap-bbox="true"
     pagecolor="#808080"
     bordercolor="#666666"
     borderopacity="1"
     objecttolerance="10"
     gridtolerance="10"
     guidetolerance="10"
     inkscape:pageopacity="0"
     inkscape:pageshadow="2"
     inkscape:window-width="1920"
     inkscape:window-height="1016"
     id="namedview373"
     showgrid="false"
     inkscape:zoom="16"
     inkscape:cx="19.406236"
     inkscape:cy="17.397952"
     inkscape:window-x="1920"
     inkscape:window-y="27"
     inkscape:window-maximized="1"
     inkscape:current-layer="svg371"
     inkscape:document-rotation="0">
    <inkscape:grid
       id="grid1162"
       type="xygrid" />
  </sodipodi:namedview>
  <defs
     id="defs37">
    <style
       id="current-color-scheme"
       type="text/css">.ColorScheme-Text { color:#565656; } .ColorScheme-Highlight { color:#5294e2; }</style>
    <style
       type="text/css"
       id="style13">.ColorScheme-Text { color:#565656; } .ColorScheme-Highlight { color:#5294e2; }</style>
    <style
       type="text/css"
       id="style15">.ColorScheme-Text { color:#565656; } .ColorScheme-Highlight { color:#5294e2; }</style>
    <style
       type="text/css"
       id="style17">.ColorScheme-Text { color:#565656; } .ColorScheme-Highlight { color:#5294e2; }</style>
    <style
       type="text/css"
       id="style19">.ColorScheme-Text { color:#565656; } .ColorScheme-Highlight { color:#5294e2; }</style>
    <style
       type="text/css"
       id="style21">.ColorScheme-Text { color:#565656; } .ColorScheme-Highlight { color:#5294e2; }</style>
    <style
       type="text/css"
       id="style23">.ColorScheme-Text { color:#565656; } .ColorScheme-Highlight { color:#5294e2; }</style>
    <style
       type="text/css"
       id="style25">.ColorScheme-Text { color:#565656; } .ColorScheme-Highlight { color:#5294e2; }</style>
    <style
       type="text/css"
       id="style27">.ColorScheme-Text { color:#565656; } .ColorScheme-Highlight { color:#5294e2; }</style>
    <style
       type="text/css"
       id="style29" />
    <style
       type="text/css"
       id="style31" />
    <style
       type="text/css"
       id="style33">.ColorScheme-Text { color:#565656; } .ColorScheme-Highlight { color:#5294e2; }</style>
    <style
       type="text/css"
       id="style35">.ColorScheme-Text { color:#565656; } .ColorScheme-Highlight { color:#5294e2; }</style>
  </defs>
  <path
     id="circle1196"
     style="fill:#ffffff;fill-opacity:1;stroke-width:3.783;stroke-miterlimit:4;stroke-dasharray:none"
     d="M 15.878906 0 A 15.999999 15.999999 0 0 0 4.6855469 4.6855469 A 15.999999 15.999999 0 0 0 4.6855469 27.314453 A 15.999999 15.999999 0 0 0 27.314453 27.314453 A 15.999999 15.999999 0 0 0 27.314453 4.6855469 A 15.999999 15.999999 0 0 0 15.878906 0 z M 16.001953 6 A 10.000023 9.9999992 0 0 1 20.423828 7.0332031 A 0.20125712 0.20125712 0 0 1 20.453125 6.9921875 C 21.047143 6.3976784 21.851055 6.0593352 22.691406 6.0488281 C 23.532772 6.0383086 24.344277 6.3567529 24.953125 6.9375 A 0.20125712 0.20125712 0 0 0 24.955078 6.9394531 C 24.972698 6.9566613 24.99058 6.9745749 25.007812 6.9921875 L 25.009766 6.9941406 C 26.263901 8.2501093 26.263321 10.291736 25.007812 11.546875 A 0.20125712 0.20125712 0 0 1 24.96875 11.576172 A 10.000023 9.9999992 0 0 1 26 16 A 10.000023 9.9999992 0 0 1 24.96875 20.423828 A 0.20125712 0.20125712 0 0 1 25.007812 20.453125 C 26.243597 21.687847 26.268204 23.689016 25.0625 24.953125 A 0.20125712 0.20125712 0 0 0 25.060547 24.955078 C 25.043346 24.972698 25.025425 24.99058 25.007812 25.007812 L 25.005859 25.009766 C 23.749891 26.263901 21.708261 26.263324 20.453125 25.007812 A 0.20125712 0.20125712 0 0 1 20.421875 24.966797 A 10.000023 9.9999992 0 0 1 16.001953 26 A 10.000023 9.9999992 0 0 1 11.576172 24.966797 A 0.20125712 0.20125712 0 0 1 11.546875 25.007812 C 10.312153 26.243596 8.3109852 26.268203 7.046875 25.0625 A 0.20125712 0.20125712 0 0 0 7.0449219 25.060547 C 7.0272979 25.043346 7.0094221 25.025425 6.9921875 25.007812 C 5.7360109 23.752013 5.7360109 21.708926 6.9921875 20.453125 A 0.20125712 0.20125712 0 0 1 7.03125 20.423828 A 10.000023 9.9999992 0 0 1 6 16 A 10.000023 9.9999992 0 0 1 7.03125 11.576172 A 0.20125712 0.20125712 0 0 1 6.9921875 11.546875 C 5.7564064 10.312153 5.731799 8.3109837 6.9375 7.046875 A 0.20125712 0.20125712 0 0 0 6.9394531 7.0449219 C 6.9566613 7.0272979 6.9745749 7.0094221 6.9921875 6.9921875 C 7.6045775 6.379325 8.4383529 6.0394549 9.3046875 6.0488281 C 10.146487 6.0582327 10.951829 6.3966768 11.546875 6.9921875 A 0.20125712 0.20125712 0 0 1 11.578125 7.03125 A 10.000023 9.9999992 0 0 1 16.001953 6 z M 9.2695312 7.0527344 C 8.7029436 7.0527344 8.1363556 7.2691693 7.703125 7.703125 C 6.8931385 8.5117581 6.8489128 9.7797405 7.5507812 10.650391 A 10.000023 9.9999992 0 0 1 10.650391 7.5507812 C 10.246197 7.2249436 9.7604903 7.0527344 9.2695312 7.0527344 z M 22.730469 7.0527344 C 22.23951 7.0527344 21.753803 7.2249436 21.349609 7.5507812 A 10.000023 9.9999992 0 0 1 24.449219 10.650391 C 25.151088 9.7797405 25.106862 8.5117581 24.296875 7.703125 C 23.863645 7.2691693 23.297057 7.0527344 22.730469 7.0527344 z M 15.894531 7.1992188 A 8.8006448 8.8006236 0 0 0 12.347656 7.9941406 A 7.6114811 7.6115892 0 0 0 13.796875 11.476562 A 5.0309407 5.0309407 0 0 1 16 10.96875 A 5.0309407 5.0309407 0 0 1 18.091797 11.423828 C 18.798089 10.441165 19.269587 9.2596561 19.601562 7.9707031 A 8.8006448 8.8006236 0 0 0 16.001953 7.1992188 A 8.8006448 8.8006236 0 0 0 15.9375 7.1992188 A 8.8006448 8.8006236 0 0 0 15.894531 7.1992188 z M 15.904297 12.167969 A 3.831564 3.831564 0 0 0 12.167969 16 A 3.831564 3.831564 0 0 0 16 19.832031 A 3.831564 3.831564 0 0 0 19.832031 16 A 3.831564 3.831564 0 0 0 16 12.167969 A 3.831564 3.831564 0 0 0 15.90625 12.167969 A 3.831564 3.831564 0 0 1 15.904297 12.167969 z M 7.8710938 12.626953 A 8.8006448 8.8006236 0 0 0 7.1992188 16 A 8.8006448 8.8006236 0 0 0 7.8710938 19.373047 C 9.0216797 18.466138 10.173412 18.219154 11.357422 17.935547 A 5.0309407 5.0309407 0 0 1 10.96875 16 A 5.0309407 5.0309407 0 0 1 11.355469 14.064453 C 10.172111 13.781036 9.0210793 13.533388 7.8710938 12.626953 z M 24.128906 12.630859 A 7.4592516 7.4593574 0 0 1 20.648438 14.078125 A 5.0309407 5.0309407 0 0 1 21.03125 16 A 5.0309407 5.0309407 0 0 1 20.650391 17.919922 A 7.4592516 7.4593574 0 0 1 24.128906 19.371094 A 8.8006448 8.8006236 0 0 0 24.800781 16 A 8.8006448 8.8006236 0 0 0 24.128906 12.630859 z M 13.796875 20.523438 A 7.6114811 7.6115892 0 0 0 12.347656 24.005859 A 8.8006448 8.8006236 0 0 0 16.001953 24.800781 A 8.8006448 8.8006236 0 0 0 19.601562 24.029297 C 19.269438 22.739764 18.798619 21.557143 18.091797 20.574219 A 5.0309407 5.0309407 0 0 1 16 21.03125 A 5.0309407 5.0309407 0 0 1 13.796875 20.523438 z M 7.5507812 21.349609 C 6.8489128 22.220259 6.8931385 23.488242 7.703125 24.296875 C 8.5117581 25.106862 9.7797408 25.151088 10.650391 24.449219 A 10.000023 9.9999992 0 0 1 7.5507812 21.349609 z M 24.449219 21.349609 A 10.000023 9.9999992 0 0 1 21.349609 24.449219 C 22.220259 25.151087 23.488242 25.106861 24.296875 24.296875 C 25.106861 23.488242 25.151087 22.220259 24.449219 21.349609 z "
     transform="scale(0.26458334)" />
</svg>
