<?xml version="1.0" encoding="UTF-8" standalone="no"?>
<svg
   xmlns:dc="http://purl.org/dc/elements/1.1/"
   xmlns:cc="http://creativecommons.org/ns#"
   xmlns:rdf="http://www.w3.org/1999/02/22-rdf-syntax-ns#"
   xmlns:svg="http://www.w3.org/2000/svg"
   xmlns="http://www.w3.org/2000/svg"
   xmlns:sodipodi="http://sodipodi.sourceforge.net/DTD/sodipodi-0.dtd"
   xmlns:inkscape="http://www.inkscape.org/namespaces/inkscape"
   version="1.1"
   width="32"
   height="32"
   id="svg2"
   inkscape:version="1.0.2 (e86c870879, 2021-01-15)"
   sodipodi:docname="ubuntustudio.svg">
  <sodipodi:namedview
     pagecolor="#808080"
     bordercolor="#666666"
     borderopacity="1"
     objecttolerance="10"
     gridtolerance="10"
     guidetolerance="10"
     inkscape:pageopacity="0"
     inkscape:pageshadow="2"
     inkscape:window-width="1920"
     inkscape:window-height="1016"
     id="namedview3007"
     showgrid="false"
     fit-margin-top="10"
     fit-margin-left="10"
     fit-margin-right="10"
     fit-margin-bottom="10"
     inkscape:zoom="11.313709"
     inkscape:cx="15.317739"
     inkscape:cy="14.100261"
     inkscape:window-x="1920"
     inkscape:window-y="27"
     inkscape:window-maximized="1"
     inkscape:current-layer="svg2"
     inkscape:document-rotation="0" />
  <title
     id="title14594">Ubuntu Studio v3</title>
  <defs
     id="defs4" />
  <metadata
     id="metadata7">
    <rdf:RDF>
      <cc:Work
         rdf:about="">
        <dc:format>image/svg+xml</dc:format>
        <dc:type
           rdf:resource="http://purl.org/dc/dcmitype/StillImage" />
        <dc:title>Ubuntu Studio v3</dc:title>
        <dc:creator>
          <cc:Agent>
            <dc:title>Cory Kontros</dc:title>
          </cc:Agent>
        </dc:creator>
        <dc:description>New Ubuntu Studio logo based on the Ubuntu logo 1st used in Ubuntu 10.04.</dc:description>
        <dc:date>August 8th 2010</dc:date>
      </cc:Work>
    </rdf:RDF>
  </metadata>
  <path
     id="path857"
     style="fill:#ffffff;fill-opacity:1;stroke-width:16.874;stroke-linecap:round;stroke-linejoin:round;paint-order:markers fill stroke"
     d="M 15.968751,7.6245143e-6 A 16,16 0 0 0 0,16.000007 a 16,16 0 0 0 16,16 16,16 0 0 0 16,-16 A 16,16 0 0 0 16,7.6245143e-6 a 16,16 0 0 0 -0.03124,0 z M 19.412499,2.2937577 c 0.08976,0.00607 0.179134,0.019113 0.26875,0.04375 2.390227,0.658543 4.419349,1.7776989 6.159376,3.5406253 0.151136,0.149305 0.26775,0.332783 0.334374,0.534374 0.126677,0.37328 0.05072,0.813026 -0.134371,1.1375 -0.111083,0.194688 -0.265664,0.346895 -0.468749,0.468751 -0.270736,0.162484 -0.574256,0.236875 -0.86875,0.196875 -0.294498,-0.03993 -0.586266,-0.170701 -0.803126,-0.4 C 22.446836,6.343364 20.93991,5.428104 18.94375,4.8781325 18.226823,4.6809904 17.811856,3.9872946 18.009375,3.2718826 18.182236,2.6458797 18.784179,2.2513545 19.412499,2.2937577 Z m -3.48125,4.1562493 c 2.422307,-3e-6 4.847152,0.92289 6.696876,2.768751 1.866553,1.862667 2.788883,4.32507 2.771875,6.781249 0.01699,2.456182 -0.905322,4.918584 -2.771875,6.781251 -3.699446,3.691719 -9.691191,3.691703 -13.390624,0 -0.332105,-0.322187 -0.517744,-0.82171 -0.4,-1.26875 0.117818,-0.447026 0.486418,-0.751245 0.934374,-0.868749 0.447969,-0.117586 0.952142,-7.35e-4 1.275001,0.331249 2.716773,2.7111 7.055108,2.711101 9.771875,0 1.375326,-1.372457 2.051525,-3.175564 2.034373,-4.975001 0.01715,-1.799434 -0.659047,-3.602545 -2.034373,-4.974999 -2.716768,-2.711101 -7.055102,-2.7111 -9.771875,0 -0.322859,0.332064 -0.827032,0.448833 -1.275001,0.331249 -0.447956,-0.117498 -0.816534,-0.421723 -0.934374,-0.868749 -0.11776,-0.447038 0.06788,-0.946563 0.4,-1.26875 1.849716,-1.845852 4.27144,-2.768748 6.693748,-2.768751 z m 0,4.440627 c 1.283534,0 2.569218,0.490021 3.55,1.468748 0.997574,0.995498 1.482715,2.320806 1.465627,3.640625 0.01709,1.319821 -0.468053,2.645129 -1.465627,3.640627 -1.961566,1.957456 -5.13531,1.957456 -7.096875,0 -0.997575,-0.995498 -1.482711,-2.320806 -1.465623,-3.640627 -0.01708,-1.319819 0.468048,-2.645127 1.465623,-3.640625 0.980781,-0.978727 2.263339,-1.468748 3.546875,-1.468748 z M 3.815625,11.443759 c 0.089969,0.0058 0.1789724,0.02284 0.26875,0.04688 0.7181961,0.192421 1.13031,0.886414 0.9375,1.603124 -0.2711313,1.00976 -0.4031839,1.957943 -0.3999999,2.90625 -0.00319,0.948307 0.1288683,1.89649 0.3999999,2.906249 0.19281,0.716711 -0.2193039,1.410702 -0.9375,1.603126 -0.7182131,0.192395 -1.4821747,-0.217685 -1.675,-0.93438 C 2.0854537,18.368623 1.928194,17.18391 1.9312499,16.000007 1.9281953,14.816106 2.0854531,13.631393 2.409375,12.425008 2.5780972,11.7979 3.1858394,11.403379 3.815625,11.443759 Z m 4.228125,1.074999 c 0.08428,0.0045 0.17057,0.0177 0.25625,0.04063 0.685415,0.183506 1.121311,0.919142 0.937501,1.603126 -0.177025,0.659296 -0.256881,1.247631 -0.25,1.8375 -0.0068,0.58987 0.07297,1.178206 0.25,1.837501 C 9.421311,18.521499 8.985415,19.257134 8.3,19.440641 7.614588,19.62406 6.94639,19.190249 6.762499,18.506264 6.535462,17.660757 6.428134,16.82983 6.434374,16.000012 6.428074,15.170196 6.535465,14.339269 6.762499,13.493764 6.923404,12.895276 7.453868,12.488123 8.04375,12.518763 Z M 16,13.443759 c -1.410844,1.71e-4 -2.556079,1.145406 -2.55625,2.556248 1.71e-4,1.410845 1.145406,2.556079 2.55625,2.55625 1.410845,-1.71e-4 2.556079,-1.145405 2.55625,-2.55625 C 18.556079,14.589165 17.410845,13.44393 16,13.443759 Z m 8.703124,10.340624 c 0.294495,-0.04 0.598015,0.03439 0.868751,0.196875 0.203086,0.121862 0.357646,0.27406 0.46875,0.468749 0.185104,0.324474 0.261046,0.764221 0.134371,1.137501 -0.06662,0.201592 -0.183237,0.385064 -0.334373,0.534376 -1.740028,1.762923 -3.76915,2.882083 -6.159376,3.540624 -0.716912,0.197104 -1.47432,-0.222069 -1.671877,-0.9375 -0.197517,-0.715411 0.21745,-1.405983 0.934377,-1.603124 1.996158,-0.54997 3.503086,-1.465232 4.95625,-2.937501 0.216858,-0.229299 0.508627,-0.360096 0.803124,-0.4 z" />
</svg>
