<?xml version="1.0" encoding="UTF-8" standalone="no"?>
<svg
   xmlns:dc="http://purl.org/dc/elements/1.1/"
   xmlns:cc="http://creativecommons.org/ns#"
   xmlns:rdf="http://www.w3.org/1999/02/22-rdf-syntax-ns#"
   xmlns:svg="http://www.w3.org/2000/svg"
   xmlns="http://www.w3.org/2000/svg"
   xmlns:sodipodi="http://sodipodi.sourceforge.net/DTD/sodipodi-0.dtd"
   xmlns:inkscape="http://www.inkscape.org/namespaces/inkscape"
   width="32"
   height="32"
   id="svg4275"
   version="1.1"
   inkscape:version="1.0.2 (e86c870879, 2021-01-15)"
   sodipodi:docname="ubuntumate.svg">
  <defs
     id="defs4277" />
  <sodipodi:namedview
     id="base"
     pagecolor="#808080"
     bordercolor="#666666"
     borderopacity="1.0"
     inkscape:pageopacity="0"
     inkscape:pageshadow="2"
     inkscape:zoom="11.313708"
     inkscape:cx="14.320471"
     inkscape:cy="8.5472386"
     inkscape:document-units="px"
     inkscape:current-layer="svg4275"
     showgrid="false"
     inkscape:window-width="1920"
     inkscape:window-height="1016"
     inkscape:window-x="1920"
     inkscape:window-y="27"
     inkscape:window-maximized="1"
     inkscape:snap-global="true"
     inkscape:snap-bbox="true"
     inkscape:bbox-nodes="true"
     inkscape:object-paths="true"
     inkscape:snap-intersection-paths="true"
     inkscape:snap-smooth-nodes="true"
     inkscape:snap-bbox-edge-midpoints="true"
     inkscape:snap-bbox-midpoints="true"
     inkscape:bbox-paths="true"
     inkscape:document-rotation="0">
    <inkscape:grid
       type="xygrid"
       id="grid4292"
       empspacing="4"
       visible="true"
       enabled="true"
       snapvisiblegridlinesonly="true" />
  </sodipodi:namedview>
  <metadata
     id="metadata4280">
    <rdf:RDF>
      <cc:Work
         rdf:about="">
        <dc:format>image/svg+xml</dc:format>
        <dc:type
           rdf:resource="http://purl.org/dc/dcmitype/StillImage" />
        <dc:title></dc:title>
      </cc:Work>
    </rdf:RDF>
  </metadata>
  <path
     id="path874"
     style="fill:#ffffff;fill-opacity:1;stroke-width:0.222223"
     d="M 16,0 C 7.163391,0 0,7.163167 0,16 0,24.836277 7.163392,32 16,32 24.836496,32 32,24.836165 32,16 32,7.163167 24.836495,0 16,0 Z M 18.674999,4.325 24.887501,8 18.665627,11.675001 Z M 16,6.215625 c 0.45584,0 0.90192,0.03599 1.340624,0.09688 V 7.675001 C 16.904341,7.604441 16.457168,7.562499 16,7.562499 c -3.554033,2e-6 -6.593796,2.178446 -7.840625,5.278126 l -1.15312,-0.68125 C 8.503169,8.669797 11.970901,6.215625 16,6.215625 Z m 0,3.325 c 0.456432,0 0.903616,0.05537 1.334368,0.14688 v 1.38125 C 16.909267,10.955107 16.461493,10.896875 16,10.896875 c -2.334019,0 -4.283711,1.548524 -4.896875,3.678126 l -1.19375,-0.70625 C 10.792931,11.354739 13.193517,9.540625 16,9.540625 Z m 7.846876,0.61875 C 25.0639,11.790992 25.784373,13.814597 25.784373,16 c 0,2.219459 -0.748032,4.271195 -2,5.915625 l -1.159374,-0.6875 C 23.759783,19.791589 24.437501,17.979227 24.437501,16 c 0,-1.942053 -0.65336,-3.729609 -1.75,-5.153125 z M 20.95,11.875001 c 0.937632,1.121484 1.509376,2.558391 1.509376,4.124999 0,1.602 -0.596144,3.076879 -1.571872,4.209375 L 19.7,19.506249 C 20.568043,18.594629 21.103125,17.367067 21.103125,16 c 0,-1.328245 -0.500992,-2.531379 -1.325008,-3.437501 z M 4.675,12.324999 10.887501,16 4.6656256,19.675001 Z m 6.428125,5.1 c 0.613164,2.127922 2.562856,3.671876 4.896875,3.671876 0.461584,0 0.909152,-0.0602 1.334368,-0.171876 v 1.3875 C 16.9036,22.404004 16.456432,22.459379 16,22.459379 c -2.808651,0 -5.208935,-1.817299 -6.090625,-4.334374 z m -2.94375,1.734376 c 1.246829,3.099676 4.286592,5.278126 7.840625,5.278126 0.452736,0 0.892528,-0.03488 1.325008,-0.10312 v 1.353128 c -0.433456,0.06029 -0.874624,0.09688 -1.325008,0.09688 -4.029099,0 -7.496831,-2.454172 -8.993751,-5.943748 z m 10.506252,1.284374 6.215622,3.66875 -6.221874,3.671876 z" />
</svg>
