<?xml version="1.0" encoding="UTF-8" standalone="no"?>
<svg
   width="32"
   height="32"
   version="1.1"
   viewBox="0 0 8.4666666 8.4666671"
   id="svg371"
   sodipodi:docname="unset.svg"
   xmlns:inkscape="http://www.inkscape.org/namespaces/inkscape"
   xmlns:sodipodi="http://sodipodi.sourceforge.net/DTD/sodipodi-0.dtd"
   xmlns="http://www.w3.org/2000/svg"
   xmlns:svg="http://www.w3.org/2000/svg">
  <sodipodi:namedview
     inkscape:snap-bbox-edge-midpoints="true"
     inkscape:bbox-nodes="true"
     inkscape:snap-bbox="true"
     pagecolor="#808080"
     bordercolor="#666666"
     borderopacity="1"
     objecttolerance="10"
     gridtolerance="10"
     guidetolerance="10"
     inkscape:pageopacity="0"
     inkscape:pageshadow="2"
     inkscape:window-width="1920"
     inkscape:window-height="1016"
     id="namedview373"
     showgrid="false"
     inkscape:zoom="16"
     inkscape:cx="15.156818"
     inkscape:cy="19.420346"
     inkscape:window-x="1920"
     inkscape:window-y="27"
     inkscape:window-maximized="1"
     inkscape:current-layer="svg371"
     inkscape:document-rotation="0"
     inkscape:showpageshadow="2"
     inkscape:pagecheckerboard="0"
     inkscape:deskcolor="#d1d1d1">
    <inkscape:grid
       id="grid1162"
       type="xygrid"
       originx="0"
       originy="0"
       spacingy="1"
       spacingx="1"
       units="px"
       visible="false" />
  </sodipodi:namedview>
  <defs
     id="defs37">
    <style
       id="current-color-scheme"
       type="text/css">.ColorScheme-Text { color:#565656; } .ColorScheme-Highlight { color:#5294e2; }</style>
    <style
       type="text/css"
       id="style13">.ColorScheme-Text { color:#565656; } .ColorScheme-Highlight { color:#5294e2; }</style>
    <style
       type="text/css"
       id="style15">.ColorScheme-Text { color:#565656; } .ColorScheme-Highlight { color:#5294e2; }</style>
    <style
       type="text/css"
       id="style17">.ColorScheme-Text { color:#565656; } .ColorScheme-Highlight { color:#5294e2; }</style>
    <style
       type="text/css"
       id="style19">.ColorScheme-Text { color:#565656; } .ColorScheme-Highlight { color:#5294e2; }</style>
    <style
       type="text/css"
       id="style21">.ColorScheme-Text { color:#565656; } .ColorScheme-Highlight { color:#5294e2; }</style>
    <style
       type="text/css"
       id="style23">.ColorScheme-Text { color:#565656; } .ColorScheme-Highlight { color:#5294e2; }</style>
    <style
       type="text/css"
       id="style25">.ColorScheme-Text { color:#565656; } .ColorScheme-Highlight { color:#5294e2; }</style>
    <style
       type="text/css"
       id="style27">.ColorScheme-Text { color:#565656; } .ColorScheme-Highlight { color:#5294e2; }</style>
    <style
       type="text/css"
       id="style29" />
    <style
       type="text/css"
       id="style31" />
    <style
       type="text/css"
       id="style33">.ColorScheme-Text { color:#565656; } .ColorScheme-Highlight { color:#5294e2; }</style>
    <style
       type="text/css"
       id="style35">.ColorScheme-Text { color:#565656; } .ColorScheme-Highlight { color:#5294e2; }</style>
  </defs>
  <path
     id="path336"
     style="fill:#ffffff;stroke-width:1.08703"
     d="M 16 0 C 7.1630868 -1.1842379e-15 0 7.1630868 0 16 C -1.1842379e-15 24.836913 7.1630868 32 16 32 C 24.836913 32 32 24.836913 32 16 C 32 7.1630868 24.836913 0 16 0 z M 12.369141 10 L 21.996094 10 C 22.551465 9.9978657 23.002135 10.448702 23 11.003906 L 23 20.996094 C 23.002135 21.551297 22.551465 22.002134 21.996094 22 L 12.369141 22 C 12.080937 22.000582 11.807532 21.876489 11.617188 21.660156 L 7.2460938 16.65625 C 6.9179854 16.279792 6.9179854 15.720206 7.2460938 15.34375 L 11.617188 10.339844 C 11.807535 10.123511 12.080944 9.999418 12.369141 10 z M 14.986328 13.019531 A 1 1 0 0 0 14.308594 13.3125 A 1 1 0 0 0 14.308594 14.726562 L 15.582031 16 L 14.308594 17.273438 A 1 1 0 0 0 14.308594 18.6875 A 1 1 0 0 0 15.722656 18.6875 L 16.996094 17.414062 L 18.269531 18.6875 A 1 1 0 0 0 19.683594 18.6875 A 1 1 0 0 0 19.683594 17.273438 L 18.410156 16 L 19.683594 14.726562 A 1 1 0 0 0 19.683594 13.3125 A 1 1 0 0 0 18.269531 13.3125 L 16.996094 14.585938 L 15.722656 13.3125 A 1 1 0 0 0 14.986328 13.019531 z "
     transform="scale(0.26458334)" />
</svg>
