<?xml version="1.0" encoding="UTF-8" standalone="no"?>
<svg
   width="32"
   height="32"
   version="1.1"
   viewBox="0 0 8.4666667 8.4666672"
   id="svg371"
   sodipodi:docname="xubuntu.svg"
   xmlns:inkscape="http://www.inkscape.org/namespaces/inkscape"
   xmlns:sodipodi="http://sodipodi.sourceforge.net/DTD/sodipodi-0.dtd"
   xmlns="http://www.w3.org/2000/svg"
   xmlns:svg="http://www.w3.org/2000/svg">
  <sodipodi:namedview
     inkscape:snap-bbox-edge-midpoints="true"
     inkscape:bbox-nodes="true"
     inkscape:snap-bbox="true"
     pagecolor="#808080"
     bordercolor="#666666"
     borderopacity="1"
     objecttolerance="10"
     gridtolerance="10"
     guidetolerance="10"
     inkscape:pageopacity="0"
     inkscape:pageshadow="2"
     inkscape:window-width="1920"
     inkscape:window-height="1016"
     id="namedview373"
     showgrid="false"
     inkscape:zoom="16"
     inkscape:cx="20.805958"
     inkscape:cy="15.265274"
     inkscape:window-x="1920"
     inkscape:window-y="27"
     inkscape:window-maximized="1"
     inkscape:current-layer="svg371"
     inkscape:document-rotation="0"
     inkscape:showpageshadow="2"
     inkscape:pagecheckerboard="0"
     inkscape:deskcolor="#d1d1d1">
    <inkscape:grid
       id="grid1162"
       type="xygrid"
       originx="0"
       originy="0"
       spacingy="1"
       spacingx="1"
       units="px"
       visible="false" />
  </sodipodi:namedview>
  <defs
     id="defs37">
    <style
       id="current-color-scheme"
       type="text/css">.ColorScheme-Text { color:#565656; } .ColorScheme-Highlight { color:#5294e2; }</style>
    <style
       type="text/css"
       id="style13">.ColorScheme-Text { color:#565656; } .ColorScheme-Highlight { color:#5294e2; }</style>
    <style
       type="text/css"
       id="style15">.ColorScheme-Text { color:#565656; } .ColorScheme-Highlight { color:#5294e2; }</style>
    <style
       type="text/css"
       id="style17">.ColorScheme-Text { color:#565656; } .ColorScheme-Highlight { color:#5294e2; }</style>
    <style
       type="text/css"
       id="style19">.ColorScheme-Text { color:#565656; } .ColorScheme-Highlight { color:#5294e2; }</style>
    <style
       type="text/css"
       id="style21">.ColorScheme-Text { color:#565656; } .ColorScheme-Highlight { color:#5294e2; }</style>
    <style
       type="text/css"
       id="style23">.ColorScheme-Text { color:#565656; } .ColorScheme-Highlight { color:#5294e2; }</style>
    <style
       type="text/css"
       id="style25">.ColorScheme-Text { color:#565656; } .ColorScheme-Highlight { color:#5294e2; }</style>
    <style
       type="text/css"
       id="style27">.ColorScheme-Text { color:#565656; } .ColorScheme-Highlight { color:#5294e2; }</style>
    <style
       type="text/css"
       id="style29" />
    <style
       type="text/css"
       id="style31" />
    <style
       type="text/css"
       id="style33">.ColorScheme-Text { color:#565656; } .ColorScheme-Highlight { color:#5294e2; }</style>
    <style
       type="text/css"
       id="style35">.ColorScheme-Text { color:#565656; } .ColorScheme-Highlight { color:#5294e2; }</style>
  </defs>
  <path
     id="path237"
     style="fill:#ffffff;stroke-width:3.63957"
     d="M 16.142578 0 A 15.999864 15.999864 0 0 0 15.806641 0.001953125 A 15.999864 15.999864 0 0 0 15.806641 31.998047 A 15.999864 15.999864 0 1 0 16.142578 0 z M 20.978516 6.4882812 L 20.978516 6.4902344 A 0.3807443 0.3807443 0 0 0 21.029297 6.4921875 C 21.083049 6.4876899 21.068576 6.4907657 21.082031 6.5019531 A 0.86227385 0.86227385 0 0 1 21.189453 6.6152344 C 21.272319 6.7160193 21.298768 6.7681201 21.314453 6.8554688 A 0.3807443 0.3807443 0 0 0 21.314453 6.875 C 21.437635 8.754085 21.109508 10.674098 20.650391 12.503906 A 0.3807443 0.3807443 0 0 0 20.583984 12.660156 C 20.548151 12.872924 20.475553 13.018981 20.361328 13.099609 C 20.253823 13.173522 20.209104 13.188091 20.177734 13.183594 C 20.137422 13.172395 20.067424 13.108781 20.013672 13.037109 A 0.3807443 0.3807443 0 0 0 19.982422 12.970703 C 19.689025 11.891181 20.055699 10.745411 20.169922 9.6210938 A 0.3807443 0.3807443 0 0 0 20.169922 9.5703125 C 20.402848 8.542303 20.410657 7.3969146 20.925781 6.5234375 C 20.912345 6.54136 20.933721 6.5173836 20.978516 6.4882812 z M 25.177734 7.3808594 A 0.35610791 0.35610791 0 0 0 25.216797 7.3808594 C 25.292947 7.3696606 25.433811 7.4630851 25.447266 7.4921875 C 25.494298 7.5907311 25.491252 7.6393445 25.4375 7.7714844 A 0.35610791 0.35610791 0 0 0 25.435547 7.7753906 C 24.65838 9.7575007 23.712899 11.801431 22.460938 13.521484 A 0.35610791 0.35610791 0 0 0 22.453125 13.535156 C 22.43967 13.553075 22.446181 13.569384 22.439453 13.591797 A 0.5106453 0.5106453 0 0 1 21.992188 13.787109 C 21.860048 13.757993 21.73106 13.630217 21.726562 13.40625 C 21.820629 11.990777 22.698853 10.777549 23.388672 9.5546875 A 0.35610791 0.35610791 0 0 0 23.431641 9.4492188 C 23.978121 8.7011683 24.384891 7.7683225 25.177734 7.3808594 z M 13.091797 7.9375 A 1.29901 1.29901 0 0 1 13.283203 7.9511719 A 1.3482828 1.3482828 0 0 1 14.236328 8.4257812 C 14.621552 8.880435 14.805125 9.5526027 14.923828 10.255859 A 14.97221 14.97221 0 0 1 15.091797 12.277344 L 15.091797 13.015625 C 15.091797 13.04698 15.076112 13.082503 15.091797 13.109375 C 15.107474 13.138504 15.158398 13.140288 15.1875 13.158203 C 15.207652 13.169428 15.210009 13.177448 15.232422 13.179688 C 15.277213 13.193119 15.319762 13.215061 15.400391 13.228516 C 15.669151 13.280027 16.103081 13.299711 16.564453 13.369141 A 35.6847 35.6847 0 0 1 19.939453 14.107422 C 21.184711 14.434414 22.43246 14.885652 23.433594 15.535156 C 24.430248 16.182422 25.17916 17.019643 25.335938 18.148438 C 25.434482 18.849454 24.900055 19.552813 24.169922 20.193359 C 23.442028 20.833906 22.488946 21.433363 21.460938 22 C 20.432928 22.562158 19.364746 23.075946 18.513672 23.474609 C 18.088134 23.673942 17.70884 23.810359 17.419922 23.949219 C 15.950697 24.542732 14.293819 25.070247 12.546875 25.421875 C 12.477445 25.421875 12.31219 25.466205 12.238281 25.470703 C 3.335584 26.24339 7.4824219 15.224609 7.4824219 15.224609 C 7.4824219 15.224609 7.7053357 14.706132 7.7949219 14.392578 A 2.0873746 2.0873746 0 0 0 7.8398438 14.060547 C 7.828645 13.986638 7.7822156 13.850942 7.7441406 13.703125 C 7.6590332 13.355976 7.5228955 12.935047 7.4355469 12.419922 C 7.3504319 11.907037 7.295647 11.315332 7.4121094 10.804688 A 1.9395563 1.9395563 0 0 1 8.3632812 9.5195312 A 0.96305911 0.96305911 0 0 1 9.0058594 9.4238281 A 1.558812 1.558812 0 0 1 9.5996094 9.78125 A 4.5868489 4.5868489 0 0 1 10.527344 11.017578 A 18.992422 18.992422 0 0 1 11.216797 12.443359 C 11.308624 12.653887 11.362499 12.821505 11.429688 12.964844 C 11.461041 13.029795 11.479855 13.120128 11.5 13.158203 C 11.515685 13.191803 11.5 13.190874 11.5 13.179688 C 11.517915 13.206548 11.568831 13.212554 11.595703 13.230469 C 11.580026 13.214791 11.654659 13.261936 11.712891 13.275391 C 11.800236 13.297792 11.868018 13.328716 11.953125 13.324219 A 0.20157051 0.20157051 0 0 0 12.072266 13.275391 C 12.085721 13.275391 12.056581 13.237473 12.072266 13.228516 C 12.099153 13.194923 12.119141 13.198804 12.119141 13.15625 L 12.119141 13.0625 C 12.083303 12.937078 12.00956 12.753791 11.904297 12.373047 C 11.783356 11.934071 11.674091 11.360125 11.595703 10.804688 C 11.519553 10.247009 11.481478 9.7017123 11.595703 9.2089844 C 11.712166 8.7319343 11.974122 8.3197973 12.451172 8.140625 C 12.587791 8.0868726 12.774683 7.9735845 12.902344 7.9511719 A 1.29901 1.29901 0 0 1 13.091797 7.9375 z "
     transform="scale(0.26458334)" />
</svg>
