<?xml version="1.0" encoding="UTF-8" standalone="no"?>
<svg
   xmlns:dc="http://purl.org/dc/elements/1.1/"
   xmlns:cc="http://creativecommons.org/ns#"
   xmlns:rdf="http://www.w3.org/1999/02/22-rdf-syntax-ns#"
   xmlns:svg="http://www.w3.org/2000/svg"
   xmlns="http://www.w3.org/2000/svg"
   xmlns:sodipodi="http://sodipodi.sourceforge.net/DTD/sodipodi-0.dtd"
   xmlns:inkscape="http://www.inkscape.org/namespaces/inkscape"
   sodipodi:docname="terminal.svg"
   inkscape:version="1.0.1 (3bc2e813f5, 2020-09-07)"
   id="svg8"
   version="1.1"
   viewBox="0 0 25.399999 17.4625"
   height="66"
   width="96">
  <defs
     id="defs2" />
  <sodipodi:namedview
     inkscape:window-maximized="1"
     inkscape:window-y="27"
     inkscape:window-x="2004"
     inkscape:window-height="1016"
     inkscape:window-width="1836"
     units="px"
     showgrid="false"
     inkscape:document-rotation="0"
     inkscape:current-layer="g1810"
     inkscape:document-units="px"
     inkscape:cy="33.268588"
     inkscape:cx="39.082274"
     inkscape:zoom="5.6568544"
     inkscape:pageshadow="2"
     inkscape:pageopacity="0.0"
     borderopacity="1.0"
     bordercolor="#666666"
     pagecolor="#ffffff"
     id="base" />
  <metadata
     id="metadata5">
    <rdf:RDF>
      <cc:Work
         rdf:about="">
        <dc:format>image/svg+xml</dc:format>
        <dc:type
           rdf:resource="http://purl.org/dc/dcmitype/StillImage" />
        <dc:title />
      </cc:Work>
    </rdf:RDF>
  </metadata>
  <g
     inkscape:groupmode="layer"
     id="g1810"
     inkscape:label="Terminal"
     style="display:inline">
    <g
       id="terminal_box_e">
      <path
         id="path1784"
         style="display:inline;opacity:0.5;fill:#4d4d4d;stroke-width:0.264583;paint-order:stroke fill markers"
         d="M 25.40001,4.2333333 V 13.229167 H 24.473968 V 4.2333333 Z" />
      <path
         id="path1786"
         style="display:inline;opacity:0.9;fill:#000000;stroke-width:0.240865;paint-order:stroke fill markers"
         d="M 24.473968,4.2333333 V 13.229167 H 21.166674 V 4.2333333 Z" />
    </g>
    <g
       id="terminal_box_n"
       style="display:inline">
      <path
         id="path1790"
         style="opacity:0.5;fill:#4d4d4d;stroke-width:0.999999;paint-order:stroke fill markers"
         d="M 16,0 V 3.5 H 80 V 0 Z"
         transform="scale(0.26458333)" />
      <path
         id="path1792"
         style="opacity:0.9;fill:#000000;stroke-width:0.910356;paint-order:stroke fill markers"
         d="M 16,3.5 V 16 H 80 V 3.5 Z"
         transform="scale(0.26458333)" />
    </g>
    <path
       id="terminal_box_c"
       style="display:inline;opacity:0.9;fill:#000000;stroke-width:0.910356;paint-order:stroke fill markers"
       d="M 16,16 V 50 H 80 V 16 Z"
       transform="scale(0.26458333)" />
    <g
       id="terminal_box_w"
       style="display:inline">
      <path
         id="path1798"
         style="opacity:0.5;fill:#4d4d4d;stroke-width:0.999999;paint-order:stroke fill markers"
         d="M 0,16 V 50 H 3.5 V 16 Z"
         transform="scale(0.26458333)" />
      <path
         id="path1800"
         style="opacity:0.9;fill:#000000;stroke-width:0.910356;paint-order:stroke fill markers"
         d="M 3.5,16 V 50 H 16 V 16 Z"
         transform="scale(0.26458333)" />
    </g>
    <g
       id="terminal_box_s"
       style="display:inline">
      <path
         id="path1804"
         style="opacity:0.5;fill:#4d4d4d;stroke-width:0.264583;paint-order:stroke fill markers"
         d="M 4.2333333,17.462505 V 16.536463 H 21.166666 v 0.926042 z" />
      <path
         id="path1806"
         style="opacity:0.9;fill:#000000;stroke-width:0.240865;paint-order:stroke fill markers"
         d="M 4.2333333,16.536463 V 13.229169 H 21.166666 v 3.307294 z" />
    </g>
    <g
       id="terminal_box_sw"
       style="display:inline">
      <path
         id="path1845"
         style="opacity:0.5;fill:#4d4d4d;stroke-width:0.999999;paint-order:stroke fill markers"
         d="m 0,50 v 2.267578 C 0,59.874906 6.125096,66 13.732422,66 H 16 V 62.5 H 15.775391 C 8.9749009,62.5 3.5,57.025098 3.5,50.224609 V 50 Z"
         transform="scale(0.26458333)" />
      <path
         id="path1847"
         style="opacity:0.9;fill:#000000;stroke-width:0.910356;paint-order:stroke fill markers"
         d="m 3.5,50 v 0.224609 C 3.5,57.025098 8.9749013,62.5 15.775391,62.5 H 16 V 50 Z"
         transform="scale(0.26458333)" />
    </g>
    <g
       id="terminal_box_nw"
       transform="matrix(0.99999999,0,0,-0.99999999,0,17.4625)"
       style="display:inline">
      <path
         id="path1871"
         style="opacity:0.5;fill:#4d4d4d;stroke-width:0.999999;paint-order:stroke fill markers"
         d="m 0,50 v 2.267578 C 0,59.874906 6.125096,66 13.732422,66 H 16 V 62.5 H 15.775391 C 8.9749009,62.5 3.5,57.025098 3.5,50.224609 V 50 Z"
         transform="scale(0.26458333)" />
      <path
         id="path1873"
         style="opacity:0.9;fill:#000000;stroke-width:0.910356;paint-order:stroke fill markers"
         d="m 3.5,50 v 0.224609 C 3.5,57.025098 8.9749013,62.5 15.775391,62.5 H 16 V 50 Z"
         transform="scale(0.26458333)" />
    </g>
    <g
       id="terminal_box_se"
       transform="matrix(-0.99999999,0,0,0.99999999,25.4,-2.0000001e-7)"
       style="display:inline">
      <path
         id="path1877"
         style="opacity:0.5;fill:#4d4d4d;stroke-width:0.999999;paint-order:stroke fill markers"
         d="m 0,50 v 2.267578 C 0,59.874906 6.125096,66 13.732422,66 H 16 V 62.5 H 15.775391 C 8.9749009,62.5 3.5,57.025098 3.5,50.224609 V 50 Z"
         transform="scale(0.26458333)" />
      <path
         id="path1879"
         style="opacity:0.9;fill:#000000;stroke-width:0.910356;paint-order:stroke fill markers"
         d="m 3.5,50 v 0.224609 C 3.5,57.025098 8.9749013,62.5 15.775391,62.5 H 16 V 50 Z"
         transform="scale(0.26458333)" />
    </g>
    <g
       id="terminal_box_ne"
       transform="rotate(180,12.7,8.73125)"
       style="display:inline">
      <path
         id="path1883"
         style="opacity:0.5;fill:#4d4d4d;stroke-width:0.999999;paint-order:stroke fill markers"
         d="m 0,50 v 2.267578 C 0,59.874906 6.125096,66 13.732422,66 H 16 V 62.5 H 15.775391 C 8.9749009,62.5 3.5,57.025098 3.5,50.224609 V 50 Z"
         transform="scale(0.26458333)" />
      <path
         id="path1885"
         style="opacity:0.9;fill:#000000;stroke-width:0.910356;paint-order:stroke fill markers"
         d="m 3.5,50 v 0.224609 C 3.5,57.025098 8.9749013,62.5 15.775391,62.5 H 16 V 50 Z"
         transform="scale(0.26458333)" />
    </g>
  </g>
</svg>
