<?xml version="1.0" encoding="UTF-8" standalone="no"?>
<svg
   width="32"
   height="32"
   version="1.1"
   viewBox="0 0 8.4666667 8.4666671"
   id="svg371"
   sodipodi:docname="4MLinux.svg"
   xmlns:inkscape="http://www.inkscape.org/namespaces/inkscape"
   xmlns:sodipodi="http://sodipodi.sourceforge.net/DTD/sodipodi-0.dtd"
   xmlns="http://www.w3.org/2000/svg"
   xmlns:svg="http://www.w3.org/2000/svg">
  <sodipodi:namedview
     inkscape:snap-bbox-edge-midpoints="true"
     inkscape:bbox-nodes="true"
     inkscape:snap-bbox="true"
     pagecolor="#ffffff"
     bordercolor="#666666"
     borderopacity="1"
     objecttolerance="10"
     gridtolerance="10"
     guidetolerance="10"
     inkscape:pageopacity="0"
     inkscape:pageshadow="2"
     inkscape:window-width="1920"
     inkscape:window-height="1016"
     id="namedview373"
     showgrid="false"
     inkscape:zoom="16"
     inkscape:cx="17.110391"
     inkscape:cy="19.918025"
     inkscape:window-x="1920"
     inkscape:window-y="27"
     inkscape:window-maximized="1"
     inkscape:current-layer="svg371"
     inkscape:document-rotation="0"
     inkscape:showpageshadow="2"
     inkscape:pagecheckerboard="0"
     inkscape:deskcolor="#d1d1d1">
    <inkscape:grid
       id="grid1162"
       type="xygrid"
       originx="0"
       originy="0"
       spacingy="1"
       spacingx="1"
       units="px"
       visible="false" />
  </sodipodi:namedview>
  <defs
     id="defs37">
    <style
       id="current-color-scheme"
       type="text/css">.ColorScheme-Text { color:#565656; } .ColorScheme-Highlight { color:#5294e2; }</style>
    <style
       type="text/css"
       id="style13">.ColorScheme-Text { color:#565656; } .ColorScheme-Highlight { color:#5294e2; }</style>
    <style
       type="text/css"
       id="style15">.ColorScheme-Text { color:#565656; } .ColorScheme-Highlight { color:#5294e2; }</style>
    <style
       type="text/css"
       id="style17">.ColorScheme-Text { color:#565656; } .ColorScheme-Highlight { color:#5294e2; }</style>
    <style
       type="text/css"
       id="style19">.ColorScheme-Text { color:#565656; } .ColorScheme-Highlight { color:#5294e2; }</style>
    <style
       type="text/css"
       id="style21">.ColorScheme-Text { color:#565656; } .ColorScheme-Highlight { color:#5294e2; }</style>
    <style
       type="text/css"
       id="style23">.ColorScheme-Text { color:#565656; } .ColorScheme-Highlight { color:#5294e2; }</style>
    <style
       type="text/css"
       id="style25">.ColorScheme-Text { color:#565656; } .ColorScheme-Highlight { color:#5294e2; }</style>
    <style
       type="text/css"
       id="style27">.ColorScheme-Text { color:#565656; } .ColorScheme-Highlight { color:#5294e2; }</style>
    <style
       type="text/css"
       id="style29" />
    <style
       type="text/css"
       id="style31" />
    <style
       type="text/css"
       id="style33">.ColorScheme-Text { color:#565656; } .ColorScheme-Highlight { color:#5294e2; }</style>
    <style
       type="text/css"
       id="style35">.ColorScheme-Text { color:#565656; } .ColorScheme-Highlight { color:#5294e2; }</style>
  </defs>
  <g
     id="g862">
    <circle
       id="circle1162"
       paint-order="stroke markers fill"
       fill="#555753"
       r="4.2333336"
       cy="4.2333331"
       cx="4.2333336"
       style="fill:#55d4ff;fill-opacity:1;stroke-width:1.00008" />
    <g
       id="g856">
      <circle
         style="fill:#ffffff;fill-opacity:1;stroke:none;stroke-width:1.7415;stroke-linecap:round;paint-order:stroke markers fill"
         id="path846"
         cx="4.2333336"
         cy="4.2333336"
         r="3.1750002" />
      <path
         id="path1164-3"
         style="line-height:1.25;-inkscape-font-specification:Ubuntu;fill:#2bcaff;fill-opacity:1;stroke:#2bcaff;stroke-width:0.13229167;stroke-miterlimit:4;stroke-dasharray:none;stroke-opacity:1"
         word-spacing="0"
         letter-spacing="0"
         font-weight="400"
         font-family="Ubuntu"
         d="M 1.7197917,4.6361262 Q 1.7919904,4.4696889 1.9166288,4.250812 2.0412657,4.0273772 2.1963041,3.7933017 2.35514,3.5584651 2.5329775,3.3319885 2.7146139,3.1047545 2.8954914,2.9231167 H 3.232165 V 4.5874876 H 3.5422394 V 4.8747621 H 3.232165 v 0.668788 H 2.8916916 V 4.8747621 H 1.7197917 Z M 2.8916916,3.3395885 Q 2.7784534,3.4604271 2.6614146,3.6116639 2.5474172,3.7591019 2.4379784,3.9217382 2.3285408,4.0843766 2.2305031,4.2546125 2.1355036,4.4248497 2.060265,4.5874876 H 2.8916916 Z M 5.2043308,5.181037 Q 5.1663302,5.0898377 5.1017321,4.9500009 L 4.9694949,4.6475266 Q 4.8980564,4.4848889 4.8144571,4.3146526 4.7354184,4.1406148 4.6632203,3.9893782 4.5917819,3.8343401 4.527182,3.7135034 4.4663829,3.5926646 4.428384,3.5280653 4.3873454,3.9749381 4.3607455,4.4962887 4.3341457,5.0146001 4.3151462,5.5435501 H 3.9564315 q 0.0152,-0.3397135 0.0342,-0.6839887 Q 4.0088709,4.5114879 4.03167,4.1786142 4.0582692,3.84194 4.0848684,3.5250257 4.1152668,3.2073515 4.1494663,2.9231167 H 4.4701816 Q 4.5727799,3.0903144 4.6898186,3.3167896 4.8068558,3.5432652 4.924654,3.7933017 5.0416915,4.0387766 5.1511291,4.2888128 L 5.3517677,4.7387244 5.5516445,4.2888128 Q 5.6618424,4.0387766 5.77888,3.7933017 5.8959194,3.5432652 6.0129567,3.3167896 6.130755,3.0895545 6.2325936,2.9231167 H 6.5540673 Q 6.6832642,4.1900138 6.7471041,5.5435501 H 6.3876297 Q 6.3686322,5.0146001 6.3420276,4.4962887 6.3154296,3.9749381 6.2736256,3.5280653 6.2363892,3.5926663 6.1717873,3.7135034 6.1109858,3.8350999 6.039551,3.9893782 5.9681096,4.1413747 5.8845122,4.3146526 5.8054748,4.4848889 5.7332763,4.6475266 5.6618347,4.8101627 5.5972381,4.9500009 5.5364361,5.0898377 5.4984399,5.181037 Z"
         fill="#ffffff" />
    </g>
  </g>
</svg>
