<?xml version="1.0" encoding="UTF-8" standalone="no"?>
<svg
   xmlns:dc="http://purl.org/dc/elements/1.1/"
   xmlns:cc="http://creativecommons.org/ns#"
   xmlns:rdf="http://www.w3.org/1999/02/22-rdf-syntax-ns#"
   xmlns:svg="http://www.w3.org/2000/svg"
   xmlns="http://www.w3.org/2000/svg"
   xmlns:sodipodi="http://sodipodi.sourceforge.net/DTD/sodipodi-0.dtd"
   xmlns:inkscape="http://www.inkscape.org/namespaces/inkscape"
   width="32"
   height="32"
   version="1.1"
   viewBox="0 0 8.4666667 8.4666671"
   id="svg371"
   sodipodi:docname="4MLinux.svg"
   inkscape:version="1.0.1 (3bc2e813f5, 2020-09-07)">
  <metadata
     id="metadata375">
    <rdf:RDF>
      <cc:Work
         rdf:about="">
        <dc:format>image/svg+xml</dc:format>
        <dc:type
           rdf:resource="http://purl.org/dc/dcmitype/StillImage" />
        <dc:title />
      </cc:Work>
    </rdf:RDF>
  </metadata>
  <sodipodi:namedview
     inkscape:snap-bbox-edge-midpoints="true"
     inkscape:bbox-nodes="true"
     inkscape:snap-bbox="true"
     pagecolor="#ffffff"
     bordercolor="#666666"
     borderopacity="1"
     objecttolerance="10"
     gridtolerance="10"
     guidetolerance="10"
     inkscape:pageopacity="0"
     inkscape:pageshadow="2"
     inkscape:window-width="1836"
     inkscape:window-height="1016"
     id="namedview373"
     showgrid="false"
     inkscape:zoom="4"
     inkscape:cx="107.16678"
     inkscape:cy="265.86868"
     inkscape:window-x="2004"
     inkscape:window-y="27"
     inkscape:window-maximized="1"
     inkscape:current-layer="svg371"
     inkscape:document-rotation="0">
    <inkscape:grid
       id="grid1162"
       type="xygrid" />
  </sodipodi:namedview>
  <defs
     id="defs37">
    <style
       id="current-color-scheme"
       type="text/css">.ColorScheme-Text { color:#565656; } .ColorScheme-Highlight { color:#5294e2; }</style>
    <style
       type="text/css"
       id="style13">.ColorScheme-Text { color:#565656; } .ColorScheme-Highlight { color:#5294e2; }</style>
    <style
       type="text/css"
       id="style15">.ColorScheme-Text { color:#565656; } .ColorScheme-Highlight { color:#5294e2; }</style>
    <style
       type="text/css"
       id="style17">.ColorScheme-Text { color:#565656; } .ColorScheme-Highlight { color:#5294e2; }</style>
    <style
       type="text/css"
       id="style19">.ColorScheme-Text { color:#565656; } .ColorScheme-Highlight { color:#5294e2; }</style>
    <style
       type="text/css"
       id="style21">.ColorScheme-Text { color:#565656; } .ColorScheme-Highlight { color:#5294e2; }</style>
    <style
       type="text/css"
       id="style23">.ColorScheme-Text { color:#565656; } .ColorScheme-Highlight { color:#5294e2; }</style>
    <style
       type="text/css"
       id="style25">.ColorScheme-Text { color:#565656; } .ColorScheme-Highlight { color:#5294e2; }</style>
    <style
       type="text/css"
       id="style27">.ColorScheme-Text { color:#565656; } .ColorScheme-Highlight { color:#5294e2; }</style>
    <style
       type="text/css"
       id="style29" />
    <style
       type="text/css"
       id="style31" />
    <style
       type="text/css"
       id="style33">.ColorScheme-Text { color:#565656; } .ColorScheme-Highlight { color:#5294e2; }</style>
    <style
       type="text/css"
       id="style35">.ColorScheme-Text { color:#565656; } .ColorScheme-Highlight { color:#5294e2; }</style>
  </defs>
  <g
     id="4MLinux"
     transform="translate(-4.2333336,-57.150002)">
    <circle
       id="circle1162"
       paint-order="stroke markers fill"
       fill="#555753"
       r="4.2333336"
       cy="61.383335"
       cx="8.4666672"
       style="fill:#00bcfb;fill-opacity:1;stroke-width:1.00008" />
    <path
       id="path1164-3"
       style="line-height:1.25;-inkscape-font-specification:Ubuntu;stroke-width:1.00008"
       word-spacing="0"
       letter-spacing="0"
       font-weight="400"
       font-family="Ubuntu"
       d="m 5.1594066,61.913374 q 0.095008,-0.219017 0.2590204,-0.50704 0.164013,-0.294023 0.368029,-0.602047 0.2090165,-0.309024 0.4430349,-0.607048 0.2390189,-0.299023 0.4770376,-0.538042 h 0.4430349 v 2.190172 h 0.4080322 v 0.37803 H 7.1495634 v 0.880069 H 6.7015281 V 62.227399 H 5.1594066 Z M 6.7015281,60.20724 Q 6.5525164,60.366252 6.3985043,60.565268 6.2484924,60.759283 6.1044811,60.9733 5.9604697,61.187317 5.8314596,61.411335 5.7064497,61.635352 5.6074419,61.849369 h 1.0940862 z m 3.0432398,2.423191 Q 9.694764,62.510421 9.6097573,62.326407 L 9.4357436,61.928376 Q 9.3417362,61.714359 9.2317275,61.490341 9.1277193,61.261323 9.0327118,61.062307 8.9387044,60.858291 8.8536977,60.699279 q -0.080006,-0.159013 -0.1300102,-0.24402 -0.054004,0.588047 -0.089007,1.274101 -0.035003,0.682054 -0.060005,1.378108 h -0.472037 q 0.020002,-0.447035 0.045004,-0.900071 0.024002,-0.458036 0.054004,-0.89607 0.035003,-0.443035 0.070006,-0.860068 0.040003,-0.418033 0.085007,-0.792062 h 0.4220333 q 0.1350106,0.220017 0.2890228,0.518041 0.1540121,0.298023 0.3090243,0.627049 0.1540122,0.323025 0.2980235,0.652051 l 0.2640208,0.592047 0.2630208,-0.592047 q 0.145011,-0.329026 0.299023,-0.652051 0.154013,-0.329026 0.308025,-0.627049 0.155012,-0.299024 0.289023,-0.518041 h 0.423033 q 0.170013,1.667131 0.25402,3.448271 h -0.473037 q -0.025,-0.696054 -0.06001,-1.378108 -0.035,-0.686054 -0.09001,-1.274101 -0.049,0.08501 -0.134011,0.24402 -0.08001,0.160012 -0.174013,0.363028 -0.09401,0.200016 -0.204017,0.428034 -0.104008,0.224018 -0.199015,0.438035 -0.09401,0.214016 -0.179014,0.398031 -0.08001,0.184014 -0.130011,0.304024 z"
       fill="#ffffff" />
  </g>
</svg>
