<?xml version="1.0" encoding="UTF-8" standalone="no"?>
<svg
   xmlns:dc="http://purl.org/dc/elements/1.1/"
   xmlns:cc="http://creativecommons.org/ns#"
   xmlns:rdf="http://www.w3.org/1999/02/22-rdf-syntax-ns#"
   xmlns:svg="http://www.w3.org/2000/svg"
   xmlns="http://www.w3.org/2000/svg"
   xmlns:sodipodi="http://sodipodi.sourceforge.net/DTD/sodipodi-0.dtd"
   xmlns:inkscape="http://www.inkscape.org/namespaces/inkscape"
   width="32"
   height="32"
   version="1.1"
   viewBox="0 0 8.4666667 8.4666671"
   id="svg371"
   sodipodi:docname="AlpineLinux.svg"
   inkscape:version="1.0.1 (3bc2e813f5, 2020-09-07)">
  <metadata
     id="metadata375">
    <rdf:RDF>
      <cc:Work
         rdf:about="">
        <dc:format>image/svg+xml</dc:format>
        <dc:type
           rdf:resource="http://purl.org/dc/dcmitype/StillImage" />
        <dc:title />
      </cc:Work>
    </rdf:RDF>
  </metadata>
  <sodipodi:namedview
     inkscape:snap-bbox-edge-midpoints="true"
     inkscape:bbox-nodes="true"
     inkscape:snap-bbox="true"
     pagecolor="#ffffff"
     bordercolor="#666666"
     borderopacity="1"
     objecttolerance="10"
     gridtolerance="10"
     guidetolerance="10"
     inkscape:pageopacity="0"
     inkscape:pageshadow="2"
     inkscape:window-width="1836"
     inkscape:window-height="1016"
     id="namedview373"
     showgrid="false"
     inkscape:zoom="4"
     inkscape:cx="107.16678"
     inkscape:cy="265.86868"
     inkscape:window-x="2004"
     inkscape:window-y="27"
     inkscape:window-maximized="1"
     inkscape:current-layer="svg371"
     inkscape:document-rotation="0">
    <inkscape:grid
       id="grid1162"
       type="xygrid" />
  </sodipodi:namedview>
  <defs
     id="defs37">
    <style
       id="current-color-scheme"
       type="text/css">.ColorScheme-Text { color:#565656; } .ColorScheme-Highlight { color:#5294e2; }</style>
    <style
       type="text/css"
       id="style13">.ColorScheme-Text { color:#565656; } .ColorScheme-Highlight { color:#5294e2; }</style>
    <style
       type="text/css"
       id="style15">.ColorScheme-Text { color:#565656; } .ColorScheme-Highlight { color:#5294e2; }</style>
    <style
       type="text/css"
       id="style17">.ColorScheme-Text { color:#565656; } .ColorScheme-Highlight { color:#5294e2; }</style>
    <style
       type="text/css"
       id="style19">.ColorScheme-Text { color:#565656; } .ColorScheme-Highlight { color:#5294e2; }</style>
    <style
       type="text/css"
       id="style21">.ColorScheme-Text { color:#565656; } .ColorScheme-Highlight { color:#5294e2; }</style>
    <style
       type="text/css"
       id="style23">.ColorScheme-Text { color:#565656; } .ColorScheme-Highlight { color:#5294e2; }</style>
    <style
       type="text/css"
       id="style25">.ColorScheme-Text { color:#565656; } .ColorScheme-Highlight { color:#5294e2; }</style>
    <style
       type="text/css"
       id="style27">.ColorScheme-Text { color:#565656; } .ColorScheme-Highlight { color:#5294e2; }</style>
    <style
       type="text/css"
       id="style29" />
    <style
       type="text/css"
       id="style31" />
    <style
       type="text/css"
       id="style33">.ColorScheme-Text { color:#565656; } .ColorScheme-Highlight { color:#5294e2; }</style>
    <style
       type="text/css"
       id="style35">.ColorScheme-Text { color:#565656; } .ColorScheme-Highlight { color:#5294e2; }</style>
  </defs>
  <g
     id="AlpineLinux"
     transform="matrix(1.0000788,0,0,1.0000788,-55.491374,-232.30931)"
     paint-order="stroke markers fill">
    <circle
       id="circle1179"
       fill="#0d597f"
       r="4.2329998"
       cy="236.524"
       cx="59.720001" />
    <path
       id="path1181"
       d="m 58.899,234.947 -2.883,2.85 c 0.084,0.059 0.164,0.107 0.238,0.146 0.075,0.039 0.145,0.069 0.21,0.092 a 1.133,1.133 0 0 0 0.332,0.061 0.606,0.606 0 0 0 0.306,-0.076 c 0.014,-0.01 0.021,-0.016 0.023,-0.016 l 1.301,-1.302 0.465,-0.446 1.289,1.288 0.45,0.463 0.023,0.017 a 0.55,0.55 0 0 0 0.162,0.062 0.74,0.74 0 0 0 0.296,0 1.08,1.08 0 0 0 0.18,-0.048 1.57,1.57 0 0 0 0.21,-0.092 c 0.075,-0.04 0.154,-0.087 0.239,-0.146 l -1.022,-1 -0.67,-0.67 v 0.001 l -0.007,-0.008 z m 2,0.332 -0.803,0.804 0.66,0.654 0.142,-0.142 0.895,0.896 0.522,0.516 a 0.386,0.386 0 0 0 0.084,0.048 c 0.027,0.012 0.06,0.023 0.101,0.031 a 0.74,0.74 0 0 0 0.295,0 c 0.056,-0.009 0.116,-0.025 0.181,-0.047 0.065,-0.023 0.135,-0.053 0.21,-0.092 0.074,-0.04 0.154,-0.087 0.238,-0.146 l -0.585,-0.574 z m -2.529,1.746 -0.771,0.773 c 0.083,0.058 0.162,0.105 0.235,0.144 0.074,0.038 0.142,0.068 0.207,0.091 a 1.158,1.158 0 0 0 0.33,0.064 z"
       fill="#ffffff" />
  </g>
</svg>
