<?xml version="1.0" encoding="UTF-8" standalone="no"?>
<svg
   xmlns:dc="http://purl.org/dc/elements/1.1/"
   xmlns:cc="http://creativecommons.org/ns#"
   xmlns:rdf="http://www.w3.org/1999/02/22-rdf-syntax-ns#"
   xmlns:svg="http://www.w3.org/2000/svg"
   xmlns="http://www.w3.org/2000/svg"
   xmlns:sodipodi="http://sodipodi.sourceforge.net/DTD/sodipodi-0.dtd"
   xmlns:inkscape="http://www.inkscape.org/namespaces/inkscape"
   width="32"
   height="32"
   version="1.1"
   viewBox="0 0 8.4666667 8.4666671"
   id="svg371"
   sodipodi:docname="android.svg"
   inkscape:version="1.0.2 (e86c870879, 2021-01-15)">
  <metadata
     id="metadata375">
    <rdf:RDF>
      <cc:Work
         rdf:about="">
        <dc:format>image/svg+xml</dc:format>
        <dc:type
           rdf:resource="http://purl.org/dc/dcmitype/StillImage" />
        <dc:title />
      </cc:Work>
    </rdf:RDF>
  </metadata>
  <sodipodi:namedview
     inkscape:snap-bbox-edge-midpoints="true"
     inkscape:bbox-nodes="true"
     inkscape:snap-bbox="true"
     pagecolor="#ffffff"
     bordercolor="#666666"
     borderopacity="1"
     objecttolerance="10"
     gridtolerance="10"
     guidetolerance="10"
     inkscape:pageopacity="0"
     inkscape:pageshadow="2"
     inkscape:window-width="1836"
     inkscape:window-height="1016"
     id="namedview373"
     showgrid="false"
     inkscape:zoom="22.627417"
     inkscape:cx="19.624581"
     inkscape:cy="13.168191"
     inkscape:window-x="0"
     inkscape:window-y="0"
     inkscape:window-maximized="1"
     inkscape:current-layer="svg371"
     inkscape:document-rotation="0">
    <inkscape:grid
       id="grid1162"
       type="xygrid" />
  </sodipodi:namedview>
  <defs
     id="defs37">
    <style
       id="current-color-scheme"
       type="text/css">.ColorScheme-Text { color:#565656; } .ColorScheme-Highlight { color:#5294e2; }</style>
    <style
       type="text/css"
       id="style13">.ColorScheme-Text { color:#565656; } .ColorScheme-Highlight { color:#5294e2; }</style>
    <style
       type="text/css"
       id="style15">.ColorScheme-Text { color:#565656; } .ColorScheme-Highlight { color:#5294e2; }</style>
    <style
       type="text/css"
       id="style17">.ColorScheme-Text { color:#565656; } .ColorScheme-Highlight { color:#5294e2; }</style>
    <style
       type="text/css"
       id="style19">.ColorScheme-Text { color:#565656; } .ColorScheme-Highlight { color:#5294e2; }</style>
    <style
       type="text/css"
       id="style21">.ColorScheme-Text { color:#565656; } .ColorScheme-Highlight { color:#5294e2; }</style>
    <style
       type="text/css"
       id="style23">.ColorScheme-Text { color:#565656; } .ColorScheme-Highlight { color:#5294e2; }</style>
    <style
       type="text/css"
       id="style25">.ColorScheme-Text { color:#565656; } .ColorScheme-Highlight { color:#5294e2; }</style>
    <style
       type="text/css"
       id="style27">.ColorScheme-Text { color:#565656; } .ColorScheme-Highlight { color:#5294e2; }</style>
    <style
       type="text/css"
       id="style29" />
    <style
       type="text/css"
       id="style31" />
    <style
       type="text/css"
       id="style33">.ColorScheme-Text { color:#565656; } .ColorScheme-Highlight { color:#5294e2; }</style>
    <style
       type="text/css"
       id="style35">.ColorScheme-Text { color:#565656; } .ColorScheme-Highlight { color:#5294e2; }</style>
  </defs>
  <g
     id="g977">
    <g
       id="layer3"
       inkscape:label="Back"
       style="display:inline"
       transform="scale(0.26458334)">
      <circle
         style="fill:#a4c639;fill-opacity:1"
         id="path79"
         cx="16"
         cy="16"
         r="16" />
    </g>
    <g
       id="g965">
      <path
         id="rect8719-3-2-7-4-3"
         style="fill:#ffffff;stroke:none;stroke-width:0.0291042;stroke-miterlimit:4;stroke-dasharray:none;image-rendering:auto"
         d="m 2.3595465,2.8142973 c -0.00132,0.015637 -0.00265,0.031533 -0.00265,0.047543 v 2.6835551 c 0,0.2886101 0.2280073,0.5208984 0.5115983,0.5208984 h 1.3648347 1.3647738 c 0.283591,0 0.5115983,-0.2322856 0.5115983,-0.5208984 V 2.8618403 c 0,-0.016007 -0.00106,-0.031914 -0.00265,-0.047543 H 4.2333337 Z" />
      <g
         id="g1287"
         transform="translate(-35.983334,-57.150003)">
        <path
           id="c-4-14-6-4-9"
           style="fill:#ffffff;stroke:none;stroke-width:0.0291042;stroke-miterlimit:4;stroke-dasharray:none;image-rendering:auto"
           d="m 39.285298,62.093964 c 0.228732,0 0.412874,0.184144 0.412874,0.412879 v 1.771167 c 0,0.228735 -0.184142,0.41288 -0.412874,0.41288 -0.228733,0 -0.412875,-0.184145 -0.412875,-0.41288 v -1.771167 c 0,-0.228735 0.184142,-0.412879 0.412875,-0.412879 z" />
        <path
           id="c-4-9-2-9-2-9"
           style="fill:#ffffff;stroke:none;stroke-width:0.0291042;stroke-miterlimit:4;stroke-dasharray:none;image-rendering:auto"
           d="m 37.676772,60.203353 c 0.228732,0 0.412874,0.184144 0.412874,0.412883 v 1.771166 c 0,0.228735 -0.184142,0.41288 -0.412874,0.41288 -0.228733,0 -0.412875,-0.184145 -0.412875,-0.41288 v -1.771166 c 0,-0.228739 0.184142,-0.412883 0.412875,-0.412883 z" />
        <path
           id="path1226"
           style="fill:#ffffff;stroke:none;stroke-width:0.0291042;stroke-miterlimit:4;stroke-dasharray:none;image-rendering:auto"
           d="m 41.148038,62.093964 c -0.228732,0 -0.412874,0.184144 -0.412874,0.412879 v 1.771167 c 0,0.228735 0.184142,0.41288 0.412874,0.41288 0.228733,0 0.412875,-0.184145 0.412875,-0.41288 v -1.771167 c 0,-0.228735 -0.184142,-0.412879 -0.412875,-0.412879 z" />
        <path
           id="path1230"
           style="fill:#ffffff;stroke:none;stroke-width:0.0291042;stroke-miterlimit:4;stroke-dasharray:none;image-rendering:auto"
           d="m 42.756564,60.203353 c -0.228732,0 -0.412874,0.184144 -0.412874,0.412883 v 1.771166 c 0,0.228735 0.184142,0.41288 0.412874,0.41288 0.228733,0 0.412875,-0.184145 0.412875,-0.41288 v -1.771166 c 0,-0.228739 -0.184142,-0.412883 -0.412875,-0.412883 z" />
      </g>
      <path
         id="path923"
         style="opacity:1;fill:#ffffff;stroke-width:2.65874;stroke-linecap:round;stroke-linejoin:round;paint-order:markers fill stroke"
         d="M 9.5253906 3.4746094 C 9.4858852 3.4640239 9.4426791 3.4700275 9.4042969 3.4921875 C 9.3275324 3.5365075 9.3013831 3.634173 9.3457031 3.7109375 L 10.654297 5.9765625 A 7.0918894 7.0918894 0 0 0 8.9394531 9.9667969 L 23.060547 9.9667969 A 7.0918894 7.0918894 0 0 0 21.345703 5.9765625 L 22.654297 3.7109375 C 22.698617 3.634173 22.672468 3.5365075 22.595703 3.4921875 C 22.518939 3.4478675 22.421273 3.4740168 22.376953 3.5507812 L 21.119141 5.7285156 A 7.0918894 7.0918894 0 0 0 16 3.5449219 A 7.0918894 7.0918894 0 0 0 10.880859 5.7285156 L 9.6230469 3.5507812 C 9.6008869 3.512399 9.5648961 3.4851948 9.5253906 3.4746094 z M 13.140625 6.4394531 A 0.81499999 0.81499999 0 0 1 13.955078 7.2558594 A 0.81499999 0.81499999 0 0 1 13.140625 8.0703125 A 0.81499999 0.81499999 0 0 1 12.324219 7.2558594 A 0.81499999 0.81499999 0 0 1 13.140625 6.4394531 z M 18.859375 6.4394531 A 0.81499999 0.81499999 0 0 1 19.675781 7.2558594 A 0.81499999 0.81499999 0 0 1 18.859375 8.0703125 A 0.81499999 0.81499999 0 0 1 18.044922 7.2558594 A 0.81499999 0.81499999 0 0 1 18.859375 6.4394531 z "
         transform="scale(0.26458334)" />
    </g>
  </g>
</svg>
