<?xml version="1.0" encoding="UTF-8" standalone="no"?>
<svg
   xmlns:dc="http://purl.org/dc/elements/1.1/"
   xmlns:cc="http://creativecommons.org/ns#"
   xmlns:rdf="http://www.w3.org/1999/02/22-rdf-syntax-ns#"
   xmlns:svg="http://www.w3.org/2000/svg"
   xmlns="http://www.w3.org/2000/svg"
   xmlns:sodipodi="http://sodipodi.sourceforge.net/DTD/sodipodi-0.dtd"
   xmlns:inkscape="http://www.inkscape.org/namespaces/inkscape"
   width="32.000004"
   height="32.000057"
   version="1.1"
   viewBox="0 0 8.4666677 8.4666823"
   id="svg371"
   sodipodi:docname="anonymous.svg"
   inkscape:version="1.0.1 (3bc2e813f5, 2020-09-07)">
  <metadata
     id="metadata375">
    <rdf:RDF>
      <cc:Work
         rdf:about="">
        <dc:format>image/svg+xml</dc:format>
        <dc:type
           rdf:resource="http://purl.org/dc/dcmitype/StillImage" />
        <dc:title />
      </cc:Work>
    </rdf:RDF>
  </metadata>
  <sodipodi:namedview
     inkscape:snap-bbox-edge-midpoints="true"
     inkscape:bbox-nodes="true"
     inkscape:snap-bbox="true"
     pagecolor="#ffffff"
     bordercolor="#666666"
     borderopacity="1"
     objecttolerance="10"
     gridtolerance="10"
     guidetolerance="10"
     inkscape:pageopacity="0"
     inkscape:pageshadow="2"
     inkscape:window-width="1836"
     inkscape:window-height="1016"
     id="namedview373"
     showgrid="false"
     inkscape:zoom="4"
     inkscape:cx="107.16678"
     inkscape:cy="265.86868"
     inkscape:window-x="2004"
     inkscape:window-y="27"
     inkscape:window-maximized="1"
     inkscape:current-layer="svg371"
     inkscape:document-rotation="0">
    <inkscape:grid
       id="grid1162"
       type="xygrid" />
  </sodipodi:namedview>
  <defs
     id="defs37">
    <style
       id="current-color-scheme"
       type="text/css">.ColorScheme-Text { color:#565656; } .ColorScheme-Highlight { color:#5294e2; }</style>
    <style
       type="text/css"
       id="style13">.ColorScheme-Text { color:#565656; } .ColorScheme-Highlight { color:#5294e2; }</style>
    <style
       type="text/css"
       id="style15">.ColorScheme-Text { color:#565656; } .ColorScheme-Highlight { color:#5294e2; }</style>
    <style
       type="text/css"
       id="style17">.ColorScheme-Text { color:#565656; } .ColorScheme-Highlight { color:#5294e2; }</style>
    <style
       type="text/css"
       id="style19">.ColorScheme-Text { color:#565656; } .ColorScheme-Highlight { color:#5294e2; }</style>
    <style
       type="text/css"
       id="style21">.ColorScheme-Text { color:#565656; } .ColorScheme-Highlight { color:#5294e2; }</style>
    <style
       type="text/css"
       id="style23">.ColorScheme-Text { color:#565656; } .ColorScheme-Highlight { color:#5294e2; }</style>
    <style
       type="text/css"
       id="style25">.ColorScheme-Text { color:#565656; } .ColorScheme-Highlight { color:#5294e2; }</style>
    <style
       type="text/css"
       id="style27">.ColorScheme-Text { color:#565656; } .ColorScheme-Highlight { color:#5294e2; }</style>
    <style
       type="text/css"
       id="style29" />
    <style
       type="text/css"
       id="style31" />
    <style
       type="text/css"
       id="style33">.ColorScheme-Text { color:#565656; } .ColorScheme-Highlight { color:#5294e2; }</style>
    <style
       type="text/css"
       id="style35">.ColorScheme-Text { color:#565656; } .ColorScheme-Highlight { color:#5294e2; }</style>
  </defs>
  <g
     transform="translate(-59.918086,-77.159417)"
     id="anonymous">
    <path
       id="rect2984"
       style="fill:#282828;fill-opacity:1;fill-rule:nonzero;stroke:none;stroke-width:0.0165365"
       d="m 64.15142,77.159417 a 4.2333337,4.2333337 0 0 0 -4.233334,4.233334 4.2333337,4.2333337 0 0 0 4.233334,4.233333 4.2333337,4.2333337 0 0 0 4.233333,-4.233333 4.2333337,4.2333337 0 0 0 -4.233333,-4.233334 z" />
    <path
       style="fill:#ffffff;stroke-width:0.0165364"
       id="path8-6"
       d="m 64.430079,84.675749 c 0.0964,-0.03009 0.174494,-0.07274 0.262888,-0.143558 0.19815,-0.158765 0.335434,-0.34411 0.847964,-1.144798 0.385326,-0.601962 0.529927,-0.871016 0.637454,-1.186071 0.04951,-0.145066 0.106288,-0.394601 0.106293,-0.467143 0,-0.02908 -0.0031,-0.03526 -0.01641,-0.03272 -0.02379,0.0045 -0.07361,0.08369 -0.09159,0.145544 -0.01927,0.06629 -0.09062,0.245764 -0.160329,0.403283 -0.08965,0.202588 -0.246448,0.468034 -0.486152,0.823011 -0.457061,0.676867 -0.443501,0.658068 -0.468046,0.648656 -0.01298,-0.005 -0.01309,-0.0098 -9.93e-4,-0.04405 0.01673,-0.04742 0.09114,-0.174554 0.189237,-0.323324 0.0408,-0.06188 0.100895,-0.162805 0.13354,-0.224266 0.03264,-0.06147 0.0799,-0.143229 0.105006,-0.181698 0.03177,-0.04866 0.04565,-0.07955 0.04565,-0.101543 0,-0.01739 -0.0046,-0.03162 -0.01021,-0.03162 -0.0056,0 -0.03191,0.01899 -0.05844,0.04219 -0.0437,0.03823 -0.08216,0.05685 -0.0671,0.03248 0.0033,-0.0053 0.07377,-0.08656 0.156586,-0.180491 0.236612,-0.268332 0.313265,-0.380648 0.359732,-0.527065 0.02647,-0.0834 0.04184,-0.229713 0.02412,-0.229713 -0.02179,0 -0.09422,0.108425 -0.217082,0.324937 -0.06956,0.122581 -0.14165,0.242024 -0.16019,0.265416 -0.189039,0.238527 -0.541858,0.404409 -0.927531,0.4361 -0.03868,0.0032 -0.12696,0.01657 -0.196185,0.02974 -0.123523,0.02353 -0.12911,0.02376 -0.300035,0.01297 -0.200053,-0.01264 -0.295038,-0.02916 -0.32399,-0.05636 -0.01716,-0.01613 -0.03279,-0.01894 -0.105245,-0.01894 -0.103743,0 -0.201242,-0.01774 -0.34164,-0.06215 -0.243568,-0.07706 -0.443168,-0.179186 -0.593169,-0.303493 -0.115186,-0.09546 -0.156511,-0.154706 -0.290696,-0.416813 -0.0904,-0.176588 -0.139779,-0.258282 -0.156111,-0.258282 -0.02651,0 0.03712,0.20932 0.09911,0.326053 0.09719,0.182992 0.193455,0.302518 0.438128,0.54398 0.349182,0.344588 0.420774,0.395744 0.670224,0.478891 0.210367,0.07012 0.324965,0.08559 0.634136,0.0856 0.195418,0 0.195561,0 0.223682,0.02369 0.02269,0.01909 0.0343,0.02252 0.05995,0.0177 0.02059,-0.0039 0.03182,-0.0023 0.03182,0.0044 0,0.0057 -0.02593,0.0452 -0.05763,0.08778 -0.07984,0.107224 -0.09664,0.146922 -0.09623,0.227416 2.63e-4,0.05379 0.007,0.08255 0.03725,0.159393 0.03681,0.09349 0.03692,0.09413 0.03595,0.220337 -9.09e-4,0.118542 -0.0037,0.136993 -0.04387,0.290658 -0.0612,0.23412 -0.06859,0.328161 -0.02578,0.328161 0.0099,0 0.05312,-0.01093 0.09593,-0.02429 z M 63.9152,84.615659 c -0.0011,-0.03352 -0.01934,-0.130562 -0.0405,-0.215648 -0.0628,-0.252555 -0.07598,-0.359564 -0.05531,-0.449216 0.0052,-0.02275 0.03046,-0.08638 0.05603,-0.14141 0.04192,-0.0902 0.04645,-0.106437 0.0461,-0.164917 -4.44e-4,-0.07458 -0.0196,-0.134987 -0.06148,-0.193943 -0.0346,-0.0487 -0.06599,-0.06485 -0.18751,-0.09641 -0.05038,-0.01309 -0.140401,-0.04442 -0.20005,-0.06964 -0.05965,-0.0252 -0.13925,-0.05545 -0.176897,-0.06722 -0.08235,-0.02572 -0.102872,-0.01913 -0.09596,0.03081 0.0046,0.03356 0.0044,0.115625 -5.94e-4,0.237776 -0.0026,0.06406 0.0013,0.08865 0.02704,0.168395 0.03039,0.09418 0.03652,0.139872 0.02187,0.162975 -0.02174,0.03431 -0.07563,-0.04081 -0.136816,-0.190728 -0.04631,-0.113469 -0.188486,-0.388394 -0.295852,-0.572099 -0.08487,-0.145207 -0.237516,-0.38846 -0.444123,-0.707733 -0.116374,-0.179834 -0.185554,-0.310938 -0.245807,-0.46585 -0.07371,-0.18949 -0.14912,-0.312364 -0.191716,-0.312364 -0.03378,0 -0.03046,0.0392 0.01517,0.179065 0.152667,0.467921 0.381041,0.91997 0.847424,1.677396 0.184739,0.300025 0.245899,0.390484 0.321037,0.474813 0.03152,0.03537 0.122922,0.163462 0.203118,0.284647 0.119064,0.179918 0.16224,0.236858 0.235375,0.310405 0.04926,0.04953 0.109631,0.101636 0.13416,0.115785 0.06185,0.03566 0.16546,0.07126 0.199178,0.06843 l 0.02813,-0.0024 -0.002,-0.06095 z m 0.254405,-0.55062 c -8.27e-4,-0.04222 -0.01965,-0.07497 -0.03452,-0.06009 -0.0051,0.0051 -0.0061,0.0295 -0.0023,0.05716 0.0052,0.03791 0.01,0.04758 0.0221,0.04512 0.01154,-0.0023 0.01526,-0.01302 0.01469,-0.04218 z m 0.221048,-1.13004 c 0,-0.0064 -0.0084,-0.02438 -0.01855,-0.03985 -0.02516,-0.03827 -0.194108,-0.219897 -0.233767,-0.251308 -0.03069,-0.02431 -0.03307,-0.02473 -0.05626,-0.0101 -0.02805,0.0177 -0.02408,0.01327 -0.145108,0.16229 -0.06341,0.07808 -0.08972,0.117275 -0.08315,0.123849 0.0096,0.0096 0.231629,0.02267 0.431413,0.0254 0.07893,0.0011 0.105466,-0.0015 0.10542,-0.01029 z m 0.539549,-0.358024 c 0.268034,-0.06493 0.410742,-0.153216 0.563109,-0.348341 0.07136,-0.09139 0.14442,-0.20781 0.14442,-0.230135 0,-0.01764 -0.0095,-0.01934 -0.201537,-0.03643 -0.193359,-0.01721 -0.281331,-0.04656 -0.281331,-0.0939 0,-0.02267 0.0013,-0.02308 0.06563,-0.02022 0.0361,0.0016 0.116951,0.009 0.179675,0.01641 0.1512,0.01789 0.208621,0.01706 0.37719,-0.0054 0.151944,-0.02027 0.210331,-0.03839 0.285988,-0.08873 0.07158,-0.04764 0.230709,-0.192481 0.274436,-0.249806 0.04865,-0.06378 0.06161,-0.08996 0.08756,-0.176973 0.0188,-0.06303 0.02145,-0.09671 0.0256,-0.325011 l 0.0046,-0.254693 -0.05498,-0.0061 c -0.03023,-0.0034 -0.105079,-0.01427 -0.166318,-0.02425 -0.135322,-0.02204 -0.165869,-0.02238 -0.226194,-0.0025 -0.03956,0.01307 -0.117188,0.01661 -0.496931,0.02264 -0.247527,0.0039 -0.485914,0.01006 -0.529748,0.01363 -0.110582,0.009 -0.148795,-0.003 -0.217146,-0.06821 -0.03012,-0.02872 -0.05476,-0.05719 -0.05476,-0.06326 0,-0.0245 0.05812,-0.0957 0.100356,-0.122938 0.112652,-0.07267 0.275814,-0.165451 0.322191,-0.183238 0.12592,-0.04829 0.346977,-0.05992 0.505683,-0.02662 0.159803,0.03353 0.308226,0.118748 0.379727,0.218021 0.04607,0.06396 0.05446,0.06933 0.134902,0.08625 0.03539,0.0074 0.07858,0.02177 0.09599,0.03185 0.0377,0.02182 0.150968,0.05744 0.182651,0.05744 0.02226,0 0.02245,-8.43e-4 0.02245,-0.09881 0,-0.11239 -0.01418,-0.478356 -0.02851,-0.735664 -0.02914,-0.523344 -0.108454,-0.924085 -0.230608,-1.165144 -0.127063,-0.250744 -0.406229,-0.399261 -0.955084,-0.508097 -0.41199,-0.0817 -0.821332,-0.115693 -1.19545,-0.09928 -0.896087,0.03931 -1.476916,0.174498 -1.751962,0.407767 -0.14645,0.124213 -0.233539,0.309099 -0.304985,0.647481 -0.09329,0.441838 -0.126267,0.79568 -0.13414,1.439226 l -0.0054,0.445362 0.03035,0.08907 c 0.07456,0.218846 0.206759,0.443965 0.324931,0.553328 0.06509,0.06023 0.168627,0.11976 0.227844,0.130983 0.07285,0.01382 0.294528,0.01132 0.446093,-0.005 0.0722,-0.0078 0.174512,-0.01675 0.227369,-0.01991 0.09348,-0.0056 0.0961,-0.0052 0.0961,0.01414 0,0.02871 -0.03056,0.04403 -0.131264,0.06581 -0.204437,0.04422 -0.248424,0.05018 -0.362979,0.04922 -0.137436,-0.0012 -0.140733,0.0016 -0.0961,0.08096 0.07689,0.136666 0.176105,0.25006 0.28131,0.321505 0.120409,0.08176 0.406767,0.204098 0.526597,0.224969 0.07913,0.01378 0.142443,-0.0028 0.206066,-0.05397 0.06406,-0.05153 0.08647,-0.08394 0.08537,-0.123482 -7.77e-4,-0.02793 -0.0091,-0.04118 -0.04827,-0.07726 -0.02603,-0.02395 -0.04982,-0.05348 -0.05286,-0.06563 -0.003,-0.01215 9.59e-4,-0.06217 0.0089,-0.111163 0.02465,-0.151947 0.01376,-0.257221 -0.02598,-0.25125 -0.01019,0.0015 -0.02317,0.01122 -0.02886,0.02154 -0.0057,0.01031 -0.0239,0.03811 -0.04049,0.06177 -0.0472,0.06733 -0.06829,0.125189 -0.06829,0.187295 0,0.05134 -0.0017,0.05573 -0.02372,0.06125 -0.01727,0.0043 -0.0339,-0.0011 -0.0612,-0.02003 -0.07543,-0.05227 -0.121414,-0.144297 -0.121304,-0.242765 1.62e-4,-0.105106 0.04027,-0.165543 0.149941,-0.225653 0.07878,-0.04319 0.132799,-0.09986 0.154697,-0.162273 0.01895,-0.05403 0.06652,-0.321364 0.08541,-0.480007 0.0087,-0.0727 0.01445,-0.213436 0.01526,-0.370673 l 0.0013,-0.253472 -0.07442,-0.143942 c -0.06663,-0.128874 -0.0807,-0.149453 -0.134448,-0.196577 -0.03302,-0.02895 -0.108962,-0.09624 -0.168768,-0.149521 -0.186293,-0.165993 -0.27052,-0.216896 -0.407324,-0.246187 -0.132403,-0.02834 -0.193659,-0.05808 -0.193659,-0.09403 0,-0.03457 0.05697,-0.04892 0.168768,-0.04254 0.222832,0.01272 0.355964,0.08368 0.668023,0.356055 0.224555,0.195997 0.276156,0.259229 0.341865,0.418931 0.01591,0.03868 0.0376,0.106184 0.04819,0.150017 0.03766,0.15586 0.04063,0.230474 0.03001,0.753499 -0.0055,0.270808 -0.0119,0.497914 -0.01423,0.504666 -0.01704,0.04945 -0.07095,0.451317 -0.07142,0.532466 -5.32e-4,0.09185 5.81e-4,0.09738 0.02448,0.122338 0.0617,0.06441 0.214671,0.103072 0.334306,0.08451 0.07393,-0.01147 0.107525,-0.02616 0.163552,-0.07153 0.02127,-0.01722 0.05022,-0.03658 0.06434,-0.04301 0.02866,-0.01306 0.01281,-0.02652 0.147085,0.124916 0.100138,0.112944 0.172925,0.131293 0.350333,0.08831 z m -0.107285,-0.556141 c -0.01409,-0.06629 -0.05796,-0.159787 -0.08841,-0.188394 -0.01247,-0.01172 -0.04454,-0.02707 -0.07125,-0.03412 -0.02672,-0.0071 -0.05466,-0.01787 -0.06211,-0.02405 -0.0338,-0.02804 0.0016,-0.100952 0.0439,-0.09035 0.03863,0.0097 0.133807,0.07626 0.164571,0.11511 0.07387,0.09327 0.09919,0.199643 0.05951,0.249927 -0.01119,0.01419 -0.02359,0.02579 -0.02755,0.02579 -0.004,0 -0.01236,-0.02426 -0.01866,-0.05391 z m -2.738713,-1.114149 c 0,-0.0133 0.01116,-0.05208 0.0248,-0.08617 0.0247,-0.06175 0.02473,-0.06215 0.0081,-0.10474 -0.0092,-0.02351 -0.01865,-0.05406 -0.02108,-0.0679 -0.0048,-0.02715 -0.01309,-0.02304 0.112236,-0.0555 0.02338,-0.006 0.04364,-0.02064 0.06094,-0.04389 0.04531,-0.06085 0.118254,-0.128414 0.171573,-0.158924 0.133159,-0.07619 0.323575,-0.11091 0.524741,-0.09569 0.118836,0.009 0.190262,0.0303 0.314099,0.09374 0.210727,0.107945 0.297656,0.170305 0.311034,0.223121 0.01297,0.0512 -0.05096,0.122489 -0.131609,0.146763 -0.06275,0.01888 -0.217415,0.031 -0.604237,0.04732 -0.19239,0.0081 -0.382255,0.02031 -0.421923,0.02709 -0.142607,0.02439 -0.2876,0.06255 -0.307125,0.08084 -0.02658,0.02489 -0.04159,0.02271 -0.04159,-0.0061 z m 2.415897,-0.516498 c -0.0124,-0.01241 -0.006,-0.107648 0.0092,-0.1372 0.0651,-0.126492 0.189237,-0.262764 0.392414,-0.430775 0.234879,-0.194224 0.403834,-0.269627 0.604183,-0.269627 0.08331,0 0.122462,0.01358 0.122462,0.04247 0,0.0386 -0.05865,0.06848 -0.220976,0.112569 -0.115393,0.03134 -0.142561,0.04502 -0.235061,0.118373 -0.198845,0.157668 -0.512163,0.44675 -0.596426,0.550272 -0.01575,0.01935 -0.06188,0.02782 -0.07579,0.01391 z m -0.83949,-0.408778 c -0.02253,-0.01153 -0.09208,-0.06894 -0.154553,-0.127581 -0.135285,-0.126988 -0.190667,-0.165955 -0.328684,-0.231307 -0.197073,-0.0933 -0.321303,-0.121674 -0.501476,-0.11451 -0.18751,0.0075 -0.276872,0.04794 -0.422738,0.191497 -0.04888,0.04812 -0.09213,0.08748 -0.0961,0.08748 -0.02609,0 0.02622,-0.103399 0.09733,-0.192397 0.09646,-0.120716 0.254845,-0.2254 0.397072,-0.262445 0.105291,-0.02742 0.247437,-0.03725 0.363536,-0.02514 0.274613,0.02862 0.504589,0.131686 0.694062,0.311041 0.116067,0.109858 0.154111,0.195621 0.12868,0.290076 -0.02394,0.08888 -0.09179,0.116967 -0.177122,0.07329 z m 0.862439,0.0059 c -0.05471,-0.03832 -0.07387,-0.155989 -0.03787,-0.232573 0.02442,-0.05195 0.167976,-0.191768 0.258298,-0.251579 0.301784,-0.199813 0.618535,-0.265182 0.897891,-0.185299 0.158186,0.04524 0.329083,0.164954 0.43319,0.303447 0.04724,0.06283 0.09109,0.143014 0.08622,0.157621 -0.0017,0.0051 -0.04699,-0.031 -0.10066,-0.08016 -0.168674,-0.154508 -0.286083,-0.198594 -0.506775,-0.190268 -0.262763,0.0099 -0.444442,0.09446 -0.768837,0.357827 -0.174048,0.141318 -0.209203,0.157575 -0.261458,0.12098 z" />
    <path
       id="rect2984-1"
       style="fill:#000000;fill-opacity:0.301961;fill-rule:nonzero;stroke:none;stroke-width:0.0165364"
       d="m 67.144519,78.399136 -5.986714,5.986714 a 4.2333337,4.2333337 0 0 0 2.971395,1.240234 4.2333337,4.2333337 0 0 0 0.02222,0 l 0.03256,-5.16e-4 a 4.2333337,4.2333337 0 0 0 0.03152,0 4.2333337,4.2333337 0 0 0 4.169254,-4.232817 4.2333337,4.2333337 0 0 0 -1.240235,-2.993615 z" />
  </g>
</svg>
