<?xml version="1.0" encoding="UTF-8" standalone="no"?>
<svg
   xmlns:dc="http://purl.org/dc/elements/1.1/"
   xmlns:cc="http://creativecommons.org/ns#"
   xmlns:rdf="http://www.w3.org/1999/02/22-rdf-syntax-ns#"
   xmlns:svg="http://www.w3.org/2000/svg"
   xmlns="http://www.w3.org/2000/svg"
   xmlns:sodipodi="http://sodipodi.sourceforge.net/DTD/sodipodi-0.dtd"
   xmlns:inkscape="http://www.inkscape.org/namespaces/inkscape"
   width="32.000397"
   height="31.999117"
   version="1.1"
   viewBox="0 0 8.4667716 8.4664335"
   id="svg371"
   sodipodi:docname="antergos.svg"
   inkscape:version="1.0.1 (3bc2e813f5, 2020-09-07)">
  <metadata
     id="metadata375">
    <rdf:RDF>
      <cc:Work
         rdf:about="">
        <dc:format>image/svg+xml</dc:format>
        <dc:type
           rdf:resource="http://purl.org/dc/dcmitype/StillImage" />
        <dc:title />
      </cc:Work>
    </rdf:RDF>
  </metadata>
  <sodipodi:namedview
     inkscape:snap-bbox-edge-midpoints="true"
     inkscape:bbox-nodes="true"
     inkscape:snap-bbox="true"
     pagecolor="#ffffff"
     bordercolor="#666666"
     borderopacity="1"
     objecttolerance="10"
     gridtolerance="10"
     guidetolerance="10"
     inkscape:pageopacity="0"
     inkscape:pageshadow="2"
     inkscape:window-width="1836"
     inkscape:window-height="1016"
     id="namedview373"
     showgrid="false"
     inkscape:zoom="4"
     inkscape:cx="107.16678"
     inkscape:cy="265.86868"
     inkscape:window-x="2004"
     inkscape:window-y="27"
     inkscape:window-maximized="1"
     inkscape:current-layer="svg371"
     inkscape:document-rotation="0">
    <inkscape:grid
       id="grid1162"
       type="xygrid" />
  </sodipodi:namedview>
  <defs
     id="defs37">
    <style
       id="current-color-scheme"
       type="text/css">.ColorScheme-Text { color:#565656; } .ColorScheme-Highlight { color:#5294e2; }</style>
    <style
       type="text/css"
       id="style13">.ColorScheme-Text { color:#565656; } .ColorScheme-Highlight { color:#5294e2; }</style>
    <style
       type="text/css"
       id="style15">.ColorScheme-Text { color:#565656; } .ColorScheme-Highlight { color:#5294e2; }</style>
    <style
       type="text/css"
       id="style17">.ColorScheme-Text { color:#565656; } .ColorScheme-Highlight { color:#5294e2; }</style>
    <style
       type="text/css"
       id="style19">.ColorScheme-Text { color:#565656; } .ColorScheme-Highlight { color:#5294e2; }</style>
    <style
       type="text/css"
       id="style21">.ColorScheme-Text { color:#565656; } .ColorScheme-Highlight { color:#5294e2; }</style>
    <style
       type="text/css"
       id="style23">.ColorScheme-Text { color:#565656; } .ColorScheme-Highlight { color:#5294e2; }</style>
    <style
       type="text/css"
       id="style25">.ColorScheme-Text { color:#565656; } .ColorScheme-Highlight { color:#5294e2; }</style>
    <style
       type="text/css"
       id="style27">.ColorScheme-Text { color:#565656; } .ColorScheme-Highlight { color:#5294e2; }</style>
    <style
       type="text/css"
       id="style29" />
    <style
       type="text/css"
       id="style31" />
    <style
       type="text/css"
       id="style33">.ColorScheme-Text { color:#565656; } .ColorScheme-Highlight { color:#5294e2; }</style>
    <style
       type="text/css"
       id="style35">.ColorScheme-Text { color:#565656; } .ColorScheme-Highlight { color:#5294e2; }</style>
  </defs>
  <g
     id="antergos"
     transform="matrix(1.1429,0,0,1.1764,-1.5835769,0.3733776)"
     style="stroke-width:0.875">
    <path
       d="m 5.0899,-0.31739 c -1.8455,0 -3.5064,3.5059 -3.691,4.9821 -0.23017,1.8403 2.5836,2.2148 3.691,2.2148 1.1069,0 3.9207,-0.37454 3.6905,-2.2148 -0.18466,-1.4762 -1.8455,-4.9821 -3.6905,-4.9821 z"
       id="path39"
       inkscape:connector-curvature="0"
       style="fill:#7986cb;fill-rule:evenodd" />
    <path
       d="M 5.6114,5.5011 C 6.09004,4.3037 6.18368,2.7558 5.84157,1.6856 5.751596,1.40417 5.71079,1.46956 5.55125,2.14855 5.30958,3.17335 4.75142,4.40525 4.23145,5.06225 4.0876,5.24324 3.98088,5.42476 3.99448,5.46504 4.03999,5.60209 4.60965,5.76478 5.05688,5.76844 L 5.50257,5.7721 Z M 7.277,3.5881 C 7.277,2.98757 7.04579,2.4237 6.643,2.0397 6.46253,1.86708 6.38772,1.82523 6.42225,1.91363 6.65608,2.51416 6.87212,3.35953 6.94169,3.94743 L 7.025387,4.64996 7.150937,4.36068 C 7.236203,4.16608 7.277007,3.91395 7.277007,3.58805 Z M 3.4107,3.84965 C 3.91027,3.47772 4.424,2.96403 4.7436,2.51725 5.20707,1.8686 5.43462,1.34345 5.25206,1.34345 c -0.035048,0 -0.2626,0.14804 -0.5048,0.32956 -0.24272,0.18099 -0.71142,0.4687 -1.041,0.63924 -0.5932,0.30654 -0.60157,0.31439 -0.70358,0.65597 -0.14647,0.49224 -0.12973,1.1262 0.029294,1.1262 0.027725,0 0.19826,-0.10985 0.37873,-0.24481 z"
       id="path41"
       inkscape:connector-curvature="0"
       style="fill:#ffffff" />
  </g>
</svg>
