<?xml version="1.0" encoding="UTF-8" standalone="no"?>
<svg
   width="32"
   height="32"
   version="1.1"
   viewBox="0 0 8.4666667 8.4666671"
   id="svg371"
   sodipodi:docname="centos.svg"
   inkscape:version="1.4.3 (0d15f75042, 2025-12-25)"
   xmlns:inkscape="http://www.inkscape.org/namespaces/inkscape"
   xmlns:sodipodi="http://sodipodi.sourceforge.net/DTD/sodipodi-0.dtd"
   xmlns="http://www.w3.org/2000/svg"
   xmlns:svg="http://www.w3.org/2000/svg">
  <sodipodi:namedview
     inkscape:snap-bbox-edge-midpoints="true"
     inkscape:bbox-nodes="true"
     inkscape:snap-bbox="true"
     pagecolor="#ffffff"
     bordercolor="#666666"
     borderopacity="1"
     objecttolerance="10"
     gridtolerance="10"
     guidetolerance="10"
     inkscape:pageopacity="0"
     inkscape:pageshadow="2"
     inkscape:window-width="1920"
     inkscape:window-height="1011"
     id="namedview373"
     showgrid="false"
     inkscape:zoom="16"
     inkscape:cx="21.8125"
     inkscape:cy="16.78125"
     inkscape:window-x="0"
     inkscape:window-y="0"
     inkscape:window-maximized="1"
     inkscape:current-layer="svg371"
     inkscape:document-rotation="0"
     inkscape:showpageshadow="2"
     inkscape:pagecheckerboard="0"
     inkscape:deskcolor="#d1d1d1">
    <inkscape:grid
       id="grid1162"
       type="xygrid"
       originx="0"
       originy="0"
       spacingy="1"
       spacingx="1"
       units="px"
       visible="false" />
  </sodipodi:namedview>
  <defs
     id="defs37">
    <style
       id="current-color-scheme"
       type="text/css">.ColorScheme-Text { color:#565656; } .ColorScheme-Highlight { color:#5294e2; }</style>
    <style
       type="text/css"
       id="style13">.ColorScheme-Text { color:#565656; } .ColorScheme-Highlight { color:#5294e2; }</style>
    <style
       type="text/css"
       id="style15">.ColorScheme-Text { color:#565656; } .ColorScheme-Highlight { color:#5294e2; }</style>
    <style
       type="text/css"
       id="style17">.ColorScheme-Text { color:#565656; } .ColorScheme-Highlight { color:#5294e2; }</style>
    <style
       type="text/css"
       id="style19">.ColorScheme-Text { color:#565656; } .ColorScheme-Highlight { color:#5294e2; }</style>
    <style
       type="text/css"
       id="style21">.ColorScheme-Text { color:#565656; } .ColorScheme-Highlight { color:#5294e2; }</style>
    <style
       type="text/css"
       id="style23">.ColorScheme-Text { color:#565656; } .ColorScheme-Highlight { color:#5294e2; }</style>
    <style
       type="text/css"
       id="style25">.ColorScheme-Text { color:#565656; } .ColorScheme-Highlight { color:#5294e2; }</style>
    <style
       type="text/css"
       id="style27">.ColorScheme-Text { color:#565656; } .ColorScheme-Highlight { color:#5294e2; }</style>
    <style
       type="text/css"
       id="style29" />
    <style
       type="text/css"
       id="style31" />
    <style
       type="text/css"
       id="style33">.ColorScheme-Text { color:#565656; } .ColorScheme-Highlight { color:#5294e2; }</style>
    <style
       type="text/css"
       id="style35">.ColorScheme-Text { color:#565656; } .ColorScheme-Highlight { color:#5294e2; }</style>
  </defs>
  <g
     id="g23">
    <circle
       style="display:inline;fill:#b9459e;fill-opacity:1;stroke-width:2.7287;stroke-linecap:round;stroke-linejoin:round;paint-order:markers fill stroke"
       id="circle1"
       cx="4.2333336"
       cy="4.2333336"
       r="4.2333336" />
    <g
       id="g22">
      <path
         id="rect7"
         style="opacity:1;fill:#ffffff;stroke:none;stroke-width:8.46667;stroke-linecap:round;stroke-linejoin:round;paint-order:markers fill stroke"
         d="m 4.2333333,1.2397176 -0.8769491,0.8769491 -1.2397177,0 10e-8,1.2397177 -0.8769491,0.8769491 0.876949,0.876949 0,1.2397177 1.2397177,0 0.876949,0.876949 0.8769491,-0.8769491 1.2397177,1e-7 0,-1.2397177 L 7.2269491,4.2333334 6.35,3.3563843 5.9169514,2.9238527 5.542814,2.5497153 5.1102824,2.1166667 Z m -0.2645834,0.8769491 0.5291667,0 0,1.0583334 L 4.2333332,3.4395835 3.9687499,3.1750001 Z M 2.9238524,2.5497153 3.6721272,3.29799 l 0,0.3741374 -0.3741374,0 L 2.549715,2.9238527 Z m -0.8071859,1.4190348 1.0583334,0 0.2645833,0.2645834 -0.2645833,0.2645833 -1.0583333,0 z m 3.1750001,0 1.0583334,0 v 0.5291667 l -1.0583334,0 -0.2645834,-0.2645833 z m -1.9936768,0.8257894 0.3741374,0 0,0.3741374 L 2.9238524,5.9169517 2.549715,5.5428143 Z m 1.4965495,0 0.3741374,0 L 5.9169514,5.5428143 5.542814,5.9169517 4.7945393,5.1686769 Z m -0.5612061,0.232544 0.2645834,0.2645833 0,1.0583334 -0.5291667,-1e-7 0,-1.0583333 z" />
      <path
         id="rect21"
         style="opacity:1;fill:#efa724;fill-opacity:1;stroke:none;stroke-width:8.46667;stroke-linecap:round;stroke-linejoin:round;paint-order:markers fill stroke"
         d="M 5.1102823,2.1166667 5.5428141,2.5497152 4.7945393,3.29799 V 3.6721274 H 5.1686767 L 5.9169515,2.9238526 6.35,3.3563844 V 2.1166667 Z" />
      <path
         id="path18"
         style="opacity:1;fill:#efa724;stroke-width:28.356;stroke-linecap:round;stroke-linejoin:round;paint-order:markers fill stroke"
         transform="matrix(0.2758505,-0.11427738,0.11427738,0.2758505,10.028768,3.2987345)"
         d="m -19.129816,-6.4551297 0.397287,0.9592329 0.959106,-0.3973966 -0.397356,0.9592043 0.959192,0.3971886 -0.959233,0.3972867 0.397397,0.9591062 -0.959204,-0.397356 -0.397189,0.9591923 -0.397287,-0.959233 -0.959106,0.3973966 0.397356,-0.9592042 -0.959192,-0.3971887 0.959233,-0.3972866 -0.397397,-0.9591062 0.959204,0.397356 z" />
    </g>
  </g>
</svg>
