<?xml version="1.0" encoding="UTF-8" standalone="no"?>
<svg
   xmlns:dc="http://purl.org/dc/elements/1.1/"
   xmlns:cc="http://creativecommons.org/ns#"
   xmlns:rdf="http://www.w3.org/1999/02/22-rdf-syntax-ns#"
   xmlns:svg="http://www.w3.org/2000/svg"
   xmlns="http://www.w3.org/2000/svg"
   xmlns:sodipodi="http://sodipodi.sourceforge.net/DTD/sodipodi-0.dtd"
   xmlns:inkscape="http://www.inkscape.org/namespaces/inkscape"
   width="31.999729"
   height="31.999729"
   version="1.1"
   viewBox="0 0 8.466595 8.4665955"
   id="svg371"
   sodipodi:docname="chakra.svg"
   inkscape:version="1.0.1 (3bc2e813f5, 2020-09-07)">
  <metadata
     id="metadata375">
    <rdf:RDF>
      <cc:Work
         rdf:about="">
        <dc:format>image/svg+xml</dc:format>
        <dc:type
           rdf:resource="http://purl.org/dc/dcmitype/StillImage" />
        <dc:title />
      </cc:Work>
    </rdf:RDF>
  </metadata>
  <sodipodi:namedview
     inkscape:snap-bbox-edge-midpoints="true"
     inkscape:bbox-nodes="true"
     inkscape:snap-bbox="true"
     pagecolor="#ffffff"
     bordercolor="#666666"
     borderopacity="1"
     objecttolerance="10"
     gridtolerance="10"
     guidetolerance="10"
     inkscape:pageopacity="0"
     inkscape:pageshadow="2"
     inkscape:window-width="1836"
     inkscape:window-height="1016"
     id="namedview373"
     showgrid="false"
     inkscape:zoom="5.6568542"
     inkscape:cx="8.1040158"
     inkscape:cy="22.089142"
     inkscape:window-x="2004"
     inkscape:window-y="27"
     inkscape:window-maximized="1"
     inkscape:current-layer="svg371"
     inkscape:document-rotation="0">
    <inkscape:grid
       id="grid1162"
       type="xygrid" />
  </sodipodi:namedview>
  <defs
     id="defs37">
    <style
       id="current-color-scheme"
       type="text/css">.ColorScheme-Text { color:#565656; } .ColorScheme-Highlight { color:#5294e2; }</style>
    <style
       type="text/css"
       id="style13">.ColorScheme-Text { color:#565656; } .ColorScheme-Highlight { color:#5294e2; }</style>
    <style
       type="text/css"
       id="style15">.ColorScheme-Text { color:#565656; } .ColorScheme-Highlight { color:#5294e2; }</style>
    <style
       type="text/css"
       id="style17">.ColorScheme-Text { color:#565656; } .ColorScheme-Highlight { color:#5294e2; }</style>
    <style
       type="text/css"
       id="style19">.ColorScheme-Text { color:#565656; } .ColorScheme-Highlight { color:#5294e2; }</style>
    <style
       type="text/css"
       id="style21">.ColorScheme-Text { color:#565656; } .ColorScheme-Highlight { color:#5294e2; }</style>
    <style
       type="text/css"
       id="style23">.ColorScheme-Text { color:#565656; } .ColorScheme-Highlight { color:#5294e2; }</style>
    <style
       type="text/css"
       id="style25">.ColorScheme-Text { color:#565656; } .ColorScheme-Highlight { color:#5294e2; }</style>
    <style
       type="text/css"
       id="style27">.ColorScheme-Text { color:#565656; } .ColorScheme-Highlight { color:#5294e2; }</style>
    <style
       type="text/css"
       id="style29" />
    <style
       type="text/css"
       id="style31" />
    <style
       type="text/css"
       id="style33">.ColorScheme-Text { color:#565656; } .ColorScheme-Highlight { color:#5294e2; }</style>
    <style
       type="text/css"
       id="style35">.ColorScheme-Text { color:#565656; } .ColorScheme-Highlight { color:#5294e2; }</style>
  </defs>
  <g
     id="chakra"
     transform="matrix(0.59258,0,0,0.59258,-0.78395242,-166.74997)">
    <g
       transform="matrix(1.0385,0,0,1.0385,-0.32619,-11.098)"
       id="g51"
       style="stroke-width:1.5648">
      <circle
         cx="8.467"
         cy="288.53"
         r="6.8790002"
         style="fill:#4e7ba0;stroke-width:1.5648;paint-order:stroke markers fill"
         id="circle49" />
    </g>
    <path
       d="m 8.665,284.42 c -0.944,0.03 2.513,4.66 -0.149,4.365 2.22,0.597 2.728,-2.186 2.275,-3.547 -0.45,-1.348 -0.683,-0.507 -2.021,-0.806 A 0.421,0.421 0 0 0 8.665,284.42 Z m -2.646,0.645 c -1.459,-0.002 -0.707,0.474 -1.414,1.618 -0.675,1.092 5.333,-0.864 4.185,1.58 1.27,-1.866 -1.297,-3.196 -2.77,-3.198 z m 1.027,2.09 c -1.167,-10e-4 -2.342,1.286 -2.67,2.264 -0.454,1.347 0.245,0.8 1.146,1.806 0.861,0.96 0.802,-5.192 2.84,-3.377 -0.403,-0.492 -0.859,-0.691 -1.316,-0.692 z m 5.059,0.219 c -0.725,-0.055 -3.695,3.664 -4.185,1.32 0.1,2.234 2.983,1.844 4.176,1.005 1.182,-0.832 0.286,-0.787 0.165,-2.116 -0.012,-0.139 -0.067,-0.202 -0.156,-0.21 z m -4.28,0.74 c -2.158,0.785 -0.885,3.326 0.306,4.168 1.18,0.835 0.86,0.02 2.123,-0.5 1.207,-0.499 -4.837,-2.346 -2.43,-3.667 z"
       id="path53"
       inkscape:connector-curvature="0"
       style="fill:#ffffff;fill-rule:evenodd;stroke-width:1.6875" />
  </g>
</svg>
