<?xml version="1.0" encoding="UTF-8" standalone="no"?>
<svg
   xmlns:dc="http://purl.org/dc/elements/1.1/"
   xmlns:cc="http://creativecommons.org/ns#"
   xmlns:rdf="http://www.w3.org/1999/02/22-rdf-syntax-ns#"
   xmlns:svg="http://www.w3.org/2000/svg"
   xmlns="http://www.w3.org/2000/svg"
   xmlns:sodipodi="http://sodipodi.sourceforge.net/DTD/sodipodi-0.dtd"
   xmlns:inkscape="http://www.inkscape.org/namespaces/inkscape"
   width="31.999729"
   height="31.999729"
   version="1.1"
   viewBox="0 0 8.466595 8.4665955"
   id="svg371"
   sodipodi:docname="debian.svg"
   inkscape:version="1.0.1 (3bc2e813f5, 2020-09-07)">
  <metadata
     id="metadata375">
    <rdf:RDF>
      <cc:Work
         rdf:about="">
        <dc:format>image/svg+xml</dc:format>
        <dc:type
           rdf:resource="http://purl.org/dc/dcmitype/StillImage" />
        <dc:title />
      </cc:Work>
    </rdf:RDF>
  </metadata>
  <sodipodi:namedview
     inkscape:snap-bbox-edge-midpoints="true"
     inkscape:bbox-nodes="true"
     inkscape:snap-bbox="true"
     pagecolor="#ffffff"
     bordercolor="#666666"
     borderopacity="1"
     objecttolerance="10"
     gridtolerance="10"
     guidetolerance="10"
     inkscape:pageopacity="0"
     inkscape:pageshadow="2"
     inkscape:window-width="1836"
     inkscape:window-height="1016"
     id="namedview373"
     showgrid="false"
     inkscape:zoom="4"
     inkscape:cx="107.16678"
     inkscape:cy="265.86868"
     inkscape:window-x="2004"
     inkscape:window-y="27"
     inkscape:window-maximized="1"
     inkscape:current-layer="svg371"
     inkscape:document-rotation="0">
    <inkscape:grid
       id="grid1162"
       type="xygrid" />
  </sodipodi:namedview>
  <defs
     id="defs37">
    <style
       id="current-color-scheme"
       type="text/css">.ColorScheme-Text { color:#565656; } .ColorScheme-Highlight { color:#5294e2; }</style>
    <style
       type="text/css"
       id="style13">.ColorScheme-Text { color:#565656; } .ColorScheme-Highlight { color:#5294e2; }</style>
    <style
       type="text/css"
       id="style15">.ColorScheme-Text { color:#565656; } .ColorScheme-Highlight { color:#5294e2; }</style>
    <style
       type="text/css"
       id="style17">.ColorScheme-Text { color:#565656; } .ColorScheme-Highlight { color:#5294e2; }</style>
    <style
       type="text/css"
       id="style19">.ColorScheme-Text { color:#565656; } .ColorScheme-Highlight { color:#5294e2; }</style>
    <style
       type="text/css"
       id="style21">.ColorScheme-Text { color:#565656; } .ColorScheme-Highlight { color:#5294e2; }</style>
    <style
       type="text/css"
       id="style23">.ColorScheme-Text { color:#565656; } .ColorScheme-Highlight { color:#5294e2; }</style>
    <style
       type="text/css"
       id="style25">.ColorScheme-Text { color:#565656; } .ColorScheme-Highlight { color:#5294e2; }</style>
    <style
       type="text/css"
       id="style27">.ColorScheme-Text { color:#565656; } .ColorScheme-Highlight { color:#5294e2; }</style>
    <style
       type="text/css"
       id="style29" />
    <style
       type="text/css"
       id="style31" />
    <style
       type="text/css"
       id="style33">.ColorScheme-Text { color:#565656; } .ColorScheme-Highlight { color:#5294e2; }</style>
    <style
       type="text/css"
       id="style35">.ColorScheme-Text { color:#565656; } .ColorScheme-Highlight { color:#5294e2; }</style>
  </defs>
  <g
     id="debian"
     transform="matrix(0.59258,0,0,0.59258,-0.78395242,-166.74997)">
    <g
       transform="matrix(1.0385,0,0,1.0385,-0.32619,-11.098)"
       id="g58"
       style="stroke-width:1.5648">
      <circle
         cx="8.467"
         cy="288.53"
         r="6.8790002"
         style="fill:#f6476b;stroke-width:1.5648;paint-order:stroke markers fill"
         id="circle56" />
    </g>
    <path
       d="m 11.077,287.92 c 0.009,0.229 -0.066,0.34 -0.134,0.536 l -0.122,0.06 c -0.1,0.195 0.01,0.124 -0.062,0.278 -0.156,0.14 -0.474,0.434 -0.575,0.461 -0.074,0 0.05,-0.087 0.066,-0.12 -0.208,0.143 -0.167,0.215 -0.487,0.302 l -0.01,-0.021 c -0.787,0.37 -1.881,-0.364 -1.867,-1.366 -0.008,0.064 -0.024,0.048 -0.041,0.073 -0.04,-0.515 0.238,-1.033 0.708,-1.245 0.46,-0.227 1,-0.134 1.328,0.173 -0.18,-0.237 -0.54,-0.488 -0.967,-0.465 -0.418,0.006 -0.81,0.273 -0.94,0.561 -0.214,0.135 -0.239,0.52 -0.332,0.59 -0.126,0.924 0.236,1.322 0.848,1.791 0.096,0.065 0.027,0.075 0.04,0.125 a 1.66,1.66 0 0 1 -0.543,-0.415 c 0.082,0.119 0.17,0.234 0.283,0.325 -0.192,-0.065 -0.448,-0.465 -0.523,-0.481 0.33,0.592 1.34,1.038 1.87,0.816 -0.245,0.01 -0.556,0.005 -0.831,-0.096 -0.116,-0.06 -0.273,-0.183 -0.245,-0.206 0.722,0.27 1.468,0.204 2.093,-0.296 0.159,-0.124 0.333,-0.335 0.383,-0.338 -0.076,0.114 0.013,0.055 -0.045,0.155 0.158,-0.255 -0.07,-0.104 0.163,-0.44 l 0.086,0.118 c -0.032,-0.213 0.263,-0.47 0.233,-0.805 0.068,-0.103 0.076,0.11 0.004,0.346 0.1,-0.262 0.026,-0.304 0.052,-0.52 0.028,0.073 0.064,0.15 0.083,0.227 -0.065,-0.253 0.066,-0.426 0.099,-0.573 -0.032,-0.014 -0.1,0.112 -0.116,-0.187 0.003,-0.13 0.036,-0.068 0.05,-0.1 -0.026,-0.015 -0.093,-0.114 -0.134,-0.305 0.03,-0.045 0.079,0.116 0.12,0.123 -0.027,-0.152 -0.071,-0.267 -0.073,-0.384 -0.117,-0.245 -0.041,0.033 -0.136,-0.105 -0.125,-0.389 0.103,-0.09 0.119,-0.267 0.188,0.274 0.296,0.698 0.346,0.874 a 3.575,3.575 0 0 0 -0.174,-0.623 c 0.058,0.024 -0.092,-0.44 0.075,-0.133 -0.178,-0.656 -0.764,-1.27 -1.302,-1.558 0.065,0.06 0.149,0.136 0.119,0.148 -0.268,-0.16 -0.221,-0.172 -0.26,-0.24 -0.217,-0.088 -0.232,0.008 -0.376,0 -0.411,-0.218 -0.49,-0.194 -0.87,-0.33 l 0.018,0.08 c -0.272,-0.091 -0.317,0.034 -0.612,0 -0.018,-0.014 0.095,-0.05 0.187,-0.064 -0.263,0.035 -0.251,-0.052 -0.509,0.009 0.064,-0.045 0.13,-0.074 0.199,-0.112 -0.215,0.013 -0.513,0.125 -0.421,0.023 -0.35,0.156 -0.973,0.376 -1.322,0.703 l -0.011,-0.073 c -0.16,0.192 -0.698,0.574 -0.74,0.823 l -0.044,0.01 c -0.083,0.14 -0.137,0.3 -0.203,0.445 -0.109,0.186 -0.16,0.072 -0.144,0.1 -0.214,0.435 -0.32,0.8 -0.412,1.1 0.065,0.097 0,0.589 0.026,0.982 -0.108,1.943 1.363,3.829 2.971,4.264 0.236,0.085 0.586,0.081 0.884,0.09 -0.351,-0.1 -0.397,-0.054 -0.74,-0.173 -0.247,-0.116 -0.3,-0.25 -0.476,-0.401 l 0.07,0.122 c -0.344,-0.121 -0.2,-0.15 -0.48,-0.238 l 0.074,-0.097 c -0.11,-0.008 -0.294,-0.187 -0.344,-0.287 l -0.122,0.005 c -0.146,-0.18 -0.224,-0.31 -0.219,-0.41 l -0.039,0.07 c -0.044,-0.077 -0.538,-0.678 -0.282,-0.538 -0.048,-0.043 -0.11,-0.07 -0.18,-0.195 l 0.053,-0.06 c -0.123,-0.158 -0.227,-0.361 -0.22,-0.43 0.067,0.09 0.112,0.106 0.157,0.121 -0.31,-0.772 -0.328,-0.042 -0.564,-0.785 l 0.05,-0.004 c -0.038,-0.058 -0.062,-0.12 -0.092,-0.182 l 0.021,-0.216 c -0.224,-0.259 -0.062,-1.101 -0.03,-1.563 0.022,-0.188 0.187,-0.388 0.312,-0.702 L 5.82,286.787 c 0.146,-0.254 0.832,-1.02 1.15,-0.981 0.155,-0.194 -0.03,0 -0.06,-0.05 0.338,-0.35 0.445,-0.247 0.673,-0.31 0.246,-0.146 -0.211,0.057 -0.095,-0.056 0.426,-0.109 0.302,-0.247 0.857,-0.302 0.059,0.033 -0.136,0.051 -0.184,0.094 0.354,-0.173 1.122,-0.134 1.62,0.097 0.58,0.27 1.23,1.07 1.255,1.822 l 0.03,0.008 c -0.015,0.299 0.045,0.644 -0.06,0.962 l 0.071,-0.15"
       id="path60"
       inkscape:connector-curvature="0"
       style="fill:#ffffff;stroke-width:1.6875" />
  </g>
</svg>
