<?xml version="1.0" encoding="UTF-8" standalone="no"?>
<svg
   width="32"
   height="32"
   version="1.1"
   viewBox="0 0 8.4666667 8.4666672"
   id="svg371"
   sodipodi:docname="debian.svg"
   xmlns:inkscape="http://www.inkscape.org/namespaces/inkscape"
   xmlns:sodipodi="http://sodipodi.sourceforge.net/DTD/sodipodi-0.dtd"
   xmlns="http://www.w3.org/2000/svg"
   xmlns:svg="http://www.w3.org/2000/svg">
  <sodipodi:namedview
     inkscape:snap-bbox-edge-midpoints="true"
     inkscape:bbox-nodes="true"
     inkscape:snap-bbox="true"
     pagecolor="#ffffff"
     bordercolor="#666666"
     borderopacity="1"
     objecttolerance="10"
     gridtolerance="10"
     guidetolerance="10"
     inkscape:pageopacity="0"
     inkscape:pageshadow="2"
     inkscape:window-width="1920"
     inkscape:window-height="1016"
     id="namedview373"
     showgrid="false"
     inkscape:zoom="8"
     inkscape:cx="15.189973"
     inkscape:cy="11.070023"
     inkscape:window-x="1920"
     inkscape:window-y="27"
     inkscape:window-maximized="1"
     inkscape:current-layer="svg371"
     inkscape:document-rotation="0"
     inkscape:showpageshadow="2"
     inkscape:pagecheckerboard="0"
     inkscape:deskcolor="#d1d1d1">
    <inkscape:grid
       id="grid1162"
       type="xygrid"
       originx="0"
       originy="0"
       spacingy="1"
       spacingx="1"
       units="px"
       visible="false" />
  </sodipodi:namedview>
  <defs
     id="defs37">
    <style
       id="current-color-scheme"
       type="text/css">.ColorScheme-Text { color:#565656; } .ColorScheme-Highlight { color:#5294e2; }</style>
    <style
       type="text/css"
       id="style13">.ColorScheme-Text { color:#565656; } .ColorScheme-Highlight { color:#5294e2; }</style>
    <style
       type="text/css"
       id="style15">.ColorScheme-Text { color:#565656; } .ColorScheme-Highlight { color:#5294e2; }</style>
    <style
       type="text/css"
       id="style17">.ColorScheme-Text { color:#565656; } .ColorScheme-Highlight { color:#5294e2; }</style>
    <style
       type="text/css"
       id="style19">.ColorScheme-Text { color:#565656; } .ColorScheme-Highlight { color:#5294e2; }</style>
    <style
       type="text/css"
       id="style21">.ColorScheme-Text { color:#565656; } .ColorScheme-Highlight { color:#5294e2; }</style>
    <style
       type="text/css"
       id="style23">.ColorScheme-Text { color:#565656; } .ColorScheme-Highlight { color:#5294e2; }</style>
    <style
       type="text/css"
       id="style25">.ColorScheme-Text { color:#565656; } .ColorScheme-Highlight { color:#5294e2; }</style>
    <style
       type="text/css"
       id="style27">.ColorScheme-Text { color:#565656; } .ColorScheme-Highlight { color:#5294e2; }</style>
    <style
       type="text/css"
       id="style29" />
    <style
       type="text/css"
       id="style31" />
    <style
       type="text/css"
       id="style33">.ColorScheme-Text { color:#565656; } .ColorScheme-Highlight { color:#5294e2; }</style>
    <style
       type="text/css"
       id="style35">.ColorScheme-Text { color:#565656; } .ColorScheme-Highlight { color:#5294e2; }</style>
  </defs>
  <g
     id="g853">
    <circle
       cx="4.2332978"
       cy="4.2333055"
       r="4.2332978"
       style="fill:#f23c61;stroke-width:0.962969;paint-order:stroke markers fill;fill-opacity:1"
       id="circle56" />
    <path
       d="m 5.7800562,3.8656636 c 0.00533,0.1357008 -0.03911,0.2014772 -0.079406,0.3176229 l -0.072295,0.035555 c -0.059258,0.1155531 0.00593,0.07348 -0.03674,0.1647372 -0.092442,0.082961 -0.2808829,0.2571797 -0.3407335,0.2731794 -0.043851,0 0.029629,-0.051554 0.03911,-0.07111 -0.1232567,0.084739 -0.098961,0.1274047 -0.2885865,0.1789592 l -0.00593,-0.012444 C 4.5291199,4.9714179 3.8808373,4.5364642 3.8891335,3.942699 3.8843928,3.9806241 3.8749115,3.9711428 3.8648377,3.9859573 3.8411345,3.6807786 4.0058717,3.3738222 4.2843843,3.2481952 4.5569711,3.1136796 4.8769643,3.1687895 5.0713306,3.3507116 4.9646662,3.2102701 4.7513374,3.0615325 4.4983057,3.0751619 4.2506073,3.0787174 4.0183159,3.2369362 3.9412805,3.4075993 3.8144684,3.4875976 3.7996539,3.7157409 3.7445439,3.7572215 c -0.074665,0.5475439 0.1398489,0.7833907 0.5025079,1.0613107 0.056888,0.038518 0.016,0.044443 0.023703,0.074072 A 0.9836828,0.9836828 0 0 1 3.948984,4.646684 C 3.9975756,4.7172011 4.0497226,4.7853478 4.1166842,4.8392725 4.0029088,4.8007548 3.8512083,4.5637228 3.8067648,4.5542416 4.0023162,4.9050489 4.600822,5.1693396 4.9148894,5.0377868 4.7697073,5.0437126 4.585415,5.0407497 4.4224555,4.9808992 4.3537162,4.9453444 4.2606811,4.872457 4.2772734,4.8588277 4.7051161,5.0188243 5.1471808,4.979714 5.5175433,4.683424 c 0.09422,-0.07348 0.1973291,-0.1985143 0.2269581,-0.200292 -0.045036,0.067554 0.0077,0.032592 -0.026666,0.09185 0.093628,-0.1511079 -0.041481,-0.061628 0.096591,-0.2607352 l 0.050962,0.069924 C 5.8464252,4.2579516 6.0212363,4.1056585 6.0034589,3.9071442 c 0.040295,-0.061036 0.045036,0.065184 0.00237,0.2050327 0.059258,-0.155256 0.015407,-0.1801443 0.030814,-0.3081416 0.016592,0.043258 0.037925,0.088887 0.049184,0.1345156 -0.038518,-0.1499227 0.03911,-0.252439 0.058665,-0.3395483 -0.018963,-0.0083 -0.059258,0.066369 -0.068739,-0.1108125 0.00178,-0.077035 0.021333,-0.040295 0.029629,-0.059258 -0.015407,-0.00889 -0.05511,-0.067554 -0.079406,-0.1807369 0.017777,-0.026666 0.046814,0.068739 0.07111,0.072887 -0.016,-0.090072 -0.042073,-0.1582189 -0.043258,-0.2275507 C 5.9844963,2.9483498 6.0295324,3.113087 5.9732373,3.031311 5.8991648,2.8007973 6.0342731,2.9779788 6.0437543,2.8730921 6.1551594,3.035459 6.219158,3.2867129 6.248787,3.391007 A 2.1184735,2.1184735 0 0 0 6.1456781,3.0218297 c 0.03437,0.014222 -0.054517,-0.2607352 0.044444,-0.078813 C 6.0846424,2.5542841 5.7373905,2.1904399 5.4185824,2.0197769 c 0.038518,0.035555 0.088294,0.080591 0.070517,0.087702 C 5.330288,2.0126659 5.3581393,2.005555 5.3350287,1.9652595 c -0.1285899,-0.052147 -0.1374786,0.00474 -0.2228101,0 C 4.8686682,1.8360771 4.8218544,1.850299 4.596674,1.7697081 l 0.010666,0.047406 c -0.1611817,-0.053925 -0.1878478,0.020148 -0.3626589,0 -0.010667,-0.0083 0.056295,-0.029629 0.1108124,-0.037925 -0.1558485,0.02074 -0.1487376,-0.030814 -0.3016232,0.00533 0.037925,-0.026666 0.077035,-0.043851 0.1179234,-0.066369 -0.1274047,0.0077 -0.3039935,0.074072 -0.2494762,0.013629 -0.207403,0.092442 -0.5765803,0.2228101 -0.7833907,0.4165838 l -0.00652,-0.043258 C 3.037596,2.2188838 2.718788,2.4452493 2.6938996,2.5928018 l -0.026073,0.00593 c -0.049184,0.082961 -0.081184,0.177774 -0.1202938,0.2636981 -0.064591,0.1102198 -0.094813,0.042666 -0.085331,0.059258 -0.1268121,0.2577723 -0.1896256,0.474064 -0.2441429,0.651838 0.038518,0.05748 0,0.3490296 0.015407,0.5819135 -0.063999,1.151383 0.8076866,2.2689888 1.7605552,2.5267611 C 4.13387,6.7325695 4.341273,6.7301995 4.5178618,6.7355325 4.3098653,6.6762705 4.2826066,6.7035292 4.0793516,6.6330122 3.9329844,6.5642729 3.9015776,6.4848672 3.7972836,6.3953876 l 0.041481,0.072295 C 3.6349166,6.3959802 3.7202482,6.3787954 3.5543258,6.3266483 l 0.043851,-0.05748 C 3.5329929,6.2644274 3.4239582,6.1583556 3.3943292,6.0990976 l -0.072295,0.00296 C 3.2355177,5.9953961 3.1892965,5.9183607 3.1922594,5.8591027 l -0.023111,0.041481 C 3.1430752,5.8549547 2.8503407,5.4988141 3.0020412,5.5817753 2.9735974,5.5562943 2.9368574,5.5402947 2.8953768,5.4662222 l 0.031407,-0.035555 C 2.8538962,5.3370397 2.7922679,5.216746 2.7964159,5.175858 2.8361189,5.22919 2.8627849,5.238671 2.8894509,5.24756 2.7057512,4.7900884 2.6950848,5.2226718 2.5552359,4.7823849 l 0.029629,-0.00237 c -0.022518,-0.03437 -0.03674,-0.07111 -0.054517,-0.1078495 L 2.5427917,4.5441677 C 2.4100538,4.3906895 2.5060517,3.8917371 2.5250143,3.6179652 2.5380511,3.5065601 2.6358268,3.3880441 2.7098993,3.201974 l -0.045036,-0.0077 c 0.086517,-0.1505154 0.4930265,-0.6044316 0.681467,-0.581321 0.09185,-0.1149605 -0.017777,0 -0.035555,-0.029629 C 3.5110674,2.3759175 3.5744735,2.4369532 3.7095817,2.3996207 3.8553564,2.313104 3.5845473,2.4333977 3.6532866,2.3664362 3.9057257,2.301845 3.8322458,2.2200689 4.1611277,2.187477 4.1960899,2.2070322 4.0805368,2.2176986 4.052093,2.2431796 4.2618663,2.1406632 4.7169677,2.1637738 5.0120726,2.3006598 5.355769,2.4606564 5.740946,2.9347204 5.7557605,3.3803406 l 0.017777,0.00474 c -0.00889,0.1771814 0.026666,0.3816215 -0.035555,0.570062 l 0.042073,-0.088887"
       id="path60"
       inkscape:connector-curvature="0"
       style="fill:#ffffff;stroke-width:0.999979" />
  </g>
</svg>
