<?xml version="1.0" encoding="UTF-8" standalone="no"?>
<svg
   width="32"
   height="32"
   version="1.1"
   viewBox="0 0 8.4666666 8.4666671"
   id="svg371"
   sodipodi:docname="edit.svg"
   xmlns:inkscape="http://www.inkscape.org/namespaces/inkscape"
   xmlns:sodipodi="http://sodipodi.sourceforge.net/DTD/sodipodi-0.dtd"
   xmlns="http://www.w3.org/2000/svg"
   xmlns:svg="http://www.w3.org/2000/svg">
  <sodipodi:namedview
     inkscape:snap-bbox-edge-midpoints="true"
     inkscape:bbox-nodes="true"
     inkscape:snap-bbox="true"
     pagecolor="#ffffff"
     bordercolor="#666666"
     borderopacity="1"
     objecttolerance="10"
     gridtolerance="10"
     guidetolerance="10"
     inkscape:pageopacity="0"
     inkscape:pageshadow="2"
     inkscape:window-width="1920"
     inkscape:window-height="1016"
     id="namedview373"
     showgrid="false"
     inkscape:zoom="16"
     inkscape:cx="13.685954"
     inkscape:cy="22.512079"
     inkscape:window-x="1920"
     inkscape:window-y="27"
     inkscape:window-maximized="1"
     inkscape:current-layer="svg371"
     inkscape:document-rotation="0"
     inkscape:showpageshadow="2"
     inkscape:pagecheckerboard="0"
     inkscape:deskcolor="#d1d1d1">
    <inkscape:grid
       id="grid1162"
       type="xygrid"
       originx="0"
       originy="0"
       spacingy="1"
       spacingx="1"
       units="px"
       visible="false" />
  </sodipodi:namedview>
  <defs
     id="defs37">
    <style
       id="current-color-scheme"
       type="text/css">.ColorScheme-Text { color:#565656; } .ColorScheme-Highlight { color:#5294e2; }</style>
    <style
       type="text/css"
       id="style13">.ColorScheme-Text { color:#565656; } .ColorScheme-Highlight { color:#5294e2; }</style>
    <style
       type="text/css"
       id="style15">.ColorScheme-Text { color:#565656; } .ColorScheme-Highlight { color:#5294e2; }</style>
    <style
       type="text/css"
       id="style17">.ColorScheme-Text { color:#565656; } .ColorScheme-Highlight { color:#5294e2; }</style>
    <style
       type="text/css"
       id="style19">.ColorScheme-Text { color:#565656; } .ColorScheme-Highlight { color:#5294e2; }</style>
    <style
       type="text/css"
       id="style21">.ColorScheme-Text { color:#565656; } .ColorScheme-Highlight { color:#5294e2; }</style>
    <style
       type="text/css"
       id="style23">.ColorScheme-Text { color:#565656; } .ColorScheme-Highlight { color:#5294e2; }</style>
    <style
       type="text/css"
       id="style25">.ColorScheme-Text { color:#565656; } .ColorScheme-Highlight { color:#5294e2; }</style>
    <style
       type="text/css"
       id="style27">.ColorScheme-Text { color:#565656; } .ColorScheme-Highlight { color:#5294e2; }</style>
    <style
       type="text/css"
       id="style29" />
    <style
       type="text/css"
       id="style31" />
    <style
       type="text/css"
       id="style33">.ColorScheme-Text { color:#565656; } .ColorScheme-Highlight { color:#5294e2; }</style>
    <style
       type="text/css"
       id="style35">.ColorScheme-Text { color:#565656; } .ColorScheme-Highlight { color:#5294e2; }</style>
  </defs>
  <path
     d="m 4.2333,0 c 2.3381,0 4.2333,1.8952 4.2333,4.2333 0,2.3381 -1.8952,4.2333 -4.2333,4.2333 C 1.8952,8.4666 0,6.5714 0,4.2333 0,1.8952 1.8952,0 4.2333,0 Z"
     id="path272"
     inkscape:connector-curvature="0"
     style="fill:#4d4d4d;stroke-width:0.28761" />
  <path
     class="ColorScheme-Text"
     d="M 4.2333335,1.984375 A 0.59972224,0.59972224 0 0 0 3.6336112,2.5840972 H 2.7340279 c -0.1661231,0 -0.2998612,0.1337381 -0.2998612,0.2998612 v 3.2984723 c 0,0.166123 0.1337381,0.2998611 0.2998612,0.2998611 h 2.9986112 c 0.166123,0 0.2998611,-0.1337381 0.2998611,-0.2998611 V 2.8839584 c 0,-0.1661231 -0.1337381,-0.2998612 -0.2998611,-0.2998612 H 4.8330557 A 0.59972224,0.59972224 0 0 0 4.2333335,1.984375 Z m 0,0.2998611 A 0.29986112,0.29986112 0 0 1 4.5331946,2.5840972 0.29986112,0.29986112 0 0 1 4.2333335,2.8839584 0.29986112,0.29986112 0 0 1 3.9334723,2.5840972 0.29986112,0.29986112 0 0 1 4.2333335,2.2842361 Z M 3.033889,3.1838195 H 3.3337501 V 3.4836806 H 5.1329168 V 3.1838195 H 5.4327779 V 5.8825696 H 3.033889 Z"
     id="path274"
     inkscape:connector-curvature="0"
     style="color:#565656;fill:#ffffff;stroke-width:0.299861" />
</svg>
