<?xml version="1.0" encoding="UTF-8" standalone="no"?>
<svg
   xmlns:dc="http://purl.org/dc/elements/1.1/"
   xmlns:cc="http://creativecommons.org/ns#"
   xmlns:rdf="http://www.w3.org/1999/02/22-rdf-syntax-ns#"
   xmlns:svg="http://www.w3.org/2000/svg"
   xmlns="http://www.w3.org/2000/svg"
   xmlns:sodipodi="http://sodipodi.sourceforge.net/DTD/sodipodi-0.dtd"
   xmlns:inkscape="http://www.inkscape.org/namespaces/inkscape"
   width="31.999746"
   height="31.999746"
   version="1.1"
   viewBox="0 0 8.4665995 8.4666"
   id="svg371"
   sodipodi:docname="efi.svg"
   inkscape:version="1.0.1 (3bc2e813f5, 2020-09-07)">
  <metadata
     id="metadata375">
    <rdf:RDF>
      <cc:Work
         rdf:about="">
        <dc:format>image/svg+xml</dc:format>
        <dc:type
           rdf:resource="http://purl.org/dc/dcmitype/StillImage" />
        <dc:title />
      </cc:Work>
    </rdf:RDF>
  </metadata>
  <sodipodi:namedview
     inkscape:snap-bbox-edge-midpoints="true"
     inkscape:bbox-nodes="true"
     inkscape:snap-bbox="true"
     pagecolor="#ffffff"
     bordercolor="#666666"
     borderopacity="1"
     objecttolerance="10"
     gridtolerance="10"
     guidetolerance="10"
     inkscape:pageopacity="0"
     inkscape:pageshadow="2"
     inkscape:window-width="1836"
     inkscape:window-height="1016"
     id="namedview373"
     showgrid="false"
     inkscape:zoom="4"
     inkscape:cx="107.16678"
     inkscape:cy="265.86868"
     inkscape:window-x="2004"
     inkscape:window-y="27"
     inkscape:window-maximized="1"
     inkscape:current-layer="svg371"
     inkscape:document-rotation="0">
    <inkscape:grid
       id="grid1162"
       type="xygrid" />
  </sodipodi:namedview>
  <defs
     id="defs37">
    <style
       id="current-color-scheme"
       type="text/css">.ColorScheme-Text { color:#565656; } .ColorScheme-Highlight { color:#5294e2; }</style>
    <style
       type="text/css"
       id="style13">.ColorScheme-Text { color:#565656; } .ColorScheme-Highlight { color:#5294e2; }</style>
    <style
       type="text/css"
       id="style15">.ColorScheme-Text { color:#565656; } .ColorScheme-Highlight { color:#5294e2; }</style>
    <style
       type="text/css"
       id="style17">.ColorScheme-Text { color:#565656; } .ColorScheme-Highlight { color:#5294e2; }</style>
    <style
       type="text/css"
       id="style19">.ColorScheme-Text { color:#565656; } .ColorScheme-Highlight { color:#5294e2; }</style>
    <style
       type="text/css"
       id="style21">.ColorScheme-Text { color:#565656; } .ColorScheme-Highlight { color:#5294e2; }</style>
    <style
       type="text/css"
       id="style23">.ColorScheme-Text { color:#565656; } .ColorScheme-Highlight { color:#5294e2; }</style>
    <style
       type="text/css"
       id="style25">.ColorScheme-Text { color:#565656; } .ColorScheme-Highlight { color:#5294e2; }</style>
    <style
       type="text/css"
       id="style27">.ColorScheme-Text { color:#565656; } .ColorScheme-Highlight { color:#5294e2; }</style>
    <style
       type="text/css"
       id="style29" />
    <style
       type="text/css"
       id="style31" />
    <style
       type="text/css"
       id="style33">.ColorScheme-Text { color:#565656; } .ColorScheme-Highlight { color:#5294e2; }</style>
    <style
       type="text/css"
       id="style35">.ColorScheme-Text { color:#565656; } .ColorScheme-Highlight { color:#5294e2; }</style>
  </defs>
  <g
     id="efi"
     transform="translate(-48.103285,-92.71002)">
    <path
       d="m 52.336585,92.71002 c 2.3381,0 4.2333,1.8952 4.2333,4.2333 0,2.3381 -1.8952,4.2333 -4.2333,4.2333 -2.3381,0 -4.2333,-1.8952 -4.2333,-4.2333 0,-2.3381 1.8952,-4.2333 4.2333,-4.2333 z"
       id="path279"
       inkscape:connector-curvature="0"
       style="fill:#4d4d4d;stroke-width:0.28761" />
    <path
       id="path2"
       d="m 51.807416,94.826654 -0.04536,0.55638 a 1.6630956,1.6630956 0 0 0 -0.48683,0.281214 l -0.508,-0.23888 -0.529167,0.919238 0.45962,0.317499 a 1.6630956,1.6630956 0 0 0 -0.02419,0.281215 1.6630956,1.6630956 0 0 0 0.02419,0.281214 l -0.45962,0.317501 0.529167,0.919238 0.504976,-0.238882 a 1.6630956,1.6630956 0 0 0 0.489857,0.278191 l 0.04536,0.559405 h 1.058333 l 0.04536,-0.556381 a 1.6630956,1.6630956 0 0 0 0.486833,-0.281215 l 0.508,0.238882 0.529166,-0.919238 -0.459619,-0.317501 a 1.6630956,1.6630956 0 0 0 0.02419,-0.281214 1.6630956,1.6630956 0 0 0 -0.02419,-0.281215 l 0.459619,-0.317499 -0.529166,-0.919238 -0.504976,0.23888 a 1.6630956,1.6630956 0 0 0 -0.489857,-0.27819 l -0.04536,-0.559404 z m 0.529167,1.511904 a 0.60476203,0.60476203 0 0 1 0.604762,0.604762 0.60476203,0.60476203 0 0 1 -0.604762,0.604763 0.60476203,0.60476203 0 0 1 -0.604761,-0.604763 0.60476203,0.60476203 0 0 1 0.604761,-0.604762 z"
       style="fill:#ffffff;stroke-width:0.302381"
       inkscape:connector-curvature="0" />
  </g>
</svg>
