<?xml version="1.0" encoding="UTF-8" standalone="no"?>
<svg
   xmlns:dc="http://purl.org/dc/elements/1.1/"
   xmlns:cc="http://creativecommons.org/ns#"
   xmlns:rdf="http://www.w3.org/1999/02/22-rdf-syntax-ns#"
   xmlns:svg="http://www.w3.org/2000/svg"
   xmlns="http://www.w3.org/2000/svg"
   xmlns:sodipodi="http://sodipodi.sourceforge.net/DTD/sodipodi-0.dtd"
   xmlns:inkscape="http://www.inkscape.org/namespaces/inkscape"
   width="31.999729"
   height="31.999729"
   version="1.1"
   viewBox="0 0 8.466595 8.4665955"
   id="svg371"
   sodipodi:docname="fedora.svg"
   inkscape:version="1.0.2 (e86c870879, 2021-01-15)">
  <metadata
     id="metadata375">
    <rdf:RDF>
      <cc:Work
         rdf:about="">
        <dc:format>image/svg+xml</dc:format>
        <dc:type
           rdf:resource="http://purl.org/dc/dcmitype/StillImage" />
        <dc:title />
      </cc:Work>
    </rdf:RDF>
  </metadata>
  <sodipodi:namedview
     inkscape:snap-bbox-edge-midpoints="true"
     inkscape:bbox-nodes="true"
     inkscape:snap-bbox="true"
     pagecolor="#ffffff"
     bordercolor="#666666"
     borderopacity="1"
     objecttolerance="10"
     gridtolerance="10"
     guidetolerance="10"
     inkscape:pageopacity="0"
     inkscape:pageshadow="2"
     inkscape:window-width="1836"
     inkscape:window-height="1016"
     id="namedview373"
     showgrid="false"
     inkscape:zoom="11.313708"
     inkscape:cx="16.158486"
     inkscape:cy="18.102234"
     inkscape:window-x="0"
     inkscape:window-y="0"
     inkscape:window-maximized="1"
     inkscape:current-layer="svg371"
     inkscape:document-rotation="0">
    <inkscape:grid
       id="grid1162"
       type="xygrid" />
  </sodipodi:namedview>
  <defs
     id="defs37">
    <style
       id="current-color-scheme"
       type="text/css">.ColorScheme-Text { color:#565656; } .ColorScheme-Highlight { color:#5294e2; }</style>
    <style
       type="text/css"
       id="style13">.ColorScheme-Text { color:#565656; } .ColorScheme-Highlight { color:#5294e2; }</style>
    <style
       type="text/css"
       id="style15">.ColorScheme-Text { color:#565656; } .ColorScheme-Highlight { color:#5294e2; }</style>
    <style
       type="text/css"
       id="style17">.ColorScheme-Text { color:#565656; } .ColorScheme-Highlight { color:#5294e2; }</style>
    <style
       type="text/css"
       id="style19">.ColorScheme-Text { color:#565656; } .ColorScheme-Highlight { color:#5294e2; }</style>
    <style
       type="text/css"
       id="style21">.ColorScheme-Text { color:#565656; } .ColorScheme-Highlight { color:#5294e2; }</style>
    <style
       type="text/css"
       id="style23">.ColorScheme-Text { color:#565656; } .ColorScheme-Highlight { color:#5294e2; }</style>
    <style
       type="text/css"
       id="style25">.ColorScheme-Text { color:#565656; } .ColorScheme-Highlight { color:#5294e2; }</style>
    <style
       type="text/css"
       id="style27">.ColorScheme-Text { color:#565656; } .ColorScheme-Highlight { color:#5294e2; }</style>
    <style
       type="text/css"
       id="style29" />
    <style
       type="text/css"
       id="style31" />
    <style
       type="text/css"
       id="style33">.ColorScheme-Text { color:#565656; } .ColorScheme-Highlight { color:#5294e2; }</style>
    <style
       type="text/css"
       id="style35">.ColorScheme-Text { color:#565656; } .ColorScheme-Highlight { color:#5294e2; }</style>
  </defs>
  <g
     transform="matrix(0.61539433,0,0,0.61539433,-0.97724609,-173.32642)"
     id="g79"
     style="stroke-width:1.5648">
    <circle
       cx="8.467"
       cy="288.53"
       r="6.8790002"
       style="fill:#225a84;stroke-width:1.5648;paint-order:stroke markers fill"
       id="circle77" />
  </g>
  <g
     id="g849">
    <path
       id="voice"
       style="fill:#ffffff;stroke-width:0.0712256"
       d="M 16.591797 5.9199219 C 11.357318 5.9199219 7.113088 10.162733 7.109375 15.396484 L 7.109375 22.734375 C 7.1121896 23.922731 8.0765203 24.884766 9.265625 24.884766 L 16.595703 24.884766 C 21.830787 24.882717 26.074219 20.637824 26.074219 15.402344 C 26.074219 10.165471 21.82863 5.9199219 16.591797 5.9199219 z M 19.375 8.1660156 C 19.362939 8.1660156 19.351884 8.1698235 19.339844 8.1699219 C 19.198428 8.1709347 19.059746 8.1754387 18.921875 8.1894531 C 19.071427 8.1739949 19.221695 8.1660156 19.375 8.1660156 z M 19.375 8.1679688 C 19.394596 8.1679688 19.40871 8.1716362 19.427734 8.171875 C 19.633959 8.1743687 19.834392 8.2043026 20.033203 8.234375 C 20.138468 8.25424 20.241027 8.2703546 20.357422 8.3007812 C 20.860701 8.4324902 21.273268 8.8442566 21.273438 9.3242188 C 21.273438 9.9043619 20.852146 10.326172 20.222656 10.326172 C 20.083772 10.326172 19.9877 10.311837 19.878906 10.298828 C 19.87829 10.298697 19.877569 10.298958 19.876953 10.298828 C 19.751514 10.283861 19.609301 10.269531 19.375 10.269531 C 18.079287 10.269531 17.027666 11.317567 17.025391 12.613281 L 17.025391 14.65625 C 17.025391 14.829144 17.160778 14.965404 17.330078 14.980469 C 17.339867 14.981303 17.347406 14.986328 17.357422 14.986328 L 18.902344 14.986328 C 19.477289 14.986328 19.941406 15.444965 19.941406 16.021484 C 19.941701 16.601587 19.471778 17.058594 18.890625 17.058594 L 17.027344 17.058594 L 17.027344 17.060547 L 17.027344 19.417969 C 17.027344 21.421144 15.703392 23.11372 13.882812 23.671875 C 13.83023 23.687996 13.774236 23.695198 13.720703 23.708984 C 13.593471 23.742832 13.465401 23.776264 13.333984 23.798828 C 13.326763 23.800068 13.319733 23.801529 13.3125 23.802734 C 13.272509 23.809537 13.231709 23.814572 13.191406 23.820312 C 12.990106 23.848159 12.785209 23.867188 12.576172 23.867188 C 12.541352 23.867188 12.515526 23.86206 12.482422 23.861328 C 12.481764 23.861314 12.481127 23.861343 12.480469 23.861328 C 12.453212 23.860729 12.427529 23.85461 12.400391 23.853516 C 12.237425 23.846941 12.078075 23.826638 11.919922 23.802734 C 11.91865 23.802542 11.917287 23.802928 11.916016 23.802734 C 11.811115 23.783146 11.709472 23.766578 11.59375 23.736328 C 11.090471 23.604621 10.679857 23.190899 10.679688 22.710938 C 10.679688 22.130795 11.100979 21.708984 11.730469 21.708984 C 11.867719 21.708984 11.963034 21.72126 12.070312 21.734375 C 12.19721 21.749909 12.338326 21.767578 12.576172 21.767578 C 13.871885 21.767578 14.923506 20.71759 14.925781 19.421875 L 14.925781 17.380859 C 14.925781 17.205863 14.787471 17.066665 14.615234 17.054688 C 14.607449 17.054147 14.601649 17.048828 14.59375 17.048828 L 13.050781 17.048828 C 12.475836 17.048828 12.011719 16.590191 12.011719 16.013672 C 12.011424 15.433569 12.479397 14.976562 13.060547 14.976562 L 14.925781 14.976562 L 14.925781 14.974609 L 14.925781 12.619141 C 14.925781 10.439999 16.494049 8.6330493 18.5625 8.25 C 18.826796 8.201056 19.096551 8.1679688 19.375 8.1679688 z M 13.164062 23.826172 C 13.157586 23.827048 13.151023 23.82728 13.144531 23.828125 C 13.025023 23.843383 12.903446 23.849974 12.78125 23.855469 C 12.909671 23.849449 13.038566 23.843038 13.164062 23.826172 z "
       transform="scale(0.26458334)" />
    <path
       id="in"
       style="color:#000000;font-style:normal;font-variant:normal;font-weight:normal;font-stretch:normal;font-size:medium;line-height:normal;font-family:sans-serif;font-variant-ligatures:normal;font-variant-position:normal;font-variant-caps:normal;font-variant-numeric:normal;font-variant-alternates:normal;font-variant-east-asian:normal;font-feature-settings:normal;font-variation-settings:normal;text-indent:0;text-align:start;text-decoration:none;text-decoration-line:none;text-decoration-style:solid;text-decoration-color:#000000;letter-spacing:normal;word-spacing:normal;text-transform:none;writing-mode:lr-tb;direction:ltr;text-orientation:mixed;dominant-baseline:auto;baseline-shift:baseline;text-anchor:start;white-space:normal;shape-padding:0;shape-margin:0;inline-size:0;clip-rule:nonzero;display:inline;overflow:visible;visibility:visible;isolation:auto;mix-blend-mode:normal;color-interpolation:sRGB;color-interpolation-filters:linearRGB;solid-color:#000000;solid-opacity:1;vector-effect:none;fill:#0069ff;fill-opacity:1;fill-rule:nonzero;stroke:none;stroke-width:0.200702;stroke-linecap:butt;stroke-linejoin:miter;stroke-miterlimit:4;stroke-dasharray:none;stroke-dashoffset:0;stroke-opacity:1;color-rendering:auto;image-rendering:auto;shape-rendering:auto;text-rendering:auto;enable-background:accumulate;stop-color:#000000;opacity:0.35"
       d="m 5.1265286,2.1606005 c -0.081124,0 -0.1605167,0.00843 -0.2371579,0.024304 0.07665,-0.015689 0.1558757,-0.023912 0.2371579,-0.023912 0.098653,0 0.1685732,0.011408 0.2598939,0.03528 0.1331592,0.034848 0.2422092,0.1438798 0.242254,0.2708698 0,0.1534962 -0.1113732,0.2649898 -0.2779256,0.2649898 -0.036954,0 -0.062744,-0.0036 -0.091727,-0.00706 0.2839354,0.060044 0.4939158,0.3091075 0.4939158,0.6122989 0,0.3488068 -0.2776038,0.6264109 -0.6264109,0.6264109 H 4.5851813 c 0.00259,2.207e-4 0.0048,0.00157 0.00745,0.00157 h 0.4084606 c 0.1521209,0 0.2751818,0.1210765 0.2751818,0.2736139 7.8e-5,0.1534855 -0.1241625,0.2743977 -0.2779258,0.2743977 H 4.505214 v 7.827e-4 h 0.6213148 c 0.6466076,0 1.1767743,-0.5301669 1.1767743,-1.1767742 0,-0.6466073 -0.5301667,-1.1767742 -1.1767743,-1.1767742 z m -1.7988729,1.801225 c -0.6467522,0 -1.1767744,0.5305588 -1.1767744,1.1771664 0,0.6466073 0.5301667,1.1767742 1.1767744,1.1767742 0.1212386,0 0.2385525,-0.018762 0.348877,-0.053312 -0.1102707,0.034178 -0.2273849,0.052528 -0.348877,0.052528 -0.098653,0 -0.1689651,-0.011017 -0.2602859,-0.034888 C 2.9342106,6.2452465 2.8255525,6.1358224 2.8255077,6.0088326 c 0,-0.1534961 0.1113733,-0.2649899 0.2779257,-0.2649897 0.036314,-2e-7 0.061775,0.00319 0.090159,0.00666 -0.2830645,-0.060681 -0.4923476,-0.308931 -0.4923476,-0.6115116 0,-0.3488072 0.2777483,-0.6268028 0.6264109,-0.6268028 h 0.5393875 c -0.00206,-1.429e-4 -0.00379,-0.00118 -0.00588,-0.00118 H 3.453094 c -0.1521209,0 -0.2751818,-0.1214683 -0.2751818,-0.2740057 -7.8e-5,-0.1534855 0.1241629,-0.2743978 0.2779256,-0.2743976 h 0.4931321 v -7.827e-4 z" />
  </g>
</svg>
