<?xml version="1.0" encoding="UTF-8" standalone="no"?>
<svg
   xmlns:dc="http://purl.org/dc/elements/1.1/"
   xmlns:cc="http://creativecommons.org/ns#"
   xmlns:rdf="http://www.w3.org/1999/02/22-rdf-syntax-ns#"
   xmlns:svg="http://www.w3.org/2000/svg"
   xmlns="http://www.w3.org/2000/svg"
   xmlns:sodipodi="http://sodipodi.sourceforge.net/DTD/sodipodi-0.dtd"
   xmlns:inkscape="http://www.inkscape.org/namespaces/inkscape"
   width="31.999899"
   height="31.999899"
   version="1.1"
   viewBox="0 0 8.4666399 8.4666404"
   id="svg371"
   sodipodi:docname="gnu-linux.svg"
   inkscape:version="1.0.2 (e86c870879, 2021-01-15)">
  <metadata
     id="metadata375">
    <rdf:RDF>
      <cc:Work
         rdf:about="">
        <dc:format>image/svg+xml</dc:format>
        <dc:type
           rdf:resource="http://purl.org/dc/dcmitype/StillImage" />
        <dc:title />
      </cc:Work>
    </rdf:RDF>
  </metadata>
  <sodipodi:namedview
     inkscape:snap-bbox-edge-midpoints="true"
     inkscape:bbox-nodes="true"
     inkscape:snap-bbox="true"
     pagecolor="#ffffff"
     bordercolor="#666666"
     borderopacity="1"
     objecttolerance="10"
     gridtolerance="10"
     guidetolerance="10"
     inkscape:pageopacity="0"
     inkscape:pageshadow="2"
     inkscape:window-width="1836"
     inkscape:window-height="1016"
     id="namedview373"
     showgrid="false"
     inkscape:zoom="8"
     inkscape:cx="31.41335"
     inkscape:cy="33.234634"
     inkscape:window-x="0"
     inkscape:window-y="0"
     inkscape:window-maximized="1"
     inkscape:current-layer="svg371"
     inkscape:document-rotation="0">
    <inkscape:grid
       id="grid1162"
       type="xygrid" />
  </sodipodi:namedview>
  <defs
     id="defs37">
    <style
       id="current-color-scheme"
       type="text/css">.ColorScheme-Text { color:#565656; } .ColorScheme-Highlight { color:#5294e2; }</style>
    <style
       type="text/css"
       id="style13">.ColorScheme-Text { color:#565656; } .ColorScheme-Highlight { color:#5294e2; }</style>
    <style
       type="text/css"
       id="style15">.ColorScheme-Text { color:#565656; } .ColorScheme-Highlight { color:#5294e2; }</style>
    <style
       type="text/css"
       id="style17">.ColorScheme-Text { color:#565656; } .ColorScheme-Highlight { color:#5294e2; }</style>
    <style
       type="text/css"
       id="style19">.ColorScheme-Text { color:#565656; } .ColorScheme-Highlight { color:#5294e2; }</style>
    <style
       type="text/css"
       id="style21">.ColorScheme-Text { color:#565656; } .ColorScheme-Highlight { color:#5294e2; }</style>
    <style
       type="text/css"
       id="style23">.ColorScheme-Text { color:#565656; } .ColorScheme-Highlight { color:#5294e2; }</style>
    <style
       type="text/css"
       id="style25">.ColorScheme-Text { color:#565656; } .ColorScheme-Highlight { color:#5294e2; }</style>
    <style
       type="text/css"
       id="style27">.ColorScheme-Text { color:#565656; } .ColorScheme-Highlight { color:#5294e2; }</style>
    <style
       type="text/css"
       id="style29" />
    <style
       type="text/css"
       id="style31" />
    <style
       type="text/css"
       id="style33">.ColorScheme-Text { color:#565656; } .ColorScheme-Highlight { color:#5294e2; }</style>
    <style
       type="text/css"
       id="style35">.ColorScheme-Text { color:#565656; } .ColorScheme-Highlight { color:#5294e2; }</style>
  </defs>
  <path
     inkscape:connector-curvature="0"
     id="path956"
     d=""
     style="fill:#ffbb00;fill-opacity:1;stroke-width:0.000149717" />
  <path
     inkscape:connector-curvature="0"
     id="path958"
     d=""
     style="fill:#ffbb00;fill-opacity:1" />
  <path
     inkscape:connector-curvature="0"
     id="path960"
     d=""
     style="fill:#ffbb00;fill-opacity:1" />
  <path
     inkscape:connector-curvature="0"
     id="path962"
     d=""
     style="fill:#ffbb00;fill-opacity:1" />
  <path
     inkscape:connector-curvature="0"
     id="path964"
     d=""
     style="fill:#ffbb00;fill-opacity:1" />
  <path
     inkscape:connector-curvature="0"
     id="path966"
     d=""
     style="fill:#ffbb00;fill-opacity:1;stroke-width:0.000149717" />
  <path
     inkscape:connector-curvature="0"
     id="path968"
     d=""
     style="fill:#ffbb00;fill-opacity:1;stroke-width:0.000149717" />
  <g
     id="g1066">
    <circle
       cx="4.2333202"
       cy="4.2333202"
       r="4.2333202"
       style="fill:#f2f2f2;fill-rule:evenodd;stroke-width:0.264583;paint-order:stroke fill markers"
       id="circle91" />
    <g
       id="g1013"
       transform="matrix(0.41658364,0,0,0.41658364,-2.2221033,4.2151636)">
      <path
         id="path970"
         style="fill:#2c2c2c;fill-opacity:1;stroke-width:0.0169232"
         d="m 15.944266,-7.2152338 c -0.09326,-1.747e-4 -0.190502,0.00382 -0.291877,0.01193 -2.262155,0.1820883 -1.998376,2.3113713 -1.931415,3.4323688 1.08e-4,0.00247 6.7e-5,0.00458 2.18e-4,0.00703 0.0046,0.1132401 0.0082,0.2044991 0.0098,0.279297 3e-6,1.093e-4 -2e-6,3.167e-4 0,4.259e-4 10e-6,0.00143 -4e-6,0.00283 0,0.00427 8.74e-4,0.039884 -1.08e-4,0.068157 -2.16e-4,0.1008465 -0.04702,0.6599459 -0.181284,1.1811768 -0.634283,1.8263048 -0.0014,0.00193 -0.0029,0.00382 -0.0043,0.00576 -0.535527,0.63713632 -1.288816,1.66726615 -1.645722,2.7396696 -0.158431,0.4760954 -0.237191,0.9605436 -0.184836,1.422922 -0.0023,0.052717 -0.0065,0.089567 -0.01344,0.1117182 -0.0144,0.013875 -0.02919,0.02757 -0.04285,0.042001 C 11.048157,2.9373657 10.931873,3.1406857 10.802408,3.2775958 10.6814,3.3984431 10.509043,3.444273 10.319502,3.5121201 10.12996,3.5801688 9.9221207,3.6804104 9.7958728,3.9227509 c 0,0 -2.184e-4,2.184e-4 -2.184e-4,2.184e-4 -1.637e-4,3.275e-4 -3.167e-4,7.641e-4 -6.441e-4,0.00109 -0.0594,0.1108469 -0.078673,0.2304459 -0.078673,0.3517867 0,0.1122008 0.016515,0.2261058 0.033261,0.335583 0.034862,0.2277861 0.070329,0.4431868 0.023453,0.5890818 -0.149941,0.4100511 -0.1693489,0.6934904 -0.063747,0.8992937 0.1059402,0.2061243 0.3233587,0.2969281 0.5692547,0.3483754 0.491792,0.1025556 1.157816,0.077192 1.682606,0.3554109 l 0.0048,-0.00917 c 8.4e-5,3.82e-5 1.32e-4,2.182e-4 2.19e-4,2.182e-4 l -0.0048,0.00917 c 0.561853,0.2937876 1.131633,0.3979779 1.586024,0.2942209 0.320664,-0.073071 0.581389,-0.2615808 0.721908,-0.5496387 0.01248,-0.011234 0.02763,-0.019852 0.04755,-0.025584 0.346269,-0.010682 0.730693,-0.1516214 1.335294,-0.1848488 0.42222,-0.034065 0.949137,0.1487961 1.555112,0.1168361 l 0.0074,4.366e-4 c 0.01584,0.065838 0.03896,0.129261 0.07036,0.1895394 3.27e-4,5.458e-4 6.55e-4,0.00117 0.0011,0.0017 0.236063,0.4721589 0.674525,0.6882309 1.142133,0.651338 0.468082,-0.03691 0.96589,-0.3128666 1.368342,-0.7916256 l -0.0091,-0.0079 c 1.08e-4,-1.09e-4 3.26e-4,-3.275e-4 4.34e-4,-4.367e-4 l 0.0091,0.00747 C 20.180559,6.0402668 20.817166,5.8475441 21.239401,5.5930181 21.450427,5.4657568 21.621526,5.3064601 21.634896,5.0749333 21.648099,4.843592 21.51216,4.5842256 21.199745,4.2374692 21.199526,4.2372507 21.19931,4.2371415 21.19931,4.2370325 21.096594,4.1211062 21.047672,3.9061314 20.995054,3.6771587 20.942579,3.4483572 20.883983,3.2017359 20.696141,3.0418115 c -3.26e-4,-3.274e-4 -9.82e-4,-6.549e-4 -0.0013,-0.00109 -0.03723,-0.032493 -0.07542,-0.059858 -0.113854,-0.082723 -0.02825,-0.016731 -0.05687,-0.030522 -0.0855,-0.042853 -0.0026,-0.00257 -0.0065,-0.00538 -0.0089,-0.0079 -0.0018,-0.00193 -0.0048,-0.00408 -0.0065,-0.00598 -0.0043,-0.00555 -0.0058,-0.011114 -0.0077,-0.016635 -4.37e-4,-0.00156 -9.84e-4,-0.00314 -0.0017,-0.0047 0.251968,-0.7671016 0.149693,-1.5302853 -0.111503,-2.22051824 -0.323126,-0.8552747 -0.887864,-1.60053645 -1.319242,-2.11026526 -0.417338,-0.5264629 -0.826038,-1.0300688 -0.923385,-1.7084024 -0.0079,-0.1080671 -0.01392,-0.2866523 -0.01992,-0.5349285 0.01848,-1.334478 0.03255,-3.5179986 -2.152295,-3.5210614 z" />
      <path
         d="m 21.442457,5.0638407 c -0.0082,0.142814 -0.111526,0.2489408 -0.30259,0.364019 -0.381805,0.2303259 -1.05857,0.4306964 -1.490605,0.9541324 -0.375375,0.4466046 -0.832981,0.6918225 -1.235908,0.7236382 -0.402927,0.031818 -0.75055,-0.1353869 -0.955659,-0.5467902 l -3.55e-4,-8.663e-4 -4.97e-4,-0.00103 C 17.329569,6.3149395 17.382524,5.9333204 17.489657,5.5305644 17.596791,5.1279603 17.750786,4.714356 17.771433,4.3784295 v -0.00103 c 0.0216,-0.4305104 0.04585,-0.8065618 0.118103,-1.0967955 0.07242,-0.2902338 0.186325,-0.4865432 0.388069,-0.5970519 0.0094,-0.00509 0.01872,-0.00999 0.02808,-0.014547 0.02281,0.372819 0.207497,0.7532705 0.533761,0.8355003 0.3571,0.094111 0.871738,-0.2122167 1.089032,-0.4621736 0.04347,-0.00169 0.08579,-0.00389 0.126937,-0.00492 0.190718,-0.00458 0.350482,0.00643 0.513962,0.1492641 l 4.94e-4,4.952e-4 4.95e-4,3.551e-4 c 0.125569,0.1064468 0.185317,0.3074957 0.237095,0.5325748 0.0518,0.2252657 0.09309,0.4704663 0.248452,0.6452833 l 1.7e-4,1.692e-4 1.68e-4,3.555e-4 c 0.298545,0.3311877 0.3945,0.5549132 0.386208,0.6979145 z"
         id="path972"
         style="fill:#ffbb00;fill-opacity:1;stroke-width:0.0169233"
         inkscape:connector-curvature="0" />
      <path
         d="m 14.186588,6.1195125 -1.71e-4,0.00103 v 0.0012 c -0.03452,0.4525276 -0.289726,0.6989299 -0.681668,0.788454 -0.391607,0.089524 -0.922831,3.553e-4 -1.453207,-0.2770336 -1.68e-4,0 -3.38e-4,-1.695e-4 -4.94e-4,-1.695e-4 C 11.464148,6.3221114 10.76606,6.353081 10.318101,6.2594954 10.094206,6.2127874 9.9479882,6.1423864 9.8809719,6.011739 9.8139554,5.8809223 9.8124325,5.6529664 9.9549268,5.2642395 l 6.601e-4,-0.00169 4.952e-4,-0.00169 C 10.026651,5.0433924 9.9743498,4.805452 9.940167,4.5820652 9.9059818,4.358864 9.8892288,4.1556162 9.965552,4.0141208 l 6.602e-4,-0.00136 c 0.097655,-0.1881864 0.2408258,-0.2555407 0.4185208,-0.3191721 0.177863,-0.063801 0.38856,-0.1138768 0.554915,-0.280757 l 10e-4,-8.253e-4 8.65e-4,-8.663e-4 c 0.153846,-0.162294 0.26942,-0.3658807 0.404636,-0.510236 0.114071,-0.1218483 0.22831,-0.2025716 0.400407,-0.203755 0.002,1.86e-4 0.0038,1.86e-4 0.006,0 0.03013,1.86e-4 0.0621,0.00271 0.09595,0.00797 0.228454,0.034524 0.427653,0.1942611 0.619564,0.4545418 l 0.554068,1.0098098 1.71e-4,4.949e-4 3.38e-4,3.385e-4 c 0.147414,0.3078339 0.458789,0.6464682 0.722626,0.9918715 0.263834,0.3452509 0.467927,0.6920083 0.441359,0.9573649 z"
         id="path974"
         style="fill:#ffbb00;fill-opacity:1;stroke-width:0.0169233"
         inkscape:connector-curvature="0" />
      <path
         d="m 18.3218,2.3796444 c -0.0048,0.025894 -0.0086,0.052462 -0.01152,0.079201 -0.04162,0.014547 -0.08327,0.032834 -0.125233,0.055677 -0.260787,0.1428308 -0.403282,0.4017577 -0.482481,0.7195932 -0.07902,0.31748 -0.101876,0.7011302 -0.123553,1.1325035 v 3.387e-4 c -0.01344,0.216804 -0.102716,0.510236 -0.193094,0.8209635 -0.910134,0.6493278 -2.17329,0.9305923 -3.245891,0.1984931 -0.07259,-0.1149085 -0.156031,-0.2288016 -0.241833,-0.3411725 -0.05483,-0.071738 -0.11119,-0.1430013 -0.167026,-0.2133857 0.10999,1.692e-4 0.203585,-0.017956 0.279234,-0.052124 0.0941,-0.042815 0.160088,-0.1111853 0.192926,-0.1992036 C 14.268643,4.404696 14.202988,4.1566011 13.993644,3.8731368 13.784299,3.5898418 13.42976,3.2701615 12.908861,2.9506509 v -1.69e-4 C 12.752302,2.844316 12.659214,2.5927445 12.654163,2.3546312 c 0.01656,-0.5862385 0.156535,-1.1841366 0.391607,-1.74344984 0.342359,-0.77593074 1.033137,-1.48163045 1.072123,-2.55502366 0.04105,-1.1303296 2.688792,-1.5627512 3.017053,-0.1168576 0.196311,0.8646493 0.571326,1.34559582 0.898131,1.95297123 0.173795,0.32221856 0.519361,1.00693281 0.668642,1.83194137 0.07149,0.3485241 -0.273168,0.2883302 -0.379934,0.6554291 z"
         id="path980"
         inkscape:connector-curvature="0"
         style="fill:#ffffff;stroke-width:0.0169233"
         sodipodi:nodetypes="cccccccccccccccccsscccc" />
      <path
         id="path984"
         style="fill:#ffffff;stroke-width:0.0639621"
         d="m 54.703125,-19.148438 c -0.02812,0 -0.05602,6.73e-4 -0.08398,0.002 -0.360794,0.01855 -0.660263,0.168027 -0.957032,0.46289 -0.297403,0.294229 -0.500772,0.651416 -0.654297,1.146485 -0.153108,0.495064 -0.208726,0.972824 -0.177734,1.529297 v 0.0059 c 0.0333,0.55647 0.144331,1.027284 0.351563,1.498047 0.175283,0.398483 0.37622,0.700952 0.632812,0.941406 0.269745,0.214458 0.575478,0.322975 0.878906,0.324219 0.885789,0.0034 1.848121,-0.993676 2.056641,-2.322266 0.01852,-0.21299 0.01827,-0.432558 0.0039,-0.666015 v -0.0039 c -0.03065,-0.556468 -0.13982,-1.028602 -0.347656,-1.5 -0.20722,-0.471395 -0.455669,-0.804795 -0.783203,-1.066406 -0.301928,-0.241141 -0.593031,-0.350923 -0.919922,-0.351563 z m -0.02344,1.97461 c 0.147167,-0.0013 0.27921,0.05424 0.419921,0.175781 0.15543,0.134321 0.275335,0.309112 0.38086,0.556641 0.0988,0.23794 0.157578,0.473117 0.185547,0.753906 0,0.01153 7.4e-5,0.02168 0.002,0.0332 0.01788,0.169675 0.02934,0.403358 -0.0098,0.587891 -0.222536,1.049186 -0.898292,1.127611 -1.214844,0.908203 -0.168832,-0.117021 -0.275309,-0.307764 -0.378906,-0.552735 -0.100913,-0.237939 -0.159531,-0.474465 -0.1875,-0.757812 0,-0.01153 -0.002,-0.01972 -0.002,-0.03125 -0.0254,-0.292303 -0.0109,-0.547599 0.05078,-0.806641 0.06134,-0.259678 0.14816,-0.455935 0.277344,-0.613281 0.129823,-0.15798 0.266626,-0.237893 0.431641,-0.251953 0.0155,-0.0012 0.03056,-0.002 0.04492,-0.002 z"
         transform="scale(0.26458334)"
         sodipodi:nodetypes="cccccccccccccccccccccsscccccccc" />
      <path
         id="path982"
         style="fill:#ffffff;stroke-width:0.0639621"
         d="m 61.412109,-19.681641 c -0.502,0.0051 -0.925653,0.154934 -1.357421,0.482422 -0.431059,0.328123 -0.738845,0.732024 -0.986329,1.292969 -0.247483,0.560305 -0.352884,1.112407 -0.345703,1.755859 v 0.04883 c 0.0035,0.181642 0.01639,0.355222 0.03906,0.523437 0.06565,0.457187 0.282355,0.814024 0.423828,1.220703 2.310094,0.723161 0.81694,1.022907 3.777324,1.022907 0.23785,-0.145347 0.251858,-0.192399 0.367207,-0.290486 0.192522,-0.232823 0.352723,-0.502453 0.492188,-0.822266 0.245026,-0.560946 0.356853,-1.110484 0.351562,-1.755859 -0.0046,-0.01671 -0.0059,-0.03028 -0.0059,-0.04687 -0.01216,-0.628746 -0.131373,-1.158771 -0.38086,-1.701172 -0.254558,-0.556463 -0.569693,-0.954906 -1.007812,-1.273437 -0.431751,-0.312771 -0.852555,-0.457032 -1.34375,-0.457032 z m -0.02344,2.105469 c 0.01096,0 0.02224,-6.39e-4 0.0332,0 0.228994,0.0077 0.418131,0.09317 0.609375,0.279297 0.190537,0.186126 0.322184,0.40921 0.425781,0.720703 0.0988,0.296783 0.1439,0.58678 0.136719,0.925781 -0.0011,0.02568 -0.0053,0.04931 -0.0078,0.07227 -0.24661,2.073884 -2.195605,2.375175 -2.464844,0 -0.0076,-0.04231 -0.0026,-0.07869 -0.0039,-0.117187 0.01213,-0.355625 0.07446,-0.655131 0.199218,-0.957032 0.12528,-0.301893 0.275744,-0.518003 0.478516,-0.6875 0.193247,-0.161166 0.378808,-0.235688 0.59375,-0.236328 z"
         transform="scale(0.26458334)"
         sodipodi:nodetypes="ccccccccccccccsccccccccccccc" />
      <path
         d="m 16.949826,-3.2942119 c -0.04451,-0.087154 -0.135387,-0.1700787 -0.290067,-0.2335401 l -3.38e-4,-1.69e-4 -4.95e-4,-1.693e-4 c -0.321712,-0.137756 -0.461328,-0.1475715 -0.640884,-0.2643418 -0.292266,-0.187848 -0.533763,-0.2536796 -0.734472,-0.2528335 -0.105093,3.387e-4 -0.199024,0.018964 -0.283127,0.048062 -0.244541,0.084108 -0.406838,0.2596023 -0.508546,0.3558956 l -1.7e-4,1.692e-4 c 0,1.69e-4 -1.68e-4,1.69e-4 -1.68e-4,3.383e-4 -0.01992,0.018964 -0.04568,0.036216 -0.107974,0.081909 -0.06277,0.045861 -0.156871,0.1149084 -0.292265,0.2164487 -0.120312,0.0902 -0.159416,0.2076485 -0.117792,0.3452341 0.04146,0.1375858 0.174131,0.296326 0.416822,0.4335733 l 3.38e-4,3.387e-4 4.95e-4,1.693e-4 c 0.150606,0.088508 0.253512,0.2078166 0.371637,0.3027567 0.05905,0.047385 0.121176,0.089694 0.195975,0.1216778 0.0748,0.031986 0.162128,0.053646 0.271448,0.060077 0.256559,0.014883 0.445421,-0.062108 0.612117,-0.1575553 0.167026,-0.095277 0.308495,-0.2118782 0.470806,-0.2645101 l 3.39e-4,-1.697e-4 3.55e-4,-1.69e-4 c 0.332697,-0.1039095 0.569977,-0.3132495 0.644255,-0.5120976 0.03723,-0.099509 0.03606,-0.1939394 -0.0084,-0.281095 z"
         id="path976"
         style="fill:#ffbb00;fill-opacity:1;stroke-width:0.0169233"
         inkscape:connector-curvature="0" />
    </g>
  </g>
</svg>
