<?xml version="1.0" encoding="UTF-8" standalone="no"?>
<svg
   xmlns:dc="http://purl.org/dc/elements/1.1/"
   xmlns:cc="http://creativecommons.org/ns#"
   xmlns:rdf="http://www.w3.org/1999/02/22-rdf-syntax-ns#"
   xmlns:svg="http://www.w3.org/2000/svg"
   xmlns="http://www.w3.org/2000/svg"
   xmlns:sodipodi="http://sodipodi.sourceforge.net/DTD/sodipodi-0.dtd"
   xmlns:inkscape="http://www.inkscape.org/namespaces/inkscape"
   width="31.999899"
   height="31.999899"
   version="1.1"
   viewBox="0 0 8.4666399 8.4666404"
   id="svg371"
   sodipodi:docname="gnu-linux.svg"
   inkscape:version="1.0.2 (e86c870879, 2021-01-15)">
  <metadata
     id="metadata375">
    <rdf:RDF>
      <cc:Work
         rdf:about="">
        <dc:format>image/svg+xml</dc:format>
        <dc:type
           rdf:resource="http://purl.org/dc/dcmitype/StillImage" />
        <dc:title />
      </cc:Work>
    </rdf:RDF>
  </metadata>
  <sodipodi:namedview
     inkscape:snap-bbox-edge-midpoints="true"
     inkscape:bbox-nodes="true"
     inkscape:snap-bbox="true"
     pagecolor="#ffffff"
     bordercolor="#666666"
     borderopacity="1"
     objecttolerance="10"
     gridtolerance="10"
     guidetolerance="10"
     inkscape:pageopacity="0"
     inkscape:pageshadow="2"
     inkscape:window-width="1920"
     inkscape:window-height="1016"
     id="namedview373"
     showgrid="false"
     inkscape:zoom="16"
     inkscape:cx="18.177933"
     inkscape:cy="16.108484"
     inkscape:window-x="1920"
     inkscape:window-y="27"
     inkscape:window-maximized="1"
     inkscape:current-layer="svg371"
     inkscape:document-rotation="0">
    <inkscape:grid
       id="grid1162"
       type="xygrid" />
  </sodipodi:namedview>
  <defs
     id="defs37">
    <style
       id="current-color-scheme"
       type="text/css">.ColorScheme-Text { color:#565656; } .ColorScheme-Highlight { color:#5294e2; }</style>
    <style
       type="text/css"
       id="style13">.ColorScheme-Text { color:#565656; } .ColorScheme-Highlight { color:#5294e2; }</style>
    <style
       type="text/css"
       id="style15">.ColorScheme-Text { color:#565656; } .ColorScheme-Highlight { color:#5294e2; }</style>
    <style
       type="text/css"
       id="style17">.ColorScheme-Text { color:#565656; } .ColorScheme-Highlight { color:#5294e2; }</style>
    <style
       type="text/css"
       id="style19">.ColorScheme-Text { color:#565656; } .ColorScheme-Highlight { color:#5294e2; }</style>
    <style
       type="text/css"
       id="style21">.ColorScheme-Text { color:#565656; } .ColorScheme-Highlight { color:#5294e2; }</style>
    <style
       type="text/css"
       id="style23">.ColorScheme-Text { color:#565656; } .ColorScheme-Highlight { color:#5294e2; }</style>
    <style
       type="text/css"
       id="style25">.ColorScheme-Text { color:#565656; } .ColorScheme-Highlight { color:#5294e2; }</style>
    <style
       type="text/css"
       id="style27">.ColorScheme-Text { color:#565656; } .ColorScheme-Highlight { color:#5294e2; }</style>
    <style
       type="text/css"
       id="style29" />
    <style
       type="text/css"
       id="style31" />
    <style
       type="text/css"
       id="style33">.ColorScheme-Text { color:#565656; } .ColorScheme-Highlight { color:#5294e2; }</style>
    <style
       type="text/css"
       id="style35">.ColorScheme-Text { color:#565656; } .ColorScheme-Highlight { color:#5294e2; }</style>
  </defs>
  <path
     inkscape:connector-curvature="0"
     id="path956"
     d=""
     style="fill:#ffbb00;fill-opacity:1;stroke-width:0.000149717" />
  <path
     inkscape:connector-curvature="0"
     id="path958"
     d=""
     style="fill:#ffbb00;fill-opacity:1" />
  <path
     inkscape:connector-curvature="0"
     id="path960"
     d=""
     style="fill:#ffbb00;fill-opacity:1" />
  <path
     inkscape:connector-curvature="0"
     id="path962"
     d=""
     style="fill:#ffbb00;fill-opacity:1" />
  <path
     inkscape:connector-curvature="0"
     id="path964"
     d=""
     style="fill:#ffbb00;fill-opacity:1" />
  <path
     inkscape:connector-curvature="0"
     id="path966"
     d=""
     style="fill:#ffbb00;fill-opacity:1;stroke-width:0.000149717" />
  <path
     inkscape:connector-curvature="0"
     id="path968"
     d=""
     style="fill:#ffbb00;fill-opacity:1;stroke-width:0.000149717" />
  <g
     id="g963">
    <circle
       cx="4.2333202"
       cy="4.2333202"
       r="4.2333202"
       style="fill:#55d4ff;fill-opacity:1;fill-rule:evenodd;stroke-width:0.264583;paint-order:stroke fill markers"
       id="circle91" />
    <g
       id="g950">
      <circle
         style="fill:#ffffff;stroke:#55d4ff;stroke-width:0.545159;stroke-linecap:round;paint-order:stroke markers fill"
         id="path869"
         cx="4.2333336"
         cy="4.2333336"
         r="2.9024205" />
      <g
         id="g895"
         transform="matrix(0.97494387,0,0,0.97494387,0.10607119,0.02323279)">
        <g
           id="g886">
          <path
             id="path970"
             style="fill:#2c2c2c;fill-opacity:1;stroke-width:0.0061689"
             d="m 4.3445043,1.4552125 c -0.033995,-6.36e-5 -0.069442,0.00139 -0.1063959,0.00435 -0.8246076,0.066375 -0.7284541,0.8425481 -0.7040452,1.2511775 3.93e-5,9.004e-4 2.44e-5,0.00167 7.94e-5,0.00256 0.00168,0.041279 0.00299,0.074545 0.00357,0.1018102 1.1e-6,3.98e-5 -7e-7,1.154e-4 0,1.552e-4 3.7e-6,5.213e-4 -1.4e-6,0.00103 0,0.00156 3.186e-4,0.014539 -3.93e-5,0.024845 -7.87e-5,0.036761 -0.01714,0.2405655 -0.066082,0.4305662 -0.2312108,0.6657302 -5.103e-4,7.035e-4 -0.00106,0.00139 -0.00157,0.0021 -0.195207,0.2322483 -0.4697982,0.6077544 -0.5998987,0.9986702 -0.057752,0.1735477 -0.086462,0.3501402 -0.067377,0.5186878 -8.384e-4,0.019217 -0.00237,0.032649 -0.0049,0.040724 -0.00525,0.00506 -0.01064,0.01005 -0.01562,0.01531 -0.057299,0.06126 -0.099687,0.135375 -0.1468798,0.1852819 -0.04411,0.044052 -0.1069383,0.060758 -0.1760304,0.08549 -0.069092,0.024805 -0.1448546,0.061346 -0.1908749,0.1496844 0,0 -7.96e-5,7.96e-5 -7.96e-5,7.96e-5 -5.97e-5,1.194e-4 -1.154e-4,2.785e-4 -2.348e-4,3.973e-4 -0.021653,0.040406 -0.028678,0.084003 -0.028678,0.1282344 0,0.0409 0.00602,0.082421 0.012124,0.1223277 0.012708,0.083033 0.025637,0.1615518 0.00855,0.2147339 -0.054657,0.1494731 -0.061732,0.2527932 -0.023237,0.3278133 0.038618,0.075137 0.1178717,0.1082371 0.2075065,0.1269908 0.1792695,0.037384 0.4220506,0.028138 0.6133486,0.1295555 l 0.00175,-0.00334 c 3.07e-5,1.39e-5 4.82e-5,7.96e-5 7.99e-5,7.96e-5 l -0.00175,0.00334 C 3.0974604,6.672569 3.3051584,6.7105488 3.4707943,6.6727269 3.5876838,6.6460909 3.682724,6.5773747 3.7339464,6.472371 c 0.00455,-0.0041 0.010072,-0.00724 0.017333,-0.00933 0.126223,-0.00389 0.2663545,-0.05527 0.4867454,-0.067382 0.153909,-0.012417 0.3459824,0.05424 0.5668742,0.042589 l 0.0027,1.592e-4 c 0.00577,0.023999 0.014202,0.047119 0.025648,0.069091 1.192e-4,1.99e-4 2.388e-4,4.265e-4 4.01e-4,6.197e-4 0.08605,0.1721128 0.2458799,0.2508761 0.4163338,0.2374277 0.1706267,-0.013454 0.3520891,-0.114047 0.4987922,-0.2885657 l -0.00332,-0.00288 c 3.94e-5,-3.97e-5 1.188e-4,-1.193e-4 1.582e-4,-1.591e-4 l 0.00332,0.00272 C 5.8887307,6.2871479 6.1207886,6.2168961 6.274703,6.1241155 6.3516269,6.0777258 6.4139964,6.0196585 6.4188701,5.9352616 6.4236829,5.8509324 6.37413,5.7563874 6.2602475,5.6299867 6.2601677,5.629907 6.2600889,5.6298672 6.2600889,5.6298275 6.2226466,5.5875697 6.2048134,5.5092064 6.1856329,5.4257406 6.1665046,5.3423371 6.145145,5.252438 6.0766722,5.1941419 c -1.188e-4,-1.194e-4 -3.579e-4,-2.388e-4 -4.738e-4,-3.974e-4 -0.013571,-0.011844 -0.027492,-0.02182 -0.041502,-0.030154 -0.010298,-0.0061 -0.02073,-0.011126 -0.031167,-0.015621 -9.477e-4,-9.368e-4 -0.00237,-0.00196 -0.00324,-0.00288 -6.562e-4,-7.036e-4 -0.00175,-0.00149 -0.00237,-0.00218 -0.00157,-0.00202 -0.00211,-0.00405 -0.00281,-0.00606 -1.593e-4,-5.687e-4 -3.586e-4,-0.00114 -6.196e-4,-0.00171 0.091848,-0.2796262 0.054566,-0.5578242 -0.040646,-0.80943 C 5.8360568,4.0139351 5.6301968,3.74227 5.4729495,3.5564622 5.3208202,3.3645543 5.1718397,3.1809783 5.1363544,2.9337101 5.1334747,2.8943172 5.1312803,2.8292187 5.1290931,2.7387164 5.1358295,2.2522684 5.1409584,1.4563248 4.344532,1.4552083 Z" />
          <path
             d="m 5.2111702,4.9527667 c -0.00175,0.00944 -0.00313,0.019124 -0.0042,0.028871 -0.015171,0.0053 -0.030354,0.011969 -0.04565,0.020295 -0.095063,0.052065 -0.1470056,0.14645 -0.1758754,0.2623084 -0.028805,0.1157287 -0.037136,0.2555781 -0.045038,0.4128236 v 1.234e-4 c -0.0049,0.07903 -0.037442,0.1859928 -0.070387,0.2992601 -0.3317648,0.236695 -0.7922142,0.3392224 -1.183202,0.072355 -0.026461,-0.041887 -0.056877,-0.083403 -0.088154,-0.1243653 -0.019987,-0.02615 -0.040531,-0.052127 -0.060885,-0.077784 0.040094,6.17e-5 0.074211,-0.00655 0.1017872,-0.019 0.034302,-0.015607 0.058356,-0.04053 0.070326,-0.072614 C 3.7337011,5.6909447 3.7097684,5.6005084 3.6334577,5.4971791 3.5571466,5.3939115 3.4279089,5.2773807 3.2380293,5.1609117 v -6.16e-5 C 3.1809599,5.1221502 3.1470272,5.0304466 3.145186,4.9436488 3.1512225,4.7299514 3.2022466,4.5120037 3.2879357,4.3081212 3.4127335,4.0252766 3.664538,3.7680328 3.6787493,3.3767562 3.6937129,2.964725 4.6588759,2.8070974 4.7785346,3.3341589 c 0.07156,0.3151846 0.2082615,0.4905007 0.3273894,0.711903 0.063352,0.1174561 0.1893191,0.3670502 0.2437355,0.6677849 0.02606,0.127045 -0.099576,0.105103 -0.1384947,0.238919 z"
             id="path980"
             inkscape:connector-curvature="0"
             style="fill:#ffffff;stroke-width:0.00616893"
             sodipodi:nodetypes="cccccccccccccccccsscccc" />
        </g>
        <path
           id="path972"
           style="fill:#ffbb00;fill-opacity:1;stroke-width:0.0233156"
           d="m 19.673828,19.117188 c -0.01291,0.0063 -0.0261,0.01445 -0.03906,0.02148 -0.277947,0.15225 -0.435381,0.422403 -0.535157,0.822266 -0.09955,0.399862 -0.132364,0.91664 -0.162109,1.509765 v 0.002 c -0.02845,0.462815 -0.241071,1.033213 -0.388672,1.587891 -0.147599,0.554887 -0.22027,1.080647 -0.04492,1.414062 v 0.002 h 0.002 c 0.282584,0.566801 0.761284,0.797743 1.316407,0.753907 0.555122,-0.04383 1.185961,-0.382749 1.703125,-0.998047 0.595225,-0.721151 1.526712,-0.997128 2.052734,-1.314453 0.263233,-0.158545 0.406668,-0.303242 0.417969,-0.5 0.01142,-0.197016 -0.121888,-0.506627 -0.533203,-0.962891 -0.214046,-0.24085 -0.270432,-0.578316 -0.341797,-0.888672 -0.07134,-0.310097 -0.155125,-0.587722 -0.328125,-0.734375 v -0.002 c -0.225231,-0.1968 -0.446228,-0.21139 -0.708985,-0.205078 -0.05669,0.0014 -0.113937,0.0055 -0.173828,0.0078 -0.299371,0.344372 -1.009967,0.76638 -1.501953,0.636719 -0.4495,-0.11329 -0.702967,-0.638702 -0.734375,-1.152343 z m -9.037109,0.03906 c -0.237104,0.0016 -0.393621,0.113379 -0.550781,0.28125 -0.18629,0.198882 -0.3466384,0.479528 -0.5585942,0.703125 l -0.00195,0.002 c -0.2291913,0.229915 -0.5205786,0.298818 -0.765625,0.386719 -0.2448147,0.08767 -0.4416301,0.180184 -0.5761718,0.439453 v 0.002 c -0.1051389,0.194942 -0.082253,0.475693 -0.035156,0.783203 0.047093,0.307766 0.1187089,0.635936 0.021484,0.935547 v 0.002 l -0.00195,0.002 c -0.1963182,0.535559 -0.1938926,0.849068 -0.1015626,1.029297 0.09233,0.179996 0.2930972,0.277446 0.6015626,0.341797 0.6171643,0.128935 1.580085,0.08536 2.388672,0.513672 0,0 0,0.002 0,0.002 0.730712,0.382166 1.462426,0.504199 2.001953,0.38086 0.539988,-0.12334 0.891894,-0.46248 0.939453,-1.085938 v -0.002 -0.002 c 0.0366,-0.365589 -0.24393,-0.842699 -0.607422,-1.31836 -0.363495,-0.47587 -0.792997,-0.943077 -0.996094,-1.367187 l -0.763672,-1.392578 c -0.2644,-0.358594 -0.538768,-0.577435 -0.853515,-0.625 -0.04664,-0.0073 -0.0913,-0.01146 -0.132813,-0.01172 -0.003,2.56e-4 -0.0051,2.56e-4 -0.0078,0 z"
           transform="scale(0.26458334)" />
        <g
           id="g881">
          <path
             id="path984"
             style="fill:#ffffff;stroke-width:0.0233156"
             d="m 16.839844,8.265625 c -0.18299,0.00186 -0.338704,0.056405 -0.496094,0.1757812 -0.15713,0.119607 -0.269161,0.2681778 -0.359375,0.4726563 -0.09021,0.2042457 -0.127615,0.4041186 -0.125,0.6386719 v 0.017578 c 0.0013,0.066213 0.0054,0.1300872 0.01367,0.1914063 0.02392,0.1666544 0.102725,0.2970693 0.154297,0.4453123 0.842082,0.263607 0.297824,0.373047 1.376953,0.373047 0.0867,-0.05298 0.09272,-0.06971 0.134765,-0.105469 0.07018,-0.08487 0.12885,-0.184201 0.179688,-0.300781 0.08932,-0.2044762 0.128881,-0.4034178 0.126953,-0.6386719 -0.0017,-0.00608 -0.002,-0.011531 -0.002,-0.017578 C 17.839328,9.2883838 17.796021,9.094202 17.705078,8.8964844 17.612287,8.6936409 17.497595,8.5497076 17.337891,8.4335938 17.180507,8.3195805 17.026708,8.265625 16.847656,8.265625 Z m -2.476563,0.1953125 c -0.131516,0.00677 -0.241428,0.06244 -0.349609,0.1699219 -0.108412,0.1072516 -0.182318,0.237505 -0.238281,0.4179687 -0.05581,0.1804611 -0.07575,0.3537945 -0.06445,0.5566407 v 0.00195 c 0.01213,0.2028472 0.05336,0.3752704 0.128906,0.5468752 0.0639,0.145255 0.136933,0.254146 0.230468,0.341797 0.09833,0.07817 0.209705,0.118687 0.320313,0.11914 0.322889,0.0012 0.67399,-0.363355 0.75,-0.847656 0.0068,-0.077639 0.0052,-0.1570876 0,-0.2421875 v -0.00195 c -0.01119,-0.2028435 -0.04924,-0.3750384 -0.125,-0.546875 -0.07554,-0.1718362 -0.167718,-0.2933091 -0.287109,-0.3886719 -0.11006,-0.0879 -0.214828,-0.1267188 -0.333985,-0.1269531 -0.01024,0 -0.02105,-4.838e-4 -0.03125,0 z m 2.466797,0.5722656 c 0.004,0 0.0097,-2.332e-4 0.01367,0 0.08347,0.00281 0.15099,0.033731 0.220703,0.1015625 0.06946,0.067846 0.118489,0.1501236 0.15625,0.2636719 0.03602,0.1081852 0.05145,0.214319 0.04883,0.3378906 -4.01e-4,0.00937 -0.001,0.017038 -0.002,0.025391 -0.0899,0.7559779 -0.800294,0.8658059 -0.898437,0 -0.0028,-0.015421 -0.0015,-0.028939 -0.002,-0.042969 0.0044,-0.129634 0.02678,-0.237604 0.07227,-0.3476562 0.04567,-0.1100486 0.101869,-0.1901692 0.175781,-0.2519532 0.07044,-0.058749 0.136495,-0.085703 0.214844,-0.085937 z m -2.445312,0.1464844 c 0.05365,-4.74e-4 0.103005,0.020146 0.154296,0.064453 0.05666,0.048964 0.100204,0.1128964 0.138672,0.203125 0.03602,0.086736 0.05621,0.1730373 0.06641,0.2753906 0,0.0042 0.0013,0.00752 0.002,0.011719 0.0065,0.061852 0.01036,0.1475795 -0.0039,0.2148438 -0.08112,0.3824521 -0.327968,0.4100581 -0.44336,0.3300781 -0.06154,-0.04266 -0.10091,-0.111873 -0.138672,-0.201172 -0.03678,-0.086733 -0.05816,-0.1721074 -0.06836,-0.2753905 0,-0.0042 0,-0.00752 0,-0.011719 -0.0093,-0.1065524 -0.003,-0.2004941 0.01953,-0.2949218 0.02238,-0.094658 0.05252,-0.1652982 0.09961,-0.2226563 0.04732,-0.057589 0.09805,-0.086672 0.158203,-0.091797 0.0056,-4.373e-4 0.01041,-0.00195 0.01563,-0.00195 z"
             transform="scale(0.26458334)" />
          <path
             d="M 4.7110541,2.8845154 C 4.6948292,2.8527457 4.6617024,2.8225178 4.605318,2.7993846 l -1.232e-4,-6.16e-5 -1.805e-4,-6.17e-5 C 4.4877429,2.7490461 4.4368497,2.7454681 4.3713974,2.7029026 4.2648597,2.6344277 4.1768285,2.6104306 4.1036654,2.610739 4.0653564,2.6108624 4.0311164,2.617649 4.0004591,2.628259 3.9113181,2.658918 3.8521573,2.72289 3.8150823,2.7579911 l -6.19e-5,6.17e-5 c 0,6.16e-5 -6.13e-5,6.16e-5 -6.13e-5,1.233e-4 -0.00726,0.00691 -0.016651,0.013202 -0.039359,0.029858 -0.022881,0.016717 -0.057183,0.041887 -0.1065373,0.078901 -0.043856,0.03288 -0.058111,0.075693 -0.042938,0.1258458 0.015113,0.050153 0.063475,0.1080176 0.1519412,0.1580474 l 1.232e-4,1.235e-4 1.805e-4,6.17e-5 c 0.054899,0.032263 0.092411,0.075754 0.1354702,0.1103618 0.021525,0.017273 0.044172,0.032695 0.071437,0.044354 0.027266,0.01166 0.059099,0.019555 0.098949,0.021899 0.093522,0.00543 0.1623662,-0.02264 0.2231307,-0.057432 0.060885,-0.034731 0.1124536,-0.077234 0.1716197,-0.09642 l 1.235e-4,-6.19e-5 1.294e-4,-6.16e-5 C 4.600505,3.1357758 4.686999,3.0594661 4.714075,2.9869814 4.727646,2.9507084 4.72722,2.9162864 4.711015,2.8845158 Z"
             id="path976"
             style="fill:#ffbb00;fill-opacity:1;stroke-width:0.00616893"
             inkscape:connector-curvature="0" />
        </g>
      </g>
    </g>
  </g>
</svg>
