<?xml version="1.0" encoding="UTF-8" standalone="no"?>
<svg
   xmlns:dc="http://purl.org/dc/elements/1.1/"
   xmlns:cc="http://creativecommons.org/ns#"
   xmlns:rdf="http://www.w3.org/1999/02/22-rdf-syntax-ns#"
   xmlns:svg="http://www.w3.org/2000/svg"
   xmlns="http://www.w3.org/2000/svg"
   xmlns:sodipodi="http://sodipodi.sourceforge.net/DTD/sodipodi-0.dtd"
   xmlns:inkscape="http://www.inkscape.org/namespaces/inkscape"
   width="32"
   height="32"
   version="1.1"
   viewBox="0 0 8.4666666 8.4666671"
   id="svg371"
   sodipodi:docname="help.svg"
   inkscape:version="1.0.2 (e86c870879, 2021-01-15)">
  <metadata
     id="metadata375">
    <rdf:RDF>
      <cc:Work
         rdf:about="">
        <dc:format>image/svg+xml</dc:format>
        <dc:type
           rdf:resource="http://purl.org/dc/dcmitype/StillImage" />
        <dc:title />
      </cc:Work>
    </rdf:RDF>
  </metadata>
  <sodipodi:namedview
     inkscape:snap-bbox-edge-midpoints="true"
     inkscape:bbox-nodes="true"
     inkscape:snap-bbox="true"
     pagecolor="#ffffff"
     bordercolor="#666666"
     borderopacity="1"
     objecttolerance="10"
     gridtolerance="10"
     guidetolerance="10"
     inkscape:pageopacity="0"
     inkscape:pageshadow="2"
     inkscape:window-width="1920"
     inkscape:window-height="1016"
     id="namedview373"
     showgrid="false"
     inkscape:zoom="16"
     inkscape:cx="17.681132"
     inkscape:cy="16.011219"
     inkscape:window-x="1920"
     inkscape:window-y="27"
     inkscape:window-maximized="1"
     inkscape:current-layer="svg371"
     inkscape:document-rotation="0">
    <inkscape:grid
       id="grid1162"
       type="xygrid" />
  </sodipodi:namedview>
  <defs
     id="defs37">
    <style
       id="current-color-scheme"
       type="text/css">.ColorScheme-Text { color:#565656; } .ColorScheme-Highlight { color:#5294e2; }</style>
    <style
       type="text/css"
       id="style13">.ColorScheme-Text { color:#565656; } .ColorScheme-Highlight { color:#5294e2; }</style>
    <style
       type="text/css"
       id="style15">.ColorScheme-Text { color:#565656; } .ColorScheme-Highlight { color:#5294e2; }</style>
    <style
       type="text/css"
       id="style17">.ColorScheme-Text { color:#565656; } .ColorScheme-Highlight { color:#5294e2; }</style>
    <style
       type="text/css"
       id="style19">.ColorScheme-Text { color:#565656; } .ColorScheme-Highlight { color:#5294e2; }</style>
    <style
       type="text/css"
       id="style21">.ColorScheme-Text { color:#565656; } .ColorScheme-Highlight { color:#5294e2; }</style>
    <style
       type="text/css"
       id="style23">.ColorScheme-Text { color:#565656; } .ColorScheme-Highlight { color:#5294e2; }</style>
    <style
       type="text/css"
       id="style25">.ColorScheme-Text { color:#565656; } .ColorScheme-Highlight { color:#5294e2; }</style>
    <style
       type="text/css"
       id="style27">.ColorScheme-Text { color:#565656; } .ColorScheme-Highlight { color:#5294e2; }</style>
    <style
       type="text/css"
       id="style29" />
    <style
       type="text/css"
       id="style31" />
    <style
       type="text/css"
       id="style33">.ColorScheme-Text { color:#565656; } .ColorScheme-Highlight { color:#5294e2; }</style>
    <style
       type="text/css"
       id="style35">.ColorScheme-Text { color:#565656; } .ColorScheme-Highlight { color:#5294e2; }</style>
  </defs>
  <g
     id="g847">
    <path
       d="m 4.2333,0 c 2.3381,0 4.2333,1.8952 4.2333,4.2333 0,2.3381 -1.8952,4.2333 -4.2333,4.2333 C 1.8952,8.4666 0,6.5714 0,4.2333 0,1.8952 1.8952,0 4.2333,0 Z"
       id="path296"
       inkscape:connector-curvature="0"
       style="fill:#4d4d4d;stroke-width:0.28761" />
    <path
       id="path848"
       style="fill:#ffffff;stroke:none;stroke-width:0.435425;stroke-linecap:round;stroke-linejoin:round;paint-order:stroke markers fill"
       d="m 4.2333333,2.1166667 c -0.6611852,0 -1.1968426,0.5356686 -1.1968426,1.1968264 h 0.5984214 c 0,-0.3290978 0.2693157,-0.5984132 0.5984212,-0.5984132 0.329106,0 0.5984214,0.2693154 0.5984214,0.5984132 0,0.1645486 -0.065529,0.3139741 -0.1762189,0.4216797 L 4.2844938,4.1118939 C 4.0690854,4.3302895 3.9341227,4.6297729 3.9341227,4.9588707 v 0.1493449 h 0.5984214 c 0,-0.4487665 0.1344457,-0.6280643 0.3498544,-0.8464601 L 5.1521532,3.98632 c 0.1705289,-0.1705306 0.278023,-0.4095512 0.278023,-0.6728269 0,-0.661192 -0.5356913,-1.1968264 -1.1968429,-1.1968264 z m -0.00517,3.4855754 A 0.37397308,0.37397667 0 0 0 3.8597076,5.9758629 0.37397308,0.37397667 0 0 0 4.2333333,6.3500002 0.37397308,0.37397667 0 0 0 4.607476,5.9758629 0.37397308,0.37397667 0 0 0 4.2333333,5.6022421 a 0.37397308,0.37397667 0 0 0 -0.00517,0 z" />
  </g>
</svg>
