<?xml version="1.0" encoding="UTF-8" standalone="no"?>
<svg
   width="32"
   height="32"
   version="1.1"
   viewBox="0 0 8.4666666 8.4666671"
   id="svg371"
   sodipodi:docname="help.svg"
   xmlns:inkscape="http://www.inkscape.org/namespaces/inkscape"
   xmlns:sodipodi="http://sodipodi.sourceforge.net/DTD/sodipodi-0.dtd"
   xmlns="http://www.w3.org/2000/svg"
   xmlns:svg="http://www.w3.org/2000/svg">
  <sodipodi:namedview
     inkscape:snap-bbox-edge-midpoints="true"
     inkscape:bbox-nodes="true"
     inkscape:snap-bbox="true"
     pagecolor="#ffffff"
     bordercolor="#666666"
     borderopacity="1"
     objecttolerance="10"
     gridtolerance="10"
     guidetolerance="10"
     inkscape:pageopacity="0"
     inkscape:pageshadow="2"
     inkscape:window-width="1920"
     inkscape:window-height="1016"
     id="namedview373"
     showgrid="false"
     inkscape:zoom="11.313709"
     inkscape:cx="19.136077"
     inkscape:cy="19.931572"
     inkscape:window-x="1920"
     inkscape:window-y="27"
     inkscape:window-maximized="1"
     inkscape:current-layer="g847"
     inkscape:document-rotation="0"
     inkscape:showpageshadow="2"
     inkscape:pagecheckerboard="0"
     inkscape:deskcolor="#d1d1d1">
    <inkscape:grid
       id="grid1162"
       type="xygrid"
       originx="0"
       originy="0"
       spacingy="1"
       spacingx="1"
       units="px"
       visible="false" />
  </sodipodi:namedview>
  <defs
     id="defs37">
    <style
       id="current-color-scheme"
       type="text/css">.ColorScheme-Text { color:#565656; } .ColorScheme-Highlight { color:#5294e2; }</style>
    <style
       type="text/css"
       id="style13">.ColorScheme-Text { color:#565656; } .ColorScheme-Highlight { color:#5294e2; }</style>
    <style
       type="text/css"
       id="style15">.ColorScheme-Text { color:#565656; } .ColorScheme-Highlight { color:#5294e2; }</style>
    <style
       type="text/css"
       id="style17">.ColorScheme-Text { color:#565656; } .ColorScheme-Highlight { color:#5294e2; }</style>
    <style
       type="text/css"
       id="style19">.ColorScheme-Text { color:#565656; } .ColorScheme-Highlight { color:#5294e2; }</style>
    <style
       type="text/css"
       id="style21">.ColorScheme-Text { color:#565656; } .ColorScheme-Highlight { color:#5294e2; }</style>
    <style
       type="text/css"
       id="style23">.ColorScheme-Text { color:#565656; } .ColorScheme-Highlight { color:#5294e2; }</style>
    <style
       type="text/css"
       id="style25">.ColorScheme-Text { color:#565656; } .ColorScheme-Highlight { color:#5294e2; }</style>
    <style
       type="text/css"
       id="style27">.ColorScheme-Text { color:#565656; } .ColorScheme-Highlight { color:#5294e2; }</style>
    <style
       type="text/css"
       id="style29" />
    <style
       type="text/css"
       id="style31" />
    <style
       type="text/css"
       id="style33">.ColorScheme-Text { color:#565656; } .ColorScheme-Highlight { color:#5294e2; }</style>
    <style
       type="text/css"
       id="style35">.ColorScheme-Text { color:#565656; } .ColorScheme-Highlight { color:#5294e2; }</style>
  </defs>
  <g
     id="g847">
    <path
       d="m 4.2333,0 c 2.3381,0 4.2333,1.8952 4.2333,4.2333 0,2.3381 -1.8952,4.2333 -4.2333,4.2333 C 1.8952,8.4666 0,6.5714 0,4.2333 0,1.8952 1.8952,0 4.2333,0 Z"
       id="path296"
       inkscape:connector-curvature="0"
       style="fill:#4d4d4d;stroke-width:0.28761" />
    <path
       id="path848"
       style="fill:#ffffff;stroke:none;stroke-width:0.489859;stroke-linecap:round;stroke-linejoin:round;paint-order:stroke markers fill"
       d="m 4.2333335,1.8520834 c -0.743852,0 -1.3464646,0.6026277 -1.3464646,1.3464295 -1.415e-4,0.1859617 0.1447772,0.3366782 0.3366162,0.3366074 0.191839,-7.08e-5 0.336616,-0.1594383 0.336616,-0.3366074 0,-0.3702347 0.3029794,-0.6732148 0.6732324,-0.6732148 0.3702535,0 0.6732322,0.3029801 0.6732322,0.6732148 0,0.1851169 -0.07372,0.3532209 -0.1982489,0.4743896 L 4.2908896,4.0967139 C 4.0485491,4.3424087 3.8967174,4.6793281 3.8967174,5.0495628 v 0.1680129 h 0.6732322 c 0,-0.5048618 0.15125,-0.7065725 0.3935909,-0.9522674 L 5.2670183,3.9554435 C 5.458868,3.7635967 5.579798,3.4946977 5.579798,3.1985129 c 0,-0.7438402 -0.6026503,-1.3464295 -1.3464645,-1.3464295 z m -0.00582,3.9212723 C 3.9977413,5.7767476 3.813193,5.9638794 3.8129993,6.193679 3.8128994,6.4259541 4.0010546,6.6143645 4.2333335,6.6145835 4.4658393,6.6146856 4.6543489,6.4261811 4.654249,6.193679 4.6540279,5.9614039 4.4656125,5.7732536 4.2333335,5.7733557 c -0.00194,-1.34e-5 -0.00388,-1.34e-5 -0.00582,0 z"
       sodipodi:nodetypes="sczcssccsccccsscccccc" />
  </g>
</svg>
