<?xml version="1.0" encoding="UTF-8" standalone="no"?>
<svg
   width="32"
   height="32"
   version="1.1"
   viewBox="0 0 8.4666666 8.4666671"
   id="svg371"
   sodipodi:docname="kbd.svg"
   xmlns:inkscape="http://www.inkscape.org/namespaces/inkscape"
   xmlns:sodipodi="http://sodipodi.sourceforge.net/DTD/sodipodi-0.dtd"
   xmlns="http://www.w3.org/2000/svg"
   xmlns:svg="http://www.w3.org/2000/svg">
  <sodipodi:namedview
     inkscape:snap-bbox-edge-midpoints="true"
     inkscape:bbox-nodes="true"
     inkscape:snap-bbox="true"
     pagecolor="#ffffff"
     bordercolor="#666666"
     borderopacity="1"
     objecttolerance="10"
     gridtolerance="10"
     guidetolerance="10"
     inkscape:pageopacity="0"
     inkscape:pageshadow="2"
     inkscape:window-width="1920"
     inkscape:window-height="1016"
     id="namedview373"
     showgrid="false"
     inkscape:zoom="16"
     inkscape:cx="12.638396"
     inkscape:cy="18.271501"
     inkscape:window-x="1920"
     inkscape:window-y="27"
     inkscape:window-maximized="1"
     inkscape:current-layer="svg371"
     inkscape:document-rotation="0"
     inkscape:showpageshadow="2"
     inkscape:pagecheckerboard="0"
     inkscape:deskcolor="#d1d1d1">
    <inkscape:grid
       id="grid1162"
       type="xygrid"
       originx="0"
       originy="0"
       spacingy="1"
       spacingx="1"
       units="px"
       visible="false" />
  </sodipodi:namedview>
  <defs
     id="defs37">
    <style
       id="current-color-scheme"
       type="text/css">.ColorScheme-Text { color:#565656; } .ColorScheme-Highlight { color:#5294e2; }</style>
    <style
       type="text/css"
       id="style13">.ColorScheme-Text { color:#565656; } .ColorScheme-Highlight { color:#5294e2; }</style>
    <style
       type="text/css"
       id="style15">.ColorScheme-Text { color:#565656; } .ColorScheme-Highlight { color:#5294e2; }</style>
    <style
       type="text/css"
       id="style17">.ColorScheme-Text { color:#565656; } .ColorScheme-Highlight { color:#5294e2; }</style>
    <style
       type="text/css"
       id="style19">.ColorScheme-Text { color:#565656; } .ColorScheme-Highlight { color:#5294e2; }</style>
    <style
       type="text/css"
       id="style21">.ColorScheme-Text { color:#565656; } .ColorScheme-Highlight { color:#5294e2; }</style>
    <style
       type="text/css"
       id="style23">.ColorScheme-Text { color:#565656; } .ColorScheme-Highlight { color:#5294e2; }</style>
    <style
       type="text/css"
       id="style25">.ColorScheme-Text { color:#565656; } .ColorScheme-Highlight { color:#5294e2; }</style>
    <style
       type="text/css"
       id="style27">.ColorScheme-Text { color:#565656; } .ColorScheme-Highlight { color:#5294e2; }</style>
    <style
       type="text/css"
       id="style29" />
    <style
       type="text/css"
       id="style31" />
    <style
       type="text/css"
       id="style33">.ColorScheme-Text { color:#565656; } .ColorScheme-Highlight { color:#5294e2; }</style>
    <style
       type="text/css"
       id="style35">.ColorScheme-Text { color:#565656; } .ColorScheme-Highlight { color:#5294e2; }</style>
  </defs>
  <g
     id="g850">
    <path
       d="m 4.2333,0 c 2.3381,0 4.2333,1.8952 4.2333,4.2333 0,2.3381 -1.8952,4.2333 -4.2333,4.2333 C 1.8952,8.4666 0,6.5714 0,4.2333 0,1.8952 1.8952,0 4.2333,0 Z"
       id="path301"
       inkscape:connector-curvature="0"
       style="fill:#4d4d4d;stroke-width:0.28761" />
    <path
       class="ColorScheme-Text"
       d="m 2.5841025,2.6458334 c 0,0 -0.5997275,0 -0.5997275,0.52917 v 2.1167 c 0,0.52917 0.5997275,0.52917 0.5997275,0.52917 h 3.2984617 c 0,0 0.5997276,0 0.5997276,-0.52917 v -2.1167 c 0,-0.52917 -0.5997276,-0.52917 -0.5997276,-0.52917 z m 0.07497,0.52917 H 3.108871 c 0.041525,0 0.07497,0.0295 0.07497,0.0661 v 0.39688 c 0,0.0366 -0.033433,0.0661 -0.07497,0.0661 H 2.6590727 c -0.041537,0 -0.07497,-0.0295 -0.07497,-0.0661 v -0.39688 c 0,-0.0366 0.033433,-0.0661 0.07497,-0.0661 z m 0.8995856,0 h 0.4497985 c 0.041525,0 0.07497,0.0295 0.07497,0.0661 v 0.39688 c 0,0.0366 -0.033433,0.0661 -0.07497,0.0661 H 3.5586583 c -0.041525,0 -0.07497,-0.0295 -0.07497,-0.0661 v -0.39688 c 0,-0.0366 0.033434,-0.0661 0.07497,-0.0661 z m 0.8995857,0 h 0.4497984 c 0.041525,0 0.07497,0.0295 0.07497,0.0661 v 0.39688 c 0,0.0366 -0.033433,0.0661 -0.07497,0.0661 H 4.458244 c -0.041526,0 -0.07497,-0.0295 -0.07497,-0.0661 v -0.39688 c 0,-0.0366 0.033433,-0.0661 0.07497,-0.0661 z m 0.8995856,0 h 0.4497985 c 0.041537,0 0.07497,0.0295 0.07497,0.0661 v 0.39688 c 0,0.0366 -0.033433,0.0661 -0.07497,0.0661 H 5.3578296 c -0.041537,0 -0.07497,-0.0295 -0.07497,-0.0661 v -0.39688 c 0,-0.0366 0.033433,-0.0661 0.07497,-0.0661 z m -2.6987,0.79375 h 0.4497985 c 0.041525,0 0.07497,0.0295 0.07497,0.0661 v 0.39688 c 0,0.0366 -0.033434,0.0661 -0.07497,0.0661 H 2.6591294 c -0.041537,0 -0.07497,-0.0295 -0.07497,-0.0661 v -0.39688 c 0,-0.0366 0.033433,-0.0661 0.07497,-0.0661 z m 0.8995856,0 h 0.4497985 c 0.041525,0 0.07497,0.0295 0.07497,0.0661 v 0.39688 c 0,0.0366 -0.033433,0.0661 -0.07497,0.0661 H 3.558715 c -0.041525,0 -0.07497,-0.0295 -0.07497,-0.0661 v -0.39688 c 0,-0.0366 0.033433,-0.0661 0.07497,-0.0661 z m 0.8995856,0 h 0.4497985 c 0.041525,0 0.07497,0.0295 0.07497,0.0661 v 0.39688 c 0,0.0366 -0.033433,0.0661 -0.07497,0.0661 H 4.4583006 c -0.041525,0 -0.07497,-0.0295 -0.07497,-0.0661 v -0.39688 c 0,-0.0366 0.033434,-0.0661 0.07497,-0.0661 z m 0.8995856,0 h 0.4497985 c 0.041537,0 0.07497,0.0295 0.07497,0.0661 v 0.39688 c 0,0.0366 -0.033433,0.0661 -0.07497,0.0661 H 5.3578862 c -0.041537,0 -0.07497,-0.0295 -0.07497,-0.0661 v -0.39688 c 0,-0.0366 0.033433,-0.0661 0.07497,-0.0661 z m -2.099052,0.79375 h 1.9491117 c 0.041537,0 0.07497,0.0295 0.07497,0.0661 v 0.39688 c 0,0.0366 -0.033434,0.0661 -0.07497,0.0661 H 3.2588342 c -0.041525,0 -0.07497,-0.0295 -0.07497,-0.0661 v -0.39688 c 0,-0.0366 0.033433,-0.0661 0.07497,-0.0661 z"
       id="path303"
       inkscape:connector-curvature="0"
       style="color:#565656;fill:#ffffff;stroke-width:0.281667" />
  </g>
</svg>
