<?xml version="1.0" encoding="UTF-8" standalone="no"?>
<svg
   xmlns:dc="http://purl.org/dc/elements/1.1/"
   xmlns:cc="http://creativecommons.org/ns#"
   xmlns:rdf="http://www.w3.org/1999/02/22-rdf-syntax-ns#"
   xmlns:svg="http://www.w3.org/2000/svg"
   xmlns="http://www.w3.org/2000/svg"
   xmlns:sodipodi="http://sodipodi.sourceforge.net/DTD/sodipodi-0.dtd"
   xmlns:inkscape="http://www.inkscape.org/namespaces/inkscape"
   width="31.999746"
   height="31.999746"
   version="1.1"
   viewBox="0 0 8.4665995 8.4666"
   id="svg371"
   sodipodi:docname="kbd.svg"
   inkscape:version="1.0.1 (3bc2e813f5, 2020-09-07)">
  <metadata
     id="metadata375">
    <rdf:RDF>
      <cc:Work
         rdf:about="">
        <dc:format>image/svg+xml</dc:format>
        <dc:type
           rdf:resource="http://purl.org/dc/dcmitype/StillImage" />
        <dc:title />
      </cc:Work>
    </rdf:RDF>
  </metadata>
  <sodipodi:namedview
     inkscape:snap-bbox-edge-midpoints="true"
     inkscape:bbox-nodes="true"
     inkscape:snap-bbox="true"
     pagecolor="#ffffff"
     bordercolor="#666666"
     borderopacity="1"
     objecttolerance="10"
     gridtolerance="10"
     guidetolerance="10"
     inkscape:pageopacity="0"
     inkscape:pageshadow="2"
     inkscape:window-width="1836"
     inkscape:window-height="1016"
     id="namedview373"
     showgrid="false"
     inkscape:zoom="4"
     inkscape:cx="107.16678"
     inkscape:cy="265.86868"
     inkscape:window-x="2004"
     inkscape:window-y="27"
     inkscape:window-maximized="1"
     inkscape:current-layer="svg371"
     inkscape:document-rotation="0">
    <inkscape:grid
       id="grid1162"
       type="xygrid" />
  </sodipodi:namedview>
  <defs
     id="defs37">
    <style
       id="current-color-scheme"
       type="text/css">.ColorScheme-Text { color:#565656; } .ColorScheme-Highlight { color:#5294e2; }</style>
    <style
       type="text/css"
       id="style13">.ColorScheme-Text { color:#565656; } .ColorScheme-Highlight { color:#5294e2; }</style>
    <style
       type="text/css"
       id="style15">.ColorScheme-Text { color:#565656; } .ColorScheme-Highlight { color:#5294e2; }</style>
    <style
       type="text/css"
       id="style17">.ColorScheme-Text { color:#565656; } .ColorScheme-Highlight { color:#5294e2; }</style>
    <style
       type="text/css"
       id="style19">.ColorScheme-Text { color:#565656; } .ColorScheme-Highlight { color:#5294e2; }</style>
    <style
       type="text/css"
       id="style21">.ColorScheme-Text { color:#565656; } .ColorScheme-Highlight { color:#5294e2; }</style>
    <style
       type="text/css"
       id="style23">.ColorScheme-Text { color:#565656; } .ColorScheme-Highlight { color:#5294e2; }</style>
    <style
       type="text/css"
       id="style25">.ColorScheme-Text { color:#565656; } .ColorScheme-Highlight { color:#5294e2; }</style>
    <style
       type="text/css"
       id="style27">.ColorScheme-Text { color:#565656; } .ColorScheme-Highlight { color:#5294e2; }</style>
    <style
       type="text/css"
       id="style29" />
    <style
       type="text/css"
       id="style31" />
    <style
       type="text/css"
       id="style33">.ColorScheme-Text { color:#565656; } .ColorScheme-Highlight { color:#5294e2; }</style>
    <style
       type="text/css"
       id="style35">.ColorScheme-Text { color:#565656; } .ColorScheme-Highlight { color:#5294e2; }</style>
  </defs>
  <g
     id="kbd"
     transform="translate(-48.6837,-282.91)">
    <path
       d="m 52.917,282.91 c 2.3381,0 4.2333,1.8952 4.2333,4.2333 0,2.3381 -1.8952,4.2333 -4.2333,4.2333 -2.3381,0 -4.2333,-1.8952 -4.2333,-4.2333 0,-2.3381 1.8952,-4.2333 4.2333,-4.2333 z"
       id="path301"
       inkscape:connector-curvature="0"
       style="fill:#4d4d4d;stroke-width:0.28761" />
    <path
       class="ColorScheme-Text"
       d="m 51.461,285.56 c 0,0 -0.52917,0 -0.52917,0.52917 v 2.1167 c 0,0.52917 0.52917,0.52917 0.52917,0.52917 h 2.9104 c 0,0 0.52917,0 0.52917,-0.52917 v -2.1167 C 54.90057,285.56 54.3714,285.56 54.3714,285.56 Z m 0.06615,0.52917 h 0.39688 c 0.03664,0 0.06615,0.0295 0.06615,0.0661 v 0.39688 c 0,0.0366 -0.0295,0.0661 -0.06615,0.0661 h -0.39688 c -0.03665,0 -0.06615,-0.0295 -0.06615,-0.0661 v -0.39688 c 0,-0.0366 0.0295,-0.0661 0.06615,-0.0661 z m 0.79375,0 h 0.39688 c 0.03664,0 0.06615,0.0295 0.06615,0.0661 v 0.39688 c 0,0.0366 -0.0295,0.0661 -0.06615,0.0661 H 52.3209 c -0.03664,0 -0.06615,-0.0295 -0.06615,-0.0661 v -0.39688 c 0,-0.0366 0.0295,-0.0661 0.06615,-0.0661 z m 0.79375,0 h 0.39688 c 0.03664,0 0.06615,0.0295 0.06615,0.0661 v 0.39688 c 0,0.0366 -0.0295,0.0661 -0.06615,0.0661 h -0.39688 c -0.03664,0 -0.06615,-0.0295 -0.06615,-0.0661 v -0.39688 c 0,-0.0366 0.0295,-0.0661 0.06615,-0.0661 z m 0.79375,0 h 0.39688 c 0.03665,0 0.06615,0.0295 0.06615,0.0661 v 0.39688 c 0,0.0366 -0.0295,0.0661 -0.06615,0.0661 H 53.9084 c -0.03665,0 -0.06615,-0.0295 -0.06615,-0.0661 v -0.39688 c 0,-0.0366 0.0295,-0.0661 0.06615,-0.0661 z m -2.3812,0.79375 h 0.39688 c 0.03664,0 0.06615,0.0295 0.06615,0.0661 v 0.39688 c 0,0.0366 -0.0295,0.0661 -0.06615,0.0661 H 51.5272 c -0.03665,0 -0.06615,-0.0295 -0.06615,-0.0661 v -0.39688 c 0,-0.0366 0.0295,-0.0661 0.06615,-0.0661 z m 0.79375,0 h 0.39688 c 0.03664,0 0.06615,0.0295 0.06615,0.0661 v 0.39688 c 0,0.0366 -0.0295,0.0661 -0.06615,0.0661 h -0.39688 c -0.03664,0 -0.06615,-0.0295 -0.06615,-0.0661 v -0.39688 c 0,-0.0366 0.0295,-0.0661 0.06615,-0.0661 z m 0.79375,0 h 0.39688 c 0.03664,0 0.06615,0.0295 0.06615,0.0661 v 0.39688 c 0,0.0366 -0.0295,0.0661 -0.06615,0.0661 H 53.1147 c -0.03664,0 -0.06615,-0.0295 -0.06615,-0.0661 v -0.39688 c 0,-0.0366 0.0295,-0.0661 0.06615,-0.0661 z m 0.79375,0 h 0.39688 c 0.03665,0 0.06615,0.0295 0.06615,0.0661 v 0.39688 c 0,0.0366 -0.0295,0.0661 -0.06615,0.0661 h -0.39688 c -0.03665,0 -0.06615,-0.0295 -0.06615,-0.0661 v -0.39688 c 0,-0.0366 0.0295,-0.0661 0.06615,-0.0661 z m -1.8521,0.79375 h 1.7198 c 0.03665,0 0.06615,0.0295 0.06615,0.0661 v 0.39688 c 0,0.0366 -0.0295,0.0661 -0.06615,0.0661 h -1.7198 c -0.03664,0 -0.06615,-0.0295 -0.06615,-0.0661 v -0.39688 c 0,-0.0366 0.0295,-0.0661 0.06615,-0.0661 z"
       id="path303"
       inkscape:connector-curvature="0"
       style="color:#565656;fill:#ffffff;stroke-width:0.26458" />
  </g>
</svg>
