<?xml version="1.0" encoding="UTF-8" standalone="no"?>
<svg
   xmlns:dc="http://purl.org/dc/elements/1.1/"
   xmlns:cc="http://creativecommons.org/ns#"
   xmlns:rdf="http://www.w3.org/1999/02/22-rdf-syntax-ns#"
   xmlns:svg="http://www.w3.org/2000/svg"
   xmlns="http://www.w3.org/2000/svg"
   xmlns:sodipodi="http://sodipodi.sourceforge.net/DTD/sodipodi-0.dtd"
   xmlns:inkscape="http://www.inkscape.org/namespaces/inkscape"
   width="31.999729"
   height="31.999729"
   version="1.1"
   viewBox="0 0 8.466595 8.4665955"
   id="svg371"
   sodipodi:docname="kubuntu.svg"
   inkscape:version="1.0.1 (3bc2e813f5, 2020-09-07)">
  <metadata
     id="metadata375">
    <rdf:RDF>
      <cc:Work
         rdf:about="">
        <dc:format>image/svg+xml</dc:format>
        <dc:type
           rdf:resource="http://purl.org/dc/dcmitype/StillImage" />
        <dc:title />
      </cc:Work>
    </rdf:RDF>
  </metadata>
  <sodipodi:namedview
     inkscape:snap-bbox-edge-midpoints="true"
     inkscape:bbox-nodes="true"
     inkscape:snap-bbox="true"
     pagecolor="#ffffff"
     bordercolor="#666666"
     borderopacity="1"
     objecttolerance="10"
     gridtolerance="10"
     guidetolerance="10"
     inkscape:pageopacity="0"
     inkscape:pageshadow="2"
     inkscape:window-width="1836"
     inkscape:window-height="1016"
     id="namedview373"
     showgrid="false"
     inkscape:zoom="4"
     inkscape:cx="107.16678"
     inkscape:cy="265.86868"
     inkscape:window-x="2004"
     inkscape:window-y="27"
     inkscape:window-maximized="1"
     inkscape:current-layer="svg371"
     inkscape:document-rotation="0">
    <inkscape:grid
       id="grid1162"
       type="xygrid" />
  </sodipodi:namedview>
  <defs
     id="defs37">
    <style
       id="current-color-scheme"
       type="text/css">.ColorScheme-Text { color:#565656; } .ColorScheme-Highlight { color:#5294e2; }</style>
    <style
       type="text/css"
       id="style13">.ColorScheme-Text { color:#565656; } .ColorScheme-Highlight { color:#5294e2; }</style>
    <style
       type="text/css"
       id="style15">.ColorScheme-Text { color:#565656; } .ColorScheme-Highlight { color:#5294e2; }</style>
    <style
       type="text/css"
       id="style17">.ColorScheme-Text { color:#565656; } .ColorScheme-Highlight { color:#5294e2; }</style>
    <style
       type="text/css"
       id="style19">.ColorScheme-Text { color:#565656; } .ColorScheme-Highlight { color:#5294e2; }</style>
    <style
       type="text/css"
       id="style21">.ColorScheme-Text { color:#565656; } .ColorScheme-Highlight { color:#5294e2; }</style>
    <style
       type="text/css"
       id="style23">.ColorScheme-Text { color:#565656; } .ColorScheme-Highlight { color:#5294e2; }</style>
    <style
       type="text/css"
       id="style25">.ColorScheme-Text { color:#565656; } .ColorScheme-Highlight { color:#5294e2; }</style>
    <style
       type="text/css"
       id="style27">.ColorScheme-Text { color:#565656; } .ColorScheme-Highlight { color:#5294e2; }</style>
    <style
       type="text/css"
       id="style29" />
    <style
       type="text/css"
       id="style31" />
    <style
       type="text/css"
       id="style33">.ColorScheme-Text { color:#565656; } .ColorScheme-Highlight { color:#5294e2; }</style>
    <style
       type="text/css"
       id="style35">.ColorScheme-Text { color:#565656; } .ColorScheme-Highlight { color:#5294e2; }</style>
  </defs>
  <g
     id="kubuntu"
     transform="matrix(0.59258,0,0,0.59258,-0.78395333,4.2331434)">
    <g
       transform="matrix(1.0385,0,0,1.0385,-0.41232,-8.7922)"
       id="g132"
       style="stroke-width:1.5648">
      <path
         d="m 8.467,1.588 a 6.879,6.879 0 1 1 0,13.757 6.879,6.879 0 0 1 0,-13.757 z"
         id="path130"
         inkscape:connector-curvature="0"
         style="fill:#1a87e2;stroke-width:1.5648" />
    </g>
    <path
       d="m 8.467,-4.2335 a 4.2335,4.2335 0 1 0 0,8.467 4.2335,4.2335 0 0 0 0,-8.467 z m -0.257,0.85 c 0.02,0.002 0.037,0.014 0.046,0.032 l 0.418,0.879 c 0.203,0.006 0.408,0.041 0.607,0.105 l 0.671,-0.671 a 0.056,0.056 0 0 1 0.07,-0.008 l 0.534,0.325 a 0.057,0.057 0 0 1 0.024,0.068 l -0.324,0.914 c 0.122,0.136 0.226,0.285 0.31,0.444 h 0.997 c 0.027,0 0.05,0.019 0.056,0.044 l 0.148,0.608 a 0.057,0.057 0 0 1 -0.03,0.065 l -1.25,0.273 a 2.044,2.044 0 0 0 -2.67,-1.631 l -0.01,-0.006 -0.268,-1.236 c 0,-0.026 0.019,-0.049 0.044,-0.055 l 0.607,-0.148 c 0.007,-0.002 0.013,-0.002 0.02,-0.002 z m -1.98,0.894 a 0.056,0.056 0 0 1 0.037,0.01 l 0.95,0.865 A 2.038,2.038 0 0 0 7.08,1.4985 v 0.014 L 6.226,2.4555 A 0.058,0.058 0 0 1 6.156,2.4475 L 5.714,2.0065 A 0.057,0.057 0 0 1 5.707,1.9345 L 6.241,1.1205 A 2.21,2.21 0 0 1 6.014,0.5475 L 5.092,0.3215 A 0.057,0.057 0 0 1 5.049,0.2665 v -0.625 c 0,-0.027 0.019,-0.05 0.045,-0.056 l 0.95,-0.198 c 0.053,-0.175 0.127,-0.342 0.218,-0.496 l -0.517,-0.852 a 0.057,0.057 0 0 1 0.008,-0.07 l 0.442,-0.442 a 0.055,0.055 0 0 1 0.035,-0.017 z m 4.232,2.93 1.24,0.278 c 0.022,0.012 0.034,0.04 0.027,0.065 l -0.162,0.603 a 0.057,0.057 0 0 1 -0.059,0.043 l -0.972,-0.057 a 2.21,2.21 0 0 1 -0.383,0.483 l 0.265,0.911 a 0.057,0.057 0 0 1 -0.026,0.065 L 9.85,3.1435 A 0.057,0.057 0 0 1 9.779,3.1325 L 9.133,2.4075 c -0.178,0.042 -0.359,0.062 -0.538,0.06 l -0.48,0.873 A 0.057,0.057 0 0 1 8.05,3.3685 L 7.446,3.2055 A 0.057,0.057 0 0 1 7.404,3.1475 L 7.73,1.9125 7.736,1.9095 a 2.044,2.044 0 0 0 2.726,-1.468 z"
       id="path134"
       inkscape:connector-curvature="0"
       style="fill:#ffffff;stroke-width:1.6875" />
  </g>
</svg>
