<?xml version="1.0" encoding="UTF-8" standalone="no"?>
<svg
   xmlns:dc="http://purl.org/dc/elements/1.1/"
   xmlns:cc="http://creativecommons.org/ns#"
   xmlns:rdf="http://www.w3.org/1999/02/22-rdf-syntax-ns#"
   xmlns:svg="http://www.w3.org/2000/svg"
   xmlns="http://www.w3.org/2000/svg"
   xmlns:sodipodi="http://sodipodi.sourceforge.net/DTD/sodipodi-0.dtd"
   xmlns:inkscape="http://www.inkscape.org/namespaces/inkscape"
   width="31.999729"
   height="31.999729"
   version="1.1"
   viewBox="0 0 8.466595 8.4665955"
   id="svg371"
   sodipodi:docname="kubuntu.svg"
   inkscape:version="1.0.2 (e86c870879, 2021-01-15)">
  <metadata
     id="metadata375">
    <rdf:RDF>
      <cc:Work
         rdf:about="">
        <dc:format>image/svg+xml</dc:format>
        <dc:type
           rdf:resource="http://purl.org/dc/dcmitype/StillImage" />
        <dc:title />
      </cc:Work>
    </rdf:RDF>
  </metadata>
  <sodipodi:namedview
     inkscape:snap-bbox-edge-midpoints="true"
     inkscape:bbox-nodes="true"
     inkscape:snap-bbox="true"
     pagecolor="#ffffff"
     bordercolor="#666666"
     borderopacity="1"
     objecttolerance="10"
     gridtolerance="10"
     guidetolerance="10"
     inkscape:pageopacity="0"
     inkscape:pageshadow="2"
     inkscape:window-width="1836"
     inkscape:window-height="1016"
     id="namedview373"
     showgrid="false"
     inkscape:zoom="8"
     inkscape:cx="25.866925"
     inkscape:cy="11.122002"
     inkscape:window-x="0"
     inkscape:window-y="0"
     inkscape:window-maximized="1"
     inkscape:current-layer="svg371"
     inkscape:document-rotation="0">
    <inkscape:grid
       id="grid1162"
       type="xygrid" />
  </sodipodi:namedview>
  <defs
     id="defs37">
    <style
       id="current-color-scheme"
       type="text/css">.ColorScheme-Text { color:#565656; } .ColorScheme-Highlight { color:#5294e2; }</style>
    <style
       type="text/css"
       id="style13">.ColorScheme-Text { color:#565656; } .ColorScheme-Highlight { color:#5294e2; }</style>
    <style
       type="text/css"
       id="style15">.ColorScheme-Text { color:#565656; } .ColorScheme-Highlight { color:#5294e2; }</style>
    <style
       type="text/css"
       id="style17">.ColorScheme-Text { color:#565656; } .ColorScheme-Highlight { color:#5294e2; }</style>
    <style
       type="text/css"
       id="style19">.ColorScheme-Text { color:#565656; } .ColorScheme-Highlight { color:#5294e2; }</style>
    <style
       type="text/css"
       id="style21">.ColorScheme-Text { color:#565656; } .ColorScheme-Highlight { color:#5294e2; }</style>
    <style
       type="text/css"
       id="style23">.ColorScheme-Text { color:#565656; } .ColorScheme-Highlight { color:#5294e2; }</style>
    <style
       type="text/css"
       id="style25">.ColorScheme-Text { color:#565656; } .ColorScheme-Highlight { color:#5294e2; }</style>
    <style
       type="text/css"
       id="style27">.ColorScheme-Text { color:#565656; } .ColorScheme-Highlight { color:#5294e2; }</style>
    <style
       type="text/css"
       id="style29" />
    <style
       type="text/css"
       id="style31" />
    <style
       type="text/css"
       id="style33">.ColorScheme-Text { color:#565656; } .ColorScheme-Highlight { color:#5294e2; }</style>
    <style
       type="text/css"
       id="style35">.ColorScheme-Text { color:#565656; } .ColorScheme-Highlight { color:#5294e2; }</style>
  </defs>
  <g
     id="g914">
    <g
       transform="matrix(0.61539433,0,0,0.61539433,-1.0282859,-0.97693848)"
       id="g132"
       style="stroke-width:1.5648">
      <path
         d="m 8.467,1.588 a 6.879,6.879 0 1 1 0,13.757 6.879,6.879 0 0 1 0,-13.757 z"
         id="path130"
         inkscape:connector-curvature="0"
         style="fill:#1a87e2;stroke-width:1.5648" />
    </g>
    <path
       d="m 4.2333335,1.5875 a 2.6458334,2.6458334 0 1 0 0,5.2916669 2.6458335,2.6458335 0 0 0 0,-5.2916669 z m -0.160618,0.5312291 c 0.0125,0.00126 0.02312,0.00875 0.02875,0.019999 l 0.26124,0.5493535 c 0.126869,0.00375 0.254989,0.025624 0.37936,0.065622 l 0.419358,-0.419358 a 0.03499862,0.03499862 0 0 1 0.04375,-0.005 l 0.333737,0.203117 a 0.0356236,0.0356236 0 0 1 0.015,0.042499 l -0.202493,0.5712283 c 0.07625,0.084997 0.141244,0.178118 0.193742,0.2774891 h 0.623101 c 0.01688,0 0.03125,0.011874 0.035,0.027498 l 0.0925,0.3799852 a 0.0356236,0.0356236 0 0 1 -0.01875,0.040624 l -0.78122,0.1706173 a 1.2774497,1.2774497 0 0 0 -1.668691,-1.019335 l -0.0062,-0.00375 -0.167493,-0.7724696 c 0,-0.016249 0.01187,-0.030623 0.0275,-0.034374 l 0.37936,-0.092497 c 0.0044,-0.00126 0.0081,-0.00126 0.0125,-0.00126 z m -1.237452,0.558728 a 0.03499862,0.03499862 0 0 1 0.02312,0.00625 l 0.593727,0.5406079 a 1.2736999,1.2736999 0 0 0 -0.08562,1.9455486 v 0.00875 l -0.53373,0.5893556 a 0.03624857,0.03624857 0 0 1 -0.04375,-0.005 L 2.5127765,5.4873467 a 0.0356236,0.0356236 0 0 1 -0.0044,-0.044999 l 0.333762,-0.5087292 a 1.3811957,1.3811957 0 0 1 -0.14187,-0.358111 L 2.1240425,4.4342631 a 0.0356236,0.0356236 0 0 1 -0.02687,-0.034374 V 4.0092798 c 0,-0.016875 0.01187,-0.031249 0.02812,-0.034998 l 0.593726,-0.1237457 c 0.03312,-0.1093707 0.07937,-0.2137416 0.136245,-0.3099878 L 2.5321505,3.0080691 a 0.0356236,0.0356236 0 0 1 0.005,-0.043749 l 0.276239,-0.2762384 a 0.03437365,0.03437365 0 0 1 0.02187,-0.010625 z m 2.644896,1.8311781 0.77497,0.1737431 c 0.01375,0.0075 0.02125,0.024999 0.01688,0.040624 l -0.101252,0.37686 a 0.0356236,0.0356236 0 0 1 -0.03687,0.026874 l -0.60748,-0.035624 a 1.3811957,1.3811957 0 0 1 -0.239365,0.3018631 l 0.165618,0.5693526 a 0.0356236,0.0356236 0 0 1 -0.01625,0.040623 l -0.338737,0.1949927 a 0.0356236,0.0356236 0 0 1 -0.04437,-0.00688 L 4.6495675,5.7379618 c -0.111246,0.026249 -0.224366,0.038749 -0.336237,0.037499 l -0.299988,0.5456034 a 0.0356236,0.0356236 0 0 1 -0.04062,0.017499 l -0.377489,-0.101871 a 0.0356236,0.0356236 0 0 1 -0.02625,-0.036248 l 0.203742,-0.7718448 0.0038,-0.00188 a 1.2774497,1.2774497 0 0 0 1.703683,-0.9174592 z"
       id="path134"
       inkscape:connector-curvature="0"
       style="fill:#ffffff;stroke-width:1.05465" />
  </g>
</svg>
