<?xml version="1.0" encoding="UTF-8" standalone="no"?>
<svg
   xmlns:dc="http://purl.org/dc/elements/1.1/"
   xmlns:cc="http://creativecommons.org/ns#"
   xmlns:rdf="http://www.w3.org/1999/02/22-rdf-syntax-ns#"
   xmlns:svg="http://www.w3.org/2000/svg"
   xmlns="http://www.w3.org/2000/svg"
   xmlns:sodipodi="http://sodipodi.sourceforge.net/DTD/sodipodi-0.dtd"
   xmlns:inkscape="http://www.inkscape.org/namespaces/inkscape"
   width="31.999746"
   height="31.999746"
   version="1.1"
   viewBox="0 0 8.4665995 8.4666"
   id="svg371"
   sodipodi:docname="lang.svg"
   inkscape:version="1.0.1 (3bc2e813f5, 2020-09-07)">
  <metadata
     id="metadata375">
    <rdf:RDF>
      <cc:Work
         rdf:about="">
        <dc:format>image/svg+xml</dc:format>
        <dc:type
           rdf:resource="http://purl.org/dc/dcmitype/StillImage" />
        <dc:title />
      </cc:Work>
    </rdf:RDF>
  </metadata>
  <sodipodi:namedview
     inkscape:snap-bbox-edge-midpoints="true"
     inkscape:bbox-nodes="true"
     inkscape:snap-bbox="true"
     pagecolor="#ffffff"
     bordercolor="#666666"
     borderopacity="1"
     objecttolerance="10"
     gridtolerance="10"
     guidetolerance="10"
     inkscape:pageopacity="0"
     inkscape:pageshadow="2"
     inkscape:window-width="1836"
     inkscape:window-height="1016"
     id="namedview373"
     showgrid="false"
     inkscape:zoom="4"
     inkscape:cx="107.16678"
     inkscape:cy="265.86868"
     inkscape:window-x="2004"
     inkscape:window-y="27"
     inkscape:window-maximized="1"
     inkscape:current-layer="svg371"
     inkscape:document-rotation="0">
    <inkscape:grid
       id="grid1162"
       type="xygrid" />
  </sodipodi:namedview>
  <defs
     id="defs37">
    <style
       id="current-color-scheme"
       type="text/css">.ColorScheme-Text { color:#565656; } .ColorScheme-Highlight { color:#5294e2; }</style>
    <style
       type="text/css"
       id="style13">.ColorScheme-Text { color:#565656; } .ColorScheme-Highlight { color:#5294e2; }</style>
    <style
       type="text/css"
       id="style15">.ColorScheme-Text { color:#565656; } .ColorScheme-Highlight { color:#5294e2; }</style>
    <style
       type="text/css"
       id="style17">.ColorScheme-Text { color:#565656; } .ColorScheme-Highlight { color:#5294e2; }</style>
    <style
       type="text/css"
       id="style19">.ColorScheme-Text { color:#565656; } .ColorScheme-Highlight { color:#5294e2; }</style>
    <style
       type="text/css"
       id="style21">.ColorScheme-Text { color:#565656; } .ColorScheme-Highlight { color:#5294e2; }</style>
    <style
       type="text/css"
       id="style23">.ColorScheme-Text { color:#565656; } .ColorScheme-Highlight { color:#5294e2; }</style>
    <style
       type="text/css"
       id="style25">.ColorScheme-Text { color:#565656; } .ColorScheme-Highlight { color:#5294e2; }</style>
    <style
       type="text/css"
       id="style27">.ColorScheme-Text { color:#565656; } .ColorScheme-Highlight { color:#5294e2; }</style>
    <style
       type="text/css"
       id="style29" />
    <style
       type="text/css"
       id="style31" />
    <style
       type="text/css"
       id="style33">.ColorScheme-Text { color:#565656; } .ColorScheme-Highlight { color:#5294e2; }</style>
    <style
       type="text/css"
       id="style35">.ColorScheme-Text { color:#565656; } .ColorScheme-Highlight { color:#5294e2; }</style>
  </defs>
  <g
     id="lang"
     transform="translate(-60.5897,-282.45)">
    <path
       d="m 64.823,282.45 c 2.3381,0 4.2333,1.8952 4.2333,4.2333 0,2.3381 -1.8952,4.2333 -4.2333,4.2333 -2.3381,0 -4.2333,-1.8952 -4.2333,-4.2333 0,-2.3381 1.8952,-4.2333 4.2333,-4.2333 z"
       id="path306"
       inkscape:connector-curvature="0"
       style="fill:#4d4d4d;stroke-width:0.28761" />
    <path
       class="ColorScheme-Text"
       d="m 64.823,284.83 c -1.0229,0 -1.8521,0.82921 -1.8521,1.8521 0,1.02289 0.8292,1.8521 1.8521,1.8521 1.0229,0 1.8521,-0.8292 1.8521,-1.8521 0,-1.0229 -0.8292,-1.8521 -1.8521,-1.8521 z m -0.13229,0.51263 c 0.0177,-0.002 0.04002,0.001 0.05788,0 0.0021,0.008 -0.01288,0.0386 -0.03307,0.0827 -0.12855,0.28082 -0.13584,0.60969 -0.01654,0.78548 0.02159,0.0319 0.04134,0.0622 0.04134,0.0661 0,0.004 -0.02328,0.008 -0.04961,0.008 -0.0618,0 -0.12028,-0.0377 -0.23978,-0.13229 -0.05308,-0.042 -0.12209,-0.0773 -0.14883,-0.0827 -0.04198,-0.008 -0.05317,-0.005 -0.10749,0.0496 -0.05053,0.0505 -0.06615,0.0778 -0.06615,0.12402 0,0.1754 0.20825,0.31483 0.59531,0.39688 0.52565,0.1114 0.65523,0.21142 0.66973,0.48782 0.0182,0.34661 -0.16633,0.60796 -0.57051,0.81029 -0.04824,0.0241 -0.07898,0.0335 -0.09922,0.0413 -0.009,-8e-4 -0.01586,7.9e-4 -0.02481,0 -0.0034,-0.0107 -0.0083,-0.0356 -0.0083,-0.0827 0,-0.1841 -0.07256,-0.3736 -0.1819,-0.47956 -0.02935,-0.0284 -0.11153,-0.0887 -0.1819,-0.13229 -0.07037,-0.0436 -0.14127,-0.0942 -0.1571,-0.11576 -0.02622,-0.0358 -0.02841,-0.0578 -0.0083,-0.12402 0.03671,-0.12088 0.08041,-0.18821 0.16536,-0.26458 0.04454,-0.04 0.08935,-0.0736 0.09922,-0.0744 0.0099,-7.8e-4 -0.05693,-0.0208 -0.1571,-0.0413 -0.10017,-0.0205 -0.2467,-0.0635 -0.32246,-0.0909 -0.13853,-0.0501 -0.32557,-0.15535 -0.39688,-0.23151 -0.003,-0.003 -0.0057,-0.005 -0.0083,-0.008 0.10216,-0.40695 0.38887,-0.7405 0.76895,-0.90124 0.07953,-0.0336 0.16151,-0.0567 0.24805,-0.0744 0.04311,-0.009 0.08778,-0.012 0.13229,-0.0165 z m 1.2402,0.62012 c 0.03108,0.0192 0.14841,0.27305 0.1819,0.39688 0.04324,0.15985 0.04011,0.43651 0,0.59531 -0.01527,0.0604 -0.03483,0.11698 -0.04134,0.12402 -0.0065,0.007 -0.03011,-0.0335 -0.05788,-0.0827 -0.02777,-0.0492 -0.11646,-0.15374 -0.19017,-0.23151 -0.21276,-0.22451 -0.24622,-0.34172 -0.1571,-0.5209 0.04494,-0.0904 0.24053,-0.29596 0.26458,-0.28112 z"
       id="path308"
       inkscape:connector-curvature="0"
       style="color:#565656;fill:#f9f9f9;stroke-width:0.26458" />
  </g>
</svg>
