<?xml version="1.0" encoding="UTF-8" standalone="no"?>
<svg
   width="32"
   height="32"
   version="1.1"
   viewBox="0 0 8.4666667 8.4666672"
   id="svg371"
   sodipodi:docname="linuxmint.svg"
   xmlns:inkscape="http://www.inkscape.org/namespaces/inkscape"
   xmlns:sodipodi="http://sodipodi.sourceforge.net/DTD/sodipodi-0.dtd"
   xmlns="http://www.w3.org/2000/svg"
   xmlns:svg="http://www.w3.org/2000/svg">
  <sodipodi:namedview
     inkscape:snap-bbox-edge-midpoints="true"
     inkscape:bbox-nodes="true"
     inkscape:snap-bbox="true"
     pagecolor="#ffffff"
     bordercolor="#666666"
     borderopacity="1"
     objecttolerance="10"
     gridtolerance="10"
     guidetolerance="10"
     inkscape:pageopacity="0"
     inkscape:pageshadow="2"
     inkscape:window-width="1920"
     inkscape:window-height="1016"
     id="namedview373"
     showgrid="false"
     inkscape:zoom="15.999999"
     inkscape:cx="26.218751"
     inkscape:cy="18.718751"
     inkscape:window-x="1920"
     inkscape:window-y="27"
     inkscape:window-maximized="1"
     inkscape:current-layer="svg371"
     inkscape:document-rotation="0"
     inkscape:showpageshadow="2"
     inkscape:pagecheckerboard="0"
     inkscape:deskcolor="#d1d1d1">
    <inkscape:grid
       id="grid1162"
       type="xygrid"
       originx="0"
       originy="0"
       spacingy="1"
       spacingx="1"
       units="px"
       visible="false" />
  </sodipodi:namedview>
  <defs
     id="defs37">
    <style
       id="current-color-scheme"
       type="text/css">.ColorScheme-Text { color:#565656; } .ColorScheme-Highlight { color:#5294e2; }</style>
    <style
       type="text/css"
       id="style13">.ColorScheme-Text { color:#565656; } .ColorScheme-Highlight { color:#5294e2; }</style>
    <style
       type="text/css"
       id="style15">.ColorScheme-Text { color:#565656; } .ColorScheme-Highlight { color:#5294e2; }</style>
    <style
       type="text/css"
       id="style17">.ColorScheme-Text { color:#565656; } .ColorScheme-Highlight { color:#5294e2; }</style>
    <style
       type="text/css"
       id="style19">.ColorScheme-Text { color:#565656; } .ColorScheme-Highlight { color:#5294e2; }</style>
    <style
       type="text/css"
       id="style21">.ColorScheme-Text { color:#565656; } .ColorScheme-Highlight { color:#5294e2; }</style>
    <style
       type="text/css"
       id="style23">.ColorScheme-Text { color:#565656; } .ColorScheme-Highlight { color:#5294e2; }</style>
    <style
       type="text/css"
       id="style25">.ColorScheme-Text { color:#565656; } .ColorScheme-Highlight { color:#5294e2; }</style>
    <style
       type="text/css"
       id="style27">.ColorScheme-Text { color:#565656; } .ColorScheme-Highlight { color:#5294e2; }</style>
    <style
       type="text/css"
       id="style29" />
    <style
       type="text/css"
       id="style31" />
    <style
       type="text/css"
       id="style33">.ColorScheme-Text { color:#565656; } .ColorScheme-Highlight { color:#5294e2; }</style>
    <style
       type="text/css"
       id="style35">.ColorScheme-Text { color:#565656; } .ColorScheme-Highlight { color:#5294e2; }</style>
  </defs>
  <g
     id="linuxmint"
     transform="matrix(0.59258,0,0,0.59258,-0.78395333,4.2331434)">
    <g
       transform="matrix(1.0385,0,0,1.0385,-0.41232,-8.7922)"
       id="g139"
       style="stroke-width:1.5648">
      <path
         d="m 8.467,1.588 a 6.879,6.879 0 1 1 0,13.757 6.879,6.879 0 0 1 0,-13.757 z"
         id="path137"
         inkscape:connector-curvature="0"
         style="fill:#78b75b;stroke-width:1.5648" />
    </g>
    <path
       d="m 4.233,-3.7945 v 2.426 h 0.999 v 0.487 l 10e-4,1.91 c 0,1.573 1.366,2.767 2.94,2.767 H 12.7 v -4.802 c 0,-1.575 -1.365,-2.767 -2.94,-2.767 l -1.317,-0.003 z m 0.643,0.645 3.565,0.016 v 0.003 H 9.76 c 1.27,0 2.3,0.951 2.3,2.125 v 3.513 c 0,0.39 -0.352,0.645 -0.753,0.645 H 8.174 c -1.269,0 -2.298,-0.951 -2.298,-2.125 l -0.003,-2.408 a 0.635,0.635 0 0 0 -0.597,-0.629 h -0.4 z m 1.615,0.714 v 3.49 c 0,0.37 0.135,0.695 0.399,0.957 0.225,0.223 0.496,0.367 0.8,0.4 h 0.861 v -0.685 l -0.74,-0.003 c -0.358,0 -0.666,-0.35 -0.666,-0.799 v -3.36 z m 2.468,0.574 c -0.298,0 -0.562,0.11 -0.775,0.325 a 1.087,1.087 0 0 0 -0.323,0.784 v 1.526 h 0.692 v -1.526 c 0,-0.116 0.038,-0.207 0.12,-0.29 a 0.375,0.375 0 0 1 0.286,-0.122 c 0.116,0 0.203,0.038 0.286,0.122 0.083,0.083 0.12,0.174 0.12,0.29 v 1.526 h 0.693 v -1.526 c 0,-0.116 0.038,-0.207 0.12,-0.29 a 0.374,0.374 0 0 1 0.286,-0.122 c 0.114,0 0.202,0.038 0.285,0.122 0.083,0.083 0.12,0.174 0.12,0.29 l 0.005,1.518 h 0.69 l -0.002,-1.518 c 0,-0.302 -0.11,-0.57 -0.323,-0.784 a 1.062,1.062 0 0 0 -0.775,-0.325 c -0.292,0 -0.547,0.108 -0.753,0.307 a 1.057,1.057 0 0 0 -0.752,-0.307 z"
       overflow="visible"
       id="path141"
       inkscape:connector-curvature="0"
       style="overflow:visible;fill:#ffffff;fill-rule:evenodd;stroke-width:1.6875" />
  </g>
  <g
     id="g9690">
    <path
       d="m 4.1822579,3.0771604e-4 a 4.2332976,4.2332976 0 1 1 0,8.46597978396 4.2332976,4.2332976 0 0 1 0,-8.46597978396 z"
       id="path1221"
       inkscape:connector-curvature="0"
       style="fill:#6cbe37;fill-opacity:1;stroke-width:0.962969" />
    <path
       id="path1342"
       style="fill:#ffffff;fill-opacity:1;stroke-width:5.06977;stroke-linecap:round;stroke-linejoin:round;paint-order:stroke markers fill"
       d="m 4.2333335,1.0583334 c -1.7535024,1e-7 -3.175,1.4214981 -3.1750001,3.1750001 1e-7,1.7535032 1.4214977,3.1749991 3.1750001,3.1750001 1.7535023,-1e-6 3.175,-1.4214969 3.1750001,-3.1750001 -10e-8,-1.753502 -1.4214978,-3.175 -3.1750001,-3.1750001 z M 2.0505209,2.2065837 h 0.6237346 v 2.8065472 0.0093 c 0.00312,0.339902 0.2807183,0.6175467 0.6237345,0.6144328 h 1.8706869 0.0093 C 5.5178764,5.6337471 5.7955715,5.3561512 5.7924115,5.0131309 V 3.4535361 c 0,-0.1715103 -0.1401005,-0.3116089 -0.3116089,-0.3116089 -0.1715072,0 -0.3121257,0.1400986 -0.3121257,0.3116089 V 5.0131309 H 4.5449424 V 3.4535361 c 0,-0.1715103 -0.1401013,-0.3116089 -0.3116089,-0.3116089 -0.1715086,0 -0.3116089,0.1400986 -0.3116089,0.3116089 V 5.0131309 H 3.29799 V 3.4535361 C 3.3011085,2.9390057 3.7188087,2.5213207 4.2333335,2.5181926 4.464089,2.5213106 4.6855602,2.6087708 4.857068,2.7646892 5.0285759,2.6056526 5.2500469,2.5181926 5.4808026,2.5181926 5.9953272,2.5213106 6.4130523,2.9390057 6.416146,3.4535361 V 5.0131309 C 6.4130275,5.7022899 5.8578272,6.2569732 5.1686769,6.2600832 H 3.29799 C 2.6088396,6.2569647 2.0536809,5.7022899 2.0505209,5.0131309 Z" />
  </g>
</svg>
