<?xml version="1.0" encoding="UTF-8" standalone="no"?>
<svg
   xmlns:dc="http://purl.org/dc/elements/1.1/"
   xmlns:cc="http://creativecommons.org/ns#"
   xmlns:rdf="http://www.w3.org/1999/02/22-rdf-syntax-ns#"
   xmlns:svg="http://www.w3.org/2000/svg"
   xmlns="http://www.w3.org/2000/svg"
   xmlns:sodipodi="http://sodipodi.sourceforge.net/DTD/sodipodi-0.dtd"
   xmlns:inkscape="http://www.inkscape.org/namespaces/inkscape"
   width="31.999729"
   height="31.999729"
   version="1.1"
   viewBox="0 0 8.466595 8.4665955"
   id="svg371"
   sodipodi:docname="lubuntu.svg"
   inkscape:version="1.0.2 (e86c870879, 2021-01-15)">
  <metadata
     id="metadata375">
    <rdf:RDF>
      <cc:Work
         rdf:about="">
        <dc:format>image/svg+xml</dc:format>
        <dc:type
           rdf:resource="http://purl.org/dc/dcmitype/StillImage" />
        <dc:title />
      </cc:Work>
    </rdf:RDF>
  </metadata>
  <sodipodi:namedview
     inkscape:snap-bbox-edge-midpoints="true"
     inkscape:bbox-nodes="true"
     inkscape:snap-bbox="true"
     pagecolor="#ffffff"
     bordercolor="#666666"
     borderopacity="1"
     objecttolerance="10"
     gridtolerance="10"
     guidetolerance="10"
     inkscape:pageopacity="0"
     inkscape:pageshadow="2"
     inkscape:window-width="1836"
     inkscape:window-height="1016"
     id="namedview373"
     showgrid="false"
     inkscape:zoom="5.6568542"
     inkscape:cx="50.617272"
     inkscape:cy="33.668637"
     inkscape:window-x="0"
     inkscape:window-y="0"
     inkscape:window-maximized="1"
     inkscape:current-layer="svg371"
     inkscape:document-rotation="0">
    <inkscape:grid
       id="grid1162"
       type="xygrid" />
  </sodipodi:namedview>
  <defs
     id="defs37">
    <style
       id="current-color-scheme"
       type="text/css">.ColorScheme-Text { color:#565656; } .ColorScheme-Highlight { color:#5294e2; }</style>
    <style
       type="text/css"
       id="style13">.ColorScheme-Text { color:#565656; } .ColorScheme-Highlight { color:#5294e2; }</style>
    <style
       type="text/css"
       id="style15">.ColorScheme-Text { color:#565656; } .ColorScheme-Highlight { color:#5294e2; }</style>
    <style
       type="text/css"
       id="style17">.ColorScheme-Text { color:#565656; } .ColorScheme-Highlight { color:#5294e2; }</style>
    <style
       type="text/css"
       id="style19">.ColorScheme-Text { color:#565656; } .ColorScheme-Highlight { color:#5294e2; }</style>
    <style
       type="text/css"
       id="style21">.ColorScheme-Text { color:#565656; } .ColorScheme-Highlight { color:#5294e2; }</style>
    <style
       type="text/css"
       id="style23">.ColorScheme-Text { color:#565656; } .ColorScheme-Highlight { color:#5294e2; }</style>
    <style
       type="text/css"
       id="style25">.ColorScheme-Text { color:#565656; } .ColorScheme-Highlight { color:#5294e2; }</style>
    <style
       type="text/css"
       id="style27">.ColorScheme-Text { color:#565656; } .ColorScheme-Highlight { color:#5294e2; }</style>
    <style
       type="text/css"
       id="style29" />
    <style
       type="text/css"
       id="style31" />
    <style
       type="text/css"
       id="style33">.ColorScheme-Text { color:#565656; } .ColorScheme-Highlight { color:#5294e2; }</style>
    <style
       type="text/css"
       id="style35">.ColorScheme-Text { color:#565656; } .ColorScheme-Highlight { color:#5294e2; }</style>
  </defs>
  <g
     style="fill:#ffffff;fill-opacity:1"
     transform="matrix(-0.02885528,0,0,0.0288555,30.259629,5.9111644)"
     id="g898" />
  <g
     style="fill:#ffffff;fill-opacity:1"
     transform="matrix(0.01499372,0.0246541,0.02465391,-0.01499384,8.7135589,-9.7682363)"
     id="g900" />
  <g
     style="fill:#ffffff;fill-opacity:1"
     transform="matrix(0.0144051,-0.0250026,-0.02500241,-0.01440521,5.9599396,16.386349)"
     id="g902" />
  <g
     id="g1001">
    <path
       d="m 4.1822579,3.0769604e-4 a 4.2332976,4.2332976 0 1 1 0,8.46597980396 4.2332976,4.2332976 0 0 1 0,-8.46597980396 z"
       id="path144"
       inkscape:connector-curvature="0"
       style="fill:#1d89db;stroke-width:0.962969" />
    <g
       id="g990">
      <path
         id="path904"
         d="M 6.879167,4.2334173 C 6.879167,2.7722225 5.694561,1.5875 4.233283,1.5875 2.772063,1.5875 1.5875,2.7722225 1.5875,4.2334173 c 0,1.4612129 1.184563,2.645749 2.645783,2.645749 1.461278,0 2.645884,-1.1845361 2.645884,-2.645749 z"
         style="fill:#ffffff;fill-opacity:1;stroke-width:0.122835"
         inkscape:connector-curvature="0" />
      <g
         id="g961"
         transform="translate(-9.65729)"
         style="fill:#1d89db;fill-opacity:1">
        <path
           id="path908"
           d="M 13.732701,3.7759539 C 13.638644,3.6740225 13.576651,3.5429678 13.55753,3.405644 c -0.01912,-0.1373239 0.0047,-0.2803087 0.06735,-0.4040249 0.06264,-0.1237162 0.163799,-0.2276126 0.285845,-0.2935767 0.122045,-0.065962 0.264434,-0.093699 0.40234,-0.078373 0.221798,0.02465 0.427497,0.1648391 0.531421,0.362177 L 16.09415,3.1640779 H 14.66987 C 14.581011,3.050428 14.446778,2.9732445 14.303792,2.953581 c -0.102113,-0.014042 -0.208035,7.108e-4 -0.302416,0.042112 -0.09438,0.041404 -0.176934,0.1093378 -0.235697,0.1939561 -0.05876,0.08462 -0.09356,0.1856667 -0.09934,0.2885 -0.0058,0.1028334 0.01746,0.2071404 0.06636,0.2978051 z"
           style="fill:#1d89db;fill-opacity:1;stroke:none;stroke-width:0.0158014"
           inkscape:connector-curvature="0" />
        <g
           transform="matrix(0.01580765,0,0,0.01579524,-3.6856507,-22.877241)"
           id="g914"
           style="fill:#1d89db;fill-opacity:1">
          <path
             style="fill:#1d89db;fill-opacity:1;stroke:none"
             d="m 1113.0085,1717 -121.00003,-87 c -5.79688,11.4486 -8.0911,24.6415 -6.49942,37.3749 1.59169,12.7335 7.06282,24.9557 15.49945,34.6251 11.0648,12.6815 27.2298,20.7807 44.0118,22.0513 -7.9223,-2.5599 -15.1793,-7.1499 -20.8872,-13.2109 -5.7079,-6.0609 -9.8546,-13.5801 -11.935,-21.6416 -2.383,-9.2343 -2.0312,-19.1565 1,-28.1988 z"
             id="path910"
             inkscape:connector-curvature="0" />
          <path
             id="path912"
             d="m 1106.2919,1740.501 -106.31654,-29.9171 c -0.85695,9.9442 1.09424,20.1153 5.57014,29.0365 4.476,8.9212 11.4632,16.5656 19.9473,21.8232 12.5858,7.7995 28.4343,10.1316 42.7334,6.2881 -14.3249,0.096 -28.5169,-7.0219 -37.0072,-18.5599 -4.7934,-6.514 -7.8065,-14.3248 -8.6296,-22.3704 z"
             style="fill:#1d89db;fill-opacity:1;stroke:none"
             inkscape:connector-curvature="0" />
        </g>
        <path
           style="fill:#1d89db;fill-opacity:1;stroke:none;stroke-width:0.0158014"
           d="m 14.568677,3.5597107 c -0.03122,0.064764 -0.05293,0.1340985 -0.06422,0.2050965 -0.035,0.2202109 0.03049,0.442641 0.09575,0.6558626 0.06527,0.2132199 0.131798,0.4351051 0.09888,0.6556367 -0.02459,0.1647128 -0.104964,0.3188885 -0.217461,0.4417628 -0.112496,0.1228744 -0.256088,0.2152671 -0.410399,0.2781874 -0.254183,0.103642 -0.540096,0.1279951 -0.808167,0.068837 v 0.7330855 l 0.220446,-0.5232963 c 0.2857,0.065151 0.591568,0.038792 0.861885,-0.074275 C 14.538992,5.9196289 14.715624,5.7935513 14.84298,5.6268594 14.970337,5.4601675 15.04631,5.251893 15.040928,5.0422475 15.034428,4.7902266 14.915352,4.556645 14.80007,4.3323968 14.684789,4.1081486 14.56798,3.8727758 14.566698,3.6206759 c -1.58e-4,-0.020336 5.54e-4,-0.040678 0.002,-0.060965 z"
           id="path916"
           inkscape:connector-curvature="0" />
      </g>
    </g>
  </g>
  <g
     transform="matrix(0.01582535,0,0,0.01582535,1.9784813,-5.2075363)"
     id="g924"
     style="fill:#ffffff">
    <g
       id="g920"
       style="font-style:normal;font-variant:normal;font-weight:normal;font-stretch:normal;font-size:21.2227px;line-height:125%;font-family:FontAwesome;-inkscape-font-specification:FontAwesome;text-align:start;letter-spacing:0px;word-spacing:0px;writing-mode:lr-tb;text-anchor:start;fill:#ffffff;fill-opacity:1;stroke:none"
       transform="matrix(1.0005173,0,0,0.99948297,0.16863416,0)" />
    <g
       id="g922"
       style="font-style:normal;font-variant:normal;font-weight:normal;font-stretch:normal;font-size:20.9884px;line-height:125%;font-family:FontAwesome;-inkscape-font-specification:FontAwesome;text-align:end;letter-spacing:0px;word-spacing:0px;writing-mode:lr-tb;text-anchor:end;fill:#ffffff;fill-opacity:1;stroke:none"
       transform="matrix(1.0005173,0,0,0.99948297,9,0)" />
  </g>
</svg>
