<?xml version="1.0" encoding="UTF-8" standalone="no"?>
<svg
   xmlns:dc="http://purl.org/dc/elements/1.1/"
   xmlns:cc="http://creativecommons.org/ns#"
   xmlns:rdf="http://www.w3.org/1999/02/22-rdf-syntax-ns#"
   xmlns:svg="http://www.w3.org/2000/svg"
   xmlns="http://www.w3.org/2000/svg"
   xmlns:xlink="http://www.w3.org/1999/xlink"
   xmlns:sodipodi="http://sodipodi.sourceforge.net/DTD/sodipodi-0.dtd"
   xmlns:inkscape="http://www.inkscape.org/namespaces/inkscape"
   width="32"
   height="32"
   viewBox="0 0 32 32.000001"
   id="svg12241"
   version="1.1"
   inkscape:version="1.0.1 (3bc2e813f5, 2020-09-07)"
   sodipodi:docname="neon.svg">
  <defs
     id="defs12243">
    <linearGradient
       inkscape:collect="always"
       id="linearGradient4138">
      <stop
         style="stop-color:#1abc9c;stop-opacity:1"
         offset="0"
         id="stop4140" />
      <stop
         style="stop-color:#2980b9;stop-opacity:1"
         offset="1"
         id="stop4142" />
    </linearGradient>
    <linearGradient
       inkscape:collect="always"
       xlink:href="#linearGradient4138"
       id="linearGradient4144"
       x1="25"
       y1="1004.3622"
       x2="25"
       y2="1052.3622"
       gradientUnits="userSpaceOnUse"
       gradientTransform="matrix(0.66666667,0,0,0.66666667,0,334.78739)" />
  </defs>
  <sodipodi:namedview
     id="base"
     pagecolor="#ffffff"
     bordercolor="#666666"
     borderopacity="1.0"
     inkscape:pageopacity="0.0"
     inkscape:pageshadow="2"
     inkscape:zoom="16"
     inkscape:cx="17.303155"
     inkscape:cy="15.958582"
     inkscape:document-units="px"
     inkscape:current-layer="layer2"
     showgrid="true"
     units="px"
     inkscape:window-width="1836"
     inkscape:window-height="1016"
     inkscape:window-x="2004"
     inkscape:window-y="27"
     inkscape:window-maximized="1"
     inkscape:snap-bbox="true"
     inkscape:bbox-nodes="true"
     inkscape:snap-center="true"
     showguides="false"
     inkscape:snap-global="true"
     inkscape:document-rotation="0" />
  <metadata
     id="metadata12246">
    <rdf:RDF>
      <cc:Work
         rdf:about="">
        <dc:format>image/svg+xml</dc:format>
        <dc:type
           rdf:resource="http://purl.org/dc/dcmitype/StillImage" />
        <dc:title />
      </cc:Work>
    </rdf:RDF>
  </metadata>
  <g
     inkscape:groupmode="layer"
     id="layer2"
     inkscape:label="Icon"
     style="display:inline">
    <circle
       style="color:#000000;clip-rule:nonzero;display:inline;overflow:visible;visibility:visible;opacity:1;isolation:auto;mix-blend-mode:normal;color-interpolation:sRGB;color-interpolation-filters:linearRGB;solid-color:#000000;solid-opacity:1;fill:url(#linearGradient4144);fill-opacity:1;fill-rule:evenodd;stroke:none;stroke-width:13.3333;stroke-linecap:butt;stroke-linejoin:miter;stroke-miterlimit:4;stroke-dasharray:none;stroke-dashoffset:0;stroke-opacity:1;marker:none;color-rendering:auto;image-rendering:auto;shape-rendering:auto;text-rendering:auto;enable-background:accumulate"
       id="circle955"
       cx="16"
       cy="1020.3622"
       r="16"
       transform="translate(0,-1004.3622)" />
    <path
       id="path893"
       style="fill:#ffffff;stroke-width:6.68461;stroke-linecap:round;paint-order:stroke fill markers"
       d="M 15.994141,5.9492188 A 1.1557028,1.1547247 0 0 0 14.875,6.8457031 9.25,9.25 0 0 0 6.75,16.025391 9.25,9.25 0 0 0 14.888672,25.207031 1.1557028,1.1547247 0 0 0 16,26.050781 1.1557028,1.1547247 0 0 0 17.111328,25.207031 9.25,9.25 0 0 0 25.25,16.025391 9.25,9.25 0 0 0 17.125,6.8457031 1.1557028,1.1547247 0 0 0 16,5.9492188 a 1.1557028,1.1547247 0 0 0 -0.0059,0 z m 0.002,0.5058593 a 0.65039547,0.64984507 0 0 1 0.0039,0 0.65039547,0.64984507 0 0 1 0.650391,0.6484375 A 0.65039547,0.64984507 0 0 1 16,7.7539062 0.65039547,0.64984507 0 0 1 15.349609,7.1035156 0.65039547,0.64984507 0 0 1 15.996094,6.4550781 Z M 14.917969,7.5078125 A 1.1557028,1.1547247 0 0 0 16,8.2597656 1.1557028,1.1547247 0 0 0 17.082031,7.5078125 8.5600004,8.5600004 0 0 1 24.560547,16 8.5600004,8.5600004 0 0 1 17.082031,24.492188 1.1557028,1.1547247 0 0 0 16,23.740234 a 1.1557028,1.1547247 0 0 0 -0.0059,0 1.1557028,1.1547247 0 0 0 -1.076172,0.75 A 8.5600004,8.5600004 0 0 1 7.4394531,16 8.5600004,8.5600004 0 0 1 14.917969,7.5078125 Z m 1.078125,16.7382815 a 0.65039547,0.64984507 0 0 1 0.0039,0 0.65039547,0.64984507 0 0 1 0.650391,0.648437 A 0.65039547,0.64984507 0 0 1 16,25.544922 0.65039547,0.64984507 0 0 1 15.349609,24.894531 0.65039547,0.64984507 0 0 1 15.996094,24.246094 Z" />
    <circle
       style="fill:#ffffff;stroke-width:1.97828;stroke-linecap:round;paint-order:stroke fill markers"
       id="path847"
       cx="16"
       cy="16"
       r="3.3" />
    <path
       id="path989"
       style="display:inline;fill:#ffffff;stroke:none;stroke-width:1.03417;stroke-linecap:round;stroke-miterlimit:4;stroke-dasharray:none;stroke-opacity:1;paint-order:stroke fill markers"
       d="M 15.994141,2 A 1.1557028,1.1547247 0 0 0 14.875,2.8984375 13.15,13.15 0 0 0 7.5332031,5.9394531 1.1547247,1.1557028 45 0 0 6.0996094,6.0996094 1.1547247,1.1557028 45 0 0 5.9394531,7.53125 13.15,13.15 0 0 0 2.8984375,14.875 1.1547247,1.1557028 0 0 0 2,16 a 1.1547247,1.1557028 0 0 0 0.8984375,1.125 13.15,13.15 0 0 0 3.0410156,7.341797 1.1557028,1.1547247 45 0 0 0.1601563,1.433594 1.1557028,1.1547247 45 0 0 0.00586,0.0039 A 1.1557028,1.1547247 45 0 0 7.53125,26.060547 13.15,13.15 0 0 0 14.875,29.101562 1.1557028,1.1547247 0 0 0 16,30 a 1.1557028,1.1547247 0 0 0 1.125,-0.898438 13.15,13.15 0 0 0 7.341797,-3.041015 1.1547247,1.1557028 45 0 0 1.433594,-0.160156 1.1547247,1.1557028 45 0 0 0.0039,-0.0059 1.1547247,1.1557028 45 0 0 0.15625,-1.425781 A 13.15,13.15 0 0 0 29.101562,17.125 1.1547247,1.1557028 0 0 0 30,16 1.1547247,1.1557028 0 0 0 30,15.994141 1.1547247,1.1557028 0 0 0 29.101562,14.875 13.15,13.15 0 0 0 26.060547,7.5332031 1.1557028,1.1547247 45 0 0 25.900391,6.0996094 1.1557028,1.1547247 45 0 0 24.46875,5.9394531 13.15,13.15 0 0 0 17.125,2.8984375 1.1557028,1.1547247 0 0 0 16,2 1.1557028,1.1547247 0 0 0 15.9941,2 Z m 0.002,0.5058594 a 0.65039547,0.64984507 0 0 1 0.0039,0 0.65039547,0.64984507 0 0 1 0.650391,0.6484375 A 0.65039547,0.64984507 0 0 1 16,3.8046875 0.65039547,0.64984507 0 0 1 15.349609,3.1542969 0.65039547,0.64984507 0 0 1 15.996094,2.5058594 Z M 14.914062,3.5488281 A 1.1557028,1.1547247 0 0 0 16,4.3105469 a 1.1557028,1.1547247 0 0 0 1.085938,-0.7617188 12.5,12.5 0 0 1 6.951171,2.8808594 1.1557028,1.1547247 45 0 0 0.228516,1.3046875 1.1557028,1.1547247 45 0 0 0.0039,0.00391 1.1557028,1.1547247 45 0 0 1.300781,0.2246094 12.5,12.5 0 0 1 2.88086,6.9511716 A 1.1547247,1.1557028 0 0 0 27.689453,16 a 1.1547247,1.1557028 0 0 0 0.761719,1.085938 12.5,12.5 0 0 1 -2.88086,6.951171 1.1547247,1.1557028 45 0 0 -1.304687,0.228516 1.1547247,1.1557028 45 0 0 -0.228516,1.304687 12.5,12.5 0 0 1 -6.951171,2.88086 A 1.1557028,1.1547247 0 0 0 16,27.689453 a 1.1557028,1.1547247 0 0 0 -0.0059,0 1.1557028,1.1547247 0 0 0 -1.080079,0.761719 A 12.5,12.5 0 0 1 7.9628906,25.570312 1.1557028,1.1547247 45 0 0 7.734375,24.265625 1.1557028,1.1547247 45 0 0 6.4296875,24.037109 12.5,12.5 0 0 1 3.5488281,17.085938 1.1547247,1.1557028 0 0 0 4.3105469,16 a 1.1547247,1.1557028 0 0 0 0,-0.0059 A 1.1547247,1.1557028 0 0 0 3.5488281,14.914062 12.5,12.5 0 0 1 6.4296875,7.9628906 1.1547247,1.1557028 45 0 0 7.734375,7.734375 1.1547247,1.1557028 45 0 0 7.7382812,7.7304688 1.1547247,1.1557028 45 0 0 7.9628906,6.4296875 12.5,12.5 0 0 1 14.914062,3.5488281 Z m -8.0332026,2.71875 a 0.64984507,0.65039547 45 0 1 0.4980468,0.1894531 0.64984507,0.65039547 45 0 1 0,0.9160157 0.64984507,0.65039547 45 0 1 -0.00195,0.00391 0.64984507,0.65039547 45 0 1 -0.9199219,0.00195 0.64984507,0.65039547 45 0 1 0.00195,-0.9199218 0.64984507,0.65039547 45 0 1 0.4218751,-0.191407 z m 18.1640626,0 a 0.65039547,0.64984507 45 0 1 0.496094,0.1914063 0.65039547,0.64984507 45 0 1 0.002,0.9199218 0.65039547,0.64984507 45 0 1 -0.916016,0 0.65039547,0.64984507 45 0 1 -0.0039,-0.00195 0.65039547,0.64984507 45 0 1 -0.002,-0.9199219 0.65039547,0.64984507 45 0 1 0.423828,-0.1894531 z M 3.1503906,15.349609 a 0.64984507,0.65039547 0 0 1 0.00586,0 0.64984507,0.65039547 0 0 1 0.6484375,0.646485 0.64984507,0.65039547 0 0 1 0,0.0039 A 0.64984507,0.65039547 0 0 1 3.15625,16.650391 0.64984507,0.65039547 0 0 1 2.5058594,16 0.64984507,0.65039547 0 0 1 3.1503906,15.349609 Z m 25.6914064,0 a 0.64984507,0.65039547 0 0 1 0.0039,0 0.64984507,0.65039547 0 0 1 0.648438,0.646485 0.64984507,0.65039547 0 0 1 0,0.0039 0.64984507,0.65039547 0 0 1 -0.648438,0.650391 A 0.64984507,0.65039547 0 0 1 28.195312,16 0.64984507,0.65039547 0 0 1 28.841797,15.349609 Z M 6.8789062,24.433594 a 0.65039547,0.64984507 45 0 1 0.4980469,0.189453 0.65039547,0.64984507 45 0 1 0,0.919922 0.65039547,0.64984507 45 0 1 -0.9160156,0.002 0.65039547,0.64984507 45 0 1 -0.00195,-0.0039 0.65039547,0.64984507 45 0 1 -0.00195,-0.917969 0.65039547,0.64984507 45 0 1 0.421875,-0.189453 z m 18.1679688,0 a 0.64984507,0.65039547 45 0 1 0.496094,0.189453 0.64984507,0.65039547 45 0 1 0.002,0.916015 0.64984507,0.65039547 45 0 1 -0.0039,0.002 0.64984507,0.65039547 45 0 1 -0.917969,0.002 0.64984507,0.65039547 45 0 1 0,-0.919922 0.64984507,0.65039547 45 0 1 0.423828,-0.189453 z m -9.050781,3.761718 a 0.65039547,0.64984507 0 0 1 0.0039,0 0.65039547,0.64984507 0 0 1 0.650391,0.648438 A 0.65039547,0.64984507 0 0 1 16,29.494141 0.65039547,0.64984507 0 0 1 15.349609,28.84375 0.65039547,0.64984507 0 0 1 15.996094,28.195312 Z" />
  </g>
</svg>
