<?xml version="1.0" encoding="UTF-8" standalone="no"?>
<svg
   xmlns:dc="http://purl.org/dc/elements/1.1/"
   xmlns:cc="http://creativecommons.org/ns#"
   xmlns:rdf="http://www.w3.org/1999/02/22-rdf-syntax-ns#"
   xmlns:svg="http://www.w3.org/2000/svg"
   xmlns="http://www.w3.org/2000/svg"
   xmlns:sodipodi="http://sodipodi.sourceforge.net/DTD/sodipodi-0.dtd"
   xmlns:inkscape="http://www.inkscape.org/namespaces/inkscape"
   width="32"
   height="32"
   viewBox="0 0 32 32.000001"
   id="svg12241"
   version="1.1"
   inkscape:version="1.0.2 (e86c870879, 2021-01-15)"
   sodipodi:docname="neon.svg">
  <defs
     id="defs12243" />
  <sodipodi:namedview
     id="base"
     pagecolor="#ffffff"
     bordercolor="#666666"
     borderopacity="1.0"
     inkscape:pageopacity="0.0"
     inkscape:pageshadow="2"
     inkscape:zoom="16"
     inkscape:cx="22.863912"
     inkscape:cy="22.961829"
     inkscape:document-units="px"
     inkscape:current-layer="svg12241"
     showgrid="true"
     units="px"
     inkscape:window-width="1920"
     inkscape:window-height="1016"
     inkscape:window-x="1920"
     inkscape:window-y="27"
     inkscape:window-maximized="1"
     inkscape:snap-bbox="true"
     inkscape:bbox-nodes="true"
     inkscape:snap-center="true"
     showguides="false"
     inkscape:snap-global="true"
     inkscape:document-rotation="0" />
  <metadata
     id="metadata12246">
    <rdf:RDF>
      <cc:Work
         rdf:about="">
        <dc:format>image/svg+xml</dc:format>
        <dc:type
           rdf:resource="http://purl.org/dc/dcmitype/StillImage" />
        <dc:title />
      </cc:Work>
    </rdf:RDF>
  </metadata>
  <g
     id="g873">
    <circle
       style="color:#000000;clip-rule:nonzero;display:inline;overflow:visible;visibility:visible;isolation:auto;mix-blend-mode:normal;color-interpolation:sRGB;color-interpolation-filters:linearRGB;solid-color:#000000;solid-opacity:1;fill:#11bdc2;fill-opacity:1;fill-rule:evenodd;stroke:none;stroke-width:13.3333;stroke-linecap:butt;stroke-linejoin:miter;stroke-miterlimit:4;stroke-dasharray:none;stroke-dashoffset:0;stroke-opacity:1;marker:none;color-rendering:auto;image-rendering:auto;shape-rendering:auto;text-rendering:auto;enable-background:accumulate"
       id="circle955"
       cx="16"
       cy="15.999983"
       r="16" />
    <g
       id="g866">
      <path
         id="path852"
         style="color:#000000;font-style:normal;font-variant:normal;font-weight:normal;font-stretch:normal;font-size:medium;line-height:normal;font-family:sans-serif;font-variant-ligatures:normal;font-variant-position:normal;font-variant-caps:normal;font-variant-numeric:normal;font-variant-alternates:normal;font-variant-east-asian:normal;font-feature-settings:normal;font-variation-settings:normal;text-indent:0;text-align:start;text-decoration:none;text-decoration-line:none;text-decoration-style:solid;text-decoration-color:#000000;letter-spacing:normal;word-spacing:normal;text-transform:none;writing-mode:lr-tb;direction:ltr;text-orientation:mixed;dominant-baseline:auto;baseline-shift:baseline;text-anchor:start;white-space:normal;shape-padding:0;shape-margin:0;inline-size:0;clip-rule:nonzero;display:inline;overflow:visible;visibility:visible;isolation:auto;mix-blend-mode:normal;color-interpolation:sRGB;color-interpolation-filters:linearRGB;solid-color:#000000;solid-opacity:1;vector-effect:none;fill:#ffffff;fill-opacity:1;fill-rule:nonzero;stroke:none;stroke-linecap:round;stroke-linejoin:miter;stroke-miterlimit:4;stroke-dasharray:none;stroke-dashoffset:0;stroke-opacity:1;paint-order:stroke fill markers;color-rendering:auto;image-rendering:auto;shape-rendering:auto;text-rendering:auto;enable-background:accumulate;stop-color:#000000"
         d="M 15.994141 6.6171875 C 15.485882 6.6203898 15.048912 6.9669263 14.919922 7.4550781 C 10.603237 7.9990713 7.3621031 11.669474 7.3613281 16.023438 C 7.3619679 20.38317 10.611957 24.058529 14.935547 24.595703 C 15.082426 25.060223 15.509647 25.382102 16 25.382812 C 16.490354 25.382103 16.917574 25.060224 17.064453 24.595703 C 21.388043 24.058529 24.638032 20.38317 24.638672 16.023438 C 24.637897 11.669475 21.396763 7.9990715 17.080078 7.4550781 C 16.950547 6.9648956 16.510394 6.6178192 16 6.6171875 C 15.9981 6.6171826 15.996141 6.6171826 15.994141 6.6171875 z M 15.996094 7.1875 C 15.997194 7.1874967 15.9989 7.1874967 16 7.1875 C 16.306074 7.1875011 16.554025 7.4325358 16.554688 7.7382812 C 16.554903 8.0446959 16.306743 8.2929863 16 8.2929688 C 15.693271 8.2929664 15.445056 8.0446814 15.445312 7.7382812 C 15.445968 7.4338397 15.691331 7.1893304 15.996094 7.1875 z M 14.996094 8.1660156 C 15.17378 8.5722707 15.552407 8.8628599 16 8.8632812 C 16.447593 8.8628599 16.82622 8.5722707 17.003906 8.1660156 C 20.945963 8.6712782 23.898799 12.02503 23.898438 16 C 23.8988 19.974971 20.945963 23.328722 17.003906 23.833984 C 16.82622 23.427729 16.447593 23.13714 16 23.136719 C 15.9981 23.136714 15.996141 23.136714 15.994141 23.136719 C 15.55007 23.139119 15.176027 23.42986 14.998047 23.832031 C 11.05577 23.327678 8.1021047 19.974913 8.1015625 16 C 8.1012006 12.02503 11.054038 8.6712787 14.996094 8.1660156 z M 15.996094 23.707031 C 15.997194 23.707028 15.9989 23.707028 16 23.707031 C 16.306073 23.707033 16.554023 23.954021 16.554688 24.259766 C 16.554945 24.566164 16.306727 24.812495 16 24.8125 C 15.693271 24.812498 15.445056 24.566166 15.445312 24.259766 C 15.445968 23.955324 15.691331 23.708862 15.996094 23.707031 z " />
      <circle
         style="fill:#ffffff;stroke-width:0.1;stroke-linecap:round;paint-order:stroke fill markers;stroke-miterlimit:4;stroke-dasharray:none;stroke:#ffffff"
         id="path847"
         cx="15.999998"
         cy="16.000004"
         r="3.0642853" />
      <path
         id="path845"
         style="color:#000000;font-style:normal;font-variant:normal;font-weight:normal;font-stretch:normal;font-size:medium;line-height:normal;font-family:sans-serif;font-variant-ligatures:normal;font-variant-position:normal;font-variant-caps:normal;font-variant-numeric:normal;font-variant-alternates:normal;font-variant-east-asian:normal;font-feature-settings:normal;font-variation-settings:normal;text-indent:0;text-align:start;text-decoration:none;text-decoration-line:none;text-decoration-style:solid;text-decoration-color:#000000;letter-spacing:normal;word-spacing:normal;text-transform:none;writing-mode:lr-tb;direction:ltr;text-orientation:mixed;dominant-baseline:auto;baseline-shift:baseline;text-anchor:start;white-space:normal;shape-padding:0;shape-margin:0;inline-size:0;clip-rule:nonzero;display:inline;overflow:visible;visibility:visible;isolation:auto;mix-blend-mode:normal;color-interpolation:sRGB;color-interpolation-filters:linearRGB;solid-color:#000000;solid-opacity:1;vector-effect:none;fill:#ffffff;fill-opacity:1;fill-rule:nonzero;stroke:none;stroke-linecap:round;stroke-linejoin:miter;stroke-miterlimit:4;stroke-dasharray:none;stroke-dashoffset:0;stroke-opacity:1;paint-order:stroke fill markers;color-rendering:auto;image-rendering:auto;shape-rendering:auto;text-rendering:auto;enable-background:accumulate;stop-color:#000000"
         d="M 15.994141 2.9492188 C 15.494757 2.9525588 15.088394 3.3106096 14.951172 3.7851562 C 12.441369 4.0008751 10.059682 4.9843631 8.1289062 6.6015625 C 7.6903191 6.345266 7.1333518 6.4098577 6.7714844 6.7714844 C 6.4108318 7.1330443 6.346257 7.6888239 6.6015625 8.1269531 C 4.9840183 10.058226 4.00051 12.440735 3.7851562 14.951172 C 3.3086469 15.088991 2.9500331 15.498505 2.9492188 16 C 2.9500331 16.501495 3.3086468 16.911009 3.7851562 17.048828 C 4.0008752 19.558631 4.9843632 21.940318 6.6015625 23.871094 C 6.3452624 24.30968 6.4098576 24.866647 6.7714844 25.228516 L 6.7753906 25.232422 L 6.7773438 25.232422 C 7.1388993 25.588983 7.6909867 25.6518 8.1269531 25.398438 C 10.058227 27.015979 12.440735 27.99949 14.951172 28.214844 C 15.088991 28.691353 15.498505 29.049966 16 29.050781 C 16.501495 29.049967 16.911009 28.691353 17.048828 28.214844 C 19.558631 27.999125 21.940318 27.015637 23.871094 25.398438 C 24.30968 25.654737 24.866647 25.590142 25.228516 25.228516 L 25.232422 25.224609 L 25.232422 25.222656 C 25.588981 24.861099 25.651801 24.309012 25.398438 23.873047 C 27.015974 21.941784 27.999481 19.559252 28.214844 17.048828 C 28.691353 16.911009 29.049967 16.501496 29.050781 16 C 29.050786 15.9981 29.050786 15.996041 29.050781 15.994141 C 29.047481 15.494756 28.689391 15.088394 28.214844 14.951172 C 27.999125 12.44137 27.015636 10.059682 25.398438 8.1289062 C 25.654737 7.6903193 25.590142 7.1333517 25.228516 6.7714844 C 24.866955 6.410832 24.311176 6.3462572 23.873047 6.6015625 C 21.941782 4.9841037 19.559265 4.0005097 17.048828 3.7851562 C 16.911009 3.3086469 16.501495 2.9500331 16 2.9492188 C 15.9987 2.9492155 15.997394 2.9492177 15.996094 2.9492188 C 15.996094 2.9492188 15.994141 2.9492188 15.994141 2.9492188 z M 15.996094 3.5195312 C 15.997194 3.519528 15.9989 3.519528 16 3.5195312 C 16.306074 3.5195323 16.554025 3.7665202 16.554688 4.0722656 C 16.554903 4.3786802 16.306743 4.6250176 16 4.625 C 15.693271 4.6249978 15.445056 4.3786659 15.445312 4.0722656 C 15.445968 3.7678241 15.691331 3.5213616 15.996094 3.5195312 z M 14.992188 4.4882812 C 14.992188 4.4882812 14.994141 4.4882812 14.994141 4.4882812 C 15.170006 4.8986212 15.549207 5.1950125 16 5.1953125 C 16.450793 5.1950125 16.829994 4.8986212 17.005859 4.4882812 C 19.368706 4.6951789 21.610949 5.6256105 23.427734 7.1503906 C 23.262706 7.5641857 23.323168 8.040654 23.640625 8.359375 C 23.641925 8.360645 23.641272 8.3620113 23.642578 8.3632812 L 23.644531 8.3632812 C 23.963384 8.6778451 24.437591 8.7366109 24.849609 8.5722656 C 26.37439 10.389052 27.304821 12.631293 27.511719 14.994141 C 27.101194 15.170003 26.804988 15.54921 26.804688 16 C 26.804986 16.450793 27.101379 16.829994 27.511719 17.005859 C 27.304821 19.368706 26.37439 21.610949 24.849609 23.427734 C 24.435814 23.262706 23.959346 23.323168 23.640625 23.640625 C 23.323168 23.959346 23.262706 24.435814 23.427734 24.849609 C 21.610949 26.37439 19.368706 27.304821 17.005859 27.511719 C 16.829994 27.101379 16.450793 26.804987 16 26.804688 C 15.9981 26.804682 15.996141 26.804682 15.994141 26.804688 C 15.545417 26.807288 15.169189 27.103226 14.994141 27.511719 C 12.631348 27.304813 10.38904 26.374383 8.5722656 24.849609 C 8.7372942 24.435814 8.6768319 23.959346 8.359375 23.640625 C 8.040654 23.323168 7.5641857 23.262706 7.1503906 23.427734 C 5.6256104 21.610949 4.695179 19.368706 4.4882812 17.005859 C 4.8986213 16.829994 5.1950125 16.450793 5.1953125 16 C 5.1953174 15.9981 5.1953174 15.996141 5.1953125 15.994141 C 5.1927125 15.54544 4.8967549 15.16918 4.4882812 14.994141 C 4.6951791 12.631335 5.6256105 10.389051 7.1503906 8.5722656 C 7.5641857 8.7372944 8.040654 8.676832 8.359375 8.359375 C 8.360645 8.358115 8.3620113 8.3567387 8.3632812 8.3554688 C 8.6778392 8.0366199 8.7366105 7.5624078 8.5722656 7.1503906 C 10.38856 5.6260219 12.630043 4.6955126 14.992188 4.4882812 z M 7.5351562 7.0117188 C 7.693189 7.0023887 7.8471993 7.0618658 7.9589844 7.1738281 C 8.1736754 7.3899248 8.1737235 7.7366163 7.9589844 7.953125 L 7.9570312 7.9570312 C 7.9570312 7.9570312 7.9550781 7.9570312 7.9550781 7.9570312 C 7.7385101 8.172833 7.3902353 8.1749028 7.1738281 7.9589844 C 6.9573731 7.7420362 6.9583625 7.392226 7.1757812 7.1757812 C 7.2715332 7.0791783 7.3994637 7.0201284 7.5351562 7.0117188 z M 24.402344 7.0117188 C 24.559948 7.0033788 24.712967 7.0637038 24.824219 7.1757812 C 25.041664 7.392203 25.042557 7.7420134 24.826172 7.9589844 C 24.610075 8.1736754 24.263384 8.1737235 24.046875 7.9589844 L 24.042969 7.9570312 C 24.042969 7.9570312 24.042969 7.9550781 24.042969 7.9550781 C 23.827144 7.7385328 23.82517 7.390258 24.041016 7.1738281 C 24.137326 7.0774251 24.266214 7.0192132 24.402344 7.0117188 z M 3.9121094 15.429688 C 3.8800928 15.438597 3.8466832 15.444398 3.8164062 15.457031 C 3.8462771 15.442882 3.8797821 15.438829 3.9121094 15.429688 z M 4.0683594 15.445312 C 4.0700194 15.445305 4.0725588 15.445305 4.0742188 15.445312 C 4.3786603 15.445968 4.6231696 15.691331 4.625 15.996094 C 4.6250033 15.997194 4.6250033 15.9989 4.625 16 C 4.6250014 16.306076 4.3799661 16.554024 4.0742188 16.554688 C 3.7678178 16.554949 3.5195335 16.306729 3.5195312 16 C 3.5195234 15.69523 3.7639257 15.447804 4.0683594 15.445312 z M 27.923828 15.445312 C 27.924928 15.44531 27.926634 15.44531 27.927734 15.445312 C 28.232176 15.445968 28.478638 15.691331 28.480469 15.996094 C 28.480472 15.997194 28.480472 15.9989 28.480469 16 C 28.480468 16.306074 28.23348 16.554024 27.927734 16.554688 C 27.621344 16.554946 27.375005 16.306725 27.375 16 C 27.374998 15.694579 27.618739 15.446893 27.923828 15.445312 z M 7.5332031 23.880859 C 7.6911228 23.871559 7.8450958 23.931059 7.9570312 24.042969 C 8.1739942 24.259873 8.1739457 24.609683 7.9570312 24.826172 C 7.7419551 25.040808 7.3967826 25.040723 7.1796875 24.828125 L 7.1777344 24.828125 L 7.1757812 24.824219 C 6.9594727 24.607969 6.9584843 24.259721 7.1738281 24.042969 C 7.2697211 23.946939 7.3976578 23.888755 7.5332031 23.880859 z M 24.404297 23.880859 C 24.561761 23.871959 24.714781 23.931449 24.826172 24.042969 C 25.040808 24.258045 25.040723 24.603219 24.828125 24.820312 C 24.828125 24.820312 24.828125 24.822266 24.828125 24.822266 L 24.824219 24.824219 C 24.607992 25.04055 24.259744 25.041442 24.042969 24.826172 C 23.826054 24.609683 23.826005 24.259873 24.042969 24.042969 C 24.139399 23.946609 24.268247 23.88842 24.404297 23.880859 z M 15.996094 27.375 C 15.997194 27.374997 15.9989 27.374997 16 27.375 C 16.306073 27.375002 16.554025 27.620036 16.554688 27.925781 C 16.554945 28.23218 16.306727 28.480464 16 28.480469 C 15.693271 28.480467 15.445056 28.232181 15.445312 27.925781 C 15.445968 27.62134 15.691331 27.37683 15.996094 27.375 z " />
    </g>
  </g>
</svg>
