<?xml version="1.0" encoding="UTF-8" standalone="no"?>
<svg
   xmlns:dc="http://purl.org/dc/elements/1.1/"
   xmlns:cc="http://creativecommons.org/ns#"
   xmlns:rdf="http://www.w3.org/1999/02/22-rdf-syntax-ns#"
   xmlns:svg="http://www.w3.org/2000/svg"
   xmlns="http://www.w3.org/2000/svg"
   xmlns:sodipodi="http://sodipodi.sourceforge.net/DTD/sodipodi-0.dtd"
   xmlns:inkscape="http://www.inkscape.org/namespaces/inkscape"
   width="32"
   height="32"
   version="1.1"
   viewBox="0 0 8.4666667 8.4666672"
   id="svg371"
   sodipodi:docname="opensuse.svg"
   inkscape:version="1.0.2 (e86c870879, 2021-01-15)">
  <metadata
     id="metadata375">
    <rdf:RDF>
      <cc:Work
         rdf:about="">
        <dc:format>image/svg+xml</dc:format>
        <dc:type
           rdf:resource="http://purl.org/dc/dcmitype/StillImage" />
        <dc:title />
      </cc:Work>
    </rdf:RDF>
  </metadata>
  <sodipodi:namedview
     inkscape:snap-bbox-edge-midpoints="true"
     inkscape:bbox-nodes="true"
     inkscape:snap-bbox="true"
     pagecolor="#ffffff"
     bordercolor="#666666"
     borderopacity="1"
     objecttolerance="10"
     gridtolerance="10"
     guidetolerance="10"
     inkscape:pageopacity="0"
     inkscape:pageshadow="2"
     inkscape:window-width="1920"
     inkscape:window-height="1016"
     id="namedview373"
     showgrid="false"
     inkscape:zoom="11.313708"
     inkscape:cx="14.158903"
     inkscape:cy="15.313741"
     inkscape:window-x="1920"
     inkscape:window-y="27"
     inkscape:window-maximized="1"
     inkscape:current-layer="svg371"
     inkscape:document-rotation="0">
    <inkscape:grid
       id="grid1162"
       type="xygrid" />
  </sodipodi:namedview>
  <defs
     id="defs37">
    <style
       id="current-color-scheme"
       type="text/css">.ColorScheme-Text { color:#565656; } .ColorScheme-Highlight { color:#5294e2; }</style>
    <style
       type="text/css"
       id="style13">.ColorScheme-Text { color:#565656; } .ColorScheme-Highlight { color:#5294e2; }</style>
    <style
       type="text/css"
       id="style15">.ColorScheme-Text { color:#565656; } .ColorScheme-Highlight { color:#5294e2; }</style>
    <style
       type="text/css"
       id="style17">.ColorScheme-Text { color:#565656; } .ColorScheme-Highlight { color:#5294e2; }</style>
    <style
       type="text/css"
       id="style19">.ColorScheme-Text { color:#565656; } .ColorScheme-Highlight { color:#5294e2; }</style>
    <style
       type="text/css"
       id="style21">.ColorScheme-Text { color:#565656; } .ColorScheme-Highlight { color:#5294e2; }</style>
    <style
       type="text/css"
       id="style23">.ColorScheme-Text { color:#565656; } .ColorScheme-Highlight { color:#5294e2; }</style>
    <style
       type="text/css"
       id="style25">.ColorScheme-Text { color:#565656; } .ColorScheme-Highlight { color:#5294e2; }</style>
    <style
       type="text/css"
       id="style27">.ColorScheme-Text { color:#565656; } .ColorScheme-Highlight { color:#5294e2; }</style>
    <style
       type="text/css"
       id="style29" />
    <style
       type="text/css"
       id="style31" />
    <style
       type="text/css"
       id="style33">.ColorScheme-Text { color:#565656; } .ColorScheme-Highlight { color:#5294e2; }</style>
    <style
       type="text/css"
       id="style35">.ColorScheme-Text { color:#565656; } .ColorScheme-Highlight { color:#5294e2; }</style>
  </defs>
  <g
     id="g853">
    <path
       d="m 4.1822579,3.0771604e-4 a 4.2332976,4.2332976 0 1 1 0,8.46597978396 4.2332976,4.2332976 0 0 1 0,-8.46597978396 z"
       id="path167"
       inkscape:connector-curvature="0"
       style="fill:#49bf3d;stroke-width:1.00002" />
    <path
       d="m 4.2333335,1.0583334 a 3.1750001,3.1750001 0 1 0 0,6.3500002 3.1750001,3.1750001 0 0 0 0,-6.3500002 z m 0,0.7057223 a 2.4696528,2.4696528 0 1 1 0,4.9385557 2.4509035,2.4509035 0 0 1 -1.6761841,-0.6614739 c 0.1424944,-0.019499 0.3674856,-0.022499 0.661474,0.011256 0.4297331,0.048744 0.6652239,0.065242 0.9479627,0.044243 C 4.8115608,6.0478882 5.237544,5.9413927 5.7100254,5.7104017 5.9575157,5.5904063 6.0100135,5.5356587 6.0625115,5.3909143 c 0.051748,-0.1372446 0.070498,-0.2647395 0.044999,-0.2647395 -0.00974,0 -0.090746,0.031499 -0.1874927,0.077248 C 5.5562815,5.3759135 5.237544,5.4606603 4.9600551,5.4464107 4.6728162,5.4314113 4.2085845,5.2634179 3.6491065,4.9941786 L 3.384367,4.8726834 3.1856248,4.3769529 3.3731174,4.4976982 A 5.568531,5.568531 0 0 0 4.5310719,5.060176 C 5.0125528,5.21242 5.388288,5.1914209 5.7760229,4.9941784 5.9132674,4.9244308 6.1735072,4.7541877 6.1735072,4.7294388 6.1735072,4.6844412 6.0400123,4.2374581 5.9635155,4.0349661 5.773023,3.5294862 5.6387782,3.3584929 5.3245405,3.2084988 4.9750545,3.0420054 4.5880696,2.9287598 3.8800975,2.7675162 3.5426107,2.695519 3.2096238,2.6227718 2.8661374,2.5800235 L 2.8548814,2.998507 A 11.414551,11.414551 0 0 0 2.2046633,2.8222639 2.4749027,2.4749027 0 0 1 4.2333335,1.7648056 Z M 4.8175606,3.5497354 A 0.52497935,0.52497935 0 0 1 5.3350402,3.9577193 C 5.368789,4.0889641 5.358289,4.1827104 5.2915414,4.321455 A 0.50698006,0.50698006 0 0 1 4.7403136,4.5974442 0.51522973,0.51522973 0 0 1 4.3540788,4.2997059 C 4.2625823,4.1009637 4.3053307,3.8369741 4.4643245,3.6929797 A 0.54522856,0.54522856 0 0 1 4.8168106,3.5504854 Z m 0.1207448,0.2759892 c -0.1844928,0 -0.2999882,0.1349947 -0.1979922,0.2309909 0.082496,0.077996 0.2204913,0.089998 0.3299871,0.033749 0.071998,-0.036748 0.095996,-0.092246 0.077996,-0.1649936 -0.013498,-0.054748 -0.1199948,-0.099747 -0.2099909,-0.099746 z"
       overflow="visible"
       id="path171"
       inkscape:connector-curvature="0"
       style="overflow:visible;fill:#ffffff;stroke-width:1.26558" />
  </g>
</svg>
