<?xml version="1.0" encoding="UTF-8" standalone="no"?>
<svg
   xmlns:dc="http://purl.org/dc/elements/1.1/"
   xmlns:cc="http://creativecommons.org/ns#"
   xmlns:rdf="http://www.w3.org/1999/02/22-rdf-syntax-ns#"
   xmlns:svg="http://www.w3.org/2000/svg"
   xmlns="http://www.w3.org/2000/svg"
   xmlns:sodipodi="http://sodipodi.sourceforge.net/DTD/sodipodi-0.dtd"
   xmlns:inkscape="http://www.inkscape.org/namespaces/inkscape"
   width="31.999729"
   height="31.999729"
   version="1.1"
   viewBox="0 0 8.466595 8.4665955"
   id="svg371"
   sodipodi:docname="opensuse.svg"
   inkscape:version="1.0.2 (e86c870879, 2021-01-15)">
  <metadata
     id="metadata375">
    <rdf:RDF>
      <cc:Work
         rdf:about="">
        <dc:format>image/svg+xml</dc:format>
        <dc:type
           rdf:resource="http://purl.org/dc/dcmitype/StillImage" />
        <dc:title />
      </cc:Work>
    </rdf:RDF>
  </metadata>
  <sodipodi:namedview
     inkscape:snap-bbox-edge-midpoints="true"
     inkscape:bbox-nodes="true"
     inkscape:snap-bbox="true"
     pagecolor="#ffffff"
     bordercolor="#666666"
     borderopacity="1"
     objecttolerance="10"
     gridtolerance="10"
     guidetolerance="10"
     inkscape:pageopacity="0"
     inkscape:pageshadow="2"
     inkscape:window-width="1836"
     inkscape:window-height="1016"
     id="namedview373"
     showgrid="false"
     inkscape:zoom="11.313708"
     inkscape:cx="15.731256"
     inkscape:cy="18.273603"
     inkscape:window-x="0"
     inkscape:window-y="0"
     inkscape:window-maximized="1"
     inkscape:current-layer="svg371"
     inkscape:document-rotation="0">
    <inkscape:grid
       id="grid1162"
       type="xygrid" />
  </sodipodi:namedview>
  <defs
     id="defs37">
    <style
       id="current-color-scheme"
       type="text/css">.ColorScheme-Text { color:#565656; } .ColorScheme-Highlight { color:#5294e2; }</style>
    <style
       type="text/css"
       id="style13">.ColorScheme-Text { color:#565656; } .ColorScheme-Highlight { color:#5294e2; }</style>
    <style
       type="text/css"
       id="style15">.ColorScheme-Text { color:#565656; } .ColorScheme-Highlight { color:#5294e2; }</style>
    <style
       type="text/css"
       id="style17">.ColorScheme-Text { color:#565656; } .ColorScheme-Highlight { color:#5294e2; }</style>
    <style
       type="text/css"
       id="style19">.ColorScheme-Text { color:#565656; } .ColorScheme-Highlight { color:#5294e2; }</style>
    <style
       type="text/css"
       id="style21">.ColorScheme-Text { color:#565656; } .ColorScheme-Highlight { color:#5294e2; }</style>
    <style
       type="text/css"
       id="style23">.ColorScheme-Text { color:#565656; } .ColorScheme-Highlight { color:#5294e2; }</style>
    <style
       type="text/css"
       id="style25">.ColorScheme-Text { color:#565656; } .ColorScheme-Highlight { color:#5294e2; }</style>
    <style
       type="text/css"
       id="style27">.ColorScheme-Text { color:#565656; } .ColorScheme-Highlight { color:#5294e2; }</style>
    <style
       type="text/css"
       id="style29" />
    <style
       type="text/css"
       id="style31" />
    <style
       type="text/css"
       id="style33">.ColorScheme-Text { color:#565656; } .ColorScheme-Highlight { color:#5294e2; }</style>
    <style
       type="text/css"
       id="style35">.ColorScheme-Text { color:#565656; } .ColorScheme-Highlight { color:#5294e2; }</style>
  </defs>
  <g
     id="g853">
    <g
       transform="matrix(0.61539433,0,0,0.61539433,-1.0282859,-0.97693848)"
       id="g169"
       style="stroke-width:1.625">
      <path
         d="m 8.467,1.588 a 6.879,6.879 0 1 1 0,13.757 6.879,6.879 0 0 1 0,-13.757 z"
         id="path167"
         inkscape:connector-curvature="0"
         style="fill:#49bf3d;stroke-width:1.625" />
    </g>
    <path
       d="m 4.2333334,1.5875 a 2.6458334,2.6458334 0 1 0 0,5.2916668 2.6458334,2.6458334 0 0 0 0,-5.2916668 z m 0,0.5881019 a 2.058044,2.058044 0 1 1 0,4.1154631 2.0424196,2.0424196 0 0 1 -1.3968201,-0.5512283 c 0.1187454,-0.016249 0.306238,-0.018749 0.5512284,0.00938 0.3581109,0.04062 0.5543532,0.054368 0.7899689,0.036869 C 4.7151895,5.7454623 5.0701755,5.6567161 5.46391,5.4642236 5.6701519,5.3642274 5.7139001,5.3186044 5.7576484,5.1979841 c 0.043123,-0.1143705 0.058748,-0.2206163 0.037499,-0.2206163 -0.00812,0 -0.075622,0.026249 -0.1562439,0.064373 C 5.3357901,5.1854834 5.0701755,5.2561057 4.8389347,5.2442311 4.599569,5.2317316 4.2127092,5.0917371 3.7464776,4.867371 L 3.5258613,4.766125 3.3602428,4.3530162 3.5164867,4.4536373 a 4.6404425,4.6404425 0 0 0 0.964962,0.4687315 c 0.4012341,0.12687 0.7143468,0.1093708 1.0374592,-0.054998 0.1143704,-0.058123 0.3312369,-0.1999922 0.3312369,-0.2206163 0,-0.037498 -0.1112457,-0.4099839 -0.1749931,-0.5787273 C 5.516408,3.646794 5.4045373,3.5042996 5.1426726,3.3793045 4.8514342,3.24056 4.5289468,3.1461887 3.9389701,3.011819 3.6577311,2.9518213 3.380242,2.8911987 3.0940033,2.8555751 l -0.00938,0.3487362 A 9.5121258,9.5121259 0 0 0 2.5427749,3.0574421 2.0624189,2.0624189 0 0 1 4.2333334,2.1762268 Z m 0.4868559,1.4880664 a 0.43748279,0.43748279 0 0 1 0.431233,0.3399866 c 0.028124,0.1093707 0.019374,0.1874926 -0.036249,0.3031131 A 0.42248338,0.42248338 0 0 1 4.6558168,4.536759 0.42935811,0.42935811 0 0 1 4.3339545,4.2886437 C 4.2577074,4.1230252 4.2933311,3.9030339 4.4258259,3.7830386 A 0.45435713,0.45435713 0 0 1 4.7195643,3.6642933 Z M 4.82081,3.8936593 c -0.153744,0 -0.2499902,0.1124956 -0.1649935,0.1924924 0.068747,0.064997 0.1837427,0.074998 0.2749892,0.028124 0.059998,-0.030623 0.079997,-0.076872 0.064997,-0.1374946 C 4.9845537,3.9311581 4.8958067,3.8936591 4.82081,3.8936593 Z"
       overflow="visible"
       id="path171"
       inkscape:connector-curvature="0"
       style="overflow:visible;fill:#ffffff;stroke-width:1.05465" />
  </g>
</svg>
