<?xml version="1.0" encoding="UTF-8" standalone="no"?>
<svg
   xmlns:dc="http://purl.org/dc/elements/1.1/"
   xmlns:cc="http://creativecommons.org/ns#"
   xmlns:rdf="http://www.w3.org/1999/02/22-rdf-syntax-ns#"
   xmlns:svg="http://www.w3.org/2000/svg"
   xmlns="http://www.w3.org/2000/svg"
   xmlns:sodipodi="http://sodipodi.sourceforge.net/DTD/sodipodi-0.dtd"
   xmlns:inkscape="http://www.inkscape.org/namespaces/inkscape"
   width="31.999746"
   height="31.999746"
   version="1.1"
   viewBox="0 0 8.4665995 8.4666"
   id="svg371"
   sodipodi:docname="puppy.svg"
   inkscape:version="1.0.2 (e86c870879, 2021-01-15)">
  <metadata
     id="metadata375">
    <rdf:RDF>
      <cc:Work
         rdf:about="">
        <dc:format>image/svg+xml</dc:format>
        <dc:type
           rdf:resource="http://purl.org/dc/dcmitype/StillImage" />
        <dc:title />
      </cc:Work>
    </rdf:RDF>
  </metadata>
  <sodipodi:namedview
     inkscape:snap-bbox-edge-midpoints="true"
     inkscape:bbox-nodes="true"
     inkscape:snap-bbox="true"
     pagecolor="#ffffff"
     bordercolor="#666666"
     borderopacity="1"
     objecttolerance="10"
     gridtolerance="10"
     guidetolerance="10"
     inkscape:pageopacity="0"
     inkscape:pageshadow="2"
     inkscape:window-width="1920"
     inkscape:window-height="1016"
     id="namedview373"
     showgrid="false"
     inkscape:zoom="11.313708"
     inkscape:cx="22.546772"
     inkscape:cy="20.265237"
     inkscape:window-x="1920"
     inkscape:window-y="27"
     inkscape:window-maximized="1"
     inkscape:current-layer="svg371"
     inkscape:document-rotation="0">
    <inkscape:grid
       id="grid1162"
       type="xygrid" />
  </sodipodi:namedview>
  <defs
     id="defs37">
    <style
       id="current-color-scheme"
       type="text/css">.ColorScheme-Text { color:#565656; } .ColorScheme-Highlight { color:#5294e2; }</style>
    <style
       type="text/css"
       id="style13">.ColorScheme-Text { color:#565656; } .ColorScheme-Highlight { color:#5294e2; }</style>
    <style
       type="text/css"
       id="style15">.ColorScheme-Text { color:#565656; } .ColorScheme-Highlight { color:#5294e2; }</style>
    <style
       type="text/css"
       id="style17">.ColorScheme-Text { color:#565656; } .ColorScheme-Highlight { color:#5294e2; }</style>
    <style
       type="text/css"
       id="style19">.ColorScheme-Text { color:#565656; } .ColorScheme-Highlight { color:#5294e2; }</style>
    <style
       type="text/css"
       id="style21">.ColorScheme-Text { color:#565656; } .ColorScheme-Highlight { color:#5294e2; }</style>
    <style
       type="text/css"
       id="style23">.ColorScheme-Text { color:#565656; } .ColorScheme-Highlight { color:#5294e2; }</style>
    <style
       type="text/css"
       id="style25">.ColorScheme-Text { color:#565656; } .ColorScheme-Highlight { color:#5294e2; }</style>
    <style
       type="text/css"
       id="style27">.ColorScheme-Text { color:#565656; } .ColorScheme-Highlight { color:#5294e2; }</style>
    <style
       type="text/css"
       id="style29" />
    <style
       type="text/css"
       id="style31" />
    <style
       type="text/css"
       id="style33">.ColorScheme-Text { color:#565656; } .ColorScheme-Highlight { color:#5294e2; }</style>
    <style
       type="text/css"
       id="style35">.ColorScheme-Text { color:#565656; } .ColorScheme-Highlight { color:#5294e2; }</style>
    <radialGradient
       cx="82.894375"
       cy="96.050752"
       fx="82.894375"
       fy="96.050752"
       r="312.69326"
       id="radialGradient-1"
       gradientTransform="matrix(0.01819437,0,0,0.01822139,1.8854699,1.9027514)"
       gradientUnits="userSpaceOnUse">
      <stop
         stop-color="#000000"
         stop-opacity="0.23"
         offset="0%"
         id="stop848" />
      <stop
         stop-color="#FFFFFF"
         stop-opacity="0"
         offset="100%"
         id="stop850" />
    </radialGradient>
    <linearGradient
       x1="130.21961"
       y1="-2.8410895"
       x2="136.4712"
       y2="60.074897"
       id="linearGradient-2"
       gradientTransform="matrix(0.02671433,0,0,0.01241007,1.8854699,1.9027514)"
       gradientUnits="userSpaceOnUse">
      <stop
         stop-color="#FFFDFF"
         offset="0%"
         id="stop853" />
      <stop
         stop-color="#FFFFFF"
         stop-opacity="0"
         offset="100%"
         id="stop855" />
    </linearGradient>
    <linearGradient
       x1="101.98368"
       y1="28.03534"
       x2="118.8498"
       y2="89.449474"
       id="linearGradient-3"
       gradientTransform="matrix(0.02276236,0,0,0.01456469,1.8854699,1.9027514)"
       gradientUnits="userSpaceOnUse">
      <stop
         stop-color="#FFFFFF"
         offset="0%"
         id="stop858" />
      <stop
         stop-color="#FFFFFF"
         stop-opacity="0"
         offset="100%"
         id="stop860" />
    </linearGradient>
    <linearGradient
       x1="37.905315"
       y1="66.190819"
       x2="34.425849"
       y2="39.909075"
       id="linearGradient-4"
       gradientTransform="matrix(0.02509808,0,0,0.01320924,1.8854699,1.9027514)"
       gradientUnits="userSpaceOnUse">
      <stop
         stop-color="#FFFFFF"
         stop-opacity="0.00884956"
         offset="0%"
         id="stop863" />
      <stop
         stop-color="#FFFFFF"
         stop-opacity="0.7843"
         offset="100%"
         id="stop865" />
    </linearGradient>
  </defs>
  <path
     d="m 4.2333335,0 c 2.3381185,0 4.2333334,1.895215 4.2333334,4.2333335 0,2.3381185 -1.8952149,4.2333334 -4.2333334,4.2333334 C 1.895215,8.4666669 0,6.571452 0,4.2333335 0,1.895215 1.895215,0 4.2333335,0 Z"
     id="path296"
     inkscape:connector-curvature="0"
     style="fill:#3cc078;stroke-width:0.287613;fill-opacity:1" />
  <path
     d="m 4.2333335,1.0583334 c 1.7535889,0 3.1750001,1.4214112 3.1750001,3.1750001 0,1.7535889 -1.4214112,3.1750001 -3.1750001,3.1750001 -1.7535889,0 -3.1750001,-1.4214112 -3.1750001,-3.1750001 0,-1.7535889 1.4214112,-3.1750001 3.1750001,-3.1750001 z"
     id="path945"
     inkscape:connector-curvature="0"
     style="fill:#ececec;stroke-width:0.21571" />
  <path
     d="m 5.6254057,2.0229221 c 0.2585543,0.018208 0.49708,0.061906 0.6026868,0.1347368 0.054625,0.050982 0.094682,0.1511238 0.1128899,0.267653 0.018208,0.1074254 0.016387,0.2294169 -0.00364,0.3404837 -0.020031,0.1092461 -0.060088,0.2093884 -0.120175,0.2767568 -0.041879,0.04734 -0.092861,0.078293 -0.1565893,0.089218 C 5.920376,3.1536193 5.8402604,3.0170617 5.7273705,2.8277018 5.6272261,2.6583703 5.5052322,2.4526234 5.299481,2.2705465 5.2175451,2.2104615 5.1447126,2.2723665 5.1884119,2.3197075 5.4069087,2.5017844 5.5307235,2.7111728 5.6326886,2.882325 5.7674282,3.109921 5.863931,3.2737903 6.0769653,3.2391956 c 0.043699,-0.00728 0.083757,-0.021849 0.1201732,-0.041878 0.1638725,0.3095307 0.2567337,0.6627598 0.2567337,1.0396589 0,0.6135989 -0.2476297,1.1671125 -0.6500279,1.5695024 C 5.403267,6.2070482 4.8479212,6.4564934 4.2361302,6.4564934 3.6243394,6.4564934 3.0689941,6.2088688 2.6684163,5.806479 2.2678392,5.4059099 2.0183888,4.8505755 2.0183888,4.2369766 c 0,-0.1511239 0.014567,-0.2967853 0.043699,-0.4388052 -0.014567,-0.081935 -0.02185,-0.1711523 -0.027312,-0.2385207 -0.018208,-0.196643 -0.030953,-0.4697583 -0.0091,-0.7028167 0.016388,-0.1911806 0.054624,-0.3514082 0.1274569,-0.400569 0.00546,-0.00364 0.0091,-0.00728 0.012745,-0.012746 0.02367,-0.030953 0.1620523,-0.1219915 0.3750863,-0.1820768 0.1074274,-0.030953 0.2312425,-0.050982 0.3678025,-0.050982 0.030954,0 0.063729,0.00182 0.096503,0.00364 0.1911843,0.014566 0.3969353,0.1784354 0.5389582,0.3768992 0.058266,0.081934 0.1056066,0.1693314 0.1365603,0.2549075 0.030953,0.083755 0.04552,0.1638692 0.040057,0.2348792 C 3.715385,3.1554371 3.68625,3.2191644 3.626163,3.2610421 3.5223738,3.3356931 3.3748888,3.2901751 3.2073744,3.2373721 2.9469993,3.1554381 2.6411039,3.0589369 2.3133587,3.3065611 2.2314218,3.3648251 2.2884474,3.4399348 2.337609,3.421727 2.6435056,3.1668214 2.9362347,3.2612328 3.1784021,3.337705 3.3732283,3.399611 3.5314784,3.4528907 3.6807845,3.347285 3.7681835,3.283558 3.8228323,3.1762856 3.8228323,3.0902496 c 0,-0.086036 -0.00914,-0.1805293 -0.043734,-0.2770301 C 3.7445037,2.7185418 3.6971717,2.6201344 3.6334435,2.5309166 3.546045,2.4089252 3.4349758,2.2996791 3.3166234,2.221386 3.5970273,2.0939322 3.9083852,2.0229223 4.2361302,2.0229223 c 0.1656934,0 0.3259244,0.018208 0.4806929,0.052803 0.065549,-0.027312 0.1529477,-0.038237 0.2294216,-0.049161 0.087399,-0.00728 0.1911847,-0.012746 0.3040746,-0.012746 0.016387,-0.00364 0.030953,-0.00364 0.04734,-0.00364 0.1074277,0 0.2184968,0.00364 0.3277452,0.012746 z"
     fill="url(#radialGradient-1)"
     id="path884"
     style="fill:url(#radialGradient-1);stroke-width:0.0182078" />
  <path
     d="m 5.246678,2.0302051 c 0.5025425,0 0.9085822,0.1547654 0.9085822,0.345946 0,0.1474823 -0.2403464,0.2731153 -0.5808371,0.3222761 C 5.5252613,2.4234912 5.1829498,2.1922535 4.7168234,2.093932 4.8661295,2.0538751 5.0500309,2.0302051 5.246678,2.0302051 Z"
     fill="url(#linearGradient-2)"
     id="path886"
     style="fill:url(#linearGradient-2);stroke-width:0.0182078" />
  <path
     d="m 4.2124601,2.0429505 c 0.7556345,0 1.3692462,0.3240968 1.3692462,0.7246659 0,0.4005691 -0.6136117,0.7246659 -1.3692462,0.7246659 -0.234884,0 -0.4552015,-0.030953 -0.648207,-0.085576 0.00728,-0.00182 0.012745,-0.00364 0.020029,-0.00364 0.049161,-0.012745 0.098323,-0.040057 0.1456644,-0.087397 0.043699,-0.050981 0.074653,-0.1056045 0.09104,-0.1675107 0.016387,-0.060086 0.016387,-0.1274538 0,-0.2002845 C 3.8045995,2.8768623 3.780929,2.8094939 3.753617,2.7457669 3.724484,2.68204 3.6917095,2.620134 3.6534726,2.5600486 3.6079524,2.4926801 3.5587908,2.4289533 3.5041666,2.3725094 3.4495424,2.3160656 3.3876352,2.2650841 3.3166234,2.2213856 3.5569699,2.1103188 3.8701486,2.0429503 4.2124601,2.0429505 Z"
     fill="url(#linearGradient-3)"
     id="path888"
     style="fill:url(#linearGradient-3);stroke-width:0.0182078" />
  <path
     d="m 5.2867357,1.9027514 c -0.2476296,0 -0.469768,0.020029 -0.5699123,0.04916 -0.00546,0.00182 -0.010925,0.00364 -0.016387,0.00728 -0.149306,-0.030953 -0.3058954,-0.04552 -0.4643056,-0.04552 -0.3732651,0 -0.7265019,0.087397 -1.0396803,0.2439829 C 3.1363636,2.1321645 3.0744562,2.1139566 3.012549,2.1103157 2.8250059,2.0957498 2.6538504,2.1212406 2.5100066,2.1612972 2.2860471,2.2250246 2.1276373,2.328808 2.083938,2.3743273 1.9837935,2.4489786 1.9346321,2.6346971 1.9146026,2.8513686 c -0.029133,0.329559 0.00546,0.739232 0.032774,0.9049219 0,0.00728 0.00364,0.012745 0.00546,0.018208 -0.030954,0.1493031 -0.047341,0.3058892 -0.047341,0.464296 0,0.6427313 0.2603751,1.2235565 0.6828027,1.644154 0.4224267,0.4205975 1.0032639,0.6809675 1.6460084,0.6809675 0.6427446,0 1.2254026,-0.26037 1.6460088,-0.6809675 C 6.300926,5.462351 6.563122,4.8815258 6.563122,4.2387945 c 0,-0.400569 -0.1019651,-0.7774681 -0.2804041,-1.1052064 l 0.014566,-0.014566 c 0.074654,-0.083752 0.1219944,-0.2021026 0.1456649,-0.3295564 0.02367,-0.1238122 0.02367,-0.2585492 0.00364,-0.376899 C 6.4229188,2.2705466 6.3719358,2.1467344 6.2972827,2.079366 6.2954627,2.077546 6.2936427,2.075726 6.2918227,2.075726 6.1698286,1.9883272 5.9094533,1.9391665 5.6308699,1.9191379 5.5179799,1.9063927 5.3996276,1.9027511 5.2867376,1.9027511 Z m 0.010925,0.1092461 c 0.1074277,0 0.2184967,0.00364 0.3277452,0.012745 0.2585543,0.018208 0.4989008,0.061906 0.6026868,0.1347369 0.054625,0.050982 0.094682,0.1511238 0.1128899,0.267653 0.018208,0.1074253 0.016387,0.2294168 -0.00364,0.3404837 -0.020031,0.1092464 -0.060089,0.2093886 -0.1201752,0.2767571 -0.041879,0.04734 -0.092861,0.078293 -0.1565893,0.089218 C 5.920376,3.1554401 5.8402604,3.0188824 5.7273705,2.8295225 5.6272261,2.660191 5.5052322,2.456265 5.299481,2.2723674 5.2175448,2.212282 5.1447126,2.2741883 5.1884119,2.3215281 v 0 c 0.2184968,0.1802561 0.3423116,0.3914652 0.4442767,0.5626175 0.1347396,0.2275961 0.2312424,0.3914652 0.4442767,0.3568706 0.043699,-0.00728 0.083757,-0.02185 0.1201732,-0.041878 0.1638725,0.3095306 0.2585544,0.6627596 0.2585544,1.037838 0,0.6117781 -0.2476295,1.1671125 -0.6500278,1.5676817 -0.4005772,0.4005694 -0.9559231,0.648194 -1.5695349,0.648194 -0.6136116,0 -1.1671361,-0.2476246 -1.5695341,-0.6481936 C 2.2641973,5.4040891 2.0165679,4.8487547 2.0165679,4.2369766 c 0,-0.1511239 0.014567,-0.2967853 0.043699,-0.4388052 -0.014567,-0.081934 -0.02185,-0.1711523 -0.027312,-0.2385207 v -0.00182 C 2.014747,3.3630076 2.0020012,3.0898923 2.0220307,2.8568339 c 0.016387,-0.1911807 0.054624,-0.3514082 0.1274561,-0.400569 0.00546,-0.00364 0.0091,-0.00728 0.012746,-0.012746 0.02367,-0.030953 0.1638724,-0.1219915 0.3769065,-0.1820768 0.1074274,-0.030953 0.2312424,-0.050981 0.3678032,-0.050981 0.030953,0 0.063728,0.00182 0.096503,0.00364 0.1930052,0.014566 0.3969353,0.1784354 0.5389582,0.3750784 0.058266,0.081934 0.1056067,0.1693314 0.1365605,0.2530868 0.030953,0.083755 0.04552,0.1638691 0.040057,0.2348791 -0.00546,0.074651 -0.034595,0.1383784 -0.094682,0.180256 C 3.5205539,3.3320524 3.373069,3.2865344 3.2055545,3.2337314 2.9451794,3.1517969 2.6374631,3.0552958 2.3115389,3.3029205 v 0 c -0.081936,0.058264 -0.02367,0.1420199 0.025491,0.1238123 0.3058955,-0.2530869 0.5935824,-0.1638692 0.8357497,-0.087397 0.1948261,0.061906 0.3659824,0.1147084 0.515288,0.0091 C 3.7772872,3.2847147 3.8191657,3.1936763 3.8282697,3.0880717 3.835553,3.0006748 3.8173448,2.9059949 3.7827496,2.8076734 3.7481543,2.7129934 3.6953508,2.6164926 3.6316226,2.5272751 3.5442241,2.4052835 3.4331548,2.2960374 3.3148025,2.2195651 3.5952066,2.0921113 3.9065644,2.0211014 4.2343095,2.0211014 c 0.1656933,0 0.3259243,0.018208 0.4806928,0.052802 0.065549,-0.027312 0.1529477,-0.038237 0.2312424,-0.04916 v 0 c 0.087399,-0.00728 0.1911847,-0.012746 0.3040746,-0.012746 z m 0.2367048,1.1798579 c -0.2148551,0 -0.3878317,0.1729731 -0.3878317,0.3878238 0,0.2148506 0.1747974,0.3878236 0.3878317,0.3878236 0.2130343,0 0.3878317,-0.172973 0.3878317,-0.3878236 0,-0.2148507 -0.1729765,-0.3878238 -0.3878317,-0.3878238 z M 3.1126934,3.4758953 c -0.4187856,0 -0.7592764,0.3404837 -0.7592764,0.7574397 0,0.4187767 0.3404908,0.7574397 0.7592764,0.7574397 0.418785,0 0.7592759,-0.338663 0.7592759,-0.7574397 0,-0.4187767 -0.3404909,-0.7574397 -0.7592759,-0.7574397 z m 0.2093928,0.3969275 c 0.1930052,0 0.3477737,0.1565862 0.3477737,0.3477668 0,0.1911807 -0.1565894,0.3477668 -0.3477737,0.3477668 -0.1911849,0 -0.3477745,-0.1565861 -0.3477745,-0.3477668 0,-0.1930014 0.1547687,-0.3477668 0.3477745,-0.3477668 z m 1.9300542,0.3022476 c -0.0091,0 -0.018208,0.00182 -0.027312,0.00546 L 4.1432695,4.4937046 c -0.00182,0 -0.00364,0.00182 -0.00546,0.00182 v 0 c -0.030953,0.010925 -0.052804,0.040057 -0.052804,0.076472 0,0.032774 0.020029,0.061906 0.049162,0.074651 v 0 l 0.666415,0.3750782 v 0.00364 c 0,0.1147085 -0.050983,0.220313 -0.1347396,0.2967853 -0.083757,0.078293 -0.2021095,0.125633 -0.3332075,0.125633 -0.081936,0 -0.160231,-0.018208 -0.2294216,-0.054623 -0.06737,-0.034595 -0.1256356,-0.083755 -0.1675142,-0.1456614 0,-0.00182 -0.00182,-0.00182 -0.00182,-0.00182 -0.012745,-0.020029 -0.034595,-0.032774 -0.060087,-0.032774 -0.040058,0 -0.072832,0.032774 -0.072832,0.07283 0,0.016387 0.00546,0.030953 0.014566,0.043699 0.056445,0.081934 0.1329189,0.1474823 0.2221385,0.1930014 0.089219,0.04552 0.1911846,0.07101 0.2949706,0.07101 0.1675141,0 0.3204618,-0.063726 0.4315309,-0.1638692 0.080116,-0.07283 0.1383813,-0.1675107 0.1656934,-0.2731153 0.1092484,0.089218 0.2512713,0.1438407 0.4078606,0.1438407 0.1675141,0 0.3204619,-0.061906 0.431531,-0.1638691 0.1128874,-0.103781 0.182078,-0.2458009 0.182078,-0.402387 v -0.02367 c 0,0 0,0 0,-0.00182 0,-0.040057 -0.032774,-0.07283 -0.072832,-0.07283 -0.040058,0 -0.072832,0.032774 -0.072832,0.07283 v 0.00182 0.00364 0.020029 c 0,0.1147084 -0.050982,0.2203131 -0.1347396,0.2967854 -0.083757,0.078293 -0.2021095,0.1256329 -0.3332075,0.1256329 -0.1256357,0 -0.2385256,-0.043699 -0.3222827,-0.1165292 -0.018208,-0.014566 -0.032774,-0.030953 -0.047341,-0.049161 l 0.356878,-0.6918905 c 0.00728,-0.012746 0.010925,-0.025491 0.010925,-0.040057 -0.00364,-0.04734 -0.040058,-0.083755 -0.083757,-0.083755 z"
     fill="#000000"
     id="path890"
     style="stroke-width:0.0182078" />
  <ellipse
     fill="url(#linearGradient-4)"
     cx="2.7958729"
     cy="2.6128511"
     rx="0.65731096"
     ry="0.34594601"
     id="ellipse892"
     style="fill:url(#linearGradient-4);stroke-width:0.0182078" />
  <path
     d="m 3.658935,3.4649707 c 0.1839014,0 0.2512712,-0.1274538 0.2512712,-0.2822191 0,-0.087397 -0.058266,-0.2621907 -0.1001442,-0.3186345 l -0.00922,0.013152 c 0.020029,0.07283 0.030753,0.1445787 0.025291,0.2101264 -0.0091,0.1074253 -0.051513,0.1941898 -0.1407332,0.256096 -0.089219,0.065547 -0.1860778,0.075096 -0.2916843,0.055067 0.089219,0.032774 0.1960339,0.066412 0.2652245,0.066412 z"
     fill-opacity="0.3922"
     fill="#141414"
     id="path894"
     style="stroke-width:0.0182078" />
  <path
     d="m 6.0715031,3.2865354 c 0.069191,0.02185 0.1262523,0.021203 0.1754141,0.00846 -0.014566,-0.032774 -0.03248,-0.06718 -0.048868,-0.098133 -0.036416,0.020029 -0.07476,0.035425 -0.1184591,0.042708 -0.030953,0.00364 -0.059071,0.00691 -0.084562,0.00509 0.025491,0.018208 0.050983,0.034595 0.076474,0.041878 z"
     fill-opacity="0.3922"
     fill="#141414"
     id="path896"
     style="stroke-width:0.0182078" />
</svg>
