<?xml version="1.0" encoding="UTF-8" standalone="no"?>
<svg
   xmlns:dc="http://purl.org/dc/elements/1.1/"
   xmlns:cc="http://creativecommons.org/ns#"
   xmlns:rdf="http://www.w3.org/1999/02/22-rdf-syntax-ns#"
   xmlns:svg="http://www.w3.org/2000/svg"
   xmlns="http://www.w3.org/2000/svg"
   xmlns:sodipodi="http://sodipodi.sourceforge.net/DTD/sodipodi-0.dtd"
   xmlns:inkscape="http://www.inkscape.org/namespaces/inkscape"
   width="32"
   height="32"
   version="1.1"
   viewBox="0 0 8.4666667 8.4666671"
   id="svg371"
   sodipodi:docname="red.svg"
   inkscape:version="1.0.2 (e86c870879, 2021-01-15)">
  <metadata
     id="metadata375">
    <rdf:RDF>
      <cc:Work
         rdf:about="">
        <dc:format>image/svg+xml</dc:format>
        <dc:type
           rdf:resource="http://purl.org/dc/dcmitype/StillImage" />
        <dc:title />
      </cc:Work>
    </rdf:RDF>
  </metadata>
  <sodipodi:namedview
     inkscape:snap-bbox-edge-midpoints="true"
     inkscape:bbox-nodes="true"
     inkscape:snap-bbox="true"
     pagecolor="#ffffff"
     bordercolor="#666666"
     borderopacity="1"
     objecttolerance="10"
     gridtolerance="10"
     guidetolerance="10"
     inkscape:pageopacity="0"
     inkscape:pageshadow="2"
     inkscape:window-width="1836"
     inkscape:window-height="1016"
     id="namedview373"
     showgrid="false"
     inkscape:zoom="5.656854"
     inkscape:cx="53.469704"
     inkscape:cy="38.010162"
     inkscape:window-x="0"
     inkscape:window-y="0"
     inkscape:window-maximized="1"
     inkscape:current-layer="svg371"
     inkscape:document-rotation="0">
    <inkscape:grid
       id="grid1162"
       type="xygrid" />
  </sodipodi:namedview>
  <defs
     id="defs37">
    <style
       id="current-color-scheme"
       type="text/css">.ColorScheme-Text { color:#565656; } .ColorScheme-Highlight { color:#5294e2; }</style>
    <style
       type="text/css"
       id="style13">.ColorScheme-Text { color:#565656; } .ColorScheme-Highlight { color:#5294e2; }</style>
    <style
       type="text/css"
       id="style15">.ColorScheme-Text { color:#565656; } .ColorScheme-Highlight { color:#5294e2; }</style>
    <style
       type="text/css"
       id="style17">.ColorScheme-Text { color:#565656; } .ColorScheme-Highlight { color:#5294e2; }</style>
    <style
       type="text/css"
       id="style19">.ColorScheme-Text { color:#565656; } .ColorScheme-Highlight { color:#5294e2; }</style>
    <style
       type="text/css"
       id="style21">.ColorScheme-Text { color:#565656; } .ColorScheme-Highlight { color:#5294e2; }</style>
    <style
       type="text/css"
       id="style23">.ColorScheme-Text { color:#565656; } .ColorScheme-Highlight { color:#5294e2; }</style>
    <style
       type="text/css"
       id="style25">.ColorScheme-Text { color:#565656; } .ColorScheme-Highlight { color:#5294e2; }</style>
    <style
       type="text/css"
       id="style27">.ColorScheme-Text { color:#565656; } .ColorScheme-Highlight { color:#5294e2; }</style>
    <style
       type="text/css"
       id="style29" />
    <style
       type="text/css"
       id="style31" />
    <style
       type="text/css"
       id="style33">.ColorScheme-Text { color:#565656; } .ColorScheme-Highlight { color:#5294e2; }</style>
    <style
       type="text/css"
       id="style35">.ColorScheme-Text { color:#565656; } .ColorScheme-Highlight { color:#5294e2; }</style>
  </defs>
  <g
     id="g866">
    <circle
       style="fill:#15a9e2;stroke-width:3.27726;stroke-linecap:round;stroke-linejoin:round;paint-order:markers fill stroke"
       id="path873"
       cx="4.2333336"
       cy="4.2333336"
       r="4.2333336" />
    <g
       id="g858">
      <circle
         style="fill:#ffffff;stroke-width:2.45794;stroke-linecap:round;stroke-linejoin:round;paint-order:markers fill stroke"
         id="circle852"
         cx="4.2333336"
         cy="4.2333336"
         r="3.1750002" />
      <g
         id="g871"
         transform="matrix(0.02779967,0,0,0.02779962,1.5875,2.2317605)">
        <path
           d="m 126.97,83 c 12.5,0 30.6,-2.6 30.6,-17.47 a 14,14 0 0 0 -0.3,-3.42 L 149.82,29.76 C 148.1,22.64 146.59,19.41 134.09,13.16 124.4,8.2 103.25,0 97,0 91.2,0 89.5,7.5 82.56,7.5 75.88,7.5 70.92,1.9 64.66,1.9 c -6,0 -9.9,4.1 -12.92,12.5 0,0 -8.4,23.72 -9.5,27.16 a 6.43,6.43 0 0 0 -0.2,1.94 c 0,9.22 36.3,39.45 84.93,39.45 M 159.5,71.57 c 1.73,8.2 1.73,9.05 1.73,10.13 0,14 -15.74,21.77 -36.43,21.77 C 78.04,103.5 37.08,76.1 37.08,58 a 18.45,18.45 0 0 1 1.5,-7.34 C 21.8,51.5 0,54.5 0,73.72 0,105.2 74.6,144 133.65,144 c 45.28,0 56.7,-20.48 56.7,-36.65 0,-12.72 -11,-27.16 -30.83,-35.78"
           fill="#ee0000"
           id="path857" />
        <path
           d="m 159.5,71.57 c 1.73,8.2 1.73,9.05 1.73,10.13 0,14 -15.74,21.77 -36.43,21.77 C 78.04,103.5 37.08,76.1 37.08,58 a 18.45,18.45 0 0 1 1.5,-7.34 l 3.67,-9.06 a 6.43,6.43 0 0 0 -0.22,1.9 c 0,9.22 36.3,39.45 84.94,39.45 12.5,0 30.6,-2.58 30.6,-17.46 a 14,14 0 0 0 -0.3,-3.43 z"
           id="path859" />
      </g>
    </g>
  </g>
</svg>
