<?xml version="1.0" encoding="UTF-8" standalone="no"?>
<svg
   version="1.1"
   id="svg2"
   width="32"
   height="32"
   viewBox="0 0 32 32"
   sodipodi:docname="regolith.svg"
   xmlns:inkscape="http://www.inkscape.org/namespaces/inkscape"
   xmlns:sodipodi="http://sodipodi.sourceforge.net/DTD/sodipodi-0.dtd"
   xmlns="http://www.w3.org/2000/svg"
   xmlns:svg="http://www.w3.org/2000/svg">
  <defs
     id="defs6" />
  <sodipodi:namedview
     pagecolor="#ffffff"
     bordercolor="#666666"
     borderopacity="1"
     objecttolerance="10"
     gridtolerance="10"
     guidetolerance="10"
     inkscape:pageopacity="0"
     inkscape:pageshadow="2"
     inkscape:window-width="1920"
     inkscape:window-height="1016"
     id="namedview4"
     showgrid="false"
     inkscape:zoom="16"
     inkscape:cx="10.78125"
     inkscape:cy="17.40625"
     inkscape:window-x="1920"
     inkscape:window-y="27"
     inkscape:window-maximized="1"
     inkscape:current-layer="svg2"
     inkscape:document-rotation="0"
     inkscape:showpageshadow="2"
     inkscape:pagecheckerboard="0"
     inkscape:deskcolor="#d1d1d1" />
  <g
     id="g4236">
    <circle
       style="fill:#333333;fill-opacity:1;stroke-width:13.6405;paint-order:stroke fill markers"
       id="path838"
       cx="16"
       cy="16"
       r="16" />
    <g
       id="g4230">
      <circle
         style="fill:#dc322f;fill-opacity:1;stroke-width:10.2304;paint-order:stroke fill markers"
         id="circle2030"
         cx="16"
         cy="16"
         r="12" />
      <path
         id="path841"
         style="fill:#ffffff;fill-opacity:1;stroke-width:6.7577;paint-order:stroke fill markers"
         d="M 16.856183,6.5714286 A 9.4286666,9.4285714 0 0 0 7.4276117,16 9.4286666,9.4285714 0 0 0 7.5431251,17.463169 c -1.158566,0.878121 -1.83339,1.50014 -2.2114955,2.0173 -0.2116993,0.289555 -0.3548094,0.565071 -0.3850447,0.893973 -0.029403,0.319856 0.1198607,0.649984 0.28125,0.833705 0.4199866,0.500484 0.9793657,0.538962 1.561942,0.532367 0.5928456,-0.0067 1.2892903,-0.116145 2.094308,-0.30134 1.6100351,-0.37039 3.6424591,-1.053412 5.8208711,-1.941964 1.618079,-0.659999 3.312731,-1.431593 4.958705,-2.271763 a 2.1428788,2.1428571 0 0 0 1.307478,0.445312 2.1428788,2.1428571 0 0 0 2.142857,-2.142857 2.1428788,2.1428571 0 0 0 -0.0134,-0.21596 c 1.467726,-0.893958 2.81074,-1.826231 3.905692,-2.762277 a 0.72857881,0.72857145 0 0 0 0.08036,-1.027901 0.72857881,0.72857145 0 0 0 -0.589285,-0.254465 0.72857881,0.72857145 0 0 0 -0.436942,0.174108 c -0.984252,0.84141 -2.228545,1.703433 -3.602679,2.544642 a 2.1428788,2.1428571 0 0 0 -1.486607,-0.601004 2.1428788,2.1428571 0 0 0 -2.142857,2.142857 2.1428788,2.1428571 0 0 0 0.04855,0.453683 c -1.569424,0.79912 -3.184628,1.538948 -4.722657,2.166294 -0.02168,0.0088 -0.04197,0.01631 -0.06362,0.02511 a 7.1143577,7.1142859 0 0 1 -1.170201,-3.90904 7.1143577,7.1142859 0 0 1 7.114956,-7.1149549 7.1143577,7.1142859 0 0 1 0.07198,0.00167 9.4286666,9.4285714 0 0 0 -3.251108,-0.5792409 z M 26.05875,18.047433 a 7.1143577,7.1142859 0 0 1 -6.023437,3.331474 7.1143577,7.1142859 0 0 1 -4.165179,-1.347657 c -0.390161,0.168147 -0.781893,0.337523 -1.165178,0.493862 -1.796657,0.732838 -3.478877,1.314449 -4.9218755,1.707589 a 9.4286666,9.4285714 0 0 0 7.0731025,3.19587 9.4286666,9.4285714 0 0 0 9.202567,-7.381138 z M 7.9231474,19.008371 a 9.4286666,9.4285714 0 0 0 0.4252233,1.051339 c -0.644053,0.138192 -1.2014676,0.220097 -1.5753348,0.22433 -0.1899245,0.0021 -0.1227779,0.01767 -0.1975447,-0.0017 0.1937305,-0.253707 0.5974191,-0.669296 1.3476562,-1.273995 z" />
    </g>
  </g>
</svg>
