<?xml version="1.0" encoding="UTF-8" standalone="no"?>
<svg
   xmlns:dc="http://purl.org/dc/elements/1.1/"
   xmlns:cc="http://creativecommons.org/ns#"
   xmlns:rdf="http://www.w3.org/1999/02/22-rdf-syntax-ns#"
   xmlns:svg="http://www.w3.org/2000/svg"
   xmlns="http://www.w3.org/2000/svg"
   xmlns:sodipodi="http://sodipodi.sourceforge.net/DTD/sodipodi-0.dtd"
   xmlns:inkscape="http://www.inkscape.org/namespaces/inkscape"
   width="32"
   height="32"
   viewBox="0 0 1.5 1.5"
   fill="none"
   version="1.1"
   id="svg4"
   sodipodi:docname="rocky.svg"
   inkscape:version="1.0.2 (e86c870879, 2021-01-15)">
  <metadata
     id="metadata10">
    <rdf:RDF>
      <cc:Work
         rdf:about="">
        <dc:format>image/svg+xml</dc:format>
        <dc:type
           rdf:resource="http://purl.org/dc/dcmitype/StillImage" />
        <dc:title></dc:title>
      </cc:Work>
    </rdf:RDF>
  </metadata>
  <defs
     id="defs8" />
  <sodipodi:namedview
     pagecolor="#ffffff"
     bordercolor="#666666"
     borderopacity="1"
     objecttolerance="10"
     gridtolerance="10"
     guidetolerance="10"
     inkscape:pageopacity="0"
     inkscape:pageshadow="2"
     inkscape:window-width="1920"
     inkscape:window-height="1016"
     id="namedview6"
     showgrid="false"
     inkscape:zoom="16"
     inkscape:cx="17.319077"
     inkscape:cy="24.141609"
     inkscape:window-x="1920"
     inkscape:window-y="27"
     inkscape:window-maximized="1"
     inkscape:current-layer="svg4" />
  <g
     id="g850">
    <circle
       style="opacity:1;fill:#08895f;stroke-width:0.524813;stroke-linecap:round;stroke-linejoin:round;paint-order:markers fill stroke;fill-opacity:1"
       id="path835"
       cx="0.75"
       cy="0.75"
       r="0.75" />
    <g
       id="g844">
      <path
         id="circle837"
         style="opacity:1;fill:#ececec;stroke-width:8.39699;stroke-linecap:round;stroke-linejoin:round;paint-order:markers fill stroke"
         d="M 19.619141,12.244141 7.4472656,24.417969 c 1.01694,1.033224 2.2126888,1.873623 3.5292964,2.480469 l 8.642579,-8.642579 5.521484,5.519532 c 0.959206,-1.127493 1.701518,-2.422731 2.189453,-3.820313 L 22.625,15.25 Z"
         sodipodi:nodetypes="cccccccc"
         transform="scale(0.046875)" />
      <path
         fill-rule="evenodd"
         clip-rule="evenodd"
         d="M 1.2811992,0.9354961 C 1.3014785,0.877418 1.3125,0.814998 1.3125,0.75 1.3125,0.43934 1.0606582,0.1875 0.75,0.1875 c -0.31065996,0 -0.5625,0.25184 -0.5625,0.5625 0,0.1537148 0.0616582,0.2930332 0.1615916,0.3945586 L 0.91967578,0.573975 1.0605469,0.7148438 Z M 1.1784492,1.1144825 0.91967578,0.8557149 0.51444023,1.2609492 C 0.58609512,1.2940371 0.6658916,1.3125 0.75,1.3125 c 0.17160937,0 0.3252773,-0.076852 0.4284492,-0.1980175 z"
         fill="#10b981"
         id="path2"
         style="stroke-width:0.00585937" />
    </g>
  </g>
</svg>
