<?xml version="1.0" encoding="UTF-8" standalone="no"?>
<svg
   xmlns:dc="http://purl.org/dc/elements/1.1/"
   xmlns:cc="http://creativecommons.org/ns#"
   xmlns:rdf="http://www.w3.org/1999/02/22-rdf-syntax-ns#"
   xmlns:svg="http://www.w3.org/2000/svg"
   xmlns="http://www.w3.org/2000/svg"
   xmlns:sodipodi="http://sodipodi.sourceforge.net/DTD/sodipodi-0.dtd"
   xmlns:inkscape="http://www.inkscape.org/namespaces/inkscape"
   width="32"
   height="32"
   version="1.1"
   viewBox="0 0 8.4666666 8.4666671"
   id="svg371"
   sodipodi:docname="shutdown.svg"
   inkscape:version="1.0.2 (e86c870879, 2021-01-15)">
  <metadata
     id="metadata375">
    <rdf:RDF>
      <cc:Work
         rdf:about="">
        <dc:format>image/svg+xml</dc:format>
        <dc:type
           rdf:resource="http://purl.org/dc/dcmitype/StillImage" />
        <dc:title></dc:title>
      </cc:Work>
    </rdf:RDF>
  </metadata>
  <sodipodi:namedview
     inkscape:snap-bbox-edge-midpoints="true"
     inkscape:bbox-nodes="true"
     inkscape:snap-bbox="true"
     pagecolor="#ffffff"
     bordercolor="#666666"
     borderopacity="1"
     objecttolerance="10"
     gridtolerance="10"
     guidetolerance="10"
     inkscape:pageopacity="0"
     inkscape:pageshadow="2"
     inkscape:window-width="1920"
     inkscape:window-height="1016"
     id="namedview373"
     showgrid="false"
     inkscape:zoom="16"
     inkscape:cx="16.620668"
     inkscape:cy="13.322662"
     inkscape:window-x="1920"
     inkscape:window-y="27"
     inkscape:window-maximized="1"
     inkscape:current-layer="svg371"
     inkscape:document-rotation="0">
    <inkscape:grid
       id="grid1162"
       type="xygrid" />
  </sodipodi:namedview>
  <defs
     id="defs37">
    <style
       id="current-color-scheme"
       type="text/css">.ColorScheme-Text { color:#565656; } .ColorScheme-Highlight { color:#5294e2; }</style>
    <style
       type="text/css"
       id="style13">.ColorScheme-Text { color:#565656; } .ColorScheme-Highlight { color:#5294e2; }</style>
    <style
       type="text/css"
       id="style15">.ColorScheme-Text { color:#565656; } .ColorScheme-Highlight { color:#5294e2; }</style>
    <style
       type="text/css"
       id="style17">.ColorScheme-Text { color:#565656; } .ColorScheme-Highlight { color:#5294e2; }</style>
    <style
       type="text/css"
       id="style19">.ColorScheme-Text { color:#565656; } .ColorScheme-Highlight { color:#5294e2; }</style>
    <style
       type="text/css"
       id="style21">.ColorScheme-Text { color:#565656; } .ColorScheme-Highlight { color:#5294e2; }</style>
    <style
       type="text/css"
       id="style23">.ColorScheme-Text { color:#565656; } .ColorScheme-Highlight { color:#5294e2; }</style>
    <style
       type="text/css"
       id="style25">.ColorScheme-Text { color:#565656; } .ColorScheme-Highlight { color:#5294e2; }</style>
    <style
       type="text/css"
       id="style27">.ColorScheme-Text { color:#565656; } .ColorScheme-Highlight { color:#5294e2; }</style>
    <style
       type="text/css"
       id="style29" />
    <style
       type="text/css"
       id="style31" />
    <style
       type="text/css"
       id="style33">.ColorScheme-Text { color:#565656; } .ColorScheme-Highlight { color:#5294e2; }</style>
    <style
       type="text/css"
       id="style35">.ColorScheme-Text { color:#565656; } .ColorScheme-Highlight { color:#5294e2; }</style>
  </defs>
  <g
     id="g850">
    <path
       d="m 4.2333,0 c 2.3381,0 4.2333,1.8952 4.2333,4.2333 0,2.3381 -1.8952,4.2333 -4.2333,4.2333 C 1.8952,8.4666 0,6.5714 0,4.2333 0,1.8952 1.8952,0 4.2333,0 Z"
       id="path321"
       inkscape:connector-curvature="0"
       style="fill:#ff3d3d;fill-opacity:1;stroke-width:0.28761" />
    <path
       d="m 4.2333479,1.9405865 c -0.1954516,0 -0.3528117,0.1573582 -0.3528117,0.3528187 V 4.05887 c 0,0.1954491 0.1573487,0.3528073 0.3528117,0.3528073 0.1954516,0 0.3528118,-0.1573582 0.3528118,-0.3528073 V 2.2934052 c 0,-0.1954605 -0.1573487,-0.3528187 -0.3528118,-0.3528187 z m 1.0714753,0.701386 a 0.35281177,0.35280725 0 0 0 -0.068103,0.00343 0.35281177,0.35280725 0 0 0 -0.1545259,0.6396382 1.4042299,1.4042119 0 0 1 0.2868346,1.9732337 C 4.8997943,5.8859226 4.0117706,6.0033955 3.3844557,5.5338125 2.7568094,5.0645952 2.6393235,4.1878856 3.1089126,3.5605788 3.1851183,3.4582943 3.2722613,3.3735867 3.3735185,3.2959647 A 0.35409177,0.35408724 0 0 0 2.9430953,2.7336056 C 2.7920894,2.8506785 2.6502607,2.9883341 2.5355977,3.1414408 1.8377456,4.0742527 2.0324887,5.4096426 2.9653124,6.1074628 3.8981362,6.8049517 5.2335432,6.6101997 5.9313724,5.6770223 6.6288702,4.7445761 6.4341272,3.4091634 5.5009491,2.7116859 A 0.35281177,0.35280725 0 0 0 5.3047889,2.6411725 Z"
       id="path323"
       inkscape:connector-curvature="0"
       style="color:#5294e2;fill:#ffffff;stroke-width:0.35281" />
  </g>
</svg>
