<?xml version="1.0" encoding="UTF-8" standalone="no"?>
<svg
   width="32"
   height="32"
   version="1.1"
   viewBox="0 0 8.4666667 8.4666672"
   id="svg371"
   sodipodi:docname="siduction.svg"
   xmlns:inkscape="http://www.inkscape.org/namespaces/inkscape"
   xmlns:sodipodi="http://sodipodi.sourceforge.net/DTD/sodipodi-0.dtd"
   xmlns="http://www.w3.org/2000/svg"
   xmlns:svg="http://www.w3.org/2000/svg">
  <sodipodi:namedview
     inkscape:snap-bbox-edge-midpoints="true"
     inkscape:bbox-nodes="true"
     inkscape:snap-bbox="true"
     pagecolor="#ffffff"
     bordercolor="#666666"
     borderopacity="1"
     objecttolerance="10"
     gridtolerance="10"
     guidetolerance="10"
     inkscape:pageopacity="0"
     inkscape:pageshadow="2"
     inkscape:window-width="1920"
     inkscape:window-height="1016"
     id="namedview373"
     showgrid="false"
     inkscape:zoom="11.313708"
     inkscape:cx="7.5654611"
     inkscape:cy="19.774866"
     inkscape:window-x="1920"
     inkscape:window-y="27"
     inkscape:window-maximized="1"
     inkscape:current-layer="svg371"
     inkscape:document-rotation="0"
     inkscape:showpageshadow="2"
     inkscape:pagecheckerboard="0"
     inkscape:deskcolor="#d1d1d1">
    <inkscape:grid
       id="grid1162"
       type="xygrid"
       originx="0"
       originy="0"
       spacingy="1"
       spacingx="1"
       units="px"
       visible="false" />
  </sodipodi:namedview>
  <defs
     id="defs37">
    <style
       id="current-color-scheme"
       type="text/css">.ColorScheme-Text { color:#565656; } .ColorScheme-Highlight { color:#5294e2; }</style>
    <style
       type="text/css"
       id="style13">.ColorScheme-Text { color:#565656; } .ColorScheme-Highlight { color:#5294e2; }</style>
    <style
       type="text/css"
       id="style15">.ColorScheme-Text { color:#565656; } .ColorScheme-Highlight { color:#5294e2; }</style>
    <style
       type="text/css"
       id="style17">.ColorScheme-Text { color:#565656; } .ColorScheme-Highlight { color:#5294e2; }</style>
    <style
       type="text/css"
       id="style19">.ColorScheme-Text { color:#565656; } .ColorScheme-Highlight { color:#5294e2; }</style>
    <style
       type="text/css"
       id="style21">.ColorScheme-Text { color:#565656; } .ColorScheme-Highlight { color:#5294e2; }</style>
    <style
       type="text/css"
       id="style23">.ColorScheme-Text { color:#565656; } .ColorScheme-Highlight { color:#5294e2; }</style>
    <style
       type="text/css"
       id="style25">.ColorScheme-Text { color:#565656; } .ColorScheme-Highlight { color:#5294e2; }</style>
    <style
       type="text/css"
       id="style27">.ColorScheme-Text { color:#565656; } .ColorScheme-Highlight { color:#5294e2; }</style>
    <style
       type="text/css"
       id="style29" />
    <style
       type="text/css"
       id="style31" />
    <style
       type="text/css"
       id="style33">.ColorScheme-Text { color:#565656; } .ColorScheme-Highlight { color:#5294e2; }</style>
    <style
       type="text/css"
       id="style35">.ColorScheme-Text { color:#565656; } .ColorScheme-Highlight { color:#5294e2; }</style>
  </defs>
  <g
     id="g881">
    <path
       d="m 4.1822579,3.0769604e-4 a 4.2332976,4.2332976 0 1 1 0,8.46597980396 4.2332976,4.2332976 0 0 1 0,-8.46597980396 z"
       id="path174"
       inkscape:connector-curvature="0"
       style="fill:#364b7b;stroke-width:0.962969" />
    <path
       id="circle178"
       style="fill:#fbfdfc;fill-rule:evenodd;stroke-width:3.77945;paint-order:fill markers stroke"
       d="M 16 7.703125 A 1.7776952 1.7776952 0 0 0 14.220703 9.4804688 A 1.7776952 1.7776952 0 0 0 16 11.257812 A 1.7776952 1.7776952 0 0 0 17.777344 9.4804688 A 1.7776952 1.7776952 0 0 0 16 7.703125 z M 12.443359 10.951172 A 1.7776952 1.7776952 0 0 0 10.666016 12.728516 A 1.7776952 1.7776952 0 0 0 12.443359 14.505859 A 1.7776952 1.7776952 0 0 0 14.220703 12.728516 A 1.7776952 1.7776952 0 0 0 12.443359 10.951172 z M 19.554688 10.951172 A 1.7776952 1.7776952 0 0 0 17.777344 12.728516 A 1.7776952 1.7776952 0 0 0 19.554688 14.505859 A 1.7776952 1.7776952 0 0 0 21.332031 12.728516 A 1.7776952 1.7776952 0 0 0 19.554688 10.951172 z M 8.8886719 14.220703 A 1.7776952 1.7776952 0 0 0 7.1113281 16 A 1.7776952 1.7776952 0 0 0 8.8886719 17.777344 A 1.7776952 1.7776952 0 0 0 10.666016 16 A 1.7776952 1.7776952 0 0 0 8.8886719 14.220703 z M 16 14.220703 A 1.7776952 1.7776952 0 0 0 14.220703 16 A 1.7776952 1.7776952 0 0 0 16 17.777344 A 1.7776952 1.7776952 0 0 0 17.777344 16 A 1.7776952 1.7776952 0 0 0 16 14.220703 z M 23.109375 14.220703 A 1.7776952 1.7776952 0 0 0 21.332031 16 A 1.7776952 1.7776952 0 0 0 23.109375 17.777344 A 1.7776952 1.7776952 0 0 0 24.886719 16 A 1.7776952 1.7776952 0 0 0 23.109375 14.220703 z M 12.443359 17.458984 A 1.7776952 1.7776952 0 0 0 10.666016 19.236328 A 1.7776952 1.7776952 0 0 0 12.443359 21.013672 A 1.7776952 1.7776952 0 0 0 14.220703 19.236328 A 1.7776952 1.7776952 0 0 0 12.443359 17.458984 z M 19.554688 17.458984 A 1.7776952 1.7776952 0 0 0 17.777344 19.236328 A 1.7776952 1.7776952 0 0 0 19.554688 21.013672 A 1.7776952 1.7776952 0 0 0 21.332031 19.236328 A 1.7776952 1.7776952 0 0 0 19.554688 17.458984 z M 16 20.740234 A 1.7776952 1.7776952 0 0 0 14.220703 22.517578 A 1.7776952 1.7776952 0 0 0 16 24.294922 A 1.7776952 1.7776952 0 0 0 17.777344 22.517578 A 1.7776952 1.7776952 0 0 0 16 20.740234 z "
       transform="scale(0.26458334)" />
  </g>
</svg>
