<?xml version="1.0" encoding="UTF-8" standalone="no"?>
<svg
   xmlns:dc="http://purl.org/dc/elements/1.1/"
   xmlns:cc="http://creativecommons.org/ns#"
   xmlns:rdf="http://www.w3.org/1999/02/22-rdf-syntax-ns#"
   xmlns:svg="http://www.w3.org/2000/svg"
   xmlns="http://www.w3.org/2000/svg"
   xmlns:sodipodi="http://sodipodi.sourceforge.net/DTD/sodipodi-0.dtd"
   xmlns:inkscape="http://www.inkscape.org/namespaces/inkscape"
   width="32"
   height="32"
   version="1.1"
   viewBox="0 0 8.4666667 8.4666671"
   id="svg371"
   sodipodi:docname="slackware.svg"
   inkscape:version="1.0.2 (e86c870879, 2021-01-15)">
  <metadata
     id="metadata375">
    <rdf:RDF>
      <cc:Work
         rdf:about="">
        <dc:format>image/svg+xml</dc:format>
        <dc:type
           rdf:resource="http://purl.org/dc/dcmitype/StillImage" />
        <dc:title />
      </cc:Work>
    </rdf:RDF>
  </metadata>
  <sodipodi:namedview
     inkscape:snap-bbox-edge-midpoints="true"
     inkscape:bbox-nodes="true"
     inkscape:snap-bbox="true"
     pagecolor="#ffffff"
     bordercolor="#666666"
     borderopacity="1"
     objecttolerance="10"
     gridtolerance="10"
     guidetolerance="10"
     inkscape:pageopacity="0"
     inkscape:pageshadow="2"
     inkscape:window-width="1836"
     inkscape:window-height="1016"
     id="namedview373"
     showgrid="false"
     inkscape:zoom="11.313708"
     inkscape:cx="18.62313"
     inkscape:cy="16.582486"
     inkscape:window-x="0"
     inkscape:window-y="0"
     inkscape:window-maximized="1"
     inkscape:current-layer="svg371"
     inkscape:document-rotation="0">
    <inkscape:grid
       id="grid1162"
       type="xygrid" />
  </sodipodi:namedview>
  <defs
     id="defs37">
    <style
       id="current-color-scheme"
       type="text/css">.ColorScheme-Text { color:#565656; } .ColorScheme-Highlight { color:#5294e2; }</style>
    <style
       type="text/css"
       id="style13">.ColorScheme-Text { color:#565656; } .ColorScheme-Highlight { color:#5294e2; }</style>
    <style
       type="text/css"
       id="style15">.ColorScheme-Text { color:#565656; } .ColorScheme-Highlight { color:#5294e2; }</style>
    <style
       type="text/css"
       id="style17">.ColorScheme-Text { color:#565656; } .ColorScheme-Highlight { color:#5294e2; }</style>
    <style
       type="text/css"
       id="style19">.ColorScheme-Text { color:#565656; } .ColorScheme-Highlight { color:#5294e2; }</style>
    <style
       type="text/css"
       id="style21">.ColorScheme-Text { color:#565656; } .ColorScheme-Highlight { color:#5294e2; }</style>
    <style
       type="text/css"
       id="style23">.ColorScheme-Text { color:#565656; } .ColorScheme-Highlight { color:#5294e2; }</style>
    <style
       type="text/css"
       id="style25">.ColorScheme-Text { color:#565656; } .ColorScheme-Highlight { color:#5294e2; }</style>
    <style
       type="text/css"
       id="style27">.ColorScheme-Text { color:#565656; } .ColorScheme-Highlight { color:#5294e2; }</style>
    <style
       type="text/css"
       id="style29" />
    <style
       type="text/css"
       id="style31" />
    <style
       type="text/css"
       id="style33">.ColorScheme-Text { color:#565656; } .ColorScheme-Highlight { color:#5294e2; }</style>
    <style
       type="text/css"
       id="style35">.ColorScheme-Text { color:#565656; } .ColorScheme-Highlight { color:#5294e2; }</style>
  </defs>
  <g
     id="g860">
    <circle
       style="fill:#546db5;stroke:none;stroke-width:0.087429;stroke-linecap:round;stroke-linejoin:round;paint-order:markers fill stroke;fill-opacity:1"
       id="path857"
       cx="4.2333336"
       cy="4.2333336"
       r="4.2333336" />
    <g
       id="g852">
      <g
         id="rect873"
         style="opacity:1"
         transform="matrix(1.0761371,0,0,1.0761371,-0.28554977,-0.24914348)">
        <path
           style="color:#000000;font-style:normal;font-variant:normal;font-weight:normal;font-stretch:normal;font-size:medium;line-height:normal;font-family:sans-serif;font-variant-ligatures:normal;font-variant-position:normal;font-variant-caps:normal;font-variant-numeric:normal;font-variant-alternates:normal;font-variant-east-asian:normal;font-feature-settings:normal;font-variation-settings:normal;text-indent:0;text-align:start;text-decoration:none;text-decoration-line:none;text-decoration-style:solid;text-decoration-color:#000000;letter-spacing:normal;word-spacing:normal;text-transform:none;writing-mode:lr-tb;direction:ltr;text-orientation:mixed;dominant-baseline:auto;baseline-shift:baseline;text-anchor:start;white-space:normal;shape-padding:0;shape-margin:0;inline-size:0;clip-rule:nonzero;display:inline;overflow:visible;visibility:visible;isolation:auto;mix-blend-mode:normal;color-interpolation:sRGB;color-interpolation-filters:linearRGB;solid-color:#000000;solid-opacity:1;vector-effect:none;fill:#ffffff;fill-opacity:1;fill-rule:nonzero;stroke:none;stroke-linecap:round;stroke-linejoin:round;stroke-miterlimit:4;stroke-dasharray:none;stroke-dashoffset:0;stroke-opacity:1;paint-order:stroke markers fill;color-rendering:auto;image-rendering:auto;shape-rendering:auto;text-rendering:auto;enable-background:accumulate;stop-color:#000000;stop-opacity:1"
           d="M 2.1171875,5.3066406 A 0.10584409,0.10584409 0 0 0 2.0117188,5.4121094 v 0.7929687 0.265625 A 0.10584409,0.10584409 0 0 0 2.1171875,6.5761719 H 2.3808594 6.0859375 A 0.10584409,0.10584409 0 0 0 6.1914062,6.4707031 V 6.2050781 A 0.10584409,0.10584409 0 0 0 6.0859375,6.0996094 H 2.4863281 v -0.6875 A 0.10584409,0.10584409 0 0 0 2.3808594,5.3066406 Z m 0.1054687,0.2109375 h 0.052734 v 0.6875 A 0.10584409,0.10584409 0 0 0 2.3808594,6.3125 H 5.9804688 V 6.365234 H 2.3808594 2.2226562 V 6.2050781 Z"
           id="path895" />
        <path
           style="color:#000000;font-style:normal;font-variant:normal;font-weight:normal;font-stretch:normal;font-size:medium;line-height:normal;font-family:sans-serif;font-variant-ligatures:normal;font-variant-position:normal;font-variant-caps:normal;font-variant-numeric:normal;font-variant-alternates:normal;font-variant-east-asian:normal;font-feature-settings:normal;font-variation-settings:normal;text-indent:0;text-align:start;text-decoration:none;text-decoration-line:none;text-decoration-style:solid;text-decoration-color:#000000;letter-spacing:normal;word-spacing:normal;text-transform:none;writing-mode:lr-tb;direction:ltr;text-orientation:mixed;dominant-baseline:auto;baseline-shift:baseline;text-anchor:start;white-space:normal;shape-padding:0;shape-margin:0;inline-size:0;clip-rule:nonzero;display:inline;overflow:visible;visibility:visible;isolation:auto;mix-blend-mode:normal;color-interpolation:sRGB;color-interpolation-filters:linearRGB;solid-color:#000000;solid-opacity:1;vector-effect:none;fill:#000000;fill-opacity:1;fill-rule:nonzero;stroke:none;stroke-width:0.211667;stroke-linecap:round;stroke-linejoin:round;stroke-miterlimit:4;stroke-dasharray:none;stroke-dashoffset:0;stroke-opacity:1;paint-order:stroke markers fill;color-rendering:auto;image-rendering:auto;shape-rendering:auto;text-rendering:auto;enable-background:accumulate;stop-color:#000000;stop-opacity:1"
           d="m 2.1166669,5.4120524 v 0.79375 0.2645834 H 2.3812502 6.085417 V 6.2058024 H 2.3812502 v -0.79375 z"
           id="path897" />
      </g>
      <path
         id="path870"
         style="color:#000000;font-style:normal;font-variant:normal;font-weight:normal;font-stretch:normal;font-size:6.35px;line-height:0.4;font-family:'Nimbus Mono';-inkscape-font-specification:'Nimbus Mono';font-variant-ligatures:normal;font-variant-position:normal;font-variant-caps:normal;font-variant-numeric:normal;font-variant-alternates:normal;font-variant-east-asian:normal;font-feature-settings:normal;font-variation-settings:normal;text-indent:0;text-align:start;text-decoration:none;text-decoration-line:none;text-decoration-style:solid;text-decoration-color:#000000;letter-spacing:normal;word-spacing:normal;text-transform:none;writing-mode:lr-tb;direction:ltr;text-orientation:mixed;dominant-baseline:auto;baseline-shift:baseline;text-anchor:start;white-space:pre;shape-padding:0;shape-margin:0;inline-size:0;clip-rule:nonzero;display:inline;overflow:visible;visibility:visible;isolation:auto;mix-blend-mode:normal;color-interpolation:sRGB;color-interpolation-filters:linearRGB;solid-color:#000000;solid-opacity:1;vector-effect:none;fill:#000000;fill-opacity:1;fill-rule:nonzero;stroke:#ffffff;stroke-width:0.113892;stroke-linecap:butt;stroke-linejoin:miter;stroke-miterlimit:4;stroke-dasharray:none;stroke-dashoffset:0;stroke-opacity:1;color-rendering:auto;image-rendering:auto;shape-rendering:auto;text-rendering:auto;enable-background:accumulate;stop-color:#000000"
         d="m 4.2238584,1.8391795 c -0.761918,-2e-7 -1.3491211,0.4878425 -1.3491211,1.1305755 0,0.3179306 0.1434796,0.6094686 0.3926131,0.7780007 0.2213078,0.1570577 0.4857934,0.2411514 0.967074,0.3236572 0.4836793,0.074936 0.6074729,0.1116264 0.7652063,0.2102102 0.1594921,0.098148 0.2602592,0.2857954 0.2602592,0.4854856 0,0.2173243 -0.1054138,0.4050842 -0.2858403,0.5422092 C 4.7936229,5.446443 4.5369336,5.5300944 4.2366489,5.5300942 3.9461143,5.5300942 3.6867256,5.4518962 3.498692,5.3260014 3.3106582,5.2001069 3.1949501,5.0300552 3.1794851,4.8382912 3.1757132,4.7628172 3.1585889,4.7000399 3.1183127,4.6536618 c -0.040275,-0.046378 -0.1003754,-0.06729 -0.1657205,-0.06729 -0.070366,0 -0.1355172,0.026527 -0.1768428,0.077299 -0.041326,0.05077 -0.058947,0.119757 -0.058947,0.1996441 v 0.7440777 c 0,0.079886 0.017623,0.1488725 0.058947,0.1996442 0.041326,0.050771 0.1064757,0.076187 0.1768428,0.076187 0.070366,0 0.134961,-0.025416 0.1762868,-0.076187 0.041326,-0.050771 0.056723,-0.1197574 0.056723,-0.1996442 v -0.016684 c 0.2841409,0.2405015 0.6385675,0.4015128 1.0571638,0.4015128 0.4345439,0 0.8101589,-0.1236052 1.0782957,-0.3381161 0.2681368,-0.2145105 0.4287601,-0.5206528 0.4287601,-0.8725395 0,-0.3728638 -0.175524,-0.6956834 -0.4665758,-0.870315 C 5.0649606,3.7777334 4.8624484,3.7209991 4.3289632,3.6320843 h -0.00222 C 3.9121291,3.5641158 3.7465048,3.5105254 3.5910061,3.406859 3.4432802,3.3145297 3.3641136,3.163699 3.3641136,2.9825457 c 0,-0.1977802 0.088614,-0.3640856 0.244132,-0.4854859 0.1555183,-0.1214002 0.3802006,-0.1957512 0.6428621,-0.1957513 0.2458785,0 0.4615654,0.068483 0.6178374,0.178512 0.1562718,0.1100285 0.2514738,0.260074 0.2669325,0.4332111 0.00409,0.075385 0.025192,0.1377745 0.065621,0.1829607 0.040843,0.045647 0.1008556,0.067289 0.1634959,0.067289 0.070366,0 0.1355171,-0.024859 0.1768428,-0.075631 0.041326,-0.050771 0.056724,-0.1197571 0.056724,-0.1996439 V 2.1984278 c 0,-0.076877 -0.017554,-0.1455226 -0.058948,-0.1951953 -0.041394,-0.049672 -0.1042515,-0.073963 -0.1746185,-0.073963 -0.070366,0 -0.1345784,0.02538 -0.1740622,0.075631 -0.033868,0.043105 -0.042427,0.1036369 -0.046157,0.1662776 C 4.8782734,1.9653727 4.5836455,1.8391795 4.2238584,1.8391795 Z" />
    </g>
  </g>
</svg>
