<?xml version="1.0" encoding="UTF-8" standalone="no"?>
<svg
   xmlns:dc="http://purl.org/dc/elements/1.1/"
   xmlns:cc="http://creativecommons.org/ns#"
   xmlns:rdf="http://www.w3.org/1999/02/22-rdf-syntax-ns#"
   xmlns:svg="http://www.w3.org/2000/svg"
   xmlns="http://www.w3.org/2000/svg"
   xmlns:sodipodi="http://sodipodi.sourceforge.net/DTD/sodipodi-0.dtd"
   xmlns:inkscape="http://www.inkscape.org/namespaces/inkscape"
   width="31.999998"
   height="31.999998"
   version="1.1"
   viewBox="0 0 8.4666662 8.4666666"
   id="svg371"
   sodipodi:docname="SystemRescueCD.svg"
   inkscape:version="1.0.1 (3bc2e813f5, 2020-09-07)">
  <metadata
     id="metadata375">
    <rdf:RDF>
      <cc:Work
         rdf:about="">
        <dc:format>image/svg+xml</dc:format>
        <dc:type
           rdf:resource="http://purl.org/dc/dcmitype/StillImage" />
        <dc:title />
      </cc:Work>
    </rdf:RDF>
  </metadata>
  <sodipodi:namedview
     inkscape:snap-bbox-edge-midpoints="true"
     inkscape:bbox-nodes="true"
     inkscape:snap-bbox="true"
     pagecolor="#ffffff"
     bordercolor="#666666"
     borderopacity="1"
     objecttolerance="10"
     gridtolerance="10"
     guidetolerance="10"
     inkscape:pageopacity="0"
     inkscape:pageshadow="2"
     inkscape:window-width="1836"
     inkscape:window-height="1016"
     id="namedview373"
     showgrid="false"
     inkscape:zoom="4"
     inkscape:cx="107.16678"
     inkscape:cy="265.86868"
     inkscape:window-x="2004"
     inkscape:window-y="27"
     inkscape:window-maximized="1"
     inkscape:current-layer="svg371"
     inkscape:document-rotation="0">
    <inkscape:grid
       id="grid1162"
       type="xygrid" />
  </sodipodi:namedview>
  <defs
     id="defs37">
    <style
       id="current-color-scheme"
       type="text/css">.ColorScheme-Text { color:#565656; } .ColorScheme-Highlight { color:#5294e2; }</style>
    <style
       type="text/css"
       id="style13">.ColorScheme-Text { color:#565656; } .ColorScheme-Highlight { color:#5294e2; }</style>
    <style
       type="text/css"
       id="style15">.ColorScheme-Text { color:#565656; } .ColorScheme-Highlight { color:#5294e2; }</style>
    <style
       type="text/css"
       id="style17">.ColorScheme-Text { color:#565656; } .ColorScheme-Highlight { color:#5294e2; }</style>
    <style
       type="text/css"
       id="style19">.ColorScheme-Text { color:#565656; } .ColorScheme-Highlight { color:#5294e2; }</style>
    <style
       type="text/css"
       id="style21">.ColorScheme-Text { color:#565656; } .ColorScheme-Highlight { color:#5294e2; }</style>
    <style
       type="text/css"
       id="style23">.ColorScheme-Text { color:#565656; } .ColorScheme-Highlight { color:#5294e2; }</style>
    <style
       type="text/css"
       id="style25">.ColorScheme-Text { color:#565656; } .ColorScheme-Highlight { color:#5294e2; }</style>
    <style
       type="text/css"
       id="style27">.ColorScheme-Text { color:#565656; } .ColorScheme-Highlight { color:#5294e2; }</style>
    <style
       type="text/css"
       id="style29" />
    <style
       type="text/css"
       id="style31" />
    <style
       type="text/css"
       id="style33">.ColorScheme-Text { color:#565656; } .ColorScheme-Highlight { color:#5294e2; }</style>
    <style
       type="text/css"
       id="style35">.ColorScheme-Text { color:#565656; } .ColorScheme-Highlight { color:#5294e2; }</style>
  </defs>
  <g
     id="SystemRescueCD"
     transform="matrix(1.000788,0,0,1.000788,-152.36997,-165.90063)">
    <circle
       id="circle1196"
       paint-order="stroke markers fill"
       fill="#a40000"
       r="4.23"
       cy="170"
       cx="156.48" />
    <path
       id="path1198"
       style="line-height:normal;font-variant-ligatures:normal;font-variant-position:normal;font-variant-caps:normal;font-variant-numeric:normal;font-variant-alternates:normal;font-feature-settings:normal;text-indent:0;text-align:start;text-decoration:none;text-decoration-line:none;text-decoration-style:solid;text-decoration-color:#000000;text-transform:none;text-orientation:mixed;white-space:normal;shape-padding:0;isolation:auto;mix-blend-mode:normal;solid-color:#000000;solid-opacity:1"
       overflow="visible"
       font-weight="400"
       font-family="sans-serif"
       color="#000000"
       d="m 154.86,167.3 a 0.38,0.38 0 0 0 -0.24,0.11 0.55,0.55 0 0 0 -0.13,0.25 c 0,0.03 -0.05,0.08 -0.14,0.14 l -0.35,0.17 c -0.13,0.06 -0.26,0.11 -0.37,0.22 a 0.42,0.42 0 0 0 -0.11,0.22 c -0.02,0.1 0,0.2 0.04,0.27 a 0.5,0.5 0 0 0 0.36,0.28 c 0.14,0.01 0.24,-0.01 0.32,-0.02 l 0.07,-0.13 h -0.08 c -0.1,0 -0.19,0.03 -0.29,0.02 a 0.34,0.34 0 0 1 -0.26,-0.2 0.3,0.3 0 0 1 -0.03,-0.2 0.3,0.3 0 0 1 0.08,-0.15 c 0.08,-0.08 0.2,-0.14 0.33,-0.2 0.12,-0.05 0.26,-0.1 0.36,-0.17 0.1,-0.07 0.17,-0.14 0.2,-0.22 a 0.42,0.42 0 0 1 0.09,-0.19 c 0.04,-0.05 0.1,-0.07 0.16,-0.08 0.12,0 0.24,0.06 0.34,0.15 0.07,0.06 0.12,0.12 0.18,0.2 l 0.12,-0.06 a 1.52,1.52 0 0 0 -0.21,-0.24 c -0.12,-0.1 -0.26,-0.19 -0.44,-0.17 z m 0.02,0.25 a 0.11,0.11 0 0 0 -0.08,0.04 0.3,0.3 0 0 0 -0.06,0.14 c -0.03,0.12 -0.13,0.22 -0.25,0.29 -0.12,0.07 -0.26,0.13 -0.38,0.18 -0.12,0.06 -0.23,0.12 -0.29,0.18 a 0.16,0.16 0 0 0 -0.05,0.08 c 0,0.03 0,0.06 0.03,0.1 0.05,0.1 0.1,0.13 0.16,0.14 l 0.25,-0.02 a 0.7,0.7 0 0 1 0.18,0 l 0.08,-0.12 a 0.78,0.78 0 0 0 -0.27,0 l -0.22,0.01 c -0.04,0 -0.03,0.01 -0.07,-0.06 v -0.03 -0.02 l 0.25,-0.14 c 0.12,-0.05 0.27,-0.11 0.4,-0.2 0.13,-0.07 0.26,-0.18 0.3,-0.36 a 0.17,0.17 0 0 1 0.04,-0.07 c 0,0 0.07,0.01 0.14,0.08 l 0.12,0.13 0.11,-0.07 -0.14,-0.16 c -0.1,-0.08 -0.19,-0.12 -0.25,-0.12 z m 3.13,-0.15 a 0.94,0.94 0 0 0 -0.6,0.28 l 0.13,0.06 a 0.8,0.8 0 0 1 0.47,-0.2 0.6,0.6 0 0 1 0.38,0.09 c 0.21,0.13 0.24,0.28 0.26,0.38 0.02,0.05 0.03,0.1 0.08,0.15 0.04,0.06 0.12,0.12 0.25,0.2 0.08,0.03 0.13,0.07 0.17,0.12 a 0.2,0.2 0 0 1 0.03,0.17 c -0.02,0.1 -0.12,0.18 -0.23,0.25 l -0.23,0.1 0.05,0.12 0.24,-0.1 c 0.13,-0.08 0.26,-0.17 0.3,-0.34 0.02,-0.1 0,-0.2 -0.06,-0.27 a 0.57,0.57 0 0 0 -0.2,-0.17 0.72,0.72 0 0 1 -0.22,-0.16 0.22,0.22 0 0 1 -0.05,-0.1 0.74,0.74 0 0 0 -0.77,-0.58 z m 0.01,0.26 c -0.1,0.01 -0.2,0.05 -0.3,0.1 l -0.05,0.05 0.12,0.07 a 0.54,0.54 0 0 1 0.24,-0.09 c 0.08,0 0.15,0.01 0.22,0.05 0.16,0.1 0.12,0.1 0.15,0.24 0.02,0.07 0.06,0.16 0.13,0.25 0.07,0.09 0.18,0.17 0.33,0.25 l 0.04,0.03 -0.08,0.06 -0.21,0.09 0.06,0.12 c 0.08,-0.03 0.15,-0.06 0.21,-0.1 0.1,-0.05 0.17,-0.12 0.18,-0.16 0,-0.02 0,-0.04 -0.02,-0.06 a 0.35,0.35 0 0 0 -0.12,-0.1 0.96,0.96 0 0 1 -0.3,-0.21 0.5,0.5 0 0 1 -0.1,-0.2 c -0.02,-0.12 -0.02,-0.2 -0.2,-0.32 a 0.47,0.47 0 0 0 -0.3,-0.07 z m -3.82,3.23 c -0.2,0.12 -0.35,0.28 -0.45,0.44 -0.08,0.14 -0.14,0.3 -0.06,0.47 0.04,0.08 0.12,0.14 0.2,0.17 0.1,0.03 0.18,0.03 0.28,0.02 h 0.12 l 0.01,0.05 c 0,0.06 0,0.16 0.03,0.28 0.03,0.12 0.1,0.26 0.24,0.36 a 0.4,0.4 0 0 0 0.24,0.09 c 0.1,0 0.18,-0.05 0.23,-0.1 0.11,-0.1 0.16,-0.21 0.22,-0.33 l 0.09,-0.16 a 2.33,2.33 0 0 1 -0.11,-0.07 l -0.1,0.17 c -0.05,0.12 -0.1,0.23 -0.19,0.3 a 0.23,0.23 0 0 1 -0.14,0.06 0.26,0.26 0 0 1 -0.17,-0.06 0.5,0.5 0 0 1 -0.18,-0.28 c -0.03,-0.1 -0.03,-0.2 -0.03,-0.27 0,-0.08 -0.02,-0.12 -0.04,-0.14 -0.03,-0.03 -0.1,-0.05 -0.24,-0.03 a 0.47,0.47 0 0 1 -0.21,-0.01 0.22,0.22 0 0 1 -0.13,-0.11 c -0.05,-0.1 -0.02,-0.22 0.06,-0.35 0.07,-0.13 0.21,-0.27 0.39,-0.38 z m 0.11,0.24 c -0.15,0.1 -0.27,0.22 -0.33,0.33 -0.06,0.1 -0.07,0.18 -0.05,0.22 0,0.02 0.02,0.04 0.05,0.05 h 0.15 c 0.16,-0.02 0.27,0 0.34,0.06 0.07,0.06 0.08,0.15 0.09,0.23 0,0.08 0,0.17 0.02,0.24 0.02,0.08 0.06,0.15 0.14,0.22 l 0.08,0.03 c 0.02,0 0.04,0 0.07,-0.03 a 1,1 0 0 0 0.16,-0.26 l 0.1,-0.17 -0.1,-0.07 -0.11,0.18 c -0.06,0.1 -0.1,0.18 -0.13,0.2 a 0.2,0.2 0 0 1 -0.08,-0.13 l -0.02,-0.22 c 0,-0.1 -0.02,-0.22 -0.13,-0.32 -0.12,-0.1 -0.27,-0.1 -0.44,-0.08 h -0.06 l 0.03,-0.08 a 1,1 0 0 1 0.3,-0.29 z m 4.41,-0.16 -0.05,0.12 c 0.1,0.05 0.18,0.11 0.26,0.17 0.12,0.08 0.22,0.16 0.25,0.27 0.01,0.06 0,0.12 -0.05,0.17 a 0.46,0.46 0 0 1 -0.2,0.1 c -0.15,0.04 -0.23,0.1 -0.28,0.16 a 0.47,0.47 0 0 0 -0.06,0.22 c -0.01,0.08 -0.02,0.17 -0.05,0.25 -0.04,0.08 -0.13,0.15 -0.26,0.16 -0.25,0.04 -0.44,-0.1 -0.56,-0.29 l -0.07,-0.14 -0.12,0.06 0.08,0.15 c 0.14,0.22 0.38,0.4 0.69,0.35 0.16,-0.02 0.3,-0.11 0.35,-0.23 0.06,-0.12 0.06,-0.22 0.06,-0.3 0.01,-0.07 0.02,-0.12 0.05,-0.15 0.03,-0.04 0.07,-0.08 0.2,-0.12 0.1,-0.03 0.19,-0.06 0.26,-0.13 0.07,-0.07 0.1,-0.2 0.09,-0.29 -0.05,-0.18 -0.17,-0.26 -0.3,-0.35 a 4.12,4.12 0 0 0 -0.29,-0.18 z m -0.11,0.23 -0.07,0.12 0.24,0.15 0.09,0.07 h -0.01 a 0.73,0.73 0 0 0 -0.42,0.27 0.71,0.71 0 0 0 -0.11,0.34 l -0.03,0.17 -0.05,0.02 c -0.15,0.02 -0.22,-0.04 -0.31,-0.18 a 0.9,0.9 0 0 1 -0.07,-0.14 l -0.11,0.07 0.07,0.14 c 0.1,0.17 0.23,0.26 0.43,0.24 0.1,-0.02 0.14,-0.05 0.16,-0.1 0.02,-0.04 0.03,-0.11 0.04,-0.2 a 0.6,0.6 0 0 1 0.09,-0.28 0.6,0.6 0 0 1 0.35,-0.22 0.36,0.36 0 0 0 0.14,-0.07 c 0.02,-0.02 0.02,-0.02 0.01,-0.04 0,-0.03 -0.08,-0.12 -0.2,-0.2 z"
       fill="#ffffff" />
    <path
       id="path1200"
       d="m 156.48,167.53 a 2.47,2.47 0 1 0 0,4.94 2.47,2.47 0 0 0 0,-4.94 z m 0,1.3 a 1.17,1.17 0 1 1 0,2.34 1.17,1.17 0 0 1 0,-2.34 z"
       stroke-width="0.13"
       stroke-linejoin="round"
       stroke-linecap="round"
       stroke-dashoffset="1.2"
       stroke="#ffffff"
       fill="none" />
    <path
       id="path1202"
       d="m 155.56,167.86 a 2.33,2.34 0 0 0 -1.2,1.17 c 0.4,0.03 0.68,0.22 0.95,0.44 a 1.29,1.3 0 0 1 0.67,-0.65 2.82,2.82 0 0 0 -0.42,-0.96 z"
       fill-rule="evenodd"
       fill="#ffffff" />
    <path
       id="path1204"
       d="m 155.3,170.5 c -0.33,0.08 -0.65,0.14 -0.97,0.4 a 2.33,2.34 0 0 0 1.19,1.24 2,2 0 0 1 0.4,-0.97 1.29,1.3 0 0 1 -0.63,-0.66 z"
       fill="#ffffff" />
    <path
       id="path1206"
       d="m 157.4,167.86 c -0.2,0.26 -0.37,0.56 -0.43,0.96 a 1.29,1.3 0 0 1 0.68,0.65 c 0.33,-0.25 0.64,-0.42 0.94,-0.45 a 2.33,2.34 0 0 0 -1.2,-1.16 z m 0.27,2.64 a 1.29,1.3 0 0 1 -0.65,0.68 c 0.2,0.27 0.33,0.6 0.42,0.96 a 2.33,2.34 0 0 0 1.2,-1.24 1.96,1.96 0 0 0 -0.97,-0.4 z"
       fill-rule="evenodd"
       fill="#ffffff" />
  </g>
</svg>
