<?xml version="1.0" encoding="UTF-8" standalone="no"?>
<svg
   width="31.999998"
   height="31.999998"
   version="1.1"
   viewBox="0 0 8.4666662 8.4666666"
   id="svg371"
   sodipodi:docname="SystemRescueCD.svg"
   xmlns:inkscape="http://www.inkscape.org/namespaces/inkscape"
   xmlns:sodipodi="http://sodipodi.sourceforge.net/DTD/sodipodi-0.dtd"
   xmlns="http://www.w3.org/2000/svg"
   xmlns:svg="http://www.w3.org/2000/svg">
  <sodipodi:namedview
     inkscape:snap-bbox-edge-midpoints="true"
     inkscape:bbox-nodes="true"
     inkscape:snap-bbox="true"
     pagecolor="#ffffff"
     bordercolor="#666666"
     borderopacity="1"
     objecttolerance="10"
     gridtolerance="10"
     guidetolerance="10"
     inkscape:pageopacity="0"
     inkscape:pageshadow="2"
     inkscape:window-width="1920"
     inkscape:window-height="1016"
     id="namedview373"
     showgrid="false"
     inkscape:zoom="8.0000004"
     inkscape:cx="27.994594"
     inkscape:cy="3.5653416"
     inkscape:window-x="1920"
     inkscape:window-y="27"
     inkscape:window-maximized="1"
     inkscape:current-layer="svg371"
     inkscape:document-rotation="0"
     inkscape:showpageshadow="2"
     inkscape:pagecheckerboard="0"
     inkscape:deskcolor="#d1d1d1">
    <inkscape:grid
       id="grid1162"
       type="xygrid"
       originx="0"
       originy="0"
       spacingy="1"
       spacingx="1"
       units="px"
       visible="false" />
  </sodipodi:namedview>
  <defs
     id="defs37">
    <style
       id="current-color-scheme"
       type="text/css">.ColorScheme-Text { color:#565656; } .ColorScheme-Highlight { color:#5294e2; }</style>
    <style
       type="text/css"
       id="style13">.ColorScheme-Text { color:#565656; } .ColorScheme-Highlight { color:#5294e2; }</style>
    <style
       type="text/css"
       id="style15">.ColorScheme-Text { color:#565656; } .ColorScheme-Highlight { color:#5294e2; }</style>
    <style
       type="text/css"
       id="style17">.ColorScheme-Text { color:#565656; } .ColorScheme-Highlight { color:#5294e2; }</style>
    <style
       type="text/css"
       id="style19">.ColorScheme-Text { color:#565656; } .ColorScheme-Highlight { color:#5294e2; }</style>
    <style
       type="text/css"
       id="style21">.ColorScheme-Text { color:#565656; } .ColorScheme-Highlight { color:#5294e2; }</style>
    <style
       type="text/css"
       id="style23">.ColorScheme-Text { color:#565656; } .ColorScheme-Highlight { color:#5294e2; }</style>
    <style
       type="text/css"
       id="style25">.ColorScheme-Text { color:#565656; } .ColorScheme-Highlight { color:#5294e2; }</style>
    <style
       type="text/css"
       id="style27">.ColorScheme-Text { color:#565656; } .ColorScheme-Highlight { color:#5294e2; }</style>
    <style
       type="text/css"
       id="style29" />
    <style
       type="text/css"
       id="style31" />
    <style
       type="text/css"
       id="style33">.ColorScheme-Text { color:#565656; } .ColorScheme-Highlight { color:#5294e2; }</style>
    <style
       type="text/css"
       id="style35">.ColorScheme-Text { color:#565656; } .ColorScheme-Highlight { color:#5294e2; }</style>
  </defs>
  <g
     id="g893">
    <circle
       id="circle1196"
       paint-order="stroke markers fill"
       fill="#a40000"
       r="4.2333331"
       cy="5.986834"
       cx="1.6858739e-06"
       style="fill:#b81515;fill-opacity:1;stroke-width:1.00092;stroke-miterlimit:4;stroke-dasharray:none"
       transform="rotate(-45)" />
    <g
       id="g1006">
      <g
         id="g990">
        <path
           id="path864"
           style="fill:#ffffff;stroke:#ffffff;stroke-width:0.106488;stroke-linecap:round;stroke-linejoin:round;stroke-miterlimit:4;stroke-dasharray:none;paint-order:stroke markers fill"
           d="m 6.5657072,1.8744834 a 0.79866159,0.79866158 45 0 0 -1.1162413,0.013236 l 0.1125073,0.1125072 a 0.63892924,0.63892923 45 0 1 0.9044639,-8e-7 0.63892924,0.63892923 45 0 1 0,0.9044648 l 0.1125072,0.1125071 a 0.79866159,0.79866158 45 0 0 -5e-7,-1.1294779 0.79866159,0.79866158 45 0 0 -0.013228,-0.013228 z" />
        <path
           id="path872"
           style="fill:#ffffff;stroke:#ffffff;stroke-width:0.106488;stroke-linecap:round;stroke-linejoin:round;stroke-miterlimit:4;stroke-dasharray:none;paint-order:stroke markers fill"
           d="M 1.8744859,1.9009547 A 0.79866158,0.79866159 45 0 0 1.8877219,3.017196 L 2.0002292,2.9046889 a 0.63892923,0.63892924 45 0 1 -8e-7,-0.904464 0.63892923,0.63892924 45 0 1 0.9044648,0 L 3.0172003,1.8877177 a 0.79866158,0.79866159 45 0 0 -1.1294778,4e-7 0.79866158,0.79866159 45 0 0 -0.013228,0.013228 z" />
        <path
           id="path874"
           style="fill:#ffffff;stroke:#ffffff;stroke-width:0.106488;stroke-linecap:round;stroke-linejoin:round;stroke-miterlimit:4;stroke-dasharray:none;paint-order:stroke markers fill"
           d="M 1.9009572,6.5921761 A 0.79866159,0.79866158 45 0 0 3.0171984,6.5789399 L 2.9046913,6.4664328 a 0.63892924,0.63892923 45 0 1 -0.9044639,8e-7 0.63892924,0.63892923 45 0 1 -10e-8,-0.9044649 L 1.8877201,5.4494616 a 0.79866159,0.79866158 45 0 0 5e-7,1.1294779 0.79866159,0.79866158 45 0 0 0.013228,0.013228 z" />
        <path
           id="path876"
           style="fill:#ffffff;stroke:#ffffff;stroke-width:0.106488;stroke-linecap:round;stroke-linejoin:round;stroke-miterlimit:4;stroke-dasharray:none;paint-order:stroke markers fill"
           d="M 6.5921786,6.5657048 A 0.79866158,0.79866159 45 0 0 6.5789424,5.4494635 L 6.4664352,5.5619707 a 0.63892923,0.63892924 45 0 1 8e-7,0.904464 0.63892923,0.63892924 45 0 1 -0.9044647,0 L 5.449464,6.5789418 a 0.79866158,0.79866159 45 0 0 1.1294779,-4e-7 0.79866158,0.79866159 45 0 0 0.013228,-0.013228 z" />
      </g>
      <g
         id="g984">
        <g
           id="g974">
          <path
             id="circle935"
             style="fill:#ffffff;stroke:none;stroke-width:0;stroke-linecap:round;stroke-linejoin:round;stroke-miterlimit:4;stroke-dasharray:none;paint-order:stroke markers fill"
             d="M 4.2333337,2.902193 A 1.3311031,1.3311031 0 0 0 2.9022305,4.233296 1.3311031,1.3311031 0 0 0 4.2333337,5.564399 1.3311031,1.3311031 0 0 0 5.564436,4.233296 1.3311031,1.3311031 0 0 0 4.2333337,2.902193 Z m 0,0.3171768 A 1.013768,1.013768 0 0 1 5.2472594,4.233296 1.013768,1.013768 0 0 1 4.2333337,5.2472221 1.013768,1.013768 0 0 1 3.2194071,4.233296 1.013768,1.013768 0 0 1 4.2333337,3.2193698 Z" />
          <path
             id="path957"
             style="fill:#ffffff;stroke:none;stroke-width:0;stroke-linecap:round;stroke-linejoin:round;stroke-miterlimit:4;stroke-dasharray:none;paint-order:stroke markers fill"
             d="M 4.2335935,1.5875001 A 2.6458396,2.6458332 0 0 0 1.5875001,4.2335872 2.6458396,2.6458332 0 0 0 4.2335935,6.8791543 2.6458396,2.6458332 0 0 0 6.8791669,4.2335872 2.6458396,2.6458332 0 0 0 4.2335935,1.5875001 Z m -0.016639,0.3171768 a 2.328504,2.3284984 0 0 1 0.016639,0 2.328504,2.3284984 0 0 1 2.328396,2.3289103 A 2.328504,2.3284984 0 0 1 4.2335935,6.5619775 2.328504,2.3284984 0 0 1 1.9046777,4.2335872 2.328504,2.3284984 0 0 1 4.2169545,1.9046769 Z" />
        </g>
        <g
           id="g970">
          <path
             style="fill:#ffffff;stroke-width:1.00694"
             d="M 5.4268527,4.7365747 A 1.2989468,1.3090347 0 0 1 4.77225,5.4213437 C 4.973637,5.69322 5.1043359,6.0254214 5.1949599,6.3879233 A 2.3461598,2.3562626 0 0 0 6.4032976,5.139533 1.9735937,1.9736217 0 0 0 5.4268527,4.7365747 Z"
             id="path949" />
          <path
             style="fill:#ffffff;stroke-width:1.00694"
             d="M 3.0403341,4.7365747 C 2.7080456,4.8171306 2.3855889,4.8777259 2.0633694,5.139533 A 2.3461598,2.3562626 0 0 0 3.2618282,6.3879233 2.0138711,2.0138997 0 0 1 3.6642606,5.4114646 1.2989468,1.3090347 0 0 1 3.0299355,4.7469737 Z"
             id="path947" />
          <path
             style="fill:#ffffff;stroke-width:1.00694"
             d="M 5.4268527,3.7300849 A 1.2989468,1.3090347 0 0 0 4.77225,3.0453159 C 4.973637,2.7734395 5.1043359,2.4412382 5.1949599,2.0787362 A 2.3461598,2.3562626 0 0 1 6.4032976,3.3271266 1.9735937,1.9736217 0 0 1 5.4268527,3.7300849 Z"
             id="path962" />
          <path
             style="fill:#ffffff;stroke-width:1.00694"
             d="M 3.0403341,3.7300849 C 2.7080456,3.649529 2.3855889,3.5889337 2.0633694,3.3271266 A 2.3461598,2.3562626 0 0 1 3.2618282,2.0787362 2.0138711,2.0138997 0 0 0 3.6642606,3.0551949 1.2989468,1.3090347 0 0 0 3.0299355,3.7196858 Z"
             id="path964" />
        </g>
      </g>
    </g>
  </g>
</svg>
