<?xml version="1.0" encoding="UTF-8" standalone="no"?>
<svg
   xmlns:dc="http://purl.org/dc/elements/1.1/"
   xmlns:cc="http://creativecommons.org/ns#"
   xmlns:rdf="http://www.w3.org/1999/02/22-rdf-syntax-ns#"
   xmlns:svg="http://www.w3.org/2000/svg"
   xmlns="http://www.w3.org/2000/svg"
   xmlns:sodipodi="http://sodipodi.sourceforge.net/DTD/sodipodi-0.dtd"
   xmlns:inkscape="http://www.inkscape.org/namespaces/inkscape"
   width="32"
   height="32"
   version="1.1"
   viewBox="0 0 8.4666667 8.4666672"
   id="svg371"
   sodipodi:docname="ubuntu.svg"
   inkscape:version="1.0.2 (e86c870879, 2021-01-15)">
  <metadata
     id="metadata375">
    <rdf:RDF>
      <cc:Work
         rdf:about="">
        <dc:format>image/svg+xml</dc:format>
        <dc:type
           rdf:resource="http://purl.org/dc/dcmitype/StillImage" />
        <dc:title></dc:title>
      </cc:Work>
    </rdf:RDF>
  </metadata>
  <sodipodi:namedview
     inkscape:snap-bbox-edge-midpoints="true"
     inkscape:bbox-nodes="true"
     inkscape:snap-bbox="true"
     pagecolor="#ffffff"
     bordercolor="#666666"
     borderopacity="1"
     objecttolerance="10"
     gridtolerance="10"
     guidetolerance="10"
     inkscape:pageopacity="0"
     inkscape:pageshadow="2"
     inkscape:window-width="1920"
     inkscape:window-height="1016"
     id="namedview373"
     showgrid="false"
     inkscape:zoom="16"
     inkscape:cx="16.255629"
     inkscape:cy="16.231818"
     inkscape:window-x="1920"
     inkscape:window-y="27"
     inkscape:window-maximized="1"
     inkscape:current-layer="svg371"
     inkscape:document-rotation="0"
     units="in">
    <inkscape:grid
       id="grid1162"
       type="xygrid" />
  </sodipodi:namedview>
  <defs
     id="defs37">
    <style
       id="current-color-scheme"
       type="text/css">.ColorScheme-Text { color:#565656; } .ColorScheme-Highlight { color:#5294e2; }</style>
    <style
       type="text/css"
       id="style13">.ColorScheme-Text { color:#565656; } .ColorScheme-Highlight { color:#5294e2; }</style>
    <style
       type="text/css"
       id="style15">.ColorScheme-Text { color:#565656; } .ColorScheme-Highlight { color:#5294e2; }</style>
    <style
       type="text/css"
       id="style17">.ColorScheme-Text { color:#565656; } .ColorScheme-Highlight { color:#5294e2; }</style>
    <style
       type="text/css"
       id="style19">.ColorScheme-Text { color:#565656; } .ColorScheme-Highlight { color:#5294e2; }</style>
    <style
       type="text/css"
       id="style21">.ColorScheme-Text { color:#565656; } .ColorScheme-Highlight { color:#5294e2; }</style>
    <style
       type="text/css"
       id="style23">.ColorScheme-Text { color:#565656; } .ColorScheme-Highlight { color:#5294e2; }</style>
    <style
       type="text/css"
       id="style25">.ColorScheme-Text { color:#565656; } .ColorScheme-Highlight { color:#5294e2; }</style>
    <style
       type="text/css"
       id="style27">.ColorScheme-Text { color:#565656; } .ColorScheme-Highlight { color:#5294e2; }</style>
    <style
       type="text/css"
       id="style29" />
    <style
       type="text/css"
       id="style31" />
    <style
       type="text/css"
       id="style33">.ColorScheme-Text { color:#565656; } .ColorScheme-Highlight { color:#5294e2; }</style>
    <style
       type="text/css"
       id="style35">.ColorScheme-Text { color:#565656; } .ColorScheme-Highlight { color:#5294e2; }</style>
  </defs>
  <g
     id="g850">
    <path
       d="m 4.1823367,3.0769684e-4 a 4.2333774,4.2333774 0 1 1 0,8.46613940316 4.2333774,4.2333774 0 0 1 0,-8.46613940316 z"
       id="path223"
       inkscape:connector-curvature="0"
       style="fill:#e93920;fill-opacity:1;stroke-width:0.962987" />
    <path
       d="m 4.233873,1.3229168 a 2.9104168,2.9104168 0 1 0 0,5.8208335 2.9104168,2.9104168 0 0 0 0,-5.8208335 z M 5.27126,2.1341237 A 0.38772411,0.38772411 0 0 1 5.5599946,2.7136615 0.38841356,0.38841356 0 1 1 5.27126,2.1341237 Z M 4.2331837,2.545223 c 0.1567442,0 0.3079861,0.021312 0.4516707,0.061184 A 0.54515788,0.54515788 0 0 0 5.4156341,3.0298899 C 5.7029898,3.3124326 5.8899905,3.696736 5.917489,4.1250185 l -0.5534048,0.00755 A 1.1350108,1.1350108 0 0 0 3.7554065,3.2045078 L 3.4852339,2.7198492 A 1.6822636,1.6822636 0 0 1 4.2338862,2.5452322 Z M 3.2968543,2.8284553 3.5814656,3.3048666 a 1.133632,1.133632 0 0 0 0,1.8568808 L 3.2968543,5.6374695 a 1.689821,1.689821 0 0 1 -0.6970893,-0.981011 0.54377898,0.54377898 0 0 0 0,-0.8462762 1.691147,1.691147 0 0 1 0.6970893,-0.9817006 z m -1.0422,1.0160801 a 0.38877154,0.38877154 0 1 1 0,0.77753 0.38842681,0.38842681 0 0 1 0,-0.7768404 z m 3.1094299,0.488782 0.5534048,0.00893 A 1.6829266,1.6829266 0 0 1 5.4156341,5.436693 0.54310278,0.54310278 0 0 0 4.6848544,5.8594864 1.6870368,1.6870368 0 0 1 3.4852206,5.7467423 L 3.7553932,5.2627601 A 1.1343213,1.1343213 0 0 0 5.364071,4.3333121 Z M 5.1750284,5.5611259 a 0.38926211,0.38926211 0 1 1 0.094869,0.7727169 0.38926211,0.38926211 0 0 1 -0.094869,-0.7727169 z"
       id="path227"
       inkscape:connector-curvature="0"
       style="fill:#ffffff;stroke-width:1.16012" />
  </g>
</svg>
