<?xml version="1.0" encoding="UTF-8" standalone="no"?>
<svg
   width="32"
   height="32"
   id="svg4275"
   version="1.1"
   sodipodi:docname="ubuntumate.svg"
   xmlns:inkscape="http://www.inkscape.org/namespaces/inkscape"
   xmlns:sodipodi="http://sodipodi.sourceforge.net/DTD/sodipodi-0.dtd"
   xmlns="http://www.w3.org/2000/svg"
   xmlns:svg="http://www.w3.org/2000/svg">
  <defs
     id="defs4277" />
  <sodipodi:namedview
     id="base"
     pagecolor="#ffffff"
     bordercolor="#666666"
     borderopacity="1.0"
     inkscape:pageopacity="0.0"
     inkscape:pageshadow="2"
     inkscape:zoom="11.313708"
     inkscape:cx="19.922243"
     inkscape:cy="13.50051"
     inkscape:document-units="px"
     inkscape:current-layer="svg4275"
     showgrid="false"
     inkscape:window-width="1920"
     inkscape:window-height="1016"
     inkscape:window-x="1920"
     inkscape:window-y="27"
     inkscape:window-maximized="1"
     inkscape:snap-global="true"
     inkscape:snap-bbox="true"
     inkscape:bbox-nodes="true"
     inkscape:object-paths="true"
     inkscape:snap-intersection-paths="true"
     inkscape:snap-smooth-nodes="true"
     inkscape:snap-bbox-edge-midpoints="true"
     inkscape:snap-bbox-midpoints="true"
     inkscape:bbox-paths="true"
     inkscape:document-rotation="0"
     inkscape:showpageshadow="2"
     inkscape:pagecheckerboard="0"
     inkscape:deskcolor="#d1d1d1">
    <inkscape:grid
       type="xygrid"
       id="grid4292"
       empspacing="4"
       visible="false"
       enabled="true"
       snapvisiblegridlinesonly="true"
       originx="0"
       originy="0"
       spacingy="1"
       spacingx="1"
       units="px" />
  </sodipodi:namedview>
  <g
     id="g837">
    <path
       id="path3171-7-3-3-8-7-0-9-6"
       d="M 32,16.00022 C 32,24.836384 24.836389,32.000007 15.999893,32.000007 7.1632843,32.000007 -4e-8,24.836496 -4e-8,16.00022 -4e-8,7.1633868 7.1631732,2.4436396e-6 15.999782,2.4436396e-6 24.836277,2.4436396e-6 32,7.1633868 32,16.00022 Z"
       inkscape:connector-curvature="0"
       style="fill:#87a556;fill-opacity:1;stroke-width:0.222222" />
    <path
       id="path874"
       style="fill:#ffffff;fill-opacity:1;stroke-width:0.152778"
       d="M 16,5 C 9.9248309,5 5,9.9246771 5,16 5,22.074941 9.924832,27 16,27 22.075091,27 27,22.074864 27,16 27,9.9246771 22.07509,5 16,5 Z M 17.839062,7.9734375 22.110157,10.5 17.832618,13.026563 Z M 16,9.2732424 c 0.31339,0 0.62007,0.024741 0.921679,0.066605 V 10.276563 C 16.621735,10.228053 16.314303,10.199218 16,10.199218 c -2.443398,2e-6 -4.533235,1.497682 -5.39043,3.628712 L 9.8167999,13.35957 C 10.845929,10.960486 13.229995,9.2732424 16,9.2732424 Z m 0,2.2859376 c 0.313797,0 0.621236,0.03807 0.917378,0.10098 v 0.949609 C 16.625121,12.531636 16.317277,12.491601 16,12.491601 c -1.604638,0 -2.945051,1.064611 -3.366601,2.528712 L 11.812695,14.534766 C 12.42014,12.806383 14.070543,11.55918 16,11.55918 Z m 5.394727,0.42539 c 0.836704,1.121737 1.33203,2.512966 1.33203,4.01543 0,1.525878 -0.514272,2.936446 -1.375,4.066992 l -0.79707,-0.472656 C 21.334851,18.606718 21.800782,17.360718 21.800782,16 c 0,-1.335162 -0.449185,-2.564106 -1.203125,-3.542774 z m -1.991602,1.179493 c 0.644622,0.771021 1.037696,1.758894 1.037696,2.835937 0,1.101375 -0.409849,2.115354 -1.080662,2.893945 L 18.54375,18.410546 C 19.140529,17.783808 19.508399,16.939858 19.508399,16 c 0,-0.913169 -0.344432,-1.740323 -0.910943,-2.363282 z M 8.2140625,13.473437 12.485157,16 8.2076176,18.526563 Z m 4.4193365,3.50625 c 0.42155,1.462946 1.761963,2.524414 3.366601,2.524414 0.317339,0 0.625042,-0.04139 0.917378,-0.118164 v 0.953906 c -0.296153,0.06291 -0.603581,0.10098 -0.917378,0.10098 -1.930947,0 -3.581143,-1.249393 -4.187305,-2.979882 z M 10.60957,18.17207 c 0.857195,2.131027 2.947032,3.628712 5.39043,3.628712 0.311256,0 0.613613,-0.02398 0.910943,-0.07089 v 0.930275 c -0.298001,0.04145 -0.601304,0.06661 -0.910943,0.06661 -2.770005,0 -5.154071,-1.687243 -6.1832034,-4.086327 z m 7.223048,0.883008 4.273241,2.522265 -4.277539,2.524415 z" />
  </g>
</svg>
