<?xml version="1.0" encoding="UTF-8" standalone="no"?>
<svg
   xmlns:dc="http://purl.org/dc/elements/1.1/"
   xmlns:cc="http://creativecommons.org/ns#"
   xmlns:rdf="http://www.w3.org/1999/02/22-rdf-syntax-ns#"
   xmlns:svg="http://www.w3.org/2000/svg"
   xmlns="http://www.w3.org/2000/svg"
   xmlns:sodipodi="http://sodipodi.sourceforge.net/DTD/sodipodi-0.dtd"
   xmlns:inkscape="http://www.inkscape.org/namespaces/inkscape"
   version="1.1"
   width="32"
   height="32"
   id="svg2"
   inkscape:version="1.0.2 (e86c870879, 2021-01-15)"
   sodipodi:docname="ubuntustudio.svg">
  <sodipodi:namedview
     pagecolor="#ffffff"
     bordercolor="#666666"
     borderopacity="1"
     objecttolerance="10"
     gridtolerance="10"
     guidetolerance="10"
     inkscape:pageopacity="0"
     inkscape:pageshadow="2"
     inkscape:window-width="1836"
     inkscape:window-height="1016"
     id="namedview3007"
     showgrid="false"
     fit-margin-top="10"
     fit-margin-left="10"
     fit-margin-right="10"
     fit-margin-bottom="10"
     inkscape:zoom="11.313709"
     inkscape:cx="20.992883"
     inkscape:cy="17.160867"
     inkscape:window-x="0"
     inkscape:window-y="0"
     inkscape:window-maximized="1"
     inkscape:current-layer="svg2"
     inkscape:document-rotation="0" />
  <title
     id="title14594">Ubuntu Studio v3</title>
  <defs
     id="defs4" />
  <metadata
     id="metadata7">
    <rdf:RDF>
      <cc:Work
         rdf:about="">
        <dc:format>image/svg+xml</dc:format>
        <dc:type
           rdf:resource="http://purl.org/dc/dcmitype/StillImage" />
        <dc:title>Ubuntu Studio v3</dc:title>
        <dc:creator>
          <cc:Agent>
            <dc:title>Cory Kontros</dc:title>
          </cc:Agent>
        </dc:creator>
        <dc:description>New Ubuntu Studio logo based on the Ubuntu logo 1st used in Ubuntu 10.04.</dc:description>
        <dc:date>August 8th 2010</dc:date>
      </cc:Work>
    </rdf:RDF>
  </metadata>
  <g
     id="g864">
    <circle
       style="fill:#009bf9;fill-opacity:1;stroke-width:8.78757;stroke-linecap:round;stroke-linejoin:round;paint-order:markers fill stroke"
       id="path859"
       cx="16"
       cy="16"
       r="16" />
    <path
       id="path857"
       style="fill:#ffffff;fill-opacity:1;stroke-width:10.5463;stroke-linecap:round;stroke-linejoin:round;paint-order:markers fill stroke"
       d="M 15.980469 6 A 10 10 0 0 0 6 16 A 10 10 0 0 0 16 26 A 10 10 0 0 0 26 16 A 10 10 0 0 0 16 6 A 10 10 0 0 0 15.980469 6 z M 18.132812 7.4335938 C 18.188912 7.4373813 18.244771 7.4455388 18.300781 7.4609375 C 19.794673 7.8725269 21.062874 8.5719994 22.150391 9.6738281 C 22.24485 9.7671438 22.317735 9.8818176 22.359375 10.007812 C 22.438541 10.241112 22.391075 10.515953 22.275391 10.71875 C 22.205956 10.84043 22.109351 10.935559 21.982422 11.011719 C 21.813212 11.113271 21.623512 11.159766 21.439453 11.134766 C 21.255392 11.109821 21.073037 11.028078 20.9375 10.884766 C 20.029273 9.964598 19.087444 9.39256 17.839844 9.0488281 C 17.391765 8.9256143 17.13241 8.4920544 17.255859 8.0449219 C 17.363897 7.6536701 17.740112 7.4070918 18.132812 7.4335938 z M 15.957031 10.03125 C 17.470973 10.031248 18.986501 10.608056 20.142578 11.761719 C 21.309174 12.925886 21.88563 14.464888 21.875 16 C 21.885624 17.535113 21.309174 19.074114 20.142578 20.238281 C 17.830425 22.545606 14.085584 22.545596 11.773438 20.238281 C 11.565873 20.036914 11.449848 19.724712 11.523438 19.445312 C 11.597083 19.165921 11.827449 18.975784 12.107422 18.902344 C 12.387403 18.828856 12.702511 18.901885 12.904297 19.109375 C 14.602281 20.803812 17.31374 20.803813 19.011719 19.109375 C 19.871298 18.25159 20.293923 17.124648 20.283203 16 C 20.293921 14.875353 19.871298 13.748409 19.011719 12.890625 C 17.313739 11.196187 14.602281 11.196188 12.904297 12.890625 C 12.702511 13.098165 12.387403 13.171146 12.107422 13.097656 C 11.827449 13.024212 11.597088 12.834079 11.523438 12.554688 C 11.449843 12.275289 11.565869 11.963086 11.773438 11.761719 C 12.929511 10.608061 14.443088 10.031251 15.957031 10.03125 z M 15.957031 12.806641 C 16.759239 12.806641 17.562792 13.112904 18.175781 13.724609 C 18.799265 14.346795 19.102477 15.175112 19.091797 16 C 19.102478 16.824888 18.799265 17.653205 18.175781 18.275391 C 16.949802 19.498801 14.966212 19.498801 13.740234 18.275391 C 13.116749 17.653205 12.813539 16.824888 12.824219 16 C 12.813544 15.175112 13.116749 14.346795 13.740234 13.724609 C 14.353222 13.112904 15.154821 12.806641 15.957031 12.806641 z M 8.3847656 13.152344 C 8.4409962 13.155964 8.4966234 13.166611 8.5527344 13.181641 C 9.0016069 13.301905 9.2591782 13.73565 9.1386719 14.183594 C 8.9692148 14.814694 8.8866819 15.407308 8.8886719 16 C 8.8866844 16.592692 8.9692145 17.185307 9.1386719 17.816406 C 9.2591781 18.26435 9.0016069 18.698095 8.5527344 18.818359 C 8.1038512 18.93861 7.6263752 18.68231 7.5058594 18.234375 C 7.3034085 17.480384 7.2051213 16.739939 7.2070312 16 C 7.2051188 15.260061 7.3034085 14.519616 7.5058594 13.765625 C 7.6113107 13.373682 7.9911496 13.127107 8.3847656 13.152344 z M 11.027344 13.824219 C 11.080012 13.826969 11.13395 13.835279 11.1875 13.849609 C 11.615885 13.9643 11.888319 14.424072 11.773438 14.851562 C 11.662797 15.263622 11.612887 15.631331 11.617188 16 C 11.612906 16.368669 11.662797 16.736379 11.773438 17.148438 C 11.888319 17.575928 11.615885 18.0357 11.1875 18.150391 C 10.759117 18.265029 10.341494 17.993897 10.226562 17.566406 C 10.084664 17.037965 10.017584 16.518636 10.021484 16 C 10.017602 15.481364 10.084668 14.962035 10.226562 14.433594 C 10.327127 14.05954 10.658667 13.805069 11.027344 13.824219 z M 16 14.402344 C 15.118223 14.402451 14.402451 15.118223 14.402344 16 C 14.402451 16.881778 15.118223 17.597549 16 17.597656 C 16.881778 17.597549 17.597549 16.881778 17.597656 16 C 17.597549 15.118223 16.881778 14.402451 16 14.402344 z M 21.439453 20.865234 C 21.623512 20.840234 21.813212 20.886725 21.982422 20.988281 C 22.109351 21.064438 22.205951 21.159569 22.275391 21.28125 C 22.391081 21.484046 22.438545 21.758888 22.359375 21.992188 C 22.317731 22.118182 22.244851 22.232852 22.150391 22.326172 C 21.062874 23.428 19.794673 24.127474 18.300781 24.539062 C 17.852711 24.662252 17.379331 24.40027 17.255859 23.953125 C 17.13241 23.505993 17.391765 23.074386 17.839844 22.951172 C 19.087443 22.607441 20.029273 22.035402 20.9375 21.115234 C 21.073037 20.971922 21.255392 20.890174 21.439453 20.865234 z " />
  </g>
</svg>
