<?xml version="1.0" encoding="UTF-8" standalone="no"?>
<svg
   xmlns:dc="http://purl.org/dc/elements/1.1/"
   xmlns:cc="http://creativecommons.org/ns#"
   xmlns:rdf="http://www.w3.org/1999/02/22-rdf-syntax-ns#"
   xmlns:svg="http://www.w3.org/2000/svg"
   xmlns="http://www.w3.org/2000/svg"
   xmlns:sodipodi="http://sodipodi.sourceforge.net/DTD/sodipodi-0.dtd"
   xmlns:inkscape="http://www.inkscape.org/namespaces/inkscape"
   version="1.1"
   width="32"
   height="32"
   id="svg2"
   inkscape:version="1.0.2 (e86c870879, 2021-01-15)"
   sodipodi:docname="ubuntustudio.svg">
  <sodipodi:namedview
     pagecolor="#ffffff"
     bordercolor="#666666"
     borderopacity="1"
     objecttolerance="10"
     gridtolerance="10"
     guidetolerance="10"
     inkscape:pageopacity="0"
     inkscape:pageshadow="2"
     inkscape:window-width="1920"
     inkscape:window-height="1016"
     id="namedview3007"
     showgrid="false"
     fit-margin-top="10"
     fit-margin-left="10"
     fit-margin-right="10"
     fit-margin-bottom="10"
     inkscape:zoom="11.313709"
     inkscape:cx="20.992883"
     inkscape:cy="17.160867"
     inkscape:window-x="1920"
     inkscape:window-y="27"
     inkscape:window-maximized="1"
     inkscape:current-layer="svg2"
     inkscape:document-rotation="0" />
  <title
     id="title14594">Ubuntu Studio v3</title>
  <defs
     id="defs4" />
  <metadata
     id="metadata7">
    <rdf:RDF>
      <cc:Work
         rdf:about="">
        <dc:format>image/svg+xml</dc:format>
        <dc:type
           rdf:resource="http://purl.org/dc/dcmitype/StillImage" />
        <dc:title>Ubuntu Studio v3</dc:title>
        <dc:creator>
          <cc:Agent>
            <dc:title>Cory Kontros</dc:title>
          </cc:Agent>
        </dc:creator>
        <dc:description>New Ubuntu Studio logo based on the Ubuntu logo 1st used in Ubuntu 10.04.</dc:description>
        <dc:date>August 8th 2010</dc:date>
      </cc:Work>
    </rdf:RDF>
  </metadata>
  <g
     id="g837">
    <circle
       style="fill:#009bf9;fill-opacity:1;stroke-width:8.78757;stroke-linecap:round;stroke-linejoin:round;paint-order:markers fill stroke"
       id="path859"
       cx="16"
       cy="16"
       r="16" />
    <path
       id="path857"
       style="fill:#ffffff;fill-opacity:1;stroke-width:11.6009;stroke-linecap:round;stroke-linejoin:round;paint-order:markers fill stroke"
       d="M 15.978516,5.0000052 A 11,11 0 0 0 5,16.000005 a 11,11 0 0 0 11,11 11,11 0 0 0 11,-11 11,11 0 0 0 -11,-10.9999998 11,11 0 0 0 -0.02148,0 z m 2.367577,1.5769532 c 0.06171,0.00417 0.123155,0.01314 0.184766,0.030078 1.643281,0.4527483 3.038302,1.222168 4.234571,2.4341803 0.103906,0.102647 0.184078,0.228788 0.229882,0.367382 0.08709,0.25663 0.03487,0.558955 -0.09238,0.7820313 -0.07637,0.133848 -0.182644,0.23849 -0.322265,0.322266 -0.186131,0.111708 -0.394801,0.162852 -0.597266,0.135352 -0.202467,-0.02745 -0.403058,-0.117357 -0.552149,-0.275 C 20.4322,9.3610627 19.396188,8.7318212 18.023828,8.3537161 17.530941,8.2181809 17.245651,7.741265 17.381445,7.2494193 17.500287,6.8190423 17.914123,6.5478062 18.346093,6.5769584 Z m -2.393359,2.8574213 c 1.665336,-2e-6 3.332417,0.6344873 4.604102,1.9035163 1.283255,1.280584 1.917357,2.973486 1.905664,4.662109 0.01168,1.688625 -0.622409,3.381526 -1.905664,4.66211 -2.543369,2.538057 -6.662694,2.538046 -9.206054,0 -0.228322,-0.221504 -0.355949,-0.564926 -0.275,-0.872266 0.081,-0.30733 0.334412,-0.516481 0.642382,-0.597265 0.307979,-0.08084 0.654598,-5.05e-4 0.876563,0.227734 1.867782,1.863881 4.850387,1.863882 6.718164,0 0.945537,-0.943564 1.410424,-2.1832 1.398632,-3.420313 0.01179,-1.237111 -0.453095,-2.47675 -1.398632,-3.420312 -1.867778,-1.863882 -4.850382,-1.863881 -6.718164,0 -0.221965,0.228294 -0.568584,0.308573 -0.876563,0.227734 -0.30797,-0.08078 -0.561367,-0.289935 -0.642382,-0.597265 -0.08096,-0.307339 0.04667,-0.650762 0.275,-0.872266 1.27168,-1.269023 2.936615,-1.9035143 4.601952,-1.9035163 z m 0,3.0529313 c 0.882429,0 1.766337,0.336889 2.440625,1.009764 0.685832,0.684405 1.019366,1.595554 1.007618,2.50293 0.01175,0.907377 -0.321786,1.818526 -1.007618,2.502931 -1.348577,1.345751 -3.530526,1.345751 -4.879102,0 -0.685833,-0.684405 -1.019364,-1.595554 -1.007616,-2.502931 -0.01174,-0.907376 0.321783,-1.818525 1.007616,-2.50293 0.674287,-0.672875 1.556046,-1.009764 2.438477,-1.009764 z m -8.3294918,0.380273 c 0.061854,0.004 0.1230435,0.0157 0.1847656,0.03223 0.4937598,0.13229 0.7770882,0.60941 0.6445313,1.102148 -0.1864028,0.69421 -0.277189,1.346086 -0.275,1.998047 -0.00219,0.651961 0.088597,1.303837 0.275,1.998046 0.1325568,0.492739 -0.1507715,0.969858 -0.6445313,1.102149 -0.4937715,0.132272 -1.0189951,-0.149658 -1.1515625,-0.642386 -0.2226959,-0.82939 -0.3308119,-1.64388 -0.328711,-2.457813 -0.0021,-0.813932 0.1060147,-1.628422 0.328711,-2.457812 0.1159965,-0.431137 0.5338193,-0.70237 0.9667969,-0.674609 z m 2.9068358,0.739062 c 0.05794,0.0031 0.117267,0.01217 0.176172,0.02793 0.471223,0.12616 0.770901,0.63191 0.644532,1.102149 -0.121705,0.453266 -0.176606,0.857746 -0.171875,1.263281 -0.0047,0.405536 0.05017,0.810017 0.171875,1.263282 0.126369,0.470239 -0.173309,0.975988 -0.644532,1.102149 C 10.235029,18.491538 9.775643,18.193293 9.649218,17.723053 9.49313,17.141767 9.419342,16.570505 9.423632,16.000005 c -0.0043,-0.570499 0.0695,-1.141761 0.225586,-1.723046 0.110622,-0.41146 0.475316,-0.691378 0.88086,-0.670313 z M 16,14.242584 c -0.969955,1.18e-4 -1.757304,0.787467 -1.757422,1.757421 1.18e-4,0.969956 0.787467,1.757304 1.757422,1.757422 0.969956,-1.18e-4 1.757304,-0.787466 1.757422,-1.757422 C 17.757304,15.030051 16.969956,14.242702 16,14.242584 Z m 5.983398,7.109179 c 0.202465,-0.0275 0.411135,0.02364 0.597266,0.135352 0.139622,0.08378 0.245882,0.188416 0.322266,0.322265 0.127259,0.223076 0.179469,0.525402 0.09238,0.782032 -0.0458,0.138594 -0.125976,0.264731 -0.229882,0.367383 -1.196269,1.21201 -2.59129,1.981432 -4.234571,2.434179 -0.492877,0.135509 -1.013595,-0.152672 -1.149415,-0.644531 -0.135793,-0.491845 0.149497,-0.966613 0.642384,-1.102148 1.372359,-0.378104 2.408372,-1.007347 3.407422,-2.019532 0.14909,-0.157643 0.349681,-0.247566 0.552148,-0.275 z" />
  </g>
</svg>
