<?xml version="1.0" encoding="UTF-8" standalone="no"?>
<svg
   xmlns:dc="http://purl.org/dc/elements/1.1/"
   xmlns:cc="http://creativecommons.org/ns#"
   xmlns:rdf="http://www.w3.org/1999/02/22-rdf-syntax-ns#"
   xmlns:svg="http://www.w3.org/2000/svg"
   xmlns="http://www.w3.org/2000/svg"
   xmlns:sodipodi="http://sodipodi.sourceforge.net/DTD/sodipodi-0.dtd"
   xmlns:inkscape="http://www.inkscape.org/namespaces/inkscape"
   width="32.000332"
   height="32.000332"
   version="1.1"
   viewBox="0 0 8.4667545 8.466755"
   id="svg371"
   sodipodi:docname="ubuntu.svg"
   inkscape:version="1.0.1 (3bc2e813f5, 2020-09-07)">
  <metadata
     id="metadata375">
    <rdf:RDF>
      <cc:Work
         rdf:about="">
        <dc:format>image/svg+xml</dc:format>
        <dc:type
           rdf:resource="http://purl.org/dc/dcmitype/StillImage" />
        <dc:title />
      </cc:Work>
    </rdf:RDF>
  </metadata>
  <sodipodi:namedview
     inkscape:snap-bbox-edge-midpoints="true"
     inkscape:bbox-nodes="true"
     inkscape:snap-bbox="true"
     pagecolor="#ffffff"
     bordercolor="#666666"
     borderopacity="1"
     objecttolerance="10"
     gridtolerance="10"
     guidetolerance="10"
     inkscape:pageopacity="0"
     inkscape:pageshadow="2"
     inkscape:window-width="1836"
     inkscape:window-height="1016"
     id="namedview373"
     showgrid="false"
     inkscape:zoom="4"
     inkscape:cx="107.16678"
     inkscape:cy="265.86868"
     inkscape:window-x="2004"
     inkscape:window-y="27"
     inkscape:window-maximized="1"
     inkscape:current-layer="svg371"
     inkscape:document-rotation="0">
    <inkscape:grid
       id="grid1162"
       type="xygrid" />
  </sodipodi:namedview>
  <defs
     id="defs37">
    <style
       id="current-color-scheme"
       type="text/css">.ColorScheme-Text { color:#565656; } .ColorScheme-Highlight { color:#5294e2; }</style>
    <style
       type="text/css"
       id="style13">.ColorScheme-Text { color:#565656; } .ColorScheme-Highlight { color:#5294e2; }</style>
    <style
       type="text/css"
       id="style15">.ColorScheme-Text { color:#565656; } .ColorScheme-Highlight { color:#5294e2; }</style>
    <style
       type="text/css"
       id="style17">.ColorScheme-Text { color:#565656; } .ColorScheme-Highlight { color:#5294e2; }</style>
    <style
       type="text/css"
       id="style19">.ColorScheme-Text { color:#565656; } .ColorScheme-Highlight { color:#5294e2; }</style>
    <style
       type="text/css"
       id="style21">.ColorScheme-Text { color:#565656; } .ColorScheme-Highlight { color:#5294e2; }</style>
    <style
       type="text/css"
       id="style23">.ColorScheme-Text { color:#565656; } .ColorScheme-Highlight { color:#5294e2; }</style>
    <style
       type="text/css"
       id="style25">.ColorScheme-Text { color:#565656; } .ColorScheme-Highlight { color:#5294e2; }</style>
    <style
       type="text/css"
       id="style27">.ColorScheme-Text { color:#565656; } .ColorScheme-Highlight { color:#5294e2; }</style>
    <style
       type="text/css"
       id="style29" />
    <style
       type="text/css"
       id="style31" />
    <style
       type="text/css"
       id="style33">.ColorScheme-Text { color:#565656; } .ColorScheme-Highlight { color:#5294e2; }</style>
    <style
       type="text/css"
       id="style35">.ColorScheme-Text { color:#565656; } .ColorScheme-Highlight { color:#5294e2; }</style>
  </defs>
  <g
     id="ubuntu"
     transform="matrix(1.1429,0,0,1.1429,-1.511992,0.30183389)">
    <g
       transform="matrix(0.53846,0,0,0.53846,0.42321,-1.1189)"
       id="g225"
       style="stroke-width:1.5648">
      <path
         d="m 8.467,1.588 a 6.879,6.879 0 1 1 0,13.757 6.879,6.879 0 0 1 0,-13.757 z"
         id="path223"
         inkscape:connector-curvature="0"
         style="fill:#f63f33;stroke-width:1.5648" />
    </g>
    <path
       d="m 5.0272,1.2448 a 2.1951,2.1951 0 1 0 0,4.3902 2.1951,2.1951 0 0 0 0,-4.3902 z M 5.80962,1.85663 A 0.29243,0.29243 0 0 1 6.02739,2.29373 0.29295,0.29295 0 1 1 5.80962,1.85663 Z M 5.02668,2.16669 c 0.11822,0 0.23229,0.016074 0.34066,0.046147 a 0.41117,0.41117 0 0 0 0.55117,0.3194 c 0.21673,0.2131 0.35777,0.50295 0.37851,0.82597 l -0.41739,0.0057 A 0.85605,0.85605 0 0 0 4.66633,2.663937 L 4.46256,2.298397 a 1.2688,1.2688 0 0 1 0.56465,-0.1317 z m -0.7062,0.21362 0.21466,0.35932 a 0.85501,0.85501 0 0 0 0,1.4005 l -0.21466,0.3588 a 1.2745,1.2745 0 0 1 -0.52576,-0.7399 0.41013,0.41013 0 0 0 0,-0.63828 1.2755,1.2755 0 0 1 0.52576,-0.74042 z M 3.53443,3.14666 a 0.29322,0.29322 0 1 1 0,0.58643 0.29296,0.29296 0 0 1 0,-0.58591 z m 2.3452,0.36865 0.41739,0.00674 A 1.2693,1.2693 0 0 1 5.91851,4.3475 0.40962,0.40962 0 0 0 5.36734,4.66638 1.2724,1.2724 0 0 1 4.46255,4.581346 l 0.20377,-0.36503 a 0.85553,0.85553 0 0 0 1.2133,-0.70101 z M 5.73704,4.44135 A 0.29359,0.29359 0 1 1 5.808593,5.02415 0.29359,0.29359 0 0 1 5.73704,4.44135 Z"
       id="path227"
       inkscape:connector-curvature="0"
       style="fill:#ffffff;stroke-width:0.87499" />
  </g>
</svg>
