<?xml version="1.0" encoding="UTF-8" standalone="no"?>
<svg
   xmlns:dc="http://purl.org/dc/elements/1.1/"
   xmlns:cc="http://creativecommons.org/ns#"
   xmlns:rdf="http://www.w3.org/1999/02/22-rdf-syntax-ns#"
   xmlns:svg="http://www.w3.org/2000/svg"
   xmlns="http://www.w3.org/2000/svg"
   xmlns:sodipodi="http://sodipodi.sourceforge.net/DTD/sodipodi-0.dtd"
   xmlns:inkscape="http://www.inkscape.org/namespaces/inkscape"
   width="32"
   height="32"
   id="svg4275"
   version="1.1"
   inkscape:version="1.0.2 (e86c870879, 2021-01-15)"
   sodipodi:docname="ubuntumate.svg">
  <defs
     id="defs4277" />
  <sodipodi:namedview
     id="base"
     pagecolor="#ffffff"
     bordercolor="#666666"
     borderopacity="1.0"
     inkscape:pageopacity="0.0"
     inkscape:pageshadow="2"
     inkscape:zoom="5.6568542"
     inkscape:cx="12.376276"
     inkscape:cy="34.215532"
     inkscape:document-units="px"
     inkscape:current-layer="svg4275"
     showgrid="false"
     inkscape:window-width="1836"
     inkscape:window-height="1016"
     inkscape:window-x="0"
     inkscape:window-y="0"
     inkscape:window-maximized="1"
     inkscape:snap-global="true"
     inkscape:snap-bbox="true"
     inkscape:bbox-nodes="true"
     inkscape:object-paths="true"
     inkscape:snap-intersection-paths="true"
     inkscape:snap-smooth-nodes="true"
     inkscape:snap-bbox-edge-midpoints="true"
     inkscape:snap-bbox-midpoints="true"
     inkscape:bbox-paths="true"
     inkscape:document-rotation="0">
    <inkscape:grid
       type="xygrid"
       id="grid4292"
       empspacing="4"
       visible="true"
       enabled="true"
       snapvisiblegridlinesonly="true" />
  </sodipodi:namedview>
  <metadata
     id="metadata4280">
    <rdf:RDF>
      <cc:Work
         rdf:about="">
        <dc:format>image/svg+xml</dc:format>
        <dc:type
           rdf:resource="http://purl.org/dc/dcmitype/StillImage" />
        <dc:title />
      </cc:Work>
    </rdf:RDF>
  </metadata>
  <g
     id="g841">
    <path
       id="path3171-7-3-3-8-7-0-9-6"
       d="M 32,16.00022 C 32,24.836384 24.836389,32.000007 15.999893,32.000007 7.1632843,32.000007 -4e-8,24.836496 -4e-8,16.00022 -4e-8,7.1633868 7.1631732,2.4436396e-6 15.999782,2.4436396e-6 24.836277,2.4436396e-6 32,7.1633868 32,16.00022 Z"
       inkscape:connector-curvature="0"
       style="fill:#87a556;fill-opacity:1;stroke-width:0.222222" />
    <path
       id="path874"
       style="fill:#ffffff;fill-opacity:1;stroke-width:0.138889"
       d="M 16 6 C 10.477119 6 6 10.476979 6 16 C 6 21.522673 10.47712 26 16 26 C 21.52281 26 26 21.522603 26 16 C 26 10.476979 21.522809 6 16 6 z M 17.671875 8.703125 L 21.554688 11 L 17.666016 13.296875 L 17.671875 8.703125 z M 16 9.8847656 C 16.284897 9.8847656 16.563699 9.9072549 16.837891 9.9453125 L 16.837891 10.796875 C 16.565213 10.752775 16.28573 10.726562 16 10.726562 C 13.778729 10.726563 11.878877 12.088091 11.099609 14.025391 L 10.378906 13.599609 C 11.314481 11.418624 13.481813 9.8847656 16 9.8847656 z M 16 11.962891 C 16.285269 11.962891 16.564759 11.997498 16.833984 12.054688 L 16.833984 12.917969 C 16.568292 12.846942 16.288434 12.810547 16 12.810547 C 14.541238 12.810547 13.322681 13.778374 12.939453 15.109375 L 12.193359 14.667969 C 12.745582 13.096712 14.245948 11.962891 16 11.962891 z M 20.904297 12.349609 C 21.664934 13.36937 22.115234 14.634124 22.115234 16 C 22.115234 17.387162 21.647715 18.669496 20.865234 19.697266 L 20.140625 19.267578 C 20.849865 18.369744 21.273438 17.237016 21.273438 16 C 21.273438 14.786216 20.865087 13.668994 20.179688 12.779297 L 20.904297 12.349609 z M 19.09375 13.421875 C 19.679768 14.122804 20.037109 15.02087 20.037109 16 C 20.037109 17.00125 19.66452 17.923049 19.054688 18.630859 L 18.3125 18.191406 C 18.855026 17.621644 19.189453 16.854417 19.189453 16 C 19.189453 15.169847 18.876333 14.417888 18.361328 13.851562 L 19.09375 13.421875 z M 8.921875 13.703125 L 12.804688 16 L 8.9160156 18.296875 L 8.921875 13.703125 z M 12.939453 16.890625 C 13.322681 18.220575 14.541238 19.185547 16 19.185547 C 16.288489 19.185547 16.568221 19.147918 16.833984 19.078125 L 16.833984 19.945312 C 16.564759 20.002502 16.285269 20.037109 16 20.037109 C 14.244594 20.037109 12.744415 18.901297 12.193359 17.328125 L 12.939453 16.890625 z M 11.099609 17.974609 C 11.878877 19.911907 13.778729 21.273438 16 21.273438 C 16.282959 21.273438 16.557828 21.251634 16.828125 21.208984 L 16.828125 22.054688 C 16.557216 22.092367 16.281486 22.115234 16 22.115234 C 13.481813 22.115234 11.314481 20.581376 10.378906 18.400391 L 11.099609 17.974609 z M 17.666016 18.777344 L 21.550781 21.070312 L 17.662109 23.365234 L 17.666016 18.777344 z " />
  </g>
</svg>
