<?xml version="1.0" encoding="UTF-8" standalone="no"?>
<svg
   xmlns:dc="http://purl.org/dc/elements/1.1/"
   xmlns:cc="http://creativecommons.org/ns#"
   xmlns:rdf="http://www.w3.org/1999/02/22-rdf-syntax-ns#"
   xmlns:svg="http://www.w3.org/2000/svg"
   xmlns="http://www.w3.org/2000/svg"
   xmlns:sodipodi="http://sodipodi.sourceforge.net/DTD/sodipodi-0.dtd"
   xmlns:inkscape="http://www.inkscape.org/namespaces/inkscape"
   width="32.000332"
   height="32.000332"
   version="1.1"
   viewBox="0 0 8.4667545 8.466755"
   id="svg371"
   sodipodi:docname="ubuntu.svg"
   inkscape:version="1.0.2 (e86c870879, 2021-01-15)">
  <metadata
     id="metadata375">
    <rdf:RDF>
      <cc:Work
         rdf:about="">
        <dc:format>image/svg+xml</dc:format>
        <dc:type
           rdf:resource="http://purl.org/dc/dcmitype/StillImage" />
        <dc:title></dc:title>
      </cc:Work>
    </rdf:RDF>
  </metadata>
  <sodipodi:namedview
     inkscape:snap-bbox-edge-midpoints="true"
     inkscape:bbox-nodes="true"
     inkscape:snap-bbox="true"
     pagecolor="#ffffff"
     bordercolor="#666666"
     borderopacity="1"
     objecttolerance="10"
     gridtolerance="10"
     guidetolerance="10"
     inkscape:pageopacity="0"
     inkscape:pageshadow="2"
     inkscape:window-width="1836"
     inkscape:window-height="1016"
     id="namedview373"
     showgrid="false"
     inkscape:zoom="8"
     inkscape:cx="14.492969"
     inkscape:cy="20.50322"
     inkscape:window-x="0"
     inkscape:window-y="0"
     inkscape:window-maximized="1"
     inkscape:current-layer="svg371"
     inkscape:document-rotation="0"
     units="in">
    <inkscape:grid
       id="grid1162"
       type="xygrid" />
  </sodipodi:namedview>
  <defs
     id="defs37">
    <style
       id="current-color-scheme"
       type="text/css">.ColorScheme-Text { color:#565656; } .ColorScheme-Highlight { color:#5294e2; }</style>
    <style
       type="text/css"
       id="style13">.ColorScheme-Text { color:#565656; } .ColorScheme-Highlight { color:#5294e2; }</style>
    <style
       type="text/css"
       id="style15">.ColorScheme-Text { color:#565656; } .ColorScheme-Highlight { color:#5294e2; }</style>
    <style
       type="text/css"
       id="style17">.ColorScheme-Text { color:#565656; } .ColorScheme-Highlight { color:#5294e2; }</style>
    <style
       type="text/css"
       id="style19">.ColorScheme-Text { color:#565656; } .ColorScheme-Highlight { color:#5294e2; }</style>
    <style
       type="text/css"
       id="style21">.ColorScheme-Text { color:#565656; } .ColorScheme-Highlight { color:#5294e2; }</style>
    <style
       type="text/css"
       id="style23">.ColorScheme-Text { color:#565656; } .ColorScheme-Highlight { color:#5294e2; }</style>
    <style
       type="text/css"
       id="style25">.ColorScheme-Text { color:#565656; } .ColorScheme-Highlight { color:#5294e2; }</style>
    <style
       type="text/css"
       id="style27">.ColorScheme-Text { color:#565656; } .ColorScheme-Highlight { color:#5294e2; }</style>
    <style
       type="text/css"
       id="style29" />
    <style
       type="text/css"
       id="style31" />
    <style
       type="text/css"
       id="style33">.ColorScheme-Text { color:#565656; } .ColorScheme-Highlight { color:#5294e2; }</style>
    <style
       type="text/css"
       id="style35">.ColorScheme-Text { color:#565656; } .ColorScheme-Highlight { color:#5294e2; }</style>
  </defs>
  <g
     id="g861">
    <path
       d="m 4.1823367,3.0769684e-4 a 4.2333774,4.2333774 0 1 1 0,8.46613940316 4.2333774,4.2333774 0 0 1 0,-8.46613940316 z"
       id="path223"
       inkscape:connector-curvature="0"
       style="fill:#e93020;stroke-width:0.962987;fill-opacity:1" />
    <path
       d="m 4.2333335,1.5875001 a 2.6458334,2.6458334 0 1 0 0,5.2916668 2.6458334,2.6458334 0 0 0 0,-5.2916668 z M 5.1764126,2.3249609 A 0.35247646,0.35247646 0 0 1 5.4388986,2.8518134 0.35310323,0.35310323 0 1 1 5.1764126,2.3249609 Z M 4.2327068,2.6986875 c 0.1424948,0 0.2799874,0.019375 0.4106098,0.055622 a 0.49559807,0.49559807 0 0 0 0.6643451,0.3849844 c 0.2612325,0.256857 0.4312331,0.6062238 0.4562318,0.9955715 l -0.5030953,0.00687 A 1.031828,1.031828 0 0 0 3.7983639,3.2980373 L 3.5527525,2.8574387 A 1.5293305,1.5293305 0 0 1 4.2333455,2.6986959 Z M 3.3814983,2.9561714 3.6402358,3.3892727 a 1.0305745,1.0305745 0 0 0 0,1.6880734 L 3.3814983,5.5098207 a 1.5362009,1.5362009 0 0 1 -0.6337175,-0.8918282 0.49434452,0.49434452 0 0 0 0,-0.769342 1.5374063,1.5374063 0 0 1 0.6337175,-0.8924551 z M 2.4340438,3.8798807 a 0.35342867,0.35342867 0 1 1 0,0.7068454 0.35311528,0.35311528 0 0 1 0,-0.7062186 z m 2.8267544,0.4443472 0.5030953,0.00812 A 1.5299332,1.5299332 0 0 1 5.3076617,5.3272966 0.4937298,0.4937298 0 0 0 4.6433166,5.7116542 1.5336698,1.5336698 0 0 1 3.5527404,5.6091596 L 3.7983518,5.1691758 A 1.0312012,1.0312012 0 0 0 5.2607862,4.3242231 Z M 5.0889293,5.4404174 a 0.35387464,0.35387464 0 1 1 0.086245,0.7024699 0.35387464,0.35387464 0 0 1 -0.086245,-0.7024699 z"
       id="path227"
       inkscape:connector-curvature="0"
       style="fill:#ffffff;stroke-width:1.05466" />
  </g>
</svg>
