<?xml version="1.0" encoding="UTF-8" standalone="no"?>
<svg
   xmlns:dc="http://purl.org/dc/elements/1.1/"
   xmlns:cc="http://creativecommons.org/ns#"
   xmlns:rdf="http://www.w3.org/1999/02/22-rdf-syntax-ns#"
   xmlns:svg="http://www.w3.org/2000/svg"
   xmlns="http://www.w3.org/2000/svg"
   xmlns:sodipodi="http://sodipodi.sourceforge.net/DTD/sodipodi-0.dtd"
   xmlns:inkscape="http://www.inkscape.org/namespaces/inkscape"
   width="32.001259"
   height="32.001259"
   version="1.1"
   viewBox="0 0 8.4669997 8.4670002"
   id="svg371"
   sodipodi:docname="void.svg"
   inkscape:version="1.0.1 (3bc2e813f5, 2020-09-07)">
  <metadata
     id="metadata375">
    <rdf:RDF>
      <cc:Work
         rdf:about="">
        <dc:format>image/svg+xml</dc:format>
        <dc:type
           rdf:resource="http://purl.org/dc/dcmitype/StillImage" />
        <dc:title />
      </cc:Work>
    </rdf:RDF>
  </metadata>
  <sodipodi:namedview
     inkscape:snap-bbox-edge-midpoints="true"
     inkscape:bbox-nodes="true"
     inkscape:snap-bbox="true"
     pagecolor="#ffffff"
     bordercolor="#666666"
     borderopacity="1"
     objecttolerance="10"
     gridtolerance="10"
     guidetolerance="10"
     inkscape:pageopacity="0"
     inkscape:pageshadow="2"
     inkscape:window-width="1836"
     inkscape:window-height="1016"
     id="namedview373"
     showgrid="false"
     inkscape:zoom="4"
     inkscape:cx="107.16678"
     inkscape:cy="265.86868"
     inkscape:window-x="2004"
     inkscape:window-y="27"
     inkscape:window-maximized="1"
     inkscape:current-layer="svg371"
     inkscape:document-rotation="0">
    <inkscape:grid
       id="grid1162"
       type="xygrid" />
  </sodipodi:namedview>
  <defs
     id="defs37">
    <style
       id="current-color-scheme"
       type="text/css">.ColorScheme-Text { color:#565656; } .ColorScheme-Highlight { color:#5294e2; }</style>
    <style
       type="text/css"
       id="style13">.ColorScheme-Text { color:#565656; } .ColorScheme-Highlight { color:#5294e2; }</style>
    <style
       type="text/css"
       id="style15">.ColorScheme-Text { color:#565656; } .ColorScheme-Highlight { color:#5294e2; }</style>
    <style
       type="text/css"
       id="style17">.ColorScheme-Text { color:#565656; } .ColorScheme-Highlight { color:#5294e2; }</style>
    <style
       type="text/css"
       id="style19">.ColorScheme-Text { color:#565656; } .ColorScheme-Highlight { color:#5294e2; }</style>
    <style
       type="text/css"
       id="style21">.ColorScheme-Text { color:#565656; } .ColorScheme-Highlight { color:#5294e2; }</style>
    <style
       type="text/css"
       id="style23">.ColorScheme-Text { color:#565656; } .ColorScheme-Highlight { color:#5294e2; }</style>
    <style
       type="text/css"
       id="style25">.ColorScheme-Text { color:#565656; } .ColorScheme-Highlight { color:#5294e2; }</style>
    <style
       type="text/css"
       id="style27">.ColorScheme-Text { color:#565656; } .ColorScheme-Highlight { color:#5294e2; }</style>
    <style
       type="text/css"
       id="style29" />
    <style
       type="text/css"
       id="style31" />
    <style
       type="text/css"
       id="style33">.ColorScheme-Text { color:#565656; } .ColorScheme-Highlight { color:#5294e2; }</style>
    <style
       type="text/css"
       id="style35">.ColorScheme-Text { color:#565656; } .ColorScheme-Highlight { color:#5294e2; }</style>
  </defs>
  <g
     id="void"
     transform="translate(-12.4885,-256.9865)">
    <circle
       cx="16.722"
       cy="261.22"
       r="4.2335"
       id="circle341"
       style="fill:#f2f2f2;stroke-width:0.30917" />
    <circle
       cx="16.725"
       cy="261.35001"
       r="0.81629002"
       id="circle343"
       style="fill:#abc2ab;stroke-width:0.013605" />
    <g
       id="g357"
       style="stroke-width:0.031567">
      <path
         transform="matrix(0.26458,0,0,0.26458,0,201.75)"
         d="m 62.687,234.96 c -1.025,-0.0768 -1.7355,-0.20855 -2.5569,-0.47423 -3.3127,-1.0713 -5.8304,-3.8959 -6.4981,-7.2902 -0.11719,-0.59575 -0.1443,-0.80854 -0.17812,-1.3982 -0.104,-1.8134 0.34215,-3.7183 1.2339,-5.2687 0.20112,-0.34963 0.59904,-0.96199 0.61544,-0.9471 0.0051,0.005 0.50571,0.50224 1.1125,1.1058 l 1.1032,1.0974 -0.22627,0.44944 c -0.48386,0.96109 -0.71388,1.9247 -0.71388,2.9906 0,3.5761 2.816,6.4924 6.3924,6.6199 1.1618,0.0414 2.1608,-0.17671 3.2316,-0.70569 l 0.48532,-0.23974 1.0852,1.0848 c 0.59683,0.59664 1.0852,1.0992 1.0852,1.1168 0,0.0176 -0.06037,0.0708 -0.13416,0.11827 -0.60474,0.38903 -0.79406,0.49943 -1.2257,0.71472 -1.0494,0.52346 -2.0772,0.83112 -3.2194,0.96372 -0.40776,0.0473 -1.3176,0.083 -1.5921,0.0624 z"
         id="path345"
         inkscape:connector-curvature="0"
         style="fill:#478061" />
      <path
         transform="matrix(0.26458,0,0,0.26458,0,201.75)"
         d="m 69.91,229.82 -1.0653,-1.0657 0.07097,-0.11934 c 0.43185,-0.72617 0.7385,-1.5835 0.87821,-2.4553 0.07752,-0.48376 0.07678,-1.4136 -0.0015,-1.9256 -0.46628,-3.048 -2.9138,-5.3516 -5.9887,-5.6363 -1.3014,-0.12052 -2.7074,0.1776 -3.8229,0.81058 l -0.25611,0.14532 -2.2047,-2.222 0.12141,-0.0893 c 0.65431,-0.48119 1.8476,-1.0496 2.7433,-1.3068 0.98642,-0.28325 1.6873,-0.37956 2.76,-0.37928 0.96602,2.5e-4 1.316,0.0386 2.2886,0.25051 0.40004,0.0872 1.0595,0.28778 1.1912,0.36239 0.03015,0.0171 0.07135,0.031 0.09156,0.031 0.0655,0 1.2363,0.56657 1.2531,0.6064 0.0058,0.0137 0.02585,0.0249 0.04458,0.0249 0.03385,0 0.59342,0.33727 0.62359,0.37586 0.0087,0.0111 0.05803,0.0471 0.10966,0.0801 0.05164,0.0329 0.10846,0.0718 0.12627,0.0864 0.01781,0.0146 0.11052,0.0865 0.20601,0.15995 0.09549,0.0734 0.18888,0.14785 0.20752,0.16544 0.01865,0.0176 0.082,0.0675 0.14079,0.11091 0.14875,0.10982 1.1016,1.0617 1.2155,1.2143 0.05142,0.0689 0.1148,0.14762 0.14084,0.17499 0.02604,0.0274 0.07576,0.0891 0.11049,0.1372 0.19335,0.26777 0.30279,0.41844 0.32429,0.44647 0.10712,0.1396 0.4382,0.71038 0.62255,1.0733 0.26811,0.52777 0.39756,0.83405 0.54035,1.2785 0.10687,0.33262 0.12804,0.40479 0.21298,0.72605 0.02525,0.0955 0.06011,0.22689 0.07747,0.292 0.02846,0.10673 0.02558,0.11837 -0.02922,0.11837 -0.04682,0 -0.05703,0.0163 -0.04447,0.071 0.21786,0.9485 0.23138,2.5084 0.03161,3.646 -0.01434,0.0816 -0.0074,0.10259 0.03419,0.10259 0.04157,0 0.04744,0.0177 0.02884,0.0868 -0.01285,0.0477 -0.03492,0.13653 -0.04905,0.1973 -0.0986,0.42409 -0.16679,0.66461 -0.31326,1.1048 -0.04186,0.12583 -0.05041,0.14728 -0.2201,0.55243 -0.13288,0.31726 -0.50439,1.034 -0.54539,1.0522 -0.01302,0.006 -0.02368,0.0259 -0.02368,0.0446 0,0.0342 -0.17579,0.32478 -0.23609,0.39026 -0.01773,0.0192 -0.07484,0.10684 -0.12693,0.19465 -0.05902,0.0995 -0.11511,0.15815 -0.14886,0.15566 -0.02979,-0.002 -0.53356,-0.48355 -1.1195,-1.0697 z"
         id="path347"
         inkscape:connector-curvature="0"
         style="fill:#abc2ab" />
      <path
         transform="matrix(0.26458,0,0,0.26458,0,201.75)"
         d="m 53.387,227.07 c -0.0487,-0.0918 -0.20456,-0.37908 -0.30401,-0.56032 -0.04287,-0.0781 -0.13638,-0.25569 -0.20779,-0.39459 -0.07142,-0.13889 -0.13731,-0.25964 -0.14643,-0.26832 -0.0091,-0.009 -0.07513,-0.12942 -0.14668,-0.26832 -0.07156,-0.1389 -0.16507,-0.31646 -0.20781,-0.39459 -0.04274,-0.0781 -0.1317,-0.24149 -0.19768,-0.36302 -0.06599,-0.12154 -0.15858,-0.292 -0.20577,-0.37881 -0.09274,-0.17062 -0.39689,-0.73973 -0.46394,-0.8681 -0.05589,-0.10701 -0.05221,-0.21015 0.0083,-0.23338 0.02746,-0.0105 0.61427,-0.0192 1.304,-0.0192 0.9546,0 1.2664,0.009 1.3058,0.0395 0.02847,0.0217 0.11114,0.1531 0.1837,0.292 0.13424,0.25696 0.52799,1.0199 0.80648,1.5626 0.08464,0.16494 0.16454,0.30462 0.17756,0.31041 0.01302,0.006 0.02389,0.0271 0.02416,0.0473 2.52e-4,0.0203 0.0126,0.0559 0.02741,0.0793 0.02145,0.0338 0.05455,0.025 0.16277,-0.0433 0.07472,-0.0472 0.15117,-0.0986 0.16989,-0.11426 0.03994,-0.0335 0.23375,-0.16658 0.77587,-0.53296 0.21702,-0.14666 0.40169,-0.27537 0.41037,-0.28601 0.0087,-0.0106 0.07971,-0.0591 0.15784,-0.10769 0.07813,-0.0486 0.14916,-0.0974 0.15784,-0.10835 0.0087,-0.011 0.09391,-0.0688 0.1894,-0.12841 0.09549,-0.0596 0.18072,-0.11764 0.1894,-0.12893 0.0087,-0.0113 0.09586,-0.0715 0.19373,-0.13388 0.09787,-0.0624 0.19731,-0.13202 0.22097,-0.1548 0.02366,-0.0228 0.12115,-0.0904 0.21664,-0.15022 0.09549,-0.0598 0.18072,-0.11779 0.1894,-0.12878 0.0087,-0.011 0.07971,-0.0598 0.15784,-0.10835 0.07813,-0.0486 0.14916,-0.0981 0.15784,-0.11004 0.03939,-0.0541 0.25254,-0.0952 0.494,-0.0952 0.14499,0 0.26361,0.008 0.26361,0.0179 0,0.0613 -0.08716,0.15236 -0.24497,0.25579 -0.09965,0.0653 -0.18829,0.12778 -0.19697,0.13881 -0.0087,0.011 -0.07971,0.0598 -0.15784,0.1084 -0.07813,0.0486 -0.14916,0.0971 -0.15784,0.10782 -0.0087,0.0107 -0.1413,0.10446 -0.29471,0.20836 -0.15341,0.10389 -0.32387,0.22091 -0.37881,0.26004 -0.05494,0.0391 -0.1567,0.10872 -0.22615,0.15466 -0.06945,0.0459 -0.13337,0.0925 -0.14205,0.10352 -0.0087,0.011 -0.09391,0.0688 -0.1894,0.1284 -0.09549,0.0596 -0.18072,0.11765 -0.1894,0.12893 -0.0087,0.0113 -0.09586,0.0715 -0.19373,0.13389 -0.09787,0.0623 -0.19752,0.13171 -0.22144,0.15414 -0.02392,0.0224 -0.17113,0.126 -0.32713,0.23017 -0.156,0.10417 -0.29074,0.19793 -0.29942,0.20836 -0.0087,0.0104 -0.07971,0.0587 -0.15784,0.10731 -0.07813,0.0486 -0.14916,0.0973 -0.15784,0.10811 -0.0087,0.0109 -0.12232,0.0904 -0.25254,0.17679 -0.13022,0.0864 -0.24386,0.16558 -0.25254,0.176 -0.0087,0.0104 -0.07859,0.0583 -0.15536,0.10641 -0.07677,0.0481 -0.1549,0.0999 -0.17362,0.1152 -0.04418,0.036 -0.46838,0.33204 -0.65031,0.45383 -0.07774,0.052 -0.14845,0.10208 -0.15713,0.11121 -0.09425,0.0991 -0.20362,0.12563 -0.51864,0.12563 -0.31152,0 -0.33372,-0.004 -0.36913,-0.071 z"
         id="path349"
         inkscape:connector-curvature="0" />
      <path
         transform="matrix(0.26458,0,0,0.26458,0,201.75)"
         d="m 58.965,227.12 c -0.19359,-0.0519 -0.50647,-0.293 -0.62688,-0.48314 -0.16452,-0.25981 -0.22317,-0.7251 -0.13528,-1.0733 0.08157,-0.32315 0.23185,-0.69726 0.30434,-0.75762 0.01043,-0.009 0.05894,-0.0797 0.10781,-0.15783 0.07775,-0.1243 0.33184,-0.41593 0.45085,-0.51747 0.02254,-0.0192 0.06515,-0.0571 0.0947,-0.0842 0.32683,-0.29958 1.0308,-0.62267 1.5058,-0.69107 0.31339,-0.0451 3.3435,-0.0431 3.5556,0.002 0.53091,0.11386 0.84808,0.54765 0.84808,1.1599 0,0.19031 -0.04726,0.51165 -0.09116,0.61981 -0.07003,0.17253 -0.3008,0.618 -0.34635,0.66859 -0.02848,0.0316 -0.09009,0.10883 -0.13691,0.17155 -0.09621,0.12889 -0.47075,0.50147 -0.5041,0.50147 -0.012,0 -0.04059,0.0187 -0.06353,0.0415 -0.13836,0.13761 -0.52944,0.34511 -0.95716,0.50785 l -0.25254,0.0961 -1.8467,0.006 c -1.0157,0.003 -1.8736,-0.001 -1.9065,-0.0102 z m 2.8926,-0.7429 c 0.17707,-0.11511 0.46604,-0.45531 0.46604,-0.54867 0,-0.0241 0.01065,-0.044 0.02368,-0.0443 0.01302,-1.9e-4 0.05058,-0.0606 0.08346,-0.13416 0.03288,-0.0736 0.09446,-0.21192 0.13684,-0.30741 0.04238,-0.0955 0.10341,-0.23045 0.13563,-0.29989 0.19734,-0.42534 0.22931,-0.5188 0.24387,-0.71283 0.01483,-0.19763 0.01135,-0.21109 -0.07145,-0.27621 -0.08303,-0.0653 -0.1176,-0.0685 -0.75151,-0.0685 -0.60928,0 -0.67578,0.005 -0.80062,0.0659 -0.24079,0.11657 -0.44406,0.41718 -0.7452,1.1021 -0.02672,0.0608 -0.08382,0.18862 -0.12689,0.28411 -0.18434,0.40868 -0.25301,0.70227 -0.20496,0.87628 0.04927,0.17844 0.1385,0.19879 0.83025,0.18938 l 0.59978,-0.008 z"
         id="path351"
         inkscape:connector-curvature="0" />
      <path
         transform="matrix(0.26458,0,0,0.26458,0,201.75)"
         d="m 64.597,227.12 c 0,-0.0513 0.16059,-0.43935 0.34683,-0.83811 0.06756,-0.14466 0.24437,-0.53755 0.28412,-0.63135 0.01471,-0.0347 0.06237,-0.14126 0.1059,-0.23675 0.07062,-0.15491 0.12897,-0.28553 0.29612,-0.66291 0.02692,-0.0608 0.09672,-0.21402 0.15511,-0.34056 0.0584,-0.12653 0.10617,-0.23752 0.10617,-0.24663 0,-0.0151 0.05252,-0.13087 0.27437,-0.60466 0.04273,-0.0912 0.10408,-0.18003 0.13634,-0.19729 0.08275,-0.0443 2.1042,-0.0423 2.1316,0.002 0.02144,0.0347 -0.0047,0.11348 -0.13554,0.40847 -0.04235,0.0955 -0.0957,0.21624 -0.11854,0.26832 -0.13711,0.31261 -0.21546,0.48824 -0.26755,0.59978 -0.06823,0.14609 -0.21864,0.47994 -0.29867,0.66291 -0.03037,0.0695 -0.08223,0.18665 -0.11524,0.26043 -0.08955,0.2002 -0.17912,0.40199 -0.24523,0.55243 -0.03242,0.0738 -0.08091,0.18388 -0.10776,0.24465 -0.02685,0.0608 -0.08618,0.19571 -0.13185,0.29989 -0.04567,0.10417 -0.11607,0.25332 -0.15645,0.33145 l -0.07341,0.14206 -1.0932,0.008 c -0.69545,0.005 -1.0932,-0.003 -1.0932,-0.0225 z"
         id="path353"
         inkscape:connector-curvature="0" />
      <path
         transform="matrix(0.26458,0,0,0.26458,0,201.75)"
         d="m 67.375,227.1 c 0,-0.0269 0.01365,-0.0737 0.03034,-0.10379 0.01669,-0.0301 0.0664,-0.1365 0.11049,-0.23633 0.09655,-0.21867 0.22626,-0.50965 0.28495,-0.63924 0.02359,-0.0521 0.0807,-0.17993 0.1269,-0.2841 0.04621,-0.10417 0.11038,-0.24623 0.1426,-0.31567 0.03222,-0.0695 0.09617,-0.21151 0.1421,-0.31568 0.04594,-0.10417 0.10254,-0.23202 0.12579,-0.2841 0.02325,-0.0521 0.07669,-0.17283 0.11876,-0.26832 0.3807,-0.86411 0.57685,-1.2697 0.627,-1.2966 0.03801,-0.0203 0.93668,-0.0283 2.5447,-0.0225 2.3857,0.009 2.4917,0.0115 2.628,0.0706 0.07813,0.0339 0.15626,0.0723 0.17362,0.0852 0.36028,0.26904 0.52181,0.59032 0.51974,1.0337 -0.0029,0.62604 -0.31242,1.2514 -0.87645,1.7709 -0.27429,0.25267 -0.26846,0.24802 -0.48019,0.38298 -0.21962,0.13999 -0.4566,0.25379 -0.75724,0.36365 l -0.23676,0.0865 -2.6122,0.0108 c -2.3442,0.01 -2.6122,0.006 -2.6122,-0.0382 z m 4.0681,-0.69015 c 0.07587,-0.0493 0.1785,-0.13108 0.22807,-0.18179 0.14771,-0.1511 0.38295,-0.54379 0.52766,-0.88081 0.08784,-0.20459 0.22878,-0.53944 0.26573,-0.63135 0.01745,-0.0434 0.04613,-0.10656 0.06374,-0.14035 0.01761,-0.0338 0.03901,-0.14857 0.04756,-0.25508 0.01464,-0.18233 0.01046,-0.19764 -0.07152,-0.26213 -0.08355,-0.0657 -0.11612,-0.0685 -0.80654,-0.0685 h -0.71947 l -0.07696,0.16573 c -0.04233,0.0911 -0.12051,0.26517 -0.17373,0.3867 -0.08979,0.20502 -0.18154,0.40964 -0.34955,0.77956 -0.03702,0.0815 -0.06731,0.1557 -0.06731,0.16486 0,0.009 -0.03415,0.0916 -0.07588,0.18325 -0.04174,0.0916 -0.11332,0.25182 -0.15907,0.35599 -0.04575,0.10417 -0.09857,0.21684 -0.11737,0.25038 -0.0188,0.0335 -0.046,0.10217 -0.06044,0.15251 l -0.02625,0.0915 1.4334,-0.021 z"
         id="path355"
         inkscape:connector-curvature="0" />
    </g>
  </g>
</svg>
